<svg version="1.1" id="svg-vk" xmlns="http://www.w3.org/2000/svg" xmlns:xlink="http://www.w3.org/1999/xlink" x="0px" y="0px"
	 viewBox="13 386.9 400 228.2" style="enable-background:new 13 386.9 400 228.2;" xml:space="preserve">
<path d="M208.7,614.1h23.9c0,0,7.2-0.8,10.9-4.8c3.4-3.7,3.3-10.5,3.3-10.5s-0.5-32.1,14.4-36.8
	c14.7-4.7,33.5,31,53.5,44.7c15.1,10.4,26.6,8.1,26.6,8.1l53.4-0.7c0,0,27.9-1.7,14.7-23.7c-1.1-1.8-7.7-16.2-39.7-45.9
	c-33.5-31.1-29-26.1,11.3-79.8c24.6-32.8,34.4-52.7,31.3-61.3c-2.9-8.2-21-6-21-6l-60.1,0.4c0,0-4.5-0.6-7.8,1.4
	c-3.2,1.9-5.3,6.5-5.3,6.5s-9.5,25.3-22.2,46.9c-26.8,45.5-37.5,47.9-41.9,45.1c-10.2-6.6-7.6-26.4-7.6-40.5
	c0-44.1,6.7-62.5-13-67.2c-6.5-1.6-11.4-2.6-28.1-2.8c-21.5-0.2-39.6,0.1-49.9,5.1c-6.8,3.4-12.1,10.8-8.9,11.3
	c4,0.5,13,2.4,17.7,8.9c6.2,8.4,5.9,27.2,5.9,27.2s3.5,51.9-8.3,58.3c-8.1,4.4-19.2-4.6-43.1-45.9c-12.2-21.1-21.5-44.5-21.5-44.5
	s-1.8-4.4-5-6.7c-3.9-2.8-9.2-3.7-9.2-3.7L26,397.3c0,0-8.6,0.2-11.7,4c-2.8,3.3-0.2,10.2-0.2,10.2s44.7,104.7,95.4,157.4
	C156,617.3,208.7,614.1,208.7,614.1L208.7,614.1L208.7,614.1z"/>
</svg>
