<svg version="1.1" id="svg-yt" xmlns="http://www.w3.org/2000/svg" xmlns:xlink="http://www.w3.org/1999/xlink" x="0px" y="0px"
	 viewBox="-258.2 487.9 38.3 27" style="enable-background:new -258.2 487.9 38.3 27;" xml:space="preserve">
<g>
	<g transform="translate(-500.000000, -100.000000)">
	</g>
	<g transform="translate(10.000000, 16.000000)">
		<path d="M-230.2,477.8c0,0-0.4-2.6-1.5-3.8c-1.5-1.5-3.1-1.5-3.8-1.6c-5.4-0.4-13.4-0.4-13.4-0.4h0
			c0,0-8,0-13.4,0.4c-0.7,0.1-2.4,0.1-3.8,1.6c-1.2,1.2-1.5,3.8-1.5,3.8s-0.4,3.1-0.4,6.2v2.9c0,3.1,0.4,6.2,0.4,6.2
			s0.4,2.6,1.5,3.8c1.5,1.5,3.4,1.5,4.2,1.6c3.1,0.3,13,0.4,13,0.4s8.1,0,13.4-0.4c0.7-0.1,2.4-0.1,3.8-1.6c1.2-1.2,1.5-3.8,1.5-3.8
			s0.4-3.1,0.4-6.2V484C-229.8,480.9-230.2,477.8-230.2,477.8z M-253,490.4l0-10.8l10.4,5.4L-253,490.4z"/>
	</g>
</g>
</svg>
