<svg xmlns="http://www.w3.org/2000/svg">
<defs>
<font id="PermianSerifTypeface" horiz-adv-x="500" >
  <font-face 
    font-family="PermianSerifTypeface"
    font-weight="400"
    font-stretch="normal"
    units-per-em="1000"
    panose-1="2 0 0 0 0 0 0 0 0 0"
    ascent="750"
    descent="-250"
    x-height="500"
    cap-height="700"
    bbox="-113 -320 1320 1134"
    underline-thickness="50"
    underline-position="-100"
    stemh="52"
    stemv="93"
    unicode-range="U+0020-FFFD"
  />
<missing-glyph horiz-adv-x="634" 
d="M47 0l-23 22v489l23 22h490l22 -22v-490l-22 -21h-490zM55 51l21 -20h432l19 19v432l-19 20h-432l-21 -20v-431zM183 323v89c0 7 -1 14 -1 14l13 1v-7c5 5 13 7 21 7c20 0 29 -15 29 -32c0 -24 -14 -39 -35 -39c-5 0 -10 2 -15 4v-25c0 -5 1 -12 1 -12h-13zM143 357v7
c-6 -4 -14 -8 -23 -8c-15 0 -21 10 -21 23v36c0 5 -1 11 -1 11h14v-43c0 -10 3 -16 13 -16c7 0 13 2 17 5v54h13v-54c0 -7 1 -14 1 -14zM496 331l-4 -8c-26 10 -39 39 -39 69c0 29 12 58 39 70l4 -9c-20 -10 -31 -34 -31 -60c0 -27 12 -53 31 -62zM261 359l1 11
c8 0 14 -3 22 -3c9 0 13 3 13 8c0 6 -5 8 -16 12c-13 4 -19 11 -19 21c0 12 9 19 22 19c9 0 14 -2 21 -2l-1 -11c-9 0 -13 3 -21 3c-6 0 -10 -4 -10 -8c0 -6 4 -8 17 -12c12 -5 18 -10 18 -21c0 -12 -9 -20 -24 -20c-9 0 -15 2 -23 3zM195 412v-41c4 -2 9 -5 16 -5
c14 0 21 11 21 25c0 16 -6 25 -19 25c-7 0 -13 -1 -18 -4zM298 102c0 -1 -1 -2 -1 -3c0 -2 1 -2 3 -2l7 -1c7 0 11 -3 11 -9c0 -7 -6 -11 -15 -11c-8 0 -15 2 -15 9c0 4 3 7 6 8c-1 1 -2 2 -2 4s2 4 3 6c-4 1 -6 5 -6 9c0 7 5 13 14 13c3 0 5 -1 7 -2c2 2 6 3 10 3v-5
c-3 0 -5 0 -8 -1c2 -1 4 -4 4 -7c0 -6 -5 -12 -14 -12c-2 0 -3 0 -4 1zM378 77v40c0 4 -1 7 -1 7h6v-3c3 2 6 4 10 4c9 0 13 -7 13 -15c0 -12 -6 -18 -16 -18c-2 0 -5 0 -7 2v-12c0 -2 1 -5 1 -5h-6zM212 192v11c0 3 -1 6 -1 6l6 1v-41c0 -4 1 -7 1 -7h-6v3
c-2 -2 -5 -4 -9 -4c-9 0 -14 7 -14 16c0 11 6 17 15 17c4 0 6 -1 8 -2zM238 246c0 11 6 18 16 18c9 0 15 -6 15 -15c0 -11 -7 -18 -16 -18c-10 0 -15 6 -15 15zM228 176c0 12 6 18 16 18c9 0 14 -6 14 -15c0 -11 -6 -18 -16 -18c-9 0 -14 7 -14 15zM130 181l-7 -19h-6l-5 19

<glyph glyph-name="fi" unicode="fi" horiz-adv-x="666" 
d="M538 505l20 -5v-457l80 -22v-21h-253v21l80 22v409l-258 1v-410l100 -22v-21h-273v21l80 22v412l-66 3v42h66v49c0 114 49 211 187 211c53 0 83 -12 129 -20l-19 -81c-65 11 -91 49 -134 49c-48 0 -70 -38 -70 -101v-107zM509 627c-34 0 -59 23 -59 57c0 35 27 56 64 56
c36 0 58 -21 58 -54c0 -37 -25 -59 -63 -59z" />
    <glyph glyph-name="fl" unicode="fl" horiz-adv-x="670" 
d="M469 42v497c0 87 10 135 10 135s-24 -20 -70 -20c-57 0 -84 54 -132 54s-70 -38 -70 -101v-107h161v-52l-161 5v-410l100 -22v-21h-273v21l80 22v412l-66 3v42h66v49c0 114 49 211 176 211c59 0 94 -22 159 -22c31 0 64 9 93 23l20 -5v-714l80 -21v-21h-253v21z" />
    <glyph glyph-name="f_b" unicode="fb" horiz-adv-x="958" 
d="M469 30v509c0 87 10 135 10 135s-24 -20 -70 -20c-57 0 -84 54 -132 54s-70 -38 -70 -101v-107h161v-52l-161 5v-410l100 -22v-21h-273v21l80 22v412l-66 3v42h66v49c0 114 49 211 176 211c59 0 94 -22 159 -22c31 0 64 9 93 23l20 -5l-2 -315c35 34 90 69 159 69
c131 0 188 -119 188 -233c0 -175 -84 -287 -259 -287c-67 0 -138 16 -179 40zM652 40c113 0 158 99 158 200c0 122 -35 196 -133 196c-45 0 -87 -15 -119 -35c0 0 4 -51 4 -100v-236s37 -25 90 -25z" />
    <glyph glyph-name="f_h" unicode="fh" horiz-adv-x="982" 
d="M469 43v496c0 87 10 135 10 135s-24 -20 -70 -20c-57 0 -84 54 -132 54s-70 -38 -70 -101v-107h161v-52l-161 5v-410l100 -22v-21h-273v21l80 22v412l-66 3v42h66v49c0 114 49 211 176 211c59 0 94 -22 159 -22c31 0 64 9 93 23l20 -5l-4 -315c45 35 99 69 162 69
c105 0 161 -73 161 -179v-288l80 -22v-21h-243v21l70 22v265c0 83 -31 128 -103 128s-127 -34 -127 -34s4 -41 4 -95v-264l70 -22v-21h-243v21z" />
    <glyph glyph-name="f_k" unicode="fk" horiz-adv-x="945" 
d="M469 43v496c0 87 10 135 10 135s-24 -20 -70 -20c-57 0 -84 54 -132 54s-70 -38 -70 -101v-107h161v-52l-161 5v-410l100 -22v-21h-273v21l80 22v412l-66 3v42h66v49c0 114 49 211 176 211c59 0 94 -22 159 -22c31 0 64 9 93 23l20 -5v-472h74l126 175l-58 20v21h205v-21
c-42 -8 -72 -20 -89 -40l-130 -151l197 -236c16 -19 27 -27 52 -31v-21h-62c-58 0 -82 19 -109 53l-150 185h-56v-195l70 -22v-21h-243v21z" />
    <glyph glyph-name="f_f" unicode="ff" horiz-adv-x="747" 
d="M636 708c-48 0 -70 -38 -70 -101v-107h161v-52l-161 5v-410l100 -22v-21h-273v21l80 22v412l-266 1v-413l100 -22v-21h-273v21l80 22v412l-66 3v42h66v39c0 114 49 211 187 211c60 0 99 -16 141 -22l-20 -84c-69 9 -102 54 -145 54c-48 0 -70 -38 -70 -101v-97h266v49
c0 114 49 211 187 211c60 0 99 -16 141 -22l-20 -84c-69 9 -102 54 -145 54z" />
    <glyph glyph-name="f_f_b" unicode="ffb" horiz-adv-x="1317" 
d="M828 30v509c0 87 10 135 10 135s-24 -20 -70 -20c-57 0 -84 54 -132 54s-70 -38 -70 -101v-107h161v-52l-161 5v-410l100 -22v-21h-273v21l80 22v410l-266 3v-413l100 -22v-21h-273v21l80 22v412l-66 3v42h66v39c0 114 49 211 187 211c60 0 99 -16 141 -22l-20 -84
c-69 9 -102 54 -145 54c-48 0 -70 -38 -70 -101v-97h266v49c0 114 49 211 176 211c59 0 94 -22 159 -22c31 0 64 9 93 23l20 -5l-2 -315c35 34 90 69 159 69c131 0 188 -119 188 -233c0 -175 -84 -287 -259 -287c-67 0 -138 16 -179 40zM1011 40c113 0 158 99 158 200
c0 122 -35 196 -133 196c-45 0 -87 -15 -119 -35c0 0 4 -51 4 -100v-236s37 -25 90 -25z" />
    <glyph glyph-name="f_f_h" unicode="ffh" horiz-adv-x="1341" 
d="M828 43v496c0 87 10 135 10 135s-24 -20 -70 -20c-57 0 -84 54 -132 54s-70 -38 -70 -101v-107h161v-52l-161 5v-410l100 -22v-21h-273v21l80 22v409l-266 4v-413l100 -22v-21h-273v21l80 22v412l-66 3v42h66v39c0 114 49 211 187 211c60 0 99 -16 141 -22l-20 -84
c-69 9 -102 54 -145 54c-48 0 -70 -38 -70 -101v-97h266v49c0 114 49 211 176 211c59 0 94 -22 159 -22c31 0 64 9 93 23l20 -5l-4 -315c45 35 99 69 162 69c105 0 161 -73 161 -179v-288l80 -22v-21h-243v21l70 22v265c0 83 -31 128 -103 128s-127 -34 -127 -34
s4 -41 4 -95v-264l70 -22v-21h-243v21z" />
    <glyph glyph-name="f_f_i" unicode="ffi" horiz-adv-x="1025" 
d="M277 698c-48 0 -70 -38 -70 -101v-97h266v49c0 114 49 211 187 211c53 0 83 -12 129 -20l-19 -81c-65 11 -91 49 -134 49c-48 0 -70 -38 -70 -101v-107l331 5l20 -5v-457l80 -22v-21h-253v21l80 22v409l-258 1v-410l100 -22v-21h-273v21l80 22v412l-266 1v-413l100 -22
v-21h-273v21l80 22v412l-66 3v42h66v39c0 114 49 211 187 211c60 0 99 -16 141 -22l-20 -84c-69 9 -102 54 -145 54zM868 627c-34 0 -59 23 -59 57c0 35 27 56 64 56c36 0 58 -21 58 -54c0 -37 -25 -59 -63 -59z" />
    <glyph glyph-name="f_f_j" unicode="ffj" horiz-adv-x="1007" 
d="M277 698c-48 0 -70 -38 -70 -101v-97h266v49c0 114 49 211 187 211c53 0 83 -12 129 -20l-19 -81c-65 11 -91 49 -134 49c-48 0 -70 -38 -70 -101v-107l331 5l20 -5v-483c0 -129 -81 -215 -156 -274l-20 20c62 64 83 146 83 242v451h-258v-413l100 -22v-21h-273v21l80 22
v412l-22 1h-244v-413l100 -22v-21h-273v21l80 22v412l-66 3v42h66v39c0 114 49 211 187 211c60 0 99 -16 141 -22l-20 -84c-69 9 -102 54 -145 54zM868 627c-34 0 -59 23 -59 57c0 35 27 56 64 56c36 0 58 -21 58 -54c0 -37 -25 -59 -63 -59z" />
    <glyph glyph-name="f_f_k" unicode="ffk" horiz-adv-x="1304" 
d="M828 43v496c0 87 10 135 10 135s-24 -20 -70 -20c-57 0 -84 54 -132 54s-70 -38 -70 -101v-107h161v-52l-161 5v-410l100 -22v-21h-273v21l80 22v409l-266 4v-413l100 -22v-21h-273v21l80 22v412l-66 3v42h66v39c0 114 49 211 187 211c60 0 99 -16 141 -22l-20 -84
c-69 9 -102 54 -145 54c-48 0 -70 -38 -70 -101v-97h266v49c0 114 49 211 176 211c59 0 94 -22 159 -22c31 0 64 9 93 23l20 -5v-472h74l126 175l-58 20v21h205v-21c-42 -8 -72 -20 -89 -40l-130 -151l197 -236c16 -19 27 -27 52 -31v-21h-62c-58 0 -82 19 -109 53l-150 185
h-56v-195l70 -22v-21h-243v21z" />
    <glyph glyph-name="f_f_l" unicode="ffl" horiz-adv-x="1029" 
d="M828 42v497c0 87 10 135 10 135s-24 -20 -70 -20c-57 0 -84 54 -132 54s-70 -38 -70 -101v-107h161v-52l-161 5v-410l100 -22v-21h-273v21l80 22v409l-266 4v-413l100 -22v-21h-273v21l80 22v412l-66 3v42h66v39c0 114 49 211 187 211c60 0 99 -16 141 -22l-20 -84
c-69 9 -102 54 -145 54c-48 0 -70 -38 -70 -101v-97h266v49c0 114 49 211 176 211c59 0 94 -22 159 -22c31 0 64 9 93 23l20 -5v-714l80 -21v-21h-253v21z" />
    <glyph glyph-name="f_j" unicode="fj" horiz-adv-x="648" 
d="M538 505l20 -5v-483c0 -129 -81 -215 -156 -274l-20 20c62 64 83 146 83 242v447l-258 1v-410l100 -22v-21h-273v21l80 22v412l-66 3v42h66v49c0 114 49 211 187 211c60 0 87 -14 129 -20l-19 -81c-63 9 -91 49 -134 49c-48 0 -70 -38 -70 -101v-107zM509 627
c-34 0 -59 23 -59 57c0 35 27 56 64 56c36 0 58 -21 58 -54c0 -37 -25 -59 -63 -59z" />
    <glyph glyph-name=".notdef" horiz-adv-x="634" 
d="M47 0l-23 22v489l23 22h490l22 -22v-490l-22 -21h-490zM55 51l21 -20h432l19 19v432l-19 20h-432l-21 -20v-431zM183 323v89c0 7 -1 14 -1 14l13 1v-7c5 5 13 7 21 7c20 0 29 -15 29 -32c0 -24 -14 -39 -35 -39c-5 0 -10 2 -15 4v-25c0 -5 1 -12 1 -12h-13zM143 357v7
c-6 -4 -14 -8 -23 -8c-15 0 -21 10 -21 23v36c0 5 -1 11 -1 11h14v-43c0 -10 3 -16 13 -16c7 0 13 2 17 5v54h13v-54c0 -7 1 -14 1 -14zM496 331l-4 -8c-26 10 -39 39 -39 69c0 29 12 58 39 70l4 -9c-20 -10 -31 -34 -31 -60c0 -27 12 -53 31 -62zM261 359l1 11
c8 0 14 -3 22 -3c9 0 13 3 13 8c0 6 -5 8 -16 12c-13 4 -19 11 -19 21c0 12 9 19 22 19c9 0 14 -2 21 -2l-1 -11c-9 0 -13 3 -21 3c-6 0 -10 -4 -10 -8c0 -6 4 -8 17 -12c12 -5 18 -10 18 -21c0 -12 -9 -20 -24 -20c-9 0 -15 2 -23 3zM195 412v-41c4 -2 9 -5 16 -5
c14 0 21 11 21 25c0 16 -6 25 -19 25c-7 0 -13 -1 -18 -4zM298 102c0 -1 -1 -2 -1 -3c0 -2 1 -2 3 -2l7 -1c7 0 11 -3 11 -9c0 -7 -6 -11 -15 -11c-8 0 -15 2 -15 9c0 4 3 7 6 8c-1 1 -2 2 -2 4s2 4 3 6c-4 1 -6 5 -6 9c0 7 5 13 14 13c3 0 5 -1 7 -2c2 2 6 3 10 3v-5
c-3 0 -5 0 -8 -1c2 -1 4 -4 4 -7c0 -6 -5 -12 -14 -12c-2 0 -3 0 -4 1zM378 77v40c0 4 -1 7 -1 7h6v-3c3 2 6 4 10 4c9 0 13 -7 13 -15c0 -12 -6 -18 -16 -18c-2 0 -5 0 -7 2v-12c0 -2 1 -5 1 -5h-6zM212 192v11c0 3 -1 6 -1 6l6 1v-41c0 -4 1 -7 1 -7h-6v3
c-2 -2 -5 -4 -9 -4c-9 0 -14 7 -14 16c0 11 6 17 15 17c4 0 6 -1 8 -2zM238 246c0 11 6 18 16 18c9 0 15 -6 15 -15c0 -11 -7 -18 -16 -18c-10 0 -15 6 -15 15zM228 176c0 12 6 18 16 18c9 0 14 -6 14 -15c0 -11 -6 -18 -16 -18c-9 0 -14 7 -14 15zM130 181l-7 -19h-6l-5 19
c-1 3 -1 7 -1 7h-1s0 -4 -1 -7l-5 -19h-6l-8 25c-1 4 -2 7 -2 7h6l5 -19c2 -4 2 -8 2 -8l5 20c1 2 2 7 2 7h6l5 -18c1 -5 2 -9 2 -9s1 4 2 9l3 8l2 10h5c0 -5 -1 -8 -3 -13zM427 168v-5s-2 -2 -5 -2s-5 2 -5 4c-3 -2 -6 -4 -10 -4c-6 0 -9 4 -9 9s3 8 10 9c3 1 7 1 9 1v2
c0 6 -3 7 -8 7s-9 -1 -9 -1v4s4 2 10 2c9 0 13 -3 13 -11c0 -4 -1 -11 -1 -15c0 -1 1 -2 2 -2s3 2 3 2zM167 178h-22c0 -7 4 -12 11 -12c4 0 9 2 9 2v-4s-4 -3 -11 -3c-10 0 -15 7 -15 16c0 11 6 17 15 17c10 0 14 -7 13 -16zM265 114v-16c0 -3 1 -6 1 -6h-7v20
c0 5 -1 7 -6 7c-3 0 -6 0 -8 -2v-25h-6v48h6v-19c3 2 7 4 11 4c7 0 9 -5 9 -11zM492 178h-22c1 -7 4 -12 12 -12c4 0 8 2 8 2v-4s-4 -3 -10 -3c-10 0 -16 7 -16 16c0 11 7 17 16 17s13 -7 12 -16zM389 184v-22h-6v20c0 5 -1 7 -6 7c-3 0 -6 -1 -8 -2v-25h-6v47l6 1v-20
c3 3 7 4 11 4c7 0 9 -4 9 -10zM442 114v-16c0 -3 1 -6 1 -6h-6v20c0 5 -2 7 -7 7c-3 0 -6 0 -8 -2v-19c0 -3 1 -6 1 -6h-7v48h6v-19c3 2 7 4 11 4c7 0 9 -5 9 -11zM190 92v3c-3 -2 -6 -3 -10 -3c-8 0 -10 4 -10 10v17c0 2 -1 5 -1 5h7v-20c0 -5 1 -7 6 -7c3 0 6 1 8 2v25h6
v-32h-6zM294 184v-17c0 -2 1 -5 1 -5h-7v20c0 5 -1 7 -6 7c-3 0 -6 -1 -8 -2v-25h-6v32h6v-4c3 3 6 4 10 4c8 0 10 -4 10 -10zM353 76l-6 1s1 4 5 14l1 1l-9 25c-2 4 -3 7 -3 7h7l6 -18l2 -8s1 4 3 8l2 6l3 12h5c0 -4 -2 -9 -3 -13l-8 -19c-4 -11 -5 -16 -5 -16zM341 216h-5
s0 4 5 14v2l-9 25c-1 4 -3 6 -3 6l7 1l6 -19l2 -8s1 4 3 9l2 6c2 6 3 8 3 11h6c-1 -3 -2 -8 -4 -12l-8 -20c-4 -10 -5 -15 -5 -15zM393 385v10h40v-10h-40zM244 249c0 -9 4 -13 10 -13c5 0 9 5 9 10c0 9 -4 14 -10 14c-5 0 -9 -5 -9 -11zM234 179c0 -9 3 -13 10 -13
c5 0 8 5 8 11c0 8 -3 13 -9 13s-9 -5 -9 -11zM212 168v19c-2 2 -4 3 -7 3c-7 0 -10 -5 -10 -12s3 -12 9 -12c3 0 6 1 8 2zM208 232l1 6c3 -1 6 -2 10 -2s6 1 6 4s-2 4 -7 5c-6 2 -9 5 -9 10c0 6 4 9 10 9c4 0 6 -1 10 -1l-1 -5c-4 0 -6 1 -9 1s-5 -1 -5 -4c0 -2 2 -3 8 -5
c5 -2 8 -5 8 -10s-4 -9 -11 -9c-4 0 -7 1 -11 1zM139 93v5c4 0 7 -1 10 -1c4 0 7 1 7 3c0 3 -3 4 -8 6c-6 2 -9 5 -9 10s4 9 10 9c5 0 7 -2 10 -2l-1 -5c-4 0 -5 2 -9 2c-3 0 -5 -2 -5 -4c0 -3 2 -4 8 -6c5 -2 9 -4 9 -9c0 -6 -5 -9 -12 -9c-4 0 -7 1 -10 1zM383 117v-18
c2 -2 4 -3 8 -3c6 0 9 5 9 12s-3 11 -9 11c-2 0 -6 0 -8 -2zM456 183l-8 -21h-6l-9 25c-2 4 -3 7 -3 7h7l6 -19c2 -4 2 -8 2 -8h1s0 4 2 8l3 10c1 3 2 5 2 9h6zM212 109c0 -7 3 -12 10 -12c4 0 8 1 8 1v-4s-4 -2 -9 -2c-10 0 -15 6 -15 15c0 10 6 18 15 18c3 0 5 -2 9 -2
l-1 -5c-3 0 -6 2 -9 2c-5 0 -8 -5 -8 -11zM323 189h-4v4l4 1l3 7h2v-7h12v-5h-12v-17c0 -4 2 -6 6 -6c3 0 6 1 6 1v-4s-3 -2 -7 -2c-7 0 -10 4 -10 11v17zM285 232h-7v31l6 1v-5c2 2 5 5 8 5s5 -2 8 -3l-2 -5c-3 1 -5 3 -7 3c-3 0 -5 -2 -7 -4v-18c0 -2 1 -5 1 -5zM313 232
h-7v31l6 1v-5c2 2 5 5 8 5s5 -2 8 -3l-3 -5c-2 1 -4 3 -6 3c-3 0 -5 -2 -7 -4v-18c0 -2 1 -5 1 -5zM357 412c0 6 4 9 10 9c5 0 8 -3 8 -8c0 -6 -4 -9 -9 -9c-6 0 -9 3 -9 8zM357 364c0 6 4 9 10 9c5 0 8 -3 8 -9c0 -5 -4 -8 -9 -8c-6 0 -9 3 -9 8zM328 92v41c0 3 -1 7 -1 7
h6v-42c0 -3 1 -6 1 -6h-6zM296 92c-1 -2 -2 -3 -2 -5c0 -4 3 -7 10 -7c5 0 9 2 9 6c0 3 -2 5 -6 5h-7c-2 0 -3 1 -4 1zM295 113c0 -5 3 -7 8 -7c4 0 7 2 7 7s-3 7 -8 7c-4 0 -7 -3 -7 -7zM416 169c0 2 1 5 1 8c-2 0 -5 0 -7 -1c-5 -1 -6 -3 -6 -6c0 -2 2 -4 5 -4s6 2 7 3z
M145 182h16c0 4 -2 8 -7 8s-8 -3 -9 -8zM470 182h16c0 4 -2 8 -7 8s-8 -3 -9 -8zM367 220l-2 2c2 2 4 5 4 9c-2 0 -4 1 -4 4c0 2 1 4 4 4s4 -2 4 -5c0 -5 -2 -11 -6 -14zM306 188l-2 2c2 3 4 6 4 9c-2 0 -4 2 -4 4c0 3 2 4 4 4c3 0 4 -2 4 -5c0 -5 -2 -10 -6 -14z" />
    <glyph glyph-name="e" unicode="e" horiz-adv-x="521" 
d="M472 257h-327c3 -119 70 -205 179 -205c68 0 128 24 128 24v-34s-64 -52 -168 -52c-144 0 -234 105 -234 251c0 166 105 269 231 269c139 0 205 -91 191 -253zM277 459c-73 0 -121 -60 -130 -155l234 6c-1 79 -18 149 -104 149z" />
    <glyph glyph-name="n" unicode="n" horiz-adv-x="632" 
d="M530 331v-289l80 -11v-31h-243v31l70 11v266c0 83 -31 128 -103 128s-127 -34 -127 -34s4 -41 4 -95v-265l70 -11v-31h-243v31l80 11v409l-81 8v31l154 15l20 -5l-4 -59c45 35 99 69 162 69c105 0 161 -73 161 -179z" />
    <glyph glyph-name="m" unicode="m" horiz-adv-x="921" 
d="M514 342v-299l70 -12v-31h-233v31l70 12v271c0 73 -29 121 -103 121c-40 0 -76 -15 -111 -33c0 0 4 -54 4 -101v-258l70 -12v-31h-243v31l80 12v408l-81 8v31l154 15l20 -5l-4 -59c43 35 102 69 168 69c57 0 100 -27 122 -76c39 38 95 76 169 76c99 0 152 -69 152 -175
v-292l80 -12v-31h-243v31l70 12v277c0 72 -35 115 -101 115c-45 0 -79 -15 -115 -33c3 -17 5 -41 5 -60z" />
    <glyph glyph-name="h" unicode="h" horiz-adv-x="623" 
d="M202 756l-4 -315c45 35 99 69 162 69c105 0 161 -73 161 -179v-288l80 -12v-31h-243v31l70 12v265c0 83 -31 128 -103 128s-127 -34 -127 -34s4 -41 4 -95v-264l70 -12v-31h-243v31l80 12v664l-81 8v31l154 15z" />
    <glyph glyph-name="i" unicode="i" horiz-adv-x="320" 
d="M162 627c-34 0 -59 23 -59 57c0 35 27 56 64 56c36 0 58 -21 58 -54c0 -37 -25 -59 -63 -59zM191 505l20 -5v-457l80 -12v-31h-253v31l80 12v409l-81 8v31z" />
    <glyph glyph-name="r" unicode="r" horiz-adv-x="463" 
d="M207 397c0 0 4 -46 4 -100v-254l100 -12v-31h-273v31l80 12v409l-81 8v31l154 14l20 -5l-4 -67c35 35 83 77 133 77c51 0 70 -33 111 -50l-39 -73c-43 18 -61 47 -105 47c-34 0 -71 -17 -100 -37z" />
    <glyph glyph-name="o" unicode="o" horiz-adv-x="574" 
d="M286 39c104 0 143 87 143 210c0 129 -53 212 -141 212c-104 0 -143 -87 -143 -210c0 -129 53 -212 141 -212zM274 -10c-140 0 -224 101 -224 249c0 154 84 271 250 271c140 0 224 -101 224 -249c0 -154 -84 -271 -250 -271z" />
    <glyph glyph-name="c" unicode="c" horiz-adv-x="475" 
d="M271 458c-85 0 -126 -104 -126 -191c0 -124 57 -215 162 -215c72 0 125 24 125 24v-34s-58 -52 -158 -52c-144 0 -224 105 -224 251c0 154 101 269 250 269c62 0 91 -17 138 -22l-20 -81c-58 8 -94 51 -147 51z" />
    <glyph glyph-name="y" unicode="y" horiz-adv-x="574" 
d="M164 -250c0 0 32 119 98 232l-193 474l-65 13v31h233v-31l-65 -13l97 -263c22 -61 36 -116 36 -116h4s14 53 34 113l90 266l-75 13v31h212v-31l-69 -13l-172 -457c-53 -141 -71 -254 -71 -254z" />
    <glyph glyph-name="u" unicode="u" horiz-adv-x="620" 
d="M514 441v-358c0 -25 7 -43 37 -43h31v-27s-31 -23 -76 -23c-41 0 -74 20 -82 69c-44 -36 -98 -69 -167 -69c-95 0 -155 73 -155 179v282l-81 8v31l158 15l20 -5l-4 -29v-291c0 -58 25 -116 103 -116c51 0 91 16 127 34c0 0 -4 52 -4 101v252l-81 8v31l158 15l20 -5z" />
    <glyph glyph-name="t" unicode="t" horiz-adv-x="384" 
d="M34 455v22l64 23l73 116h21l-1 -116h170v-55l-170 8v-305c0 -63 23 -96 77 -96c52 0 94 19 94 19v-37s-53 -44 -131 -44c-79 0 -132 45 -132 157v226c0 29 2 69 4 81z" />
    <glyph glyph-name="f" unicode="f" horiz-adv-x="394" 
d="M282 708c-48 0 -70 -38 -70 -101v-107h161v-52l-161 5v-410l100 -12v-31h-273v31l80 12v412l-80 3v42h80v49c0 114 49 211 187 211c60 0 99 -16 141 -22l-20 -84c-69 9 -102 54 -145 54z" />
    <glyph glyph-name="p" unicode="p" horiz-adv-x="597" 
d="M28 -251v31l80 11v661l-81 8v31l154 14l20 -5l-3 -59c37 33 90 69 158 69c127 0 190 -110 190 -233c0 -180 -94 -287 -244 -287c-65 0 -101 27 -101 27v-226l80 -11v-31h-253zM291 45c102 0 158 76 158 195c0 127 -38 196 -133 196c-44 0 -87 -14 -119 -35
c1 -9 4 -51 4 -100v-232s36 -24 90 -24z" />
    <glyph glyph-name="space" unicode=" " horiz-adv-x="235" 
 />
    <glyph glyph-name="b" unicode="b" horiz-adv-x="575" 
d="M336 510c131 0 188 -119 188 -233c0 -175 -84 -287 -259 -287c-67 0 -138 16 -179 40v677l-81 8v31l154 15l20 -5l-2 -315c35 34 90 69 159 69zM269 40c113 0 158 99 158 200c0 122 -35 196 -133 196c-45 0 -87 -15 -119 -35c0 0 4 -51 4 -100v-236s37 -25 90 -25z" />
    <glyph glyph-name="T" unicode="T" horiz-adv-x="622" 
d="M33 700h573l-21 -184h-37l-7 126l-176 9v-607l80 -13v-31h-258v31l80 13v607l-169 -9l-37 -126h-37z" />
    <glyph glyph-name="H" unicode="H" horiz-adv-x="804" 
d="M677 44l80 -13v-31h-258v31l80 13v291h-354v-291l80 -13v-31h-258v31l80 13v612l-80 13v31h258v-31l-80 -13v-271h354v271l-80 13v31h258v-31l-80 -13v-612z" />
    <glyph glyph-name="s" unicode="s" horiz-adv-x="436" 
d="M232 42c52 0 86 27 86 65c0 115 -264 84 -264 264c0 85 74 139 173 139c63 0 110 -16 152 -22l-20 -84c-69 9 -101 54 -161 54c-46 0 -68 -26 -68 -59c0 -127 260 -87 260 -269c0 -95 -85 -140 -174 -140c-80 0 -130 16 -172 22l20 84c69 -9 104 -54 168 -54z" />
    <glyph glyph-name="P" unicode="P" horiz-adv-x="595" 
d="M225 277v-233l101 -13v-31h-279v31l80 13v612l-80 13v31h250c173 0 263 -70 263 -207c0 -130 -105 -216 -253 -216h-82zM225 327h82c97 0 153 63 153 161c0 91 -51 162 -177 162h-58v-323z" />
    <glyph glyph-name="B" unicode="B" horiz-adv-x="632" 
d="M225 50h100c104 0 160 63 160 149c0 78 -53 141 -154 141h-106v-290zM450 515c0 68 -37 135 -152 135h-73v-260h146c51 17 79 67 79 125zM327 0h-280v31l80 13v612l-80 13v31h258c165 0 245 -72 245 -171c0 -74 -50 -136 -118 -158v-3c82 -17 153 -83 153 -169
c0 -127 -103 -199 -258 -199z" />
    <glyph glyph-name="E" unicode="E" horiz-adv-x="600" 
d="M225 333v-283l264 4l27 119h37l-4 -173h-502v31l80 13v612l-80 13v31h492l-6 -170h-41l-13 114l-254 6v-267l234 6v-61z" />
    <glyph glyph-name="F" unicode="F" horiz-adv-x="566" 
d="M479 644l-254 6v-287l234 6v-61l-234 4v-268l91 -13v-31h-269v31l80 13v612l-80 13v31h492l-6 -170h-41z" />
    <glyph glyph-name="L" unicode="L" horiz-adv-x="581" 
d="M225 656v-606l264 4l29 149h37l-6 -203h-502v31l80 13v612l-80 13v31h258v-31z" />
    <glyph glyph-name="I" unicode="I" horiz-adv-x="352" 
d="M225 656v-612l80 -13v-31h-258v31l80 13v612l-80 13v31h258v-31z" />
    <glyph glyph-name="g" unicode="g" horiz-adv-x="555" 
d="M42 -117c0 58 37 102 88 128c-15 13 -25 32 -25 61c0 33 26 71 57 88c-72 27 -109 87 -109 160c0 119 79 190 216 190c50 0 86 -14 103 -23l165 15l-3 -59l-100 -2c21 -25 38 -61 38 -105c0 -103 -79 -190 -221 -190c-18 0 -35 2 -50 4c-36 -32 -21 -78 33 -81l118 -7
c98 -6 158 -57 158 -143c0 -106 -106 -181 -236 -183c-129 -2 -232 44 -232 147zM229 -16c-24 2 -48 5 -69 12c-21 -23 -34 -48 -34 -82c0 -63 60 -118 159 -118c102 0 156 35 156 96c0 55 -42 83 -103 86zM257 457c-73 0 -109 -54 -109 -118c0 -86 38 -140 120 -140
c67 0 109 53 109 123c0 86 -39 135 -120 135z" />
    <glyph glyph-name="l" unicode="l" horiz-adv-x="311" 
d="M109 42v663l-81 10v31l154 15l20 -5v-714l80 -11v-31h-253v31z" />
    <glyph glyph-name="d" unicode="d" horiz-adv-x="595" 
d="M305 455c-102 0 -158 -76 -158 -195c0 -114 47 -196 141 -196c36 0 79 14 111 35c-1 9 -4 51 -4 100v232s-36 24 -90 24zM488 756v-673c0 -25 7 -43 37 -43h31v-27s-31 -23 -76 -23c-41 0 -74 20 -82 69c-37 -33 -79 -69 -158 -69c-116 0 -190 110 -190 233
c0 180 94 287 244 287c65 0 101 -27 101 -27v224l-81 8v31l154 15z" />
    <glyph glyph-name="N" unicode="N" horiz-adv-x="766" 
d="M587 234v417l-80 18v31h218v-31l-80 -18v-651l-54 -4l-358 488c-29 39 -52 79 -52 79l-3 -1s5 -44 5 -90v-425l80 -16v-31h-218v31l80 16v563l-46 53v37l110 4l349 -480c25 -34 49 -78 49 -78l4 1s-4 46 -4 87z" />
    <glyph glyph-name="R" unicode="R" horiz-adv-x="656" 
d="M225 287v-243l101 -13v-31h-279v31l80 13v612l-80 13v31h270c173 0 263 -76 263 -202c0 -95 -59 -167 -161 -195l168 -230c25 -34 34 -38 72 -44v-29s-29 -9 -65 -9c-59 0 -74 11 -117 74l-147 222h-105zM225 337h102c97 0 153 64 153 160c0 82 -51 153 -177 153h-78
v-313z" />
    <glyph glyph-name="O" unicode="O" horiz-adv-x="769" 
d="M399 33c143 0 215 133 215 296c0 166 -87 338 -246 338c-141 0 -213 -133 -213 -303c0 -159 87 -331 244 -331zM373 -14c-191 0 -320 151 -320 361c0 179 104 367 343 367c191 0 320 -151 320 -361c0 -179 -104 -367 -343 -367z" />
    <glyph glyph-name="Q" unicode="Q" horiz-adv-x="770" 
d="M374 -14c-191 0 -321 151 -321 361c0 179 105 367 344 367c191 0 320 -151 320 -361c0 -137 -63 -279 -197 -338c17 -11 37 -26 55 -48l91 -109c22 -26 32 -30 57 -33v-31h-57c-61 0 -73 8 -109 53l-116 145c-21 -4 -44 -6 -67 -6zM400 33c143 0 215 133 215 287
c0 175 -87 347 -246 347c-141 0 -214 -133 -214 -287c0 -175 88 -347 245 -347z" />
    <glyph glyph-name="j" unicode="j" horiz-adv-x="291" 
d="M181 505l20 -5v-483c0 -129 -81 -215 -156 -274l-20 20c62 64 83 146 83 242v447l-81 8v31zM152 627c-34 0 -59 23 -59 57c0 35 27 56 64 56c36 0 58 -21 58 -54c0 -37 -25 -59 -63 -59z" />
    <glyph glyph-name="k" unicode="k" horiz-adv-x="589" 
d="M109 43v662l-81 10v31l154 15l20 -5v-472h74l126 175l-58 10v31h205v-31l-71 -10l-148 -171l188 -225c22 -26 27 -27 61 -32v-31h-62c-64 0 -73 8 -109 53l-150 185h-56v-195l70 -12v-31h-243v31z" />
    <glyph glyph-name="q" unicode="q" horiz-adv-x="579" 
d="M401 482l78 33h10v-724l80 -11v-31h-273v31l100 11v176c0 53 3 92 3 92c-36 -34 -85 -69 -152 -69c-125 0 -196 110 -196 233c0 180 94 287 244 287c65 0 106 -28 106 -28zM306 455c-102 0 -158 -76 -158 -195s47 -196 143 -196c34 0 77 14 109 35c-1 9 -4 51 -4 100v232
s-36 24 -90 24z" />
    <glyph glyph-name="v" unicode="v" horiz-adv-x="564" 
d="M233 500v-31l-66 -13l98 -260c23 -61 36 -118 36 -118h4s12 54 32 114l88 263l-75 14v31h211v-31l-69 -13l-169 -456l-74 -5l-181 461l-65 13v31h230z" />
    <glyph glyph-name="w" unicode="w" horiz-adv-x="831" 
d="M758 456l-160 -456l-77 -5l-92 339c-11 38 -19 83 -19 83h-4s-7 -48 -16 -85l-83 -332l-85 -5l-157 461l-60 13v31h220v-31l-69 -13l86 -270c18 -58 29 -118 29 -118h4s9 55 25 116l81 316l78 7l91 -315c17 -63 25 -122 25 -122h5s13 62 31 122l81 264l-70 13v31h205v-31
z" />
    <glyph glyph-name="z" unicode="z" horiz-adv-x="472" 
d="M372 54l16 86h38l-9 -140h-377v10l270 443l-205 -9l-16 -84h-35l6 140h362v-10l-271 -443z" />
    <glyph glyph-name="x" unicode="x" horiz-adv-x="599" 
d="M418 43l-137 171l-122 -171l82 -12v-31h-222v31l65 12l169 199l-169 214l-59 13v31h238v-31l-72 -13l124 -163l119 163l-84 13v31h222v-31l-65 -13l-165 -192l181 -220l59 -13v-31h-238v31z" />
    <glyph glyph-name="C" unicode="C" horiz-adv-x="664" 
d="M437 38c43 0 84 9 107 15l21 150h38v-178s-78 -39 -177 -39c-231 0 -374 129 -374 352c0 203 123 376 350 376c130 0 204 -40 204 -40l-8 -170h-39l-15 134c-20 8 -67 24 -135 24c-166 0 -255 -121 -255 -303c0 -181 101 -321 283 -321z" />
    <glyph glyph-name="U" unicode="U" horiz-adv-x="742" 
d="M634 655v-371c0 -139 -57 -298 -260 -298c-170 0 -265 105 -265 277v393l-80 13v31h258v-31l-80 -14v-404c0 -127 62 -212 171 -212c124 0 183 89 183 222v394l-80 14v31h233v-31z" />
    <glyph glyph-name="V" unicode="V" horiz-adv-x="682" 
d="M161 657l173 -475c18 -50 27 -104 27 -104h4s11 54 27 101l124 367c15 43 26 89 30 111l-84 13v31h234v-31l-75 -13l-241 -657l-74 -6l-247 663l-63 13v31h243v-31z" />
    <glyph glyph-name="W" unicode="W" horiz-adv-x="983" 
d="M985 669l-66 -13c-13 -32 -41 -119 -65 -201l-126 -455l-90 -6l-124 461c-16 58 -22 111 -22 111h-4s-7 -59 -20 -109l-115 -457l-88 -6l-200 662l-76 13v31h259v-31l-84 -13l128 -438c19 -66 27 -117 27 -117h4s10 52 25 117l118 482l79 5l128 -492
c18 -66 24 -119 24 -119h4s9 53 28 118l87 335c7 27 21 82 25 109l-84 13v31h228v-31z" />
    <glyph glyph-name="A" unicode="A" horiz-adv-x="684" 
d="M183 203l-16 -48c-15 -43 -26 -89 -30 -111l84 -13v-31h-234v31l75 13l241 657l74 6l247 -663l63 -13v-31h-243v31l78 13l-57 159h-282zM322 623h-4s-11 -54 -27 -101l-91 -269h246l-97 266c-18 50 -27 104 -27 104z" />
    <glyph glyph-name="D" unicode="D" horiz-adv-x="740" 
d="M297 650h-72v-600h100c171 0 261 120 261 294c0 169 -90 306 -289 306zM317 0h-270v31l80 13v612l-80 13v31h287c226 0 355 -145 355 -337c0 -243 -166 -363 -372 -363z" />
    <glyph glyph-name="G" unicode="G" horiz-adv-x="722" 
d="M428 662c-167 0 -275 -111 -275 -291c0 -200 105 -333 280 -333c59 0 94 12 94 12v210l-100 14v31h268v-31l-70 -14v-242s-74 -32 -200 -32c-202 0 -374 105 -374 352c0 218 134 376 377 376c130 0 202 -40 202 -40l-8 -170h-39l-15 133c-21 8 -72 25 -140 25z" />
    <glyph glyph-name="Z" unicode="Z" horiz-adv-x="591" 
d="M135 643l-37 -127h-37l9 184h463v-25l-375 -626l319 8l30 123h37l-6 -180h-501v25l375 626z" />
    <glyph glyph-name="Y" unicode="Y" horiz-adv-x="632" 
d="M369 299v-255l80 -13v-31h-258v31l80 13v255l-230 357l-58 13v31h239v-31l-77 -13l143 -234c22 -36 43 -83 43 -83h4s17 38 45 89l93 159c13 24 23 45 23 65l-68 17v31h205v-31l-59 -15z" />
    <glyph glyph-name="S" unicode="S" horiz-adv-x="540" 
d="M239 38c85 0 155 41 155 118c0 92 -74 130 -152 170c-86 44 -176 89 -176 208c0 107 89 180 226 180c108 0 175 -41 175 -41l-8 -169h-39l-15 134c-34 15 -82 24 -120 24c-79 0 -125 -39 -125 -110c0 -76 67 -115 141 -154c89 -47 187 -92 187 -218
c0 -119 -96 -194 -248 -194c-114 0 -178 40 -178 40l-1 177h38l22 -149c37 -12 80 -16 118 -16z" />
    <glyph glyph-name="X" unicode="X" horiz-adv-x="676" 
d="M500 44l-179 258s-13 -28 -42 -67l-85 -116c-20 -27 -28 -46 -34 -72l80 -16v-31h-234v31l68 16l217 296l-211 312l-65 14v31h259v-31l-87 -13l166 -250s16 27 44 67l75 108c19 28 29 46 31 70l-77 18v31h234v-31l-68 -16l-207 -288l228 -321l58 -13v-31h-259v31z" />
    <glyph glyph-name="K" unicode="K" horiz-adv-x="673" 
d="M225 332v-288l80 -13v-31h-258v31l80 13v612l-80 13v31h258v-31l-80 -13v-274h90l183 274l-68 13v31h219v-31l-74 -13l-207 -278l233 -307c24 -31 34 -35 72 -40v-31h-80c-53 0 -69 7 -100 51l-202 281h-66z" />
    <glyph glyph-name="M" unicode="M" horiz-adv-x="926" 
d="M186 555v-507l80 -17v-31h-218v31l80 17v608l-80 13v31h198l185 -396c15 -32 28 -67 28 -67h2s13 32 30 66l200 397h187v-31l-80 -13v-610l80 -15v-31h-252v31l80 15v495c0 24 4 73 4 73h-3s-20 -48 -31 -70l-225 -444h-19l-220 461c-15 32 -26 62 -26 62h-3s3 -33 3 -68
z" />
    <glyph glyph-name="J" unicode="J" horiz-adv-x="339" 
d="M219 656v-525c0 -45 -3 -80 -17 -118c-27 -72 -77 -122 -133 -182l-33 24l42 58c39 53 43 95 43 166v577l-80 13v31h258v-31z" />
    <glyph glyph-name="afii10017" unicode="&#x410;" horiz-adv-x="684" 
d="M183 203l-16 -48c-15 -43 -26 -89 -30 -111l84 -13v-31h-234v31l75 13l241 657l74 6l247 -663l63 -13v-31h-243v31l78 13l-57 159h-282zM322 623h-4s-11 -54 -27 -101l-91 -269h246l-97 266c-18 50 -27 104 -27 104z" />
    <glyph glyph-name="afii10019" unicode="&#x412;" horiz-adv-x="632" 
d="M225 50h100c104 0 160 63 160 149c0 78 -53 141 -154 141h-106v-290zM450 515c0 68 -37 135 -152 135h-73v-260h146c51 17 79 67 79 125zM327 0h-280v31l80 13v612l-80 13v31h258c165 0 245 -72 245 -171c0 -74 -50 -136 -118 -158v-3c82 -17 153 -83 153 -169
c0 -127 -103 -199 -258 -199z" />
    <glyph glyph-name="afii10022" unicode="&#x415;" horiz-adv-x="600" 
d="M225 333v-283l264 4l27 119h37l-4 -173h-502v31l80 13v612l-80 13v31h492l-6 -170h-41l-13 114l-254 6v-267l234 6v-61z" />
    <glyph glyph-name="afii10028" unicode="&#x41a;" horiz-adv-x="673" 
d="M225 332v-288l80 -13v-31h-258v31l80 13v612l-80 13v31h258v-31l-80 -13v-274h90l183 274l-68 13v31h219v-31l-74 -13l-207 -278l233 -307c24 -31 34 -35 72 -40v-31h-80c-53 0 -69 7 -100 51l-202 281h-66z" />
    <glyph glyph-name="afii10030" unicode="&#x41c;" horiz-adv-x="926" 
d="M186 555v-507l80 -17v-31h-218v31l80 17v608l-80 13v31h198l185 -396c15 -32 28 -67 28 -67h2s13 32 30 66l200 397h187v-31l-80 -13v-610l80 -15v-31h-252v31l80 15v495c0 24 4 73 4 73h-3s-20 -48 -31 -70l-225 -444h-19l-220 461c-15 32 -26 62 -26 62h-3s3 -33 3 -68
z" />
    <glyph glyph-name="afii10031" unicode="&#x41d;" horiz-adv-x="804" 
d="M677 44l80 -13v-31h-258v31l80 13v291h-354v-291l80 -13v-31h-258v31l80 13v612l-80 13v31h258v-31l-80 -13v-271h354v271l-80 13v31h258v-31l-80 -13v-612z" />
    <glyph glyph-name="afii10033" unicode="&#x41f;" horiz-adv-x="794" 
d="M47 700h700v-31l-80 -13v-612l80 -13v-31h-258v31l80 13v606h-344v-606l80 -13v-31h-258v31l80 13v612l-80 13v31z" />
    <glyph glyph-name="afii10032" unicode="&#x41e;" horiz-adv-x="769" 
d="M399 33c143 0 215 133 215 296c0 166 -87 338 -246 338c-141 0 -213 -133 -213 -303c0 -159 87 -331 244 -331zM373 -14c-191 0 -320 151 -320 361c0 179 104 367 343 367c191 0 320 -151 320 -361c0 -179 -104 -367 -343 -367z" />
    <glyph glyph-name="afii10034" unicode="&#x420;" horiz-adv-x="595" 
d="M225 277v-233l101 -13v-31h-279v31l80 13v612l-80 13v31h250c173 0 263 -70 263 -207c0 -130 -105 -216 -253 -216h-82zM225 327h82c97 0 153 63 153 161c0 91 -51 162 -177 162h-58v-323z" />
    <glyph glyph-name="afii10035" unicode="&#x421;" horiz-adv-x="664" 
d="M437 38c43 0 84 9 107 15l21 150h38v-178s-78 -39 -177 -39c-231 0 -374 129 -374 352c0 203 123 376 350 376c130 0 204 -40 204 -40l-8 -170h-39l-15 134c-20 8 -67 24 -135 24c-166 0 -255 -121 -255 -303c0 -181 101 -321 283 -321z" />
    <glyph glyph-name="afii10036" unicode="&#x422;" horiz-adv-x="622" 
d="M33 700h573l-21 -184h-37l-7 126l-176 9v-607l80 -13v-31h-258v31l80 13v607l-169 -9l-37 -126h-37z" />
    <glyph glyph-name="afii10039" unicode="&#x425;" horiz-adv-x="676" 
d="M500 44l-179 258s-13 -28 -42 -67l-85 -116c-20 -27 -28 -46 -34 -72l80 -16v-31h-234v31l68 16l217 296l-211 312l-65 14v31h259v-31l-87 -13l166 -250s16 27 44 67l75 108c19 28 29 46 31 70l-77 18v31h234v-31l-68 -16l-207 -288l228 -321l58 -13v-31h-259v31z" />
    <glyph glyph-name="afii10040" unicode="&#x426;" horiz-adv-x="800" 
d="M699 0h-652v31l80 13v612l-80 13v31h258v-31l-80 -13v-606h344v606l-80 13v31h258v-31l-80 -13v-606h103l-2 -234h-41z" />
    <glyph glyph-name="afii10042" unicode="&#x428;" horiz-adv-x="1084" 
d="M1037 0h-990v31l80 13v612l-80 13v31h258v-31l-80 -13v-606h268v606l-80 13v31h258v-31l-80 -13v-606h268v606l-80 13v31h258v-31l-80 -13v-612l80 -13v-31z" />
    <glyph glyph-name="afii10043" unicode="&#x429;" horiz-adv-x="1090" 
d="M1017 -184l-28 184h-942v31l80 13v612l-80 13v31h258v-31l-80 -13v-606h268v606l-80 13v31h258v-31l-80 -13v-606h268v606l-80 13v31h258v-31l-80 -13v-606h103l-2 -234h-41z" />
    <glyph glyph-name="afii10020" unicode="&#x413;" horiz-adv-x="558" 
d="M225 650v-606l90 -13v-31h-268v31l80 13v612l-80 13v31h492l-6 -170h-41l-13 114z" />
    <glyph glyph-name="afii10046" unicode="&#x42c;" horiz-adv-x="615" 
d="M225 50h110c89 0 145 60 145 164c0 96 -56 161 -154 161h-101v-325zM47 669v31h268v-31l-90 -13v-231h122c154 0 233 -86 233 -211c0 -129 -105 -214 -252 -214h-281v31l80 13v612z" />
    <glyph glyph-name="afii10045" unicode="&#x42b;" horiz-adv-x="933" 
d="M225 50h110c89 0 145 60 145 164c0 96 -56 161 -154 161h-101v-325zM47 669v31h258v-31l-80 -13v-231h122c154 0 233 -86 233 -211c0 -129 -105 -214 -252 -214h-281v31l80 13v612zM806 656v-612l80 -13v-31h-258v31l80 13v612l-80 13v31h258v-31z" />
    <glyph glyph-name="afii10048" unicode="&#x42e;" horiz-adv-x="1068" 
d="M672 -14c-187 0 -315 144 -320 347h-127v-289l75 -13v-31h-253v31l80 13v612l-80 13v31h253v-31l-75 -13v-269h129c14 166 119 327 341 327c191 0 320 -151 320 -361c0 -179 -104 -367 -343 -367zM698 33c143 0 215 133 215 287c0 175 -87 347 -246 347
c-141 0 -213 -133 -213 -287c0 -175 87 -347 244 -347z" />
    <glyph glyph-name="afii10018" unicode="&#x411;" horiz-adv-x="622" 
d="M225 50h90c117 0 160 82 160 164c0 84 -51 151 -169 151h-81v-315zM47 700h492l-6 -170h-41l-13 114l-254 6v-235h107c169 0 243 -89 243 -201c0 -125 -106 -214 -270 -214h-258v31l80 13v612l-80 13v31z" />
    <glyph glyph-name="afii10044" unicode="&#x42a;" horiz-adv-x="745" 
d="M457 669l-102 -13v-231h122c154 0 233 -86 233 -211c0 -129 -105 -214 -252 -214h-281v31l80 13v608l-162 -9l-32 -127h-37l4 184h427v-31zM355 50h110c89 0 145 60 145 164c0 96 -56 161 -154 161h-101v-325z" />
    <glyph glyph-name="afii10029" unicode="&#x41b;" horiz-adv-x="684" 
d="M459 646h-213c-6 -200 -21 -404 -67 -543c-23 -69 -64 -113 -119 -113c-36 0 -54 10 -54 10v78s12 -2 23 -2c51 0 84 38 102 91c37 103 55 382 55 489l-80 13v31h531v-31l-80 -13v-612l80 -13v-31h-258v31l80 13v602z" />
    <glyph glyph-name="afii10026" unicode="&#x418;" horiz-adv-x="804" 
d="M677 656v-612l80 -13v-31h-258v31l80 13v503c0 24 3 56 3 56h-5s-13 -31 -25 -51l-327 -552h-178v31l80 13v612l-80 13v31h258v-31l-80 -13v-478c0 -30 -4 -85 -4 -85h6s20 48 34 71l318 536h178v-31z" />
    <glyph glyph-name="afii10027" unicode="&#x419;" horiz-adv-x="804" 
d="M409 783c-90 0 -153 40 -184 70l54 61c39 -35 70 -92 130 -92s91 57 130 92l54 -61c-31 -30 -98 -70 -184 -70zM677 656v-612l80 -13v-31h-258v31l80 13v503c0 24 3 56 3 56h-5s-13 -31 -25 -51l-327 -552h-178v31l80 13v612l-80 13v31h258v-31l-80 -13v-478
c0 -30 -4 -85 -4 -85h6s20 48 34 71l318 536h178v-31z" />
    <glyph glyph-name="afii10047" unicode="&#x42d;" horiz-adv-x="663" 
d="M226 662c-44 0 -84 -9 -108 -15l-20 -150h-38v178s78 39 177 39c231 0 374 -129 374 -352c0 -203 -123 -376 -350 -376c-130 0 -204 40 -204 40l8 170h39l15 -134c19 -8 67 -24 135 -24c161 0 249 113 255 286l-321 -13v71l320 -7c-12 164 -112 287 -282 287z" />
    <glyph glyph-name="afii10024" unicode="&#x416;" horiz-adv-x="991" 
d="M448 44v288h-68l-202 -281c-31 -44 -45 -51 -98 -51h-80v31c38 5 48 9 72 40l233 307l-207 278l-74 13v31h214v-31l-63 -13l183 -274h90v274l-75 13v31h245v-31l-75 -13v-274h90l183 274l-63 13v31h214v-31l-74 -13l-207 -278l233 -307c24 -31 34 -35 72 -40v-31h-80
c-53 0 -66 7 -97 51l-203 281h-68v-288l80 -13v-31h-255v31z" />
    <glyph glyph-name="afii10025" unicode="&#x417;" horiz-adv-x="531" 
d="M240 662c-54 0 -99 -16 -119 -24l-15 -134h-39l-8 170s61 40 188 40c157 0 219 -80 219 -174c0 -98 -72 -149 -149 -166v-2c102 -8 160 -81 160 -175c0 -114 -97 -211 -247 -211c-99 0 -179 39 -179 39v178h38l20 -150c23 -6 63 -15 108 -15c99 0 160 60 160 156
c0 95 -59 148 -160 148h-54v50h52c99 0 151 57 151 142c0 77 -30 128 -126 128z" />
    <glyph glyph-name="afii10021" unicode="&#x414;" horiz-adv-x="708" 
d="M204 656l-80 13v31h531v-31l-80 -13v-606h103l-2 -234h-41l-28 184h-543l-27 -184h-41l-2 234h64c78 81 147 299 146 606zM128 50h349v599h-214c-8 -312 -64 -508 -135 -599z" />
    <glyph glyph-name="afii10041" unicode="&#x427;" horiz-adv-x="720" 
d="M90 506v150l-80 13v31h258v-31l-80 -13v-140c0 -114 37 -193 163 -193c85 0 144 14 144 14v319l-80 13v31h258v-31l-80 -13v-612l80 -13v-31h-278v31l100 13v248s-75 -24 -169 -24c-179 0 -236 102 -236 238z" />
    <glyph glyph-name="afii10038" unicode="&#x424;" horiz-adv-x="866" 
d="M478 717v-65c245 0 348 -110 348 -278c0 -159 -106 -280 -348 -280v-61l70 -12v-30h-238v30l72 12v61c-245 0 -348 110 -348 278c0 159 106 280 348 280v65l-70 8v30h236v-30zM729 374c0 154 -109 229 -251 229v-460c154 0 251 72 251 231zM132 372
c0 -154 108 -229 250 -229v460c-154 0 -250 -72 -250 -231z" />
    <glyph glyph-name="afii10037" unicode="&#x423;" horiz-adv-x="632" 
d="M310 141l-255 509l-59 19v31h243v-31l-82 -19l165 -336c18 -36 32 -73 32 -73h4s7 38 21 75l121 334l-83 19v31h225v-31l-68 -20l-196 -481c-49 -121 -91 -178 -169 -178c-44 0 -67 21 -67 21v74s32 -11 62 -11c49 0 81 21 106 67z" />
    <glyph glyph-name="afii10049" unicode="&#x42f;" horiz-adv-x="658" 
d="M79 497c0 126 111 203 263 203h270v-21l-80 -23v-612l80 -23v-21h-279v21l101 23v247h-114l-150 -226c-42 -63 -58 -74 -117 -74c-36 0 -62 9 -62 9v24c38 6 47 10 72 44l168 235c-84 24 -152 85 -152 194zM332 341h102v309h-78c-119 0 -177 -72 -177 -154
c0 -96 56 -155 153 -155z" />
    <glyph glyph-name="afii10065" unicode="&#x430;" horiz-adv-x="524" 
d="M329 59c-38 -35 -87 -64 -159 -64c-82 0 -128 54 -128 121c0 77 43 133 150 152c47 8 107 9 136 9v54c0 73 -16 115 -107 115c-69 0 -149 -23 -149 -23v34s78 53 182 53c119 0 165 -66 165 -187v-240c0 -25 7 -43 37 -43h31v-27s-31 -23 -76 -23c-41 0 -74 20 -82 69z
M214 57c49 0 83 19 115 38c0 0 -3 28 -3 71v71s-53 1 -111 -14c-51 -13 -82 -44 -82 -93c0 -43 27 -73 81 -73z" />
    <glyph glyph-name="afii10070" unicode="&#x435;" horiz-adv-x="521" 
d="M472 257h-327c3 -119 70 -205 179 -205c68 0 128 24 128 24v-34s-64 -52 -168 -52c-144 0 -234 105 -234 251c0 166 105 269 231 269c139 0 205 -91 191 -253zM277 459c-73 0 -121 -60 -130 -155l234 6c-1 79 -18 149 -104 149z" />
    <glyph glyph-name="afii10080" unicode="&#x43e;" horiz-adv-x="574" 
d="M286 39c104 0 143 87 143 210c0 129 -53 212 -141 212c-104 0 -143 -87 -143 -210c0 -129 53 -212 141 -212zM274 -10c-140 0 -224 101 -224 249c0 154 84 271 250 271c140 0 224 -101 224 -249c0 -154 -84 -271 -250 -271z" />
    <glyph glyph-name="afii10082" unicode="&#x440;" horiz-adv-x="604" 
d="M35 -251v31l80 11v661l-81 8v31l154 14l20 -5l-3 -59c37 33 90 69 158 69c127 0 190 -110 190 -233c0 -180 -94 -287 -244 -287c-65 0 -101 27 -101 27v-226l80 -11v-31h-253zM298 45c102 0 158 76 158 195c0 127 -38 196 -133 196c-44 0 -87 -14 -119 -35
c1 -9 4 -51 4 -100v-232s36 -24 90 -24z" />
    <glyph glyph-name="afii10083" unicode="&#x441;" horiz-adv-x="475" 
d="M271 458c-85 0 -126 -104 -126 -191c0 -124 57 -215 162 -215c72 0 125 24 125 24v-34s-58 -52 -158 -52c-144 0 -224 105 -224 251c0 154 101 269 250 269c62 0 91 -17 138 -22l-20 -81c-58 8 -94 51 -147 51z" />
    <glyph glyph-name="afii10085" unicode="&#x443;" horiz-adv-x="574" 
d="M164 -250c0 0 32 119 98 232l-193 474l-65 13v31h233v-31l-65 -13l97 -263c22 -61 36 -116 36 -116h4s14 53 34 113l90 266l-75 13v31h212v-31l-69 -13l-172 -457c-53 -141 -71 -254 -71 -254z" />
    <glyph glyph-name="afii10087" unicode="&#x445;" horiz-adv-x="599" 
d="M418 43l-137 171l-122 -171l82 -12v-31h-222v31l65 12l169 199l-169 214l-59 13v31h238v-31l-72 -13l124 -163l119 163l-84 13v31h222v-31l-65 -13l-165 -192l181 -220l59 -13v-31h-238v31z" />
    <glyph glyph-name="afii10076" unicode="&#x43a;" horiz-adv-x="604" 
d="M124 43v413l-79 13v31h238v-31l-66 -13v-172h74l126 175l-53 10v31h200v-31l-71 -10l-148 -171l188 -225c22 -26 27 -27 61 -32v-31h-62c-64 0 -73 8 -109 53l-150 185h-56v-195l70 -12v-31h-243v31z" />
    <glyph glyph-name="afii10079" unicode="&#x43d;" horiz-adv-x="678" 
d="M554 456v-412l80 -13v-31h-243v31l70 13v184h-244v-184l71 -13v-31h-243v31l79 13v412l-79 13v31h243v-31l-71 -13v-178h244v178l-70 13v31h243v-31z" />
    <glyph glyph-name="afii10066" unicode="&#x431;" horiz-adv-x="600" 
d="M498 775h29c0 -79 -16 -126 -91 -146c-27 -7 -59 -13 -116 -24c-137 -27 -182 -97 -193 -259l6 -1c29 90 104 138 192 138c143 0 223 -91 223 -225c0 -168 -92 -268 -235 -268c-157 0 -237 92 -237 297c0 235 68 374 248 413c43 9 98 14 133 27c25 9 29 19 41 48z
M313 429c-92 0 -140 -82 -140 -180c0 -111 49 -210 140 -210c90 0 138 93 138 178c0 131 -49 212 -138 212z" />
    <glyph glyph-name="afii10081" unicode="&#x43f;" horiz-adv-x="665" 
d="M541 456v-412l80 -13v-31h-243v31l70 13v406h-231v-407l71 -12v-31h-243v31l79 13v412l-79 13v31h576v-31z" />
    <glyph glyph-name="afii10088" unicode="&#x446;" horiz-adv-x="666" 
d="M541 50h94l-10 -214h-41l-20 164h-519v31l79 13v412l-79 13v31h243v-31l-71 -12v-407h231v406l-70 13v31h243v-31l-80 -13v-406z" />
    <glyph glyph-name="afii10090" unicode="&#x448;" horiz-adv-x="925" 
d="M509 456v-406h199v407l-71 12v31h243v-31l-79 -13v-412l79 -13v-31h-835v31l79 13v412l-79 13v31h243v-31l-71 -12v-407h199v406l-70 13v31h233v-31z" />
    <glyph glyph-name="afii10091" unicode="&#x449;" horiz-adv-x="925" 
d="M847 -167l-37 167h-765v31l79 13v412l-79 13v31h243v-31l-71 -12v-407h199v406l-70 13v31h233v-31l-70 -13v-406h199v407l-71 12v31h243v-31l-79 -13v-406h87l-10 -217h-31z" />
    <glyph glyph-name="afii10084" unicode="&#x442;" horiz-adv-x="536" 
d="M315 452v-408l81 -13v-31h-253v31l79 13v408l-134 -5l-24 -109h-30l4 162h463l-1 -162h-30l-20 109z" />
    <glyph glyph-name="afii10068" unicode="&#x433;" horiz-adv-x="470" 
d="M317 31v-31h-272v31l79 12v413l-79 13v31h390l1 -160h-42l-16 111l-160 3v-411z" />
    <glyph glyph-name="afii10074" unicode="&#x438;" horiz-adv-x="689" 
d="M474 500h170v-31l-80 -13v-406l80 -19v-31h-243v31l70 19v297c0 32 5 70 5 70h-4s-18 -39 -46 -83l-212 -334h-169v31l79 19v405l-79 14v31h243v-31l-71 -13v-280c0 -40 -5 -96 -5 -96h4s18 46 50 96z" />
    <glyph glyph-name="afii10072" unicode="&#x436;" horiz-adv-x="866" 
d="M479 456v-172h74l126 175l-53 10v31h200v-31l-71 -10l-148 -171l188 -225c22 -26 27 -27 61 -32v-31h-62c-64 0 -73 8 -109 53l-150 185h-56v-194l61 -13v-31h-223v31l69 13v194h-56l-150 -185c-36 -45 -44 -53 -108 -53h-62v31c34 5 40 4 62 30l187 225l-149 173l-70 10
v31h200v-31l-53 -10l126 -175h73v171l-64 13v32h213v-32z" />
    <glyph glyph-name="afii10078" unicode="&#x43c;" horiz-adv-x="817" 
d="M181 342l-12 -295l72 -16v-31h-205v31l79 16l17 409l-80 13v31h187l134 -285c14 -30 30 -69 30 -69h3s15 39 31 71l138 283h188v-31l-81 -13l25 -412l77 -13v-31h-240v31l75 13l-19 307c-3 57 -2 81 -2 81h-3s-12 -31 -36 -80l-160 -322h-23l-159 323
c-16 33 -33 79 -33 79h-3s2 -48 0 -90z" />
    <glyph glyph-name="afii10086" unicode="&#x444;" horiz-adv-x="823" 
d="M367 -208v240c-30 -22 -69 -43 -119 -43c-135 0 -197 106 -197 234c0 162 83 287 222 287c40 0 78 -14 94 -27v182l-83 10v31l152 15l20 -5v-248c28 23 73 42 119 42c139 0 197 -110 197 -233c0 -180 -96 -287 -222 -287c-58 0 -94 27 -94 27v-225l82 -11v-31h-253v31z
M456 430v-365s31 -20 74 -20c101 0 146 94 146 201c0 116 -38 198 -139 198c-25 0 -58 -5 -81 -14zM293 455c-99 0 -146 -94 -146 -202c0 -122 43 -197 132 -197c30 0 65 5 88 13v366s-32 20 -74 20z" />
    <glyph glyph-name="afii10094" unicode="&#x44c;" horiz-adv-x="554" 
d="M124 44v411l-79 14v31h253v-31l-81 -13v-133h107c118 0 194 -48 194 -151c0 -110 -84 -172 -215 -172h-259v31zM217 48h96c67 0 105 48 105 115c0 68 -35 112 -114 112h-87v-227z" />
    <glyph glyph-name="afii10093" unicode="&#x44b;" horiz-adv-x="829" 
d="M612 44v412l-70 13v31h243v-31l-80 -13v-412l80 -13v-31h-243v31zM124 44v411l-79 14v31h253v-31l-81 -13v-133h107c118 0 194 -48 194 -151c0 -110 -84 -172 -215 -172h-259v31zM217 48h96c67 0 105 48 105 115c0 68 -35 112 -114 112h-87v-227z" />
    <glyph glyph-name="afii10092" unicode="&#x44a;" horiz-adv-x="637" 
d="M32 360l4 140h345v-31l-81 -13v-133h107c118 0 194 -48 194 -151c0 -110 -84 -172 -215 -172h-259v31l80 13v410l-124 -5l-20 -89h-31zM300 48h96c67 0 105 48 105 115c0 68 -35 112 -114 112h-87v-227z" />
    <glyph glyph-name="afii10077" unicode="&#x43b;" horiz-adv-x="605" 
d="M175 456l-79 13v31h465v-31l-80 -13v-412l80 -13v-31h-253v31l80 13v408h-160c-5 -326 -61 -462 -167 -462c-26 0 -44 10 -44 10v76s14 -2 24 -2c100 0 134 196 134 382z" />
    <glyph glyph-name="afii10069" unicode="&#x434;" horiz-adv-x="614" 
d="M100 469v31h469v-31l-80 -13l-1 -406h94l-10 -214h-41l-20 164h-433l-30 -164h-41l-2 214h54c83 71 119 224 119 406zM129 50h267v400h-162c0 -203 -43 -339 -105 -400z" />
    <glyph glyph-name="afii10096" unicode="&#x44e;" horiz-adv-x="867" 
d="M562 -10c-137 0 -225 96 -229 238h-116v-184l71 -13v-31h-243v31l79 14v411l-79 13v31h243v-31l-71 -12v-179h118c14 134 101 232 253 232c140 0 229 -101 229 -249c0 -154 -89 -271 -255 -271zM574 39c104 0 148 87 148 210c0 129 -58 212 -146 212
c-104 0 -148 -87 -148 -210c0 -129 58 -212 146 -212z" />
    <glyph glyph-name="afii10067" unicode="&#x432;" horiz-adv-x="563" 
d="M45 469v31h279c113 0 166 -48 166 -123c0 -58 -37 -98 -96 -114v-4c63 -8 123 -45 123 -115c0 -98 -90 -144 -190 -144h-282v31l79 12v413zM218 48h102c68 0 103 46 103 99c0 46 -28 88 -98 88h-107v-187zM397 364c0 48 -29 88 -96 88h-83v-171h130c30 16 49 47 49 83z
" />
    <glyph glyph-name="afii10073" unicode="&#x437;" horiz-adv-x="451" 
d="M211 458c-49 0 -89 -38 -152 -48l-15 72c42 6 89 28 168 28c97 0 174 -44 174 -128c0 -55 -32 -103 -101 -118v-4c69 -6 118 -48 118 -117c0 -90 -88 -153 -198 -153c-112 0 -171 52 -171 52v34s59 -25 149 -25c76 0 126 38 126 99c0 58 -47 86 -115 86h-63v50h65
c68 0 98 35 98 85c0 55 -32 87 -83 87z" />
    <glyph glyph-name="afii10095" unicode="&#x44d;" horiz-adv-x="480" 
d="M155 49c111 0 173 71 179 178l-206 -12v71l206 -12c-9 118 -60 184 -127 184c-52 0 -76 -45 -145 -54l-20 84c42 6 92 22 164 22c140 0 224 -102 224 -249c0 -143 -94 -271 -233 -271c-100 0 -161 52 -161 52v34s56 -27 119 -27z" />
    <glyph glyph-name="afii10097" unicode="&#x44f;" horiz-adv-x="598" 
d="M381 43v150h-107l-91 -138c-30 -47 -54 -65 -109 -65c-32 0 -53 10 -53 10v26c40 8 45 12 72 48l98 131c-66 20 -111 68 -111 141c0 96 79 154 204 154h270v-31l-80 -13v-413l80 -12v-31h-243v31zM179 347c0 -55 40 -104 108 -104h94v207h-91c-70 0 -111 -50 -111 -103z
" />
    <glyph glyph-name="afii10089" unicode="&#x447;" horiz-adv-x="615" 
d="M398 246v210l-70 13v31h243v-31l-80 -13v-412l80 -13v-31h-263v31l90 13v165s-53 -31 -136 -31c-91 0 -174 36 -174 160v118l-80 13v31h243v-31l-70 -13v-104c0 -78 42 -119 117 -119c59 0 100 13 100 13z" />
    <glyph glyph-name="period" unicode="." horiz-adv-x="244" 
d="M119 -15c-34 0 -58 25 -58 63c0 39 26 62 64 62c36 0 57 -23 57 -60c0 -41 -25 -65 -63 -65z" />
    <glyph glyph-name="comma" unicode="," horiz-adv-x="250" 
d="M81 -171l-20 22c44 38 71 93 74 143c-48 -12 -75 22 -75 56c0 37 28 60 64 60c34 0 65 -22 65 -72c0 -81 -38 -155 -108 -209z" />
    <glyph glyph-name="colon" unicode=":" horiz-adv-x="265" 
d="M130 -15c-34 0 -58 25 -58 63c0 39 26 62 64 62c36 0 57 -23 57 -60c0 -41 -25 -65 -63 -65zM130 339c-34 0 -58 25 -58 63c0 39 26 62 64 62c36 0 57 -23 57 -60c0 -41 -25 -65 -63 -65z" />
    <glyph glyph-name="semicolon" unicode=";" horiz-adv-x="278" 
d="M132 339c-34 0 -58 25 -58 63c0 39 26 62 64 62c36 0 57 -23 57 -60c0 -41 -25 -65 -63 -65zM98 -171l-20 22c44 38 71 93 74 143c-48 -12 -75 22 -75 56c0 37 28 60 64 60c34 0 65 -22 65 -72c0 -81 -38 -155 -108 -209z" />
    <glyph glyph-name="hyphen" unicode="-" horiz-adv-x="436" 
d="M73 252v69l291 10v-69z" />
    <glyph glyph-name="endash" unicode="&#x2013;" horiz-adv-x="585" 
d="M77 259v64h431v-64h-431z" />
    <glyph glyph-name="emdash" unicode="&#x2014;" horiz-adv-x="815" 
d="M77 262v64h661v-64h-661z" />
    <glyph glyph-name="exclam" unicode="!" horiz-adv-x="282" 
d="M115 200l-26 501l104 5l-25 -506h-53zM139 -15c-34 0 -58 25 -58 63c0 39 26 62 64 62c36 0 57 -23 57 -60c0 -41 -25 -65 -63 -65z" />
    <glyph glyph-name="question" unicode="?" horiz-adv-x="405" 
d="M239 241l-4 -44c-73 1 -117 34 -117 95c0 135 162 180 162 275c0 47 -40 73 -107 73c-71 0 -126 -33 -126 -33v45s43 62 138 62c98 0 166 -53 166 -141c0 -155 -163 -207 -163 -292c0 -27 22 -39 51 -40zM190 -15c-34 0 -58 25 -58 63c0 39 26 62 64 62
c36 0 57 -23 57 -60c0 -41 -25 -65 -63 -65z" />
    <glyph glyph-name="quotesingle" unicode="'" horiz-adv-x="208" 
d="M78 463l-26 238l104 5l-25 -243h-53z" />
    <glyph glyph-name="quotedbl" unicode="&#x22;" horiz-adv-x="368" 
d="M78 463l-26 238l104 5l-25 -243h-53zM238 463l-26 238l104 5l-25 -243h-53z" />
    <glyph glyph-name="zero" unicode="0" horiz-adv-x="611" 
d="M310 40c89 0 141 114 141 280c0 193 -45 340 -153 340c-92 0 -138 -114 -138 -280c0 -193 37 -340 150 -340zM294 -10c-154 0 -236 169 -236 339c0 228 85 381 259 381c154 0 236 -169 236 -339c0 -228 -85 -381 -259 -381z" />
    <glyph glyph-name="one" unicode="1" horiz-adv-x="377" 
d="M13 618l238 88h20v-706h-98v618l-151 -31z" />
    <glyph glyph-name="three" unicode="3" horiz-adv-x="507" 
d="M145 348l5 44h25c97 0 152 60 152 136c0 69 -42 115 -128 115c-95 0 -140 -35 -140 -35v37s68 65 174 65c115 0 190 -59 190 -161c0 -85 -51 -152 -155 -175c110 -14 185 -77 185 -178c0 -113 -84 -206 -225 -206c-117 0 -185 66 -185 66l7 32s70 -33 140 -33
c116 0 163 64 163 149c0 73 -49 144 -182 144h-26z" />
    <glyph glyph-name="two" unicode="2" horiz-adv-x="485" 
d="M314 511c0 79 -41 132 -132 132c-89 0 -137 -35 -137 -35v37s66 65 180 65c105 0 187 -58 187 -181c0 -129 -83 -225 -252 -415l-44 -49l246 14c44 3 80 10 80 10l-8 -89h-413v30l85 99c165 192 208 286 208 382z" />
    <glyph glyph-name="five" unicode="5" horiz-adv-x="504" 
d="M435 700l-5 -89s-36 8 -85 10l-185 8l-12 -189c212 -5 305 -109 305 -235c0 -118 -79 -215 -226 -215c-89 0 -153 37 -184 66l7 28s60 -30 144 -30c105 0 159 52 159 143c0 123 -118 174 -273 174l18 329h337z" />
    <glyph glyph-name="seven" unicode="7" horiz-adv-x="437" 
d="M23 616l6 84h402v-17c-109 -233 -189 -489 -240 -700l-94 24c65 193 164 450 258 632l-234 -12c-53 -3 -98 -11 -98 -11z" />
    <glyph glyph-name="six" unicode="6" horiz-adv-x="547" 
d="M456 685c-156 -22 -281 -127 -304 -339c24 30 73 75 163 75c115 0 190 -69 190 -197c0 -126 -80 -234 -218 -234c-141 0 -234 111 -234 278c0 301 165 425 396 453zM283 359c-77 0 -117 -51 -131 -74c-1 -9 0 -20 0 -29c0 -115 43 -218 140 -218c81 0 119 75 119 167
c0 93 -40 154 -128 154z" />
    <glyph glyph-name="nine" unicode="9" horiz-adv-x="547" 
d="M91 15c153 21 276 122 302 325c-24 -30 -74 -72 -161 -72c-115 0 -190 80 -190 208c0 126 80 234 218 234c141 0 234 -111 234 -278c0 -301 -165 -425 -396 -453zM264 330c75 0 115 48 130 72c1 13 1 28 1 42c0 115 -43 218 -140 218c-81 0 -119 -75 -119 -167
c0 -93 40 -165 128 -165z" />
    <glyph glyph-name="four" unicode="4" horiz-adv-x="550" 
d="M320 -30v179h-282l-28 46l352 509h50v-489l114 1l-8 -67h-106v-86c0 -46 5 -93 5 -93h-97zM280 484l-187 -275l227 5v257c0 58 3 85 3 85h-3s-10 -27 -40 -72z" />
    <glyph glyph-name="eight" unicode="8" horiz-adv-x="554" 
d="M56 174c0 101 82 158 154 188c-70 41 -132 89 -132 181c0 101 89 167 206 167c113 0 198 -61 196 -160c-2 -85 -82 -141 -136 -169c78 -44 153 -95 153 -201c0 -112 -101 -191 -218 -191c-132 0 -223 66 -223 185zM406 164c0 85 -77 130 -158 176
c-65 -42 -97 -101 -97 -175c0 -64 41 -123 125 -123c72 0 130 42 130 122zM170 562c0 -76 63 -119 136 -160c42 30 78 80 79 152c1 62 -36 108 -105 108c-74 0 -110 -46 -110 -100z" />
    <glyph glyph-name="afii10103" unicode="&#x456;" horiz-adv-x="331" 
d="M167 627c-34 0 -59 23 -59 57c0 35 27 56 64 56c36 0 58 -21 58 -54c0 -37 -25 -59 -63 -59zM196 505l20 -5v-457l80 -12v-31h-253v31l80 12v409l-81 8v31z" />
    <glyph glyph-name="afii10057" unicode="&#x408;" horiz-adv-x="339" 
d="M219 656v-525c0 -45 -3 -80 -17 -118c-27 -72 -77 -122 -133 -182l-33 24l42 58c39 53 43 95 43 166v577l-80 13v31h258v-31z" />
    <glyph glyph-name="afii10105" unicode="&#x458;" horiz-adv-x="302" 
d="M188 505l20 -5v-483c0 -129 -81 -215 -156 -274l-20 20c62 64 83 146 83 242v447l-81 8v31zM159 627c-34 0 -59 23 -59 57c0 35 27 56 64 56c36 0 58 -21 58 -54c0 -37 -25 -59 -63 -59z" />
    <glyph glyph-name="afii10054" unicode="&#x405;" horiz-adv-x="540" 
d="M239 38c85 0 155 41 155 118c0 92 -74 130 -152 170c-86 44 -176 89 -176 208c0 107 89 180 226 180c108 0 175 -41 175 -41l-8 -169h-39l-15 134c-34 15 -82 24 -120 24c-79 0 -125 -39 -125 -110c0 -76 67 -115 141 -154c89 -47 187 -92 187 -218
c0 -119 -96 -194 -248 -194c-114 0 -178 40 -178 40l-1 177h38l22 -149c37 -12 80 -16 118 -16z" />
    <glyph glyph-name="afii10102" unicode="&#x455;" horiz-adv-x="437" 
d="M232 42c52 0 86 27 86 65c0 115 -264 84 -264 264c0 85 74 139 173 139c63 0 110 -16 152 -22l-20 -84c-69 9 -101 54 -161 54c-46 0 -68 -26 -68 -59c0 -127 260 -87 260 -269c0 -95 -85 -140 -174 -140c-80 0 -130 16 -172 22l20 84c69 -9 104 -54 168 -54z" />
    <glyph glyph-name="afii10023" unicode="&#x401;" horiz-adv-x="600" 
d="M225 333v-283l264 4l27 119h37l-4 -173h-502v31l80 13v612l-80 13v31h492l-6 -170h-41l-13 114l-254 6v-267l234 6v-61zM227 782c-32 0 -54 27 -54 57c0 32 23 56 57 56c35 0 55 -23 55 -54c0 -32 -22 -59 -58 -59zM426 782c-32 0 -54 27 -54 57c0 32 23 56 57 56
c35 0 55 -23 55 -54c0 -32 -22 -59 -58 -59z" />
    <glyph glyph-name="afii10071" unicode="&#x451;" horiz-adv-x="521" 
d="M472 257h-327c3 -119 70 -205 179 -205c68 0 128 24 128 24v-34s-64 -52 -168 -52c-144 0 -234 105 -234 251c0 166 105 269 231 269c139 0 205 -91 191 -253zM277 459c-73 0 -121 -60 -130 -155l234 6c-1 79 -18 149 -104 149zM178 594c-32 0 -54 27 -54 57
c0 32 23 56 57 56c35 0 55 -23 55 -54c0 -32 -22 -59 -58 -59zM377 594c-32 0 -54 27 -54 57c0 32 23 56 57 56c35 0 55 -23 55 -54c0 -32 -22 -59 -58 -59z" />
    <glyph glyph-name="dieresis" unicode="&#xa8;" horiz-adv-x="502" 
d="M149 627c-32 0 -54 27 -54 57c0 32 23 56 57 56c35 0 55 -23 55 -54c0 -32 -22 -59 -58 -59zM348 627c-32 0 -54 27 -54 57c0 32 23 56 57 56c35 0 55 -23 55 -54c0 -32 -22 -59 -58 -59z" />
    <glyph glyph-name="equal" unicode="=" horiz-adv-x="561" 
d="M75 342v69h411v-69h-411zM75 152v69h411v-69h-411z" />
    <glyph glyph-name="plus" unicode="+" horiz-adv-x="499" 
d="M44 253v64h170v174h70v-174h171v-64h-171v-173h-70v173h-170z" />
    <glyph glyph-name="afii10053" unicode="&#x404;" horiz-adv-x="662" 
d="M437 38c43 0 84 9 107 15l21 150h38v-178s-78 -39 -177 -39c-231 0 -374 129 -374 352c0 203 123 376 350 376c130 0 204 -40 204 -40l-8 -170h-39l-15 134c-20 8 -67 24 -135 24c-161 0 -250 -114 -255 -287l318 10v-78l-316 8c15 -159 114 -277 281 -277z" />
    <glyph glyph-name="afii10056" unicode="&#x407;" horiz-adv-x="352" 
d="M225 656v-612l80 -13v-31h-258v31l80 13v612l-80 13v31h258v-31zM76 763c-32 0 -54 27 -54 57c0 32 23 56 57 56c35 0 55 -23 55 -54c0 -32 -22 -59 -58 -59zM275 763c-32 0 -54 27 -54 57c0 32 23 56 57 56c35 0 55 -23 55 -54c0 -32 -22 -59 -58 -59z" />
    <glyph glyph-name="afii10058" unicode="&#x409;" horiz-adv-x="941" 
d="M100 669v31h531v-31l-80 -13v-231h122c154 0 233 -86 233 -211c0 -129 -105 -214 -252 -214h-281v31l80 13v602h-213c-6 -200 -16 -404 -62 -543c-37 -111 -109 -127 -168 -103v82c55 -10 93 12 120 89c37 103 50 378 50 485zM551 50h110c89 0 145 60 145 164
c0 96 -56 161 -154 161h-101v-325z" />
    <glyph glyph-name="afii10059" unicode="&#x40a;" horiz-adv-x="1067" 
d="M499 669v31h258v-31l-80 -13v-231h122c154 0 233 -86 233 -211c0 -129 -105 -214 -252 -214h-281v31l80 13v291h-354v-291l80 -13v-31h-258v31l80 13v612l-80 13v31h258v-31l-80 -13v-271h354v271zM677 50h110c89 0 145 60 145 164c0 96 -56 161 -154 161h-101v-325z" />
    <glyph glyph-name="afii10050" unicode="&#x490;" horiz-adv-x="551" 
d="M225 644v-600l90 -13v-31h-268v31l80 13v612l-80 13v31h414l35 170h40l-9 -236z" />
    <glyph glyph-name="grave" unicode="`" horiz-adv-x="312" 
d="M259 631l-28 -30l-183 143l62 64z" />
    <glyph glyph-name="acute" unicode="&#xb4;" horiz-adv-x="294" 
d="M71 590l-28 30l149 177l62 -64z" />
    <glyph glyph-name="afii10061" unicode="&#x40c;" horiz-adv-x="673" 
d="M225 332v-288l80 -13v-31h-258v31l80 13v612l-80 13v31h258v-31l-80 -13v-274h90l183 274l-68 13v31h219v-31l-74 -13l-207 -278l233 -307c24 -31 34 -35 72 -40v-31h-80c-53 0 -69 7 -100 51l-202 281h-66zM374 749l-28 30l149 177l62 -64z" />
    <glyph glyph-name="afii10062" unicode="&#x40e;" horiz-adv-x="632" 
d="M337 783c-90 0 -153 40 -184 70l54 61c39 -35 70 -92 130 -92s91 57 130 92l54 -61c-31 -30 -98 -70 -184 -70zM310 141l-255 509l-59 19v31h243v-31l-82 -19l165 -336c18 -36 32 -73 32 -73h4s7 38 21 75l121 334l-83 19v31h225v-31l-68 -20l-196 -481
c-49 -121 -91 -178 -169 -178c-44 0 -67 21 -67 21v74s32 -11 62 -11c49 0 81 21 106 67z" />
    <glyph glyph-name="afii10145" unicode="&#x40f;" horiz-adv-x="805" 
d="M358 0h-311v31l80 13v612l-80 13v31h258v-31l-80 -13v-606h355v606l-80 13v31h258v-31l-80 -13v-612l80 -13v-31h-313l-22 -184h-43z" />
    <glyph glyph-name="afii10104" unicode="&#x457;" horiz-adv-x="331" 
d="M196 505l20 -5v-457l80 -12v-31h-253v31l80 12v409l-81 8v31zM51 590c-32 0 -54 27 -54 57c0 32 23 56 57 56c35 0 55 -23 55 -54c0 -32 -22 -59 -58 -59zM250 590c-32 0 -54 27 -54 57c0 32 23 56 57 56c35 0 55 -23 55 -54c0 -32 -22 -59 -58 -59z" />
    <glyph glyph-name="afii10101" unicode="&#x454;" horiz-adv-x="475" 
d="M271 458c-81 0 -123 -95 -126 -179l225 7v-73l-223 10c12 -101 68 -171 160 -171c72 0 125 24 125 24v-34s-58 -52 -158 -52c-144 0 -224 105 -224 251c0 154 101 269 250 269c62 0 91 -17 138 -22l-20 -81c-58 8 -94 51 -147 51z" />
    <glyph glyph-name="afii10100" unicode="&#x453;" horiz-adv-x="470" 
d="M317 31v-31h-272v31l79 12v413l-79 13v31h390l1 -160h-42l-16 111l-160 3v-411zM219 590l-28 30l149 177l62 -64z" />
    <glyph glyph-name="afii10109" unicode="&#x45c;" horiz-adv-x="604" 
d="M124 43v413l-79 13v31h243v-31l-71 -13v-172h74l126 175l-58 10v31h205v-31l-71 -10l-148 -171l188 -225c22 -26 27 -27 61 -32v-31h-62c-64 0 -73 8 -109 53l-150 185h-56v-195l70 -12v-31h-243v31zM294 590l-28 30l149 177l62 -64z" />
    <glyph glyph-name="afii10110" unicode="&#x45e;" horiz-adv-x="574" 
d="M301 616c-90 0 -153 40 -184 70l54 61c39 -35 70 -92 130 -92s91 57 130 92l54 -61c-31 -30 -98 -70 -184 -70zM164 -250c0 0 32 119 98 232l-193 474l-65 13v31h233v-31l-65 -13l97 -263c22 -61 36 -116 36 -116h4s14 53 34 113l90 266l-75 13v31h212v-31l-69 -13
l-172 -457c-53 -141 -71 -254 -71 -254z" />
    <glyph glyph-name="afii10193" unicode="&#x45f;" horiz-adv-x="667" 
d="M291 0h-246v31l79 14v410l-79 14v31h243v-31l-71 -13l1 -406h231v406l-70 13v31h243v-31l-79 -14v-410l79 -14v-31h-244l-21 -164h-47z" />
    <glyph glyph-name="afii10098" unicode="&#x491;" horiz-adv-x="461" 
d="M439 635l-6 -190l-215 7v-408l99 -13v-31h-272v31l79 13v412l-79 13v31h329l29 135h36z" />
    <glyph glyph-name="afii10106" unicode="&#x459;" horiz-adv-x="805" 
d="M93 469v31h461v-31l-81 -13v-133h102c118 0 194 -48 194 -151c0 -110 -84 -172 -215 -172h-254v31l80 13v406h-156c-5 -324 -56 -460 -162 -460c-26 0 -44 10 -44 10v76s14 -2 24 -2c88 0 130 163 130 382zM473 50h91c67 0 101 46 101 113c0 68 -31 110 -110 110h-82
v-223z" />
    <glyph glyph-name="afii10107" unicode="&#x45a;" horiz-adv-x="885" 
d="M460 278v178l-79 13v31h253v-31l-81 -12v-134h102c118 0 194 -48 194 -151c0 -110 -84 -172 -215 -172h-254v31l80 13v184h-243v-185l71 -12v-31h-243v31l79 13v412l-79 13v31h243v-31l-71 -12v-179h243zM553 50h91c67 0 101 46 101 113c0 68 -31 110 -110 110h-82v-223z
" />
    <glyph glyph-name="at" unicode="@" horiz-adv-x="917" 
d="M672 -10c-59 0 -89 28 -106 63c0 0 -50 -63 -136 -63c-111 0 -186 89 -186 209c0 138 88 231 205 231c74 0 115 -37 115 -37l72 42h11v-348c0 -25 10 -43 33 -43c54 0 79 97 79 182c0 218 -112 341 -302 341c-214 0 -312 -157 -312 -346c0 -200 110 -376 364 -353l5 -39
c-279 -41 -468 114 -468 370c0 235 141 422 439 422c201 0 373 -121 373 -358c0 -135 -78 -273 -186 -273zM555 100l-1 237s-31 32 -83 32c-84 0 -130 -60 -130 -155c0 -89 39 -161 113 -161c64 0 101 47 101 47z" />
    <glyph glyph-name="parenleft" unicode="(" horiz-adv-x="324" 
d="M40 289c0 214 100 423 290 513l13 -26c-148 -88 -215 -288 -215 -477s67 -389 215 -477l-13 -26c-190 90 -290 294 -290 493z" />
    <glyph glyph-name="parenright" unicode=")" horiz-adv-x="324" 
d="M284 289c0 -199 -100 -403 -290 -493l-13 26c148 88 215 288 215 477s-67 389 -215 477l13 26c190 -90 290 -299 290 -513z" />
    <glyph glyph-name="bar" unicode="|" horiz-adv-x="262" 
d="M92 -259v1024h78v-1024h-78z" />
    <glyph glyph-name="bracketleft" unicode="[" horiz-adv-x="304" 
d="M92 -199v984h178v-46h-100v-892h100v-46h-178z" />
    <glyph glyph-name="bracketright" unicode="]" horiz-adv-x="304" 
d="M212 785v-984h-178v46h100v892h-100v46h178z" />
    <glyph glyph-name="braceleft" unicode="{" horiz-adv-x="327" 
d="M120 452v185c0 97 36 148 124 148h54v-31h-23c-64 0 -77 -61 -77 -117v-175c0 -74 -35 -123 -79 -152c41 -18 79 -72 79 -145v-216c0 -56 13 -117 77 -117h23v-31h-54c-88 0 -124 51 -124 148v209c0 67 -11 117 -30 137c-21 -8 -45 -14 -71 -16l-6 26
c68 15 107 50 107 147z" />
    <glyph glyph-name="braceright" unicode="}" horiz-adv-x="327" 
d="M207 134v-185c0 -97 -36 -148 -124 -148h-54v31h23c64 0 77 61 77 117v175c0 73 34 123 79 151c-42 18 -79 73 -79 146v216c0 56 -13 117 -77 117h-23v31h54c88 0 124 -51 124 -148v-209c0 -67 11 -117 30 -137c21 8 45 14 71 16l6 -26c-68 -15 -107 -50 -107 -147z" />
    <glyph glyph-name="slash" unicode="/" horiz-adv-x="467" 
d="M27 -174h-83l431 874h82z" />
    <glyph glyph-name="backslash" unicode="\" horiz-adv-x="467" 
d="M523 -174h-83l-430 874h82z" />
    <glyph glyph-name="asterisk" unicode="*" horiz-adv-x="537" 
d="M42 707c8 25 33 44 61 30l124 -76l25 19l-30 144c-4 30 21 48 46 48c26 0 52 -18 47 -49l-31 -141l26 -20l124 75c28 14 53 -5 61 -30c8 -24 -1 -53 -31 -58l-140 -17l-11 -34l104 -89c22 -23 12 -52 -10 -68c-20 -15 -50 -15 -64 12l-56 124h-38l-55 -124
c-14 -27 -44 -27 -64 -12c-22 16 -32 45 -10 68l104 90l-10 33l-141 17c-30 5 -39 34 -31 58z" />
    <glyph glyph-name="less" unicode="&#x3c;" horiz-adv-x="460" 
d="M38 296l348 213v-87l-244 -137l244 -139v-86l-348 213v23z" />
    <glyph glyph-name="greater" unicode="&#x3e;" horiz-adv-x="461" 
d="M74 509l348 -213v-23l-348 -213v86l244 139l-244 137v87z" />
    <glyph glyph-name="dollar" unicode="$" horiz-adv-x="512" 
d="M224 38c83 0 151 36 151 108c0 87 -72 123 -148 160c-84 42 -172 84 -172 196c0 90 70 155 181 168l-6 135c27 10 53 9 78 0l-8 -134c91 -5 146 -38 146 -38l-7 -159h-38l-15 124c-33 14 -80 22 -117 22c-77 0 -122 -34 -122 -101c0 -71 65 -108 137 -145
c87 -44 183 -86 183 -205c0 -95 -68 -161 -179 -178l9 -144c-26 -10 -52 -9 -78 0l6 139c-112 0 -174 38 -174 38l-1 166h37l20 -136c37 -11 79 -16 117 -16z" />
    <glyph glyph-name="underscore" unicode="_" horiz-adv-x="496" 
d="M18 -173v63h460v-63h-460z" />
    <glyph glyph-name="asciicircum" unicode="^" horiz-adv-x="467" 
d="M353 533l-120 139l-120 -139h-93l205 227h17l205 -227h-94z" />
    <glyph glyph-name="H.sc" horiz-adv-x="754" 
d="M220 326h314v231l-80 13v31h253v-31l-80 -13v-513l80 -13v-31h-253v31l80 13v232h-314v-232l80 -13v-31h-253v31l80 13v513l-80 13v31h253v-31l-80 -13v-231z" />
    <glyph glyph-name="I.sc" horiz-adv-x="347" 
d="M220 557v-513l80 -13v-31h-253v31l80 13v513l-80 13v31h253v-31z" />
    <glyph glyph-name="J.sc" horiz-adv-x="337" 
d="M218 557v-475c0 -45 -3 -80 -17 -118c-27 -72 -77 -122 -133 -182l-33 24l42 58c39 53 43 95 43 166v527l-80 13v31h258v-31z" />
    <glyph glyph-name="L.sc" horiz-adv-x="561" 
d="M47 31l80 13v513l-80 13v31h263v-31l-90 -13v-507l248 4l27 116h37l-4 -170h-481v31z" />
    <glyph glyph-name="O.sc" horiz-adv-x="690" 
d="M358 34c126 0 177 128 177 239c0 145 -64 289 -204 289c-124 0 -176 -128 -176 -239c0 -145 65 -289 203 -289zM335 -14c-172 0 -281 129 -281 309c0 154 88 315 301 315c172 0 282 -129 282 -309c0 -154 -88 -315 -302 -315z" />
    <glyph glyph-name="E.sc" horiz-adv-x="585" 
d="M444 265l-224 5v-220l248 4l27 116h37l-4 -170h-481v31l80 13v513l-80 13v31h472l-7 -174h-37l-19 118l-236 6v-231l224 6v-61z" />
    <glyph glyph-name="F.sc" horiz-adv-x="552" 
d="M47 601h472l-7 -174h-37l-19 118l-236 6v-241l224 6v-61l-224 5v-216l100 -13v-31h-273v31l80 13v513l-80 13v31z" />
    <glyph glyph-name="T.sc" horiz-adv-x="622" 
d="M265 44v509l-167 -9l-27 -127h-37l-1 184h561l-11 -184h-37l-17 127l-171 9v-509l80 -13v-31h-253v31z" />
    <glyph glyph-name="D.sc" horiz-adv-x="699" 
d="M47 570v31h252c216 0 347 -98 347 -284c0 -191 -136 -317 -339 -317h-260v31l80 13v513zM225 50h62c166 0 259 105 259 247c0 148 -88 254 -259 254h-62v-501z" />
    <glyph glyph-name="C.sc" horiz-adv-x="618" 
d="M378 609c110 0 173 -40 173 -40l-1 -160h-39l-27 129c-19 9 -52 20 -99 20c-150 0 -235 -121 -235 -246c0 -158 87 -273 231 -273c62 0 102 13 113 17l27 127h38l-6 -157s-70 -40 -190 -40c-163 0 -310 94 -310 298c0 157 87 325 325 325z" />
    <glyph glyph-name="N.sc" horiz-adv-x="722" 
d="M603 557v-557l-42 -16l-380 472v-412l80 -13v-31h-218v31l80 13v476l-44 53v28h102l364 -459v415l-80 13v31h218v-31z" />
    <glyph glyph-name="U.sc" horiz-adv-x="718" 
d="M612 557v-274c0 -169 -65 -293 -252 -293c-160 0 -255 105 -255 276v291l-80 13v31h258v-31l-80 -13v-284c0 -152 51 -232 166 -232c112 0 168 81 168 220v296l-80 13v31h235v-31z" />
    <glyph glyph-name="Q.sc" horiz-adv-x="690" 
d="M335 -14c-172 0 -281 129 -281 309c0 154 88 315 301 315c172 0 282 -129 282 -309c0 -110 -45 -223 -148 -279c16 -11 34 -25 51 -45l102 -119c22 -26 32 -30 57 -33v-31h-52c-61 0 -73 8 -109 53l-121 148c-25 -6 -53 -9 -82 -9zM358 34c126 0 177 128 177 239
c0 145 -64 289 -204 289c-124 0 -176 -128 -176 -239c0 -145 65 -289 203 -289z" />
    <glyph glyph-name="asciitilde" unicode="~" horiz-adv-x="549" 
d="M358 307c49 0 81 24 98 67l30 -11c1 -73 -47 -132 -117 -132c-71 0 -107 65 -175 65c-49 0 -81 -24 -98 -67l-30 11c-1 73 47 132 117 132c83 0 105 -65 175 -65z" />
    <glyph glyph-name="ellipsis" unicode="&#x2026;" horiz-adv-x="765" 
d="M125 -15c-38 0 -65 25 -65 63c0 39 29 62 71 62c40 0 64 -23 64 -60c0 -41 -28 -65 -70 -65zM379 -15c-38 0 -65 25 -65 63c0 39 29 62 71 62c40 0 64 -23 64 -60c0 -41 -28 -65 -70 -65zM634 -15c-38 0 -65 25 -65 63c0 39 29 62 71 62c40 0 64 -23 64 -60
c0 -41 -28 -65 -70 -65z" />
    <glyph glyph-name="guillemotleft" unicode="&#xab;" horiz-adv-x="513" 
d="M28 231v29c115 106 160 152 210 215l24 -18c-36 -78 -82 -141 -143 -212c61 -69 111 -145 143 -214l-24 -15c-50 63 -95 109 -210 215zM238 231v29c115 106 144 142 194 205l24 -18c-36 -78 -66 -131 -127 -202c61 -69 105 -125 137 -194l-24 -15c-50 63 -89 89 -204 195
z" />
    <glyph glyph-name="guillemotright" unicode="&#xbb;" horiz-adv-x="513" 
d="M485 260v-29c-115 -106 -160 -152 -210 -215l-24 15c32 69 82 145 143 214c-61 71 -107 134 -143 212l24 18c50 -63 95 -109 210 -215zM275 260v-29c-115 -106 -154 -132 -204 -195l-24 15c32 69 76 125 137 194c-61 71 -91 124 -127 202l24 18c50 -63 79 -99 194 -205z
" />
    <glyph glyph-name="numbersign" unicode="#" horiz-adv-x="725" 
d="M87 383v74h173l52 135h82l-52 -135h159l52 135h82l-52 -135h92v-74h-120l-63 -166h143v-74h-172l-54 -143h-83l55 143h-159l-54 -143h-83l55 143h-93v74h121l64 166h-145zM314 383l-63 -166h158l64 166h-159z" />
    <glyph glyph-name="percent" unicode="%" horiz-adv-x="920" 
d="M270 0h-98c175 245 337 480 478 700h97c-173 -241 -333 -475 -477 -700zM232 394c58 0 91 42 91 121c0 89 -29 146 -99 146c-59 0 -90 -42 -90 -121c0 -90 25 -146 98 -146zM220 341c-116 0 -178 89 -178 176c0 117 64 197 196 197c116 0 178 -89 178 -176
c0 -117 -64 -197 -196 -197zM694 43c58 0 91 42 91 121c0 89 -29 146 -99 146c-59 0 -90 -42 -90 -121c0 -90 25 -146 98 -146zM682 -10c-116 0 -178 89 -178 176c0 117 64 197 196 197c116 0 178 -89 178 -176c0 -117 -64 -197 -196 -197z" />
    <glyph glyph-name="ampersand" unicode="&#x26;" horiz-adv-x="707" 
d="M646 32h13v-32h-35c-67 0 -124 28 -176 69c-51 -48 -116 -79 -195 -79c-119 0 -203 67 -203 169c0 88 58 145 136 192c-47 54 -92 112 -95 180c-7 116 75 183 180 183c119 0 177 -65 177 -144c0 -87 -66 -145 -156 -207l57 -65c38 -45 80 -93 120 -136
c43 61 71 139 87 211l-100 14v31h218v-31l-70 -14c-17 -80 -50 -170 -103 -244c56 -56 108 -97 145 -97zM274 47c54 0 101 20 139 53c-49 47 -96 104 -144 159l-59 65c-51 -44 -65 -93 -65 -135c0 -90 57 -142 129 -142zM179 557c6 -77 48 -119 88 -165c63 51 91 94 91 166
c0 64 -35 102 -92 102c-56 0 -91 -43 -87 -103z" />
    <glyph glyph-name="bullet" unicode="&#x2022;" horiz-adv-x="278" 
d="M134 228c-49 0 -68 39 -68 74c0 39 23 69 74 69c50 0 73 -39 73 -71c0 -42 -27 -72 -79 -72z" />
    <glyph glyph-name="dagger" unicode="&#x2020;" horiz-adv-x="552" 
d="M37 500l216 -16l-16 231h78l-17 -231l217 16v-74l-217 16l17 -655l-38 -37l-40 37l16 655l-216 -16v74z" />
    <glyph glyph-name="paragraph" unicode="&#xb6;" horiz-adv-x="695" 
d="M344 700h241v-951h-78v895h-88v-895h-78v431h-26c-180 0 -275 110 -275 259c0 154 108 261 304 261zM137 450c0 -122 65 -206 204 -206v399c-143 0 -204 -92 -204 -193z" />
    <glyph glyph-name="degree" unicode="&#xb0;" horiz-adv-x="403" 
d="M205 505c53 0 83 42 83 91c0 56 -27 112 -91 112c-54 0 -84 -43 -84 -92c0 -57 24 -111 92 -111zM194 452c-96 0 -147 73 -147 145c0 97 53 163 162 163c96 0 147 -74 147 -145c0 -97 -53 -163 -162 -163z" />
    <glyph glyph-name="P.sc" horiz-adv-x="580" 
d="M220 215v-171l80 -13v-31h-253v31l80 13v513l-80 13v31h265c137 0 231 -65 231 -189c0 -112 -74 -197 -231 -197h-92zM299 551h-79v-286h80c95 0 145 65 145 142c0 79 -53 144 -146 144z" />
    <glyph glyph-name="Z.sc" horiz-adv-x="553" 
d="M120 547l-24 -116h-37l4 170h439v-15l-339 -536l278 4l22 111h37l-4 -165h-453v15l339 536z" />
    <glyph glyph-name="V.sc" horiz-adv-x="670" 
d="M596 549l-220 -549l-78 -6l-224 554l-75 22v31h250v-31l-73 -22l135 -351c25 -64 39 -117 39 -117h4s18 53 40 115l128 354l-81 21v31h230v-31z" />
    <glyph glyph-name="A.sc" horiz-adv-x="647" 
d="M73 44l208 557l77 6l223 -566l65 -10v-31h-238v31l76 9l-51 133h-256l-14 -41c-13 -36 -26 -89 -26 -89l77 -12v-31h-216v31zM302 530h-4s-15 -57 -37 -119l-66 -188h219l-70 186c-24 64 -42 121 -42 121z" />
    <glyph glyph-name="G.sc" horiz-adv-x="678" 
d="M401 558c-162 0 -252 -121 -252 -255c0 -164 114 -265 260 -265c26 0 51 2 74 5v182l-100 14v31h268v-31l-80 -14v-207s-63 -32 -183 -32c-176 0 -336 94 -336 298c0 157 94 325 342 325c110 0 173 -40 173 -40l-1 -160h-39l-27 129c-19 9 -52 20 -99 20z" />
    <glyph glyph-name="R.sc" horiz-adv-x="629" 
d="M220 235v-191l80 -13v-31h-253v31l80 13v513l-80 13v31h275c137 0 231 -55 231 -179c0 -85 -42 -148 -130 -174l116 -182c23 -35 28 -40 62 -44v-22s-31 -11 -73 -11c-46 0 -63 18 -90 66l-101 180h-117zM309 551h-89v-266h90c95 0 145 55 145 132c0 79 -53 134 -146 134
z" />
    <glyph glyph-name="S.sc" horiz-adv-x="533" 
d="M243 38c76 0 145 36 145 105c0 149 -323 93 -323 297c0 88 70 169 227 169c110 0 170 -40 170 -40l-1 -160h-39l-27 129c-30 14 -65 21 -110 21c-84 0 -131 -43 -131 -93c0 -161 323 -99 323 -299c0 -106 -89 -181 -234 -181c-108 0 -179 40 -179 40l-6 157h38l27 -126
c31 -11 72 -19 120 -19z" />
    <glyph glyph-name="M.sc" horiz-adv-x="904" 
d="M691 44l-12 377c-1 35 3 63 3 63l-5 1s-9 -28 -25 -58l-209 -393h-14l-213 388c-18 33 -29 60 -29 60l-5 -2s4 -29 3 -67l-3 -363l82 -19v-31h-218v31l78 19l6 506l-79 14v31h169l199 -372c18 -34 32 -67 32 -67h3s13 34 31 68l193 371h172v-31l-79 -13l14 -513l80 -13
v-31h-254v31z" />
    <glyph glyph-name="B.sc" horiz-adv-x="610" 
d="M220 50h123c67 0 117 45 117 119c0 72 -50 112 -123 112h-117v-231zM440 440c0 70 -46 111 -137 111h-83v-220h160s60 28 60 109zM336 0h-289v31l80 13v513l-80 13v31h274c132 0 217 -50 217 -154c0 -67 -45 -115 -114 -136v-4c79 -15 134 -65 134 -138
c0 -111 -93 -169 -222 -169z" />
    <glyph glyph-name="K.sc" horiz-adv-x="660" 
d="M220 273v-229l80 -13v-31h-253v31l80 13v513l-80 13v31h249v-31l-76 -13v-234h88l158 231l-59 16v31h224v-31l-79 -16l-185 -229l213 -254c27 -31 30 -33 72 -40v-31h-80c-58 0 -62 8 -97 51l-182 222h-73z" />
    <glyph glyph-name="W.sc" horiz-adv-x="939" 
d="M662 80h3s11 55 23 98l101 368l-77 24v31h226v-31l-76 -23l-174 -547l-85 -6l-124 402c-10 33 -16 74 -16 74h-3s-6 -42 -14 -74l-108 -396l-88 -6l-169 552l-80 24v31h245v-31l-70 -24l104 -366c13 -46 25 -100 25 -100h3s8 55 21 100l115 421l65 4l129 -425
c12 -40 24 -100 24 -100z" />
    <glyph glyph-name="X.sc" horiz-adv-x="666" 
d="M85 56l198 240l-197 250l-70 24v31h263v-31l-82 -22l149 -196l143 196l-82 22v31h228v-31l-63 -23l-195 -236l213 -258l69 -22v-31h-263v31l83 22l-163 203l-151 -201l83 -24v-31h-228v31z" />
    <glyph glyph-name="Y.sc" horiz-adv-x="618" 
d="M355 224v-180l80 -13v-31h-253v31l80 13v181l-192 325l-72 20v31h253v-31l-79 -19l112 -202c24 -41 41 -79 41 -79h4s16 38 39 79l102 197l-81 24v31h228v-31l-71 -24z" />
    <glyph glyph-name="afii10017.sc" horiz-adv-x="647" 
d="M73 44l208 557l77 6l223 -566l65 -10v-31h-238v31l76 9l-51 133h-256l-14 -41c-13 -36 -26 -89 -26 -89l77 -12v-31h-216v31zM302 530h-4s-15 -57 -37 -119l-66 -188h219l-70 186c-24 64 -42 121 -42 121z" />
    <glyph glyph-name="afii10019.sc" horiz-adv-x="610" 
d="M220 50h123c67 0 117 45 117 119c0 72 -50 112 -123 112h-117v-231zM440 440c0 70 -46 111 -137 111h-83v-220h160s60 28 60 109zM336 0h-289v31l80 13v513l-80 13v31h274c132 0 217 -50 217 -154c0 -67 -45 -115 -114 -136v-4c79 -15 134 -65 134 -138
c0 -111 -93 -169 -222 -169z" />
    <glyph glyph-name="afii10022.sc" horiz-adv-x="585" 
d="M444 265l-224 5v-220l248 4l27 116h37l-4 -170h-481v31l80 13v513l-80 13v31h472l-7 -174h-37l-19 118l-236 6v-231l224 6v-61z" />
    <glyph glyph-name="afii10023.sc" horiz-adv-x="585" 
d="M444 265l-224 5v-220l248 4l27 116h37l-4 -170h-481v31l80 13v513l-80 13v31h472l-7 -174h-37l-19 118l-236 6v-231l224 6v-61zM209 673c-32 0 -54 27 -54 57c0 32 23 56 57 56c35 0 55 -23 55 -54c0 -32 -22 -59 -58 -59zM408 673c-32 0 -54 27 -54 57c0 32 23 56 57 56
c35 0 55 -23 55 -54c0 -32 -22 -59 -58 -59z" />
    <glyph glyph-name="afii10028.sc" horiz-adv-x="660" 
d="M220 273v-229l80 -13v-31h-253v31l80 13v513l-80 13v31h249v-31l-76 -13v-234h88l158 231l-59 16v31h224v-31l-79 -16l-185 -229l213 -254c27 -31 30 -33 72 -40v-31h-80c-58 0 -62 8 -97 51l-182 222h-73z" />
    <glyph glyph-name="afii10030.sc" horiz-adv-x="904" 
d="M691 44l-12 377c-1 35 3 63 3 63l-5 1s-9 -28 -25 -58l-209 -393h-14l-213 388c-18 33 -29 60 -29 60l-5 -2s4 -29 3 -67l-3 -363l82 -19v-31h-218v31l78 19l6 506l-79 14v31h169l199 -372c18 -34 32 -67 32 -67h3s13 34 31 68l193 371h172v-31l-79 -13l14 -513l80 -13
v-31h-254v31z" />
    <glyph glyph-name="afii10031.sc" horiz-adv-x="754" 
d="M220 326h314v231l-80 13v31h253v-31l-80 -13v-513l80 -13v-31h-253v31l80 13v232h-314v-232l80 -13v-31h-253v31l80 13v513l-80 13v31h253v-31l-80 -13v-231z" />
    <glyph glyph-name="afii10032.sc" horiz-adv-x="690" 
d="M358 34c126 0 177 128 177 239c0 145 -64 289 -204 289c-124 0 -176 -128 -176 -239c0 -145 65 -289 203 -289zM335 -14c-172 0 -281 129 -281 309c0 154 88 315 301 315c172 0 282 -129 282 -309c0 -154 -88 -315 -302 -315z" />
    <glyph glyph-name="afii10033.sc" horiz-adv-x="744" 
d="M47 601h650v-31l-80 -13v-513l80 -13v-31h-253v31l80 13v507h-304v-507l80 -13v-31h-253v31l80 13v513l-80 13v31z" />
    <glyph glyph-name="afii10034.sc" horiz-adv-x="580" 
d="M220 215v-171l80 -13v-31h-253v31l80 13v513l-80 13v31h265c137 0 231 -65 231 -189c0 -112 -74 -197 -231 -197h-92zM299 551h-79v-286h80c95 0 145 65 145 142c0 79 -53 144 -146 144z" />
    <glyph glyph-name="afii10035.sc" horiz-adv-x="618" 
d="M378 609c110 0 173 -40 173 -40l-1 -160h-39l-27 129c-19 9 -52 20 -99 20c-150 0 -235 -121 -235 -246c0 -158 87 -273 231 -273c62 0 102 13 113 17l27 127h38l-6 -157s-70 -40 -190 -40c-163 0 -310 94 -310 298c0 157 87 325 325 325z" />
    <glyph glyph-name="afii10036.sc" horiz-adv-x="622" 
d="M265 44v509l-167 -9l-27 -127h-37l-1 184h561l-11 -184h-37l-17 127l-171 9v-509l80 -13v-31h-253v31z" />
    <glyph glyph-name="afii10039.sc" horiz-adv-x="666" 
d="M85 56l198 240l-197 250l-70 24v31h263v-31l-82 -22l149 -196l143 196l-82 22v31h228v-31l-63 -23l-195 -236l213 -258l69 -22v-31h-263v31l83 22l-163 203l-151 -201l83 -24v-31h-228v31z" />
    <glyph glyph-name="afii10020.sc" horiz-adv-x="546" 
d="M47 601h472l-7 -174h-37l-19 118l-236 6v-507l100 -13v-31h-273v31l80 13v513l-80 13v31z" />
    <glyph glyph-name="afii10040.sc" horiz-adv-x="744" 
d="M615 557v-507h94l-6 -224h-41l-27 174h-590v21l80 23v513l-80 23v21h253v-21l-80 -23v-507h304v507l-80 23v21h253v-21z" />
    <glyph glyph-name="afii10042.sc" horiz-adv-x="993" 
d="M47 0v31l80 13v513l-80 13v31h253v-31l-80 -13v-507h230v507l-70 13v31h233v-31l-70 -13v-507h230v507l-80 13v31h253v-31l-80 -13v-513l80 -13v-31h-899z" />
    <glyph glyph-name="afii10043.sc" horiz-adv-x="996" 
d="M886 0h-839v31l80 13v513l-80 13v31h253v-31l-80 -13v-507h230v507l-70 13v31h233v-31l-70 -13v-507h230v507l-80 13v31h253v-31l-80 -13v-507h94l-6 -224h-41z" />
    <glyph glyph-name="afii10018.sc" horiz-adv-x="605" 
d="M220 50h107c75 0 128 50 128 129c0 77 -50 127 -130 127h-105v-256zM47 601h472l-7 -174h-37l-19 118l-236 6v-195h124c132 0 211 -64 211 -169c0 -128 -96 -187 -233 -187h-275v31l80 13v513l-80 13v31z" />
    <glyph glyph-name="afii10029.sc" horiz-adv-x="680" 
d="M455 547h-190c-13 -177 -30 -318 -78 -444c-42 -111 -116 -127 -175 -103v82c55 -10 98 11 126 89c40 111 64 272 69 386l-80 13v31h506v-31l-80 -13v-513l80 -13v-31h-258v31l80 13v503z" />
    <glyph glyph-name="afii10021.sc" horiz-adv-x="675" 
d="M191 557l-80 13v31h514v-31l-80 -13v-507h94l-6 -224h-41l-27 174h-487l-37 -174h-41l4 224h59c90 92 128 270 128 507zM137 50h315v501h-198c-7 -241 -37 -410 -117 -501z" />
    <glyph glyph-name="afii10024.sc" horiz-adv-x="973" 
d="M440 44v229h-76l-182 -222c-35 -43 -46 -51 -94 -51h-80v31c42 7 46 8 72 40l212 254l-184 229l-79 16v31h224v-31l-59 -16l158 -231h88v234l-75 13v31h243v-31l-75 -13v-234h88l158 231l-59 16v31h224v-31l-79 -16l-185 -229l213 -254c27 -31 30 -33 72 -40v-31h-80
c-48 0 -61 8 -96 51l-182 222h-74v-229l80 -13v-31h-253v31z" />
    <glyph glyph-name="afii10026.sc" horiz-adv-x="760" 
d="M220 0h-173v31l80 13v513l-80 13v31h253v-31l-80 -13v-377c0 -46 -5 -90 -5 -90h4s17 37 44 79l277 432h173v-31l-80 -13v-513l80 -13v-31h-253v31l80 13v393c0 41 4 75 4 75h-3s-14 -30 -39 -70z" />
    <glyph glyph-name="afii10027.sc" horiz-adv-x="760" 
d="M394 674c-90 0 -153 40 -184 70l54 61c39 -35 70 -92 130 -92s91 57 130 92l54 -61c-31 -30 -98 -70 -184 -70zM220 0h-173v31l80 13v513l-80 13v31h253v-31l-80 -13v-377c0 -46 -5 -90 -5 -90h4s17 37 44 79l277 432h173v-31l-80 -13v-513l80 -13v-31h-253v31l80 13v393
c0 41 4 75 4 75h-3s-14 -30 -39 -70z" />
    <glyph glyph-name="afii10025.sc" horiz-adv-x="523" 
d="M216 39c103 0 153 60 153 131c0 83 -55 114 -146 114h-51v50h53c89 0 135 44 135 113c0 63 -49 111 -123 111c-46 0 -80 -11 -99 -20l-27 -129h-39l-1 160s63 40 173 40c144 0 216 -66 216 -151c0 -69 -61 -131 -142 -142v-5c99 -11 151 -63 151 -141
c0 -98 -89 -184 -236 -184c-120 0 -174 40 -174 40l-6 157h38l27 -127c7 -3 38 -17 98 -17z" />
    <glyph glyph-name="afii10037.sc" horiz-adv-x="594" 
d="M533 549l-173 -400c-41 -94 -83 -159 -173 -159c-35 0 -60 12 -60 12v65s22 -6 61 -6c34 0 66 14 86 39l-207 449l-66 31v21h234v-21l-74 -31l114 -263c26 -59 39 -105 39 -105h6s17 51 36 99l105 269l-83 31v21h220v-21z" />
    <glyph glyph-name="afii10046.sc" horiz-adv-x="592" 
d="M220 557v-201h124c132 0 211 -64 211 -169c0 -128 -96 -187 -233 -187h-275v31l80 13v513l-80 13v31h263v-31zM220 50h107c75 0 128 50 128 129c0 77 -50 127 -130 127h-105v-256z" />
    <glyph glyph-name="afii10045.sc" horiz-adv-x="906" 
d="M220 557v-201h124c132 0 211 -64 211 -169c0 -128 -96 -187 -233 -187h-275v31l80 13v513l-80 13v31h263v-31zM220 50h107c75 0 128 50 128 129c0 77 -50 127 -130 127h-105v-256zM779 557v-513l80 -13v-31h-253v31l80 13v513l-80 13v31h253v-31z" />
    <glyph glyph-name="afii10044.sc" horiz-adv-x="712" 
d="M34 417l2 184h384v-21l-80 -23v-201h124c132 0 211 -64 211 -169c0 -128 -96 -187 -233 -187h-275v21l80 23v507l-154 -6l-22 -128h-37zM340 50h107c75 0 128 50 128 129c0 77 -50 127 -130 127h-105v-256z" />
    <glyph glyph-name="afii10048.sc" horiz-adv-x="969" 
d="M618 -14c-166 0 -268 120 -276 290h-122v-232l75 -13v-31h-248v31l80 13v513l-80 13v31h248v-31l-75 -13v-231h123c12 144 96 284 295 284c172 0 277 -129 277 -309c0 -154 -83 -315 -297 -315zM641 34c126 0 172 128 172 239c0 145 -59 289 -199 289
c-124 0 -171 -128 -171 -239c0 -145 60 -289 198 -289z" />
    <glyph glyph-name="afii10041.sc" horiz-adv-x="687" 
d="M467 44v198s-79 -22 -157 -22c-132 0 -220 52 -220 191v146l-80 13v31h253v-31l-80 -13v-129c0 -89 35 -149 147 -152c72 -2 137 15 137 15v266l-80 13v31h253v-31l-80 -13v-513l80 -13v-31h-263v31z" />
    <glyph glyph-name="afii10047.sc" horiz-adv-x="605" 
d="M213 42c130 0 226 68 239 225l-270 -7v73l271 -8c-7 139 -90 237 -200 237c-73 0 -120 -23 -120 -23l-40 -135h-29l-1 170s68 40 178 40c171 0 312 -101 312 -305c0 -157 -97 -323 -306 -323c-130 0 -189 47 -189 47l2 160h28l35 -136s39 -15 90 -15z" />
    <glyph glyph-name="afii10049.sc" horiz-adv-x="628" 
d="M411 44l-1 188h-110l-113 -170c-37 -52 -59 -72 -115 -72c-34 0 -59 9 -59 9v20c36 10 48 21 70 50l132 173c-81 23 -134 85 -134 167c0 127 95 191 232 192h270l-1 -20l-80 -24v-514l81 -22v-21h-253v21zM410 551h-88c-89 0 -141 -55 -141 -128c0 -84 50 -141 139 -141
h90v269z" />
    <glyph glyph-name="afii10038.sc" horiz-adv-x="767" 
d="M337 34v60c-183 0 -303 69 -303 218c0 143 122 220 303 220v54l-80 13v31h253v-31l-80 -13v-54c183 0 303 -69 303 -218c0 -143 -122 -220 -303 -220v-60l80 -13v-31h-253v31zM640 314c0 123 -87 172 -210 172v-346c121 0 210 55 210 174zM127 312
c0 -123 87 -172 210 -172v346c-121 0 -210 -55 -210 -174z" />
    <glyph glyph-name="afii10050.sc" horiz-adv-x="534" 
d="M47 601h398l38 139h33l-8 -204l-288 10v-502l100 -13v-31h-273v31l80 13v513l-80 13v31z" />
    <glyph glyph-name="afii10051.sc" horiz-adv-x="732" 
d="M265 44v509l-167 -9l-27 -127h-37l-1 184h561l-11 -184h-37l-17 127l-171 9v-209s56 32 147 32c125 0 182 -70 182 -190c0 -126 -82 -191 -168 -232l-18 30c72 43 88 104 88 189c0 88 -36 137 -127 137c-58 0 -104 -8 -104 -8v-258l80 -13v-31h-253v31z" />
    <glyph glyph-name="afii10052.sc" horiz-adv-x="546" 
d="M288 665l-28 30l149 177l62 -64zM47 601h472l-7 -174h-37l-19 118l-236 6v-507l100 -13v-31h-273v31l80 13v513l-80 13v31z" />
    <glyph glyph-name="afii10053.sc" horiz-adv-x="615" 
d="M378 609c110 0 173 -40 173 -40l-1 -160h-39l-27 129c-19 9 -52 20 -99 20c-146 0 -230 -114 -235 -235l302 10v-73l-300 10c14 -136 98 -231 229 -231c62 0 102 13 113 17l27 127h38l-6 -157s-70 -40 -190 -40c-163 0 -310 94 -310 298c0 157 87 325 325 325z" />
    <glyph glyph-name="afii10054.sc" horiz-adv-x="533" 
d="M243 38c76 0 145 36 145 105c0 149 -323 93 -323 297c0 88 70 169 227 169c110 0 170 -40 170 -40l-1 -160h-39l-27 129c-30 14 -65 21 -110 21c-84 0 -131 -43 -131 -93c0 -161 323 -99 323 -299c0 -106 -89 -181 -234 -181c-108 0 -179 40 -179 40l-6 157h38l27 -126
c31 -11 72 -19 120 -19z" />
    <glyph glyph-name="afii10055.sc" horiz-adv-x="347" 
d="M220 557v-513l80 -13v-31h-253v31l80 13v513l-80 13v31h253v-31z" />
    <glyph glyph-name="afii10056.sc" horiz-adv-x="347" 
d="M220 557v-513l80 -13v-31h-253v31l80 13v513l-80 13v31h253v-31zM71 705c-32 0 -54 27 -54 57c0 32 23 56 57 56c35 0 55 -23 55 -54c0 -32 -22 -59 -58 -59zM270 705c-32 0 -54 27 -54 57c0 32 23 56 57 56c35 0 55 -23 55 -54c0 -32 -22 -59 -58 -59z" />
    <glyph glyph-name="afii10057.sc" horiz-adv-x="337" 
d="M218 557v-475c0 -45 -3 -80 -17 -118c-27 -72 -77 -122 -133 -182l-33 24l42 58c39 53 43 95 43 166v527l-80 13v31h258v-31z" />
    <glyph glyph-name="afii10058.sc" horiz-adv-x="902" 
d="M530 557v-201h124c132 0 211 -64 211 -169c0 -128 -96 -187 -233 -187h-275v31l80 13v503h-189c-8 -181 -21 -305 -55 -422c-40 -134 -120 -149 -179 -125v82c55 -10 95 11 120 89c35 108 44 262 50 386l-80 13v31h506v-31zM530 50h107c75 0 128 50 128 129
c0 77 -50 127 -130 127h-105v-256z" />
    <glyph glyph-name="afii10059.sc" horiz-adv-x="977" 
d="M605 557v-201h124c132 0 211 -64 211 -169c0 -128 -96 -187 -233 -187h-275v21l80 23v232h-294v-232l80 -23v-21h-253v21l80 23v513l-80 23v21h253v-21l-80 -23v-231h294v231l-80 23v21h253v-21zM605 50h107c75 0 128 50 128 129c0 77 -50 127 -130 127h-105v-256z" />
    <glyph glyph-name="afii10060.sc" horiz-adv-x="781" 
d="M265 44v509l-167 -9l-27 -127h-37l-1 184h561l-11 -184h-37l-17 127l-171 9v-236s66 45 157 45c113 0 178 -61 178 -160v-158l80 -13v-31h-253v31l80 13v133c0 72 -34 119 -136 119c-59 0 -106 -15 -106 -15v-237l80 -13v-31h-253v31z" />
    <glyph glyph-name="afii10061.sc" horiz-adv-x="660" 
d="M220 273v-229l80 -13v-31h-253v31l80 13v513l-80 13v31h249v-31l-76 -13v-234h88l158 231l-59 16v31h224v-31l-79 -16l-185 -229l213 -254c27 -31 30 -33 72 -40v-31h-80c-58 0 -62 8 -97 51l-182 222h-73zM337 665l-28 30l149 177l62 -64z" />
    <glyph glyph-name="afii10062.sc" horiz-adv-x="594" 
d="M307 718c-90 0 -153 40 -184 70l54 61c39 -35 70 -92 130 -92s91 57 130 92l54 -61c-31 -30 -98 -70 -184 -70zM533 549l-173 -400c-41 -94 -83 -159 -173 -159c-35 0 -60 12 -60 12v65s22 -6 61 -6c34 0 66 14 86 39l-207 449l-66 31v21h234v-21l-74 -31l114 -263
c26 -59 39 -105 39 -105h6s17 51 36 99l105 269l-83 31v21h220v-21z" />
    <glyph glyph-name="afii10145.sc" horiz-adv-x="744" 
d="M335 0h-288v31l80 13v513l-80 13v31h253v-31l-80 -13v-507h304v507l-80 13v31h253v-31l-80 -13v-513l80 -13v-31h-283l-20 -174h-43z" />
    <glyph glyph-name="afii61352.sc" horiz-adv-x="1082" 
d="M725 111v64h286v-64h-286zM870 268c38 0 70 39 70 103c0 71 -30 121 -75 121c-39 0 -70 -39 -70 -102c0 -72 27 -122 75 -122zM860 222c-98 0 -155 76 -155 155c0 88 61 161 164 161c105 0 162 -76 162 -154c0 -89 -64 -162 -171 -162zM602 557v-557l-42 -16l-380 472
v-412l80 -13v-31h-218v31l80 13v476l-44 53v28h102l364 -459v415l-80 13v31h218v-31z" />
    <glyph glyph-name="a" unicode="a" horiz-adv-x="519" 
d="M329 59c-38 -35 -87 -64 -159 -64c-82 0 -128 54 -128 121c0 77 43 133 150 152c47 8 107 9 136 9v54c0 73 -16 115 -107 115c-69 0 -149 -23 -149 -23v34s78 53 182 53c119 0 165 -66 165 -187v-240c0 -25 7 -43 37 -43h31v-27s-31 -23 -76 -23c-41 0 -74 20 -82 69z
M214 57c49 0 83 19 115 38c0 0 -3 28 -3 71v71s-53 1 -111 -14c-51 -13 -82 -44 -82 -93c0 -43 27 -73 81 -73z" />
    <glyph glyph-name="afii10051" unicode="&#x402;" horiz-adv-x="758" 
d="M27 700h584l-11 -184h-37l-17 126l-178 9v-242s66 26 159 26c134 0 191 -64 191 -199c0 -187 -69 -261 -203 -312l-16 33c101 50 121 116 121 264c0 110 -45 151 -128 151c-56 0 -124 -9 -124 -9v-319l80 -13v-31h-258v31l80 13v607l-178 -9l-27 -126h-37z" />
    <glyph glyph-name="afii10060" unicode="&#x40b;" horiz-adv-x="802" 
d="M27 700h584l-11 -184h-37l-17 126l-178 9v-246s71 30 174 30c107 0 175 -59 175 -163v-228l80 -13v-31h-247v31l70 13v203c0 79 -38 125 -121 125c-67 0 -131 -13 -131 -13v-315l80 -13v-31h-258v31l80 13v607l-178 -9l-27 -126h-37z" />
    <glyph glyph-name="afii10108" unicode="&#x45b;" horiz-adv-x="639" 
d="M205 540l-1 -139c45 35 99 69 162 69c105 0 161 -73 161 -179v-247l80 -13v-31h-243v31l70 13v221c0 83 -31 128 -103 128s-127 -31 -127 -31s4 -41 4 -95v-223l70 -13v-31h-243v31l80 13v496h-84v54h84v113l-81 8v31l154 15l20 -5l-2 -162h190v-54h-191z" />
    <glyph glyph-name="afii10099" unicode="&#x452;" horiz-adv-x="611" 
d="M434 97v168c0 83 -31 128 -116 128c-69 0 -114 -18 -114 -18s4 -41 4 -95v-236l70 -13v-31h-243v31l80 13v496h-84v54h84v103l-81 8v31l154 25l20 -5l-2 -162h190v-54h-191l-1 -126s68 56 162 56c105 0 161 -73 161 -179v-193c0 -45 0 -87 -20 -133
c-30 -69 -73 -114 -125 -167l-29 23l30 45c40 61 51 129 51 231z" />
    <glyph glyph-name="afii61352" unicode="&#x2116;" horiz-adv-x="1133" 
d="M781 180v64h286v-64h-286zM926 337c38 0 70 39 70 103c0 71 -30 121 -75 121c-39 0 -70 -39 -70 -102c0 -72 27 -122 75 -122zM916 291c-98 0 -155 76 -155 155c0 88 61 161 164 161c105 0 162 -76 162 -154c0 -89 -64 -162 -171 -162zM588 234v417l-80 18v31h218v-31
l-80 -18v-651l-54 -4l-358 488c-29 39 -52 79 -52 79l-3 -1s5 -44 5 -90v-425l80 -16v-31h-218v31l80 16v563l-46 53v37l110 4l349 -480c25 -34 49 -78 49 -78l4 1s-4 46 -4 87z" />
    <glyph glyph-name="Euro" unicode="&#x20ac;" horiz-adv-x="761" 
d="M531 38c43 0 84 9 107 15l21 150h38v-178s-78 -39 -177 -39c-191 0 -322 88 -362 245h-125l21 65h94c-1 13 -2 27 -2 42c0 14 0 29 2 43h-114l20 65h104c36 152 152 268 338 268c130 0 204 -40 204 -40l-8 -170h-39l-15 134c-20 8 -67 24 -135 24
c-138 0 -223 -84 -248 -216h310l-21 -65h-296v-22c0 -22 1 -43 4 -63h268l-21 -65h-232c37 -115 128 -193 264 -193z" />
    <glyph glyph-name="quotedblbase" unicode="&#x201e;" horiz-adv-x="442" 
d="M81 -171l-20 22c44 38 71 93 74 143c-48 -12 -75 22 -75 56c0 37 28 60 64 60c34 0 65 -22 65 -72c0 -81 -38 -155 -108 -209zM273 -171l-20 22c44 38 71 93 74 143c-48 -12 -75 22 -75 56c0 37 28 60 64 60c34 0 65 -22 65 -72c0 -81 -38 -155 -108 -209z" />
    <glyph glyph-name="quotedblright" unicode="&#x201d;" horiz-adv-x="433" 
d="M281 433l-20 22c44 38 71 93 74 143c-48 -12 -75 22 -75 56c0 37 28 60 64 60c34 0 65 -22 65 -72c0 -81 -38 -155 -108 -209zM77 433l-20 22c44 38 71 93 74 143c-48 -12 -75 22 -75 56c0 37 28 60 64 60c34 0 65 -22 65 -72c0 -81 -38 -155 -108 -209z" />
    <glyph glyph-name="zero.set1" horiz-adv-x="624" 
d="M316 46c89 0 141 138 141 274c0 163 -45 334 -153 334c-92 0 -138 -138 -138 -274c0 -163 37 -334 150 -334zM300 -14c-154 0 -236 173 -236 343c0 228 85 385 259 385c154 0 236 -173 236 -343c0 -228 -85 -385 -259 -385z" />
    <glyph glyph-name="one.set1" horiz-adv-x="463" 
d="M45 611l-4 30l244 65h16v-652l146 -22v-32h-390v32l146 21v567z" />
    <glyph glyph-name="two.set1" horiz-adv-x="518" 
d="M340 511c0 79 -41 132 -132 132c-42 0 -76 -9 -76 -9l-31 -134h-29l-1 165s66 45 180 45c105 0 187 -58 187 -181c0 -129 -83 -225 -252 -415l-44 -49l246 14c44 3 80 10 80 10l-8 -89h-413v30l85 99c165 192 208 286 208 382z" />
    <glyph glyph-name="three.set1" horiz-adv-x="539" 
d="M80 666c0 0 73 44 179 44c115 0 190 -59 190 -161c0 -85 -51 -152 -155 -175c110 -14 185 -77 185 -178c0 -113 -84 -206 -225 -206c-117 0 -186 48 -186 48v149h35l24 -128c26 -8 56 -14 89 -14c116 0 163 74 163 159c0 73 -49 144 -182 144h-26l5 44h25
c97 0 152 60 152 136c0 69 -42 125 -139 125c-28 0 -55 -4 -76 -7l-25 -146h-33v166z" />
    <glyph glyph-name="four.set1" horiz-adv-x="571" 
d="M440 -10h-94v179h-317v25l225 506h94l-234 -472l232 3v167c0 51 -6 103 -6 103l100 4v-273l100 2l-6 -65h-94v-179z" />
    <glyph glyph-name="five.set1" horiz-adv-x="516" 
d="M446 797l-8 -179l-271 11l-12 -189c212 -5 305 -109 305 -235c0 -118 -79 -215 -226 -215c-89 0 -153 37 -184 66l7 28s60 -30 144 -30c105 0 159 52 159 143c0 123 -118 174 -273 174l18 329h286l26 97h29z" />
    <glyph glyph-name="six.set1" horiz-adv-x="555" 
d="M457 685c-156 -22 -281 -127 -304 -339c24 30 73 75 163 75c115 0 190 -69 190 -197c0 -126 -80 -234 -218 -234c-141 0 -234 111 -234 278c0 301 165 425 396 453zM284 359c-77 0 -117 -51 -131 -74c-1 -9 0 -20 0 -29c0 -115 43 -218 140 -218c81 0 119 75 119 167
c0 93 -40 154 -128 154z" />
    <glyph glyph-name="seven.set1" horiz-adv-x="461" 
d="M43 521l3 179h402v-17c-109 -233 -189 -489 -240 -700l-94 24c65 193 164 450 258 632l-268 -12l-29 -106h-32z" />
    <glyph glyph-name="eight.set1" horiz-adv-x="578" 
d="M289 41c75 0 129 59 129 150c0 85 -47 148 -129 148c-83 0 -129 -64 -129 -147c0 -92 55 -151 129 -151zM289 392c65 0 111 48 111 136c0 78 -47 131 -111 131c-70 0 -111 -54 -111 -131c0 -88 41 -136 111 -136zM289 -10c-139 0 -226 79 -226 197c0 79 52 152 139 179
c-76 27 -116 86 -116 161c0 98 73 183 203 183s203 -83 203 -182c0 -70 -41 -135 -116 -162c93 -29 139 -96 139 -179c0 -115 -90 -197 -226 -197z" />
    <glyph glyph-name="nine.set1" horiz-adv-x="555" 
d="M98 15c153 21 276 122 302 325c-24 -30 -74 -72 -161 -72c-115 0 -190 80 -190 208c0 126 80 234 218 234c141 0 234 -111 234 -278c0 -301 -165 -425 -396 -453zM271 330c75 0 115 48 130 72c1 13 1 28 1 42c0 115 -43 218 -140 218c-81 0 -119 -75 -119 -167
c0 -93 40 -165 128 -165z" />
    <glyph glyph-name="zero.set2" horiz-adv-x="624" 
d="M316 46c89 0 141 138 141 274c0 163 -45 334 -153 334c-92 0 -138 -138 -138 -274c0 -163 37 -334 150 -334zM300 -14c-154 0 -236 173 -236 343c0 228 85 385 259 385c154 0 236 -173 236 -343c0 -228 -85 -385 -259 -385z" />
    <glyph glyph-name="one.set2" horiz-adv-x="463" 
d="M45 611l-4 30l244 65h16v-652l146 -22v-32h-390v32l146 21v567z" />
    <glyph glyph-name="two.set2" horiz-adv-x="526" 
d="M340 511c0 79 -41 132 -132 132c-42 0 -76 -9 -76 -9l-31 -134h-29l-1 165s66 45 180 45c105 0 187 -58 187 -181c0 -129 -83 -225 -252 -415l-44 -49l262 14l34 111h29l-7 -190h-413v30l85 99c165 192 208 286 208 382z" />
    <glyph glyph-name="three.set2" horiz-adv-x="529" 
d="M161 348l5 44h25c97 0 152 60 152 136c0 69 -42 125 -139 125c-28 0 -54 -3 -75 -7l-25 -146h-34v166s73 44 179 44c115 0 190 -59 190 -161c0 -85 -51 -152 -155 -175c110 -14 185 -77 185 -178c0 -113 -84 -206 -225 -206c-117 0 -185 66 -185 66l7 32s70 -33 140 -33
c116 0 163 64 163 149c0 73 -49 144 -182 144h-26z" />
    <glyph glyph-name="four.set2" horiz-adv-x="584" 
d="M240 0v31l106 12v128h-317v25l225 504h94l-234 -472l232 3v167c0 51 -6 103 -6 103l100 4v-273l100 2l-6 -63h-94v-128l100 -12v-31h-300z" />
    <glyph glyph-name="five.set2" horiz-adv-x="516" 
d="M446 797l-8 -179l-271 11l-12 -189c212 -5 305 -109 305 -235c0 -118 -79 -215 -226 -215c-89 0 -153 37 -184 66l7 28s60 -30 144 -30c105 0 159 52 159 143c0 123 -118 174 -273 174l18 329h285l27 97h29z" />
    <glyph glyph-name="six.set2" horiz-adv-x="551" 
d="M453 685c-152 -22 -301 -140 -310 -355c21 41 67 91 169 91c115 0 190 -69 190 -197c0 -126 -80 -234 -218 -234c-145 0 -230 111 -230 294c0 285 161 409 392 437zM286 359c-81 0 -131 -62 -131 -145c0 -95 50 -176 134 -176c81 0 119 75 119 167c0 93 -40 154 -122 154
z" />
    <glyph glyph-name="seven.set2" horiz-adv-x="461" 
d="M43 521l3 179h402v-17c-109 -233 -189 -489 -240 -700l-94 24c65 193 164 450 258 632l-268 -12l-29 -106h-32z" />
    <glyph glyph-name="eight.set2" horiz-adv-x="566" 
d="M62 174c0 101 82 158 154 188c-70 41 -132 89 -132 181c0 101 89 167 206 167c113 0 198 -61 196 -160c-2 -85 -82 -141 -136 -169c78 -44 153 -95 153 -201c0 -112 -101 -191 -218 -191c-132 0 -223 66 -223 185zM412 164c0 85 -77 130 -158 176
c-65 -42 -97 -101 -97 -175c0 -64 41 -123 125 -123c72 0 130 42 130 122zM176 562c0 -76 63 -119 136 -160c42 30 78 80 79 152c1 62 -36 108 -105 108c-74 0 -110 -46 -110 -100z" />
    <glyph glyph-name="nine.set2" horiz-adv-x="551" 
d="M98 19c152 21 301 140 309 354c-21 -40 -67 -90 -168 -90c-115 0 -190 69 -190 197c0 126 80 234 218 234c145 0 230 -111 230 -294c0 -285 -161 -409 -392 -437zM265 345c81 0 131 62 131 145c0 95 -50 176 -134 176c-81 0 -119 -75 -119 -167c0 -93 40 -154 122 -154z
" />
    <glyph glyph-name="arrow.alt" horiz-adv-x="1291" 
d="M370 61h-10s-138 150 -318 180v9c180 49 318 183 318 183h10v-153h445c63 59 129 139 166 208l64 -44c-17 -37 -111 -150 -186 -203c72 -50 169 -165 186 -202l-64 -44c-50 77 -111 156 -170 211h-441v-145zM1235 444c-17 -37 -111 -150 -186 -203
c72 -50 169 -165 186 -202l-64 -44c-56 88 -128 177 -193 232v29c71 60 151 153 193 232z" />
    <glyph glyph-name="arrow.alt1" horiz-adv-x="958" 
d="M901 206h-749c63 -57 128 -138 142 -167l-64 -44c-56 88 -128 177 -193 232v29c71 60 151 153 193 232l64 -44c-14 -30 -76 -107 -139 -164h746v-74z" />
    <glyph glyph-name="approxequal" unicode="&#x2248;" horiz-adv-x="555" 
d="M361 199c49 0 81 24 98 67l30 -11c1 -73 -47 -132 -117 -132c-71 0 -107 65 -175 65c-49 0 -81 -24 -98 -67l-30 11c-1 73 47 132 117 132c83 0 105 -65 175 -65zM360 369c49 0 81 24 98 67l30 -11c1 -73 -47 -132 -117 -132c-71 0 -107 65 -175 65
c-49 0 -81 -24 -98 -67l-30 11c-1 73 47 132 117 132c83 0 105 -65 175 -65z" />
    <glyph glyph-name="quoteleft" unicode="&#x2018;" horiz-adv-x="238" 
d="M179 713l18 -24c-46 -28 -88 -76 -94 -127c48 12 75 -22 75 -56c0 -37 -28 -60 -64 -60c-34 0 -65 22 -65 72c0 81 56 156 130 195z" />
    <glyph glyph-name="afii10055" unicode="&#x406;" horiz-adv-x="350" 
d="M224 656v-612l80 -23v-21h-258v21l80 23v612l-80 23v21h258v-21z" />
    <glyph glyph-name="Eth" unicode="&#xd0;" horiz-adv-x="747" 
d="M22 331v54h112v271l-80 13v31h287c226 0 355 -145 355 -337c0 -243 -166 -363 -372 -363h-270v31l80 13v287h-112zM304 650h-72v-265h124v-54h-124v-281h100c171 0 261 120 261 294c0 169 -90 306 -289 306z" />
    <glyph glyph-name="eth" unicode="&#xf0;" horiz-adv-x="589" 
d="M151 557l-29 40l125 82c-42 20 -92 35 -151 42l8 37c71 -10 135 -24 191 -47l144 95l27 -41l-120 -79c111 -65 177 -178 177 -379c0 -167 -82 -317 -244 -317c-148 0 -228 109 -228 240c0 130 81 231 220 231c87 0 134 -33 147 -45c-14 102 -52 182 -124 235zM424 315
c0 19 -1 37 -2 55c-15 9 -62 37 -118 37c-106 0 -156 -77 -156 -179c0 -109 45 -189 141 -189c104 0 135 136 135 276z" />
    <glyph glyph-name="Lslash" unicode="&#x141;" horiz-adv-x="590" 
d="M234 340v-290l264 4l29 149h37l-6 -203h-502v31l80 13v241l-104 -58l-27 46l131 73v310l-80 13v31h258v-31l-80 -13v-255l109 61l27 -45z" />
    <glyph glyph-name="lslash" unicode="&#x142;" horiz-adv-x="399" 
d="M40 216l-26 47l135 76v366l-81 10v31l154 15l20 -5v-364l110 62l26 -46l-136 -77v-289l80 -11v-31h-253v31l80 11v236z" />
    <glyph glyph-name="Yacute" unicode="&#xdd;" horiz-adv-x="632" 
d="M369 299v-255l80 -13v-31h-258v31l80 13v255l-230 357l-58 13v31h239v-31l-77 -13l143 -234c22 -36 43 -83 43 -83h4s17 38 45 89l93 159c13 24 23 45 23 65l-68 17v31h205v-31l-59 -15zM325 750l-28 30l149 177l62 -64z" />
    <glyph glyph-name="yacute" unicode="&#xfd;" horiz-adv-x="574" 
d="M164 -250c0 0 32 119 98 232l-193 474l-65 13v31h233v-31l-65 -13l97 -263c22 -61 36 -116 36 -116h4s14 53 34 113l90 266l-75 13v31h212v-31l-69 -13l-172 -457c-53 -141 -71 -254 -71 -254zM275 590l-28 30l149 177l62 -64z" />
    <glyph glyph-name="Thorn" unicode="&#xde;" horiz-adv-x="616" 
d="M324 700v-21l-100 -21v-68h92c165 0 263 -75 263 -215c0 -141 -105 -218 -253 -218h-102v-115l100 -21v-21h-278v21l80 21v616l-80 21v21h278zM224 207h102c105 0 153 80 153 165c0 90 -47 168 -177 168h-78v-333z" />
    <glyph glyph-name="thorn" unicode="&#xfe;" horiz-adv-x="588" 
d="M10 -251v32l80 11v913l-81 10v34l154 5l20 -5l-2 -307c37 35 89 68 154 68c141 0 202 -113 202 -240c0 -167 -96 -280 -232 -280c-61 0 -98 17 -122 33v-231l80 -11v-32h-253zM295 45c109 0 145 98 145 203c0 112 -37 192 -135 192c-50 0 -92 -18 -124 -39
c0 -8 2 -47 2 -96v-220c19 -16 55 -40 112 -40z" />
    <glyph glyph-name="multiply" unicode="&#xd7;" 
d="M107 88l-47 48l142 150l-142 149l49 50l141 -149l141 149l49 -50l-143 -149l143 -150l-47 -48l-143 149z" />
    <glyph glyph-name="Adieresis" unicode="&#xc4;" horiz-adv-x="684" 
d="M183 203l-16 -48c-15 -43 -26 -89 -30 -111l84 -13v-31h-234v31l75 13l241 657l74 6l247 -663l63 -13v-31h-243v31l78 13l-57 159h-282zM322 623h-4s-11 -54 -27 -101l-91 -269h246l-97 266c-18 50 -27 104 -27 104zM241 781c-32 0 -54 27 -54 57c0 32 23 56 57 56
c35 0 55 -23 55 -54c0 -32 -22 -59 -58 -59zM440 781c-32 0 -54 27 -54 57c0 32 23 56 57 56c35 0 55 -23 55 -54c0 -32 -22 -59 -58 -59z" />
    <glyph glyph-name="Eacute" unicode="&#xc9;" horiz-adv-x="600" 
d="M225 333v-283l264 4l27 119h37l-4 -173h-502v31l80 13v612l-80 13v31h492l-6 -170h-41l-13 114l-254 6v-267l234 6v-61zM282 750l-28 30l149 177l62 -64z" />
    <glyph glyph-name="Odieresis" unicode="&#xd6;" horiz-adv-x="769" 
d="M399 33c143 0 215 133 215 296c0 166 -87 338 -246 338c-141 0 -213 -133 -213 -303c0 -159 87 -331 244 -331zM373 -14c-191 0 -320 151 -320 361c0 179 104 367 343 367c191 0 320 -151 320 -361c0 -179 -104 -367 -343 -367zM289 781c-32 0 -54 27 -54 57
c0 32 23 56 57 56c35 0 55 -23 55 -54c0 -32 -22 -59 -58 -59zM488 781c-32 0 -54 27 -54 57c0 32 23 56 57 56c35 0 55 -23 55 -54c0 -32 -22 -59 -58 -59z" />
    <glyph glyph-name="Udieresis" unicode="&#xdc;" horiz-adv-x="742" 
d="M634 655v-371c0 -139 -57 -298 -260 -298c-170 0 -265 105 -265 277v393l-80 13v31h258v-31l-80 -14v-404c0 -127 62 -212 171 -212c124 0 183 89 183 222v394l-80 14v31h233v-31zM278 782c-32 0 -54 27 -54 57c0 32 23 56 57 56c35 0 55 -23 55 -54
c0 -32 -22 -59 -58 -59zM477 782c-32 0 -54 27 -54 57c0 32 23 56 57 56c35 0 55 -23 55 -54c0 -32 -22 -59 -58 -59z" />
    <glyph glyph-name="aacute" unicode="&#xe1;" horiz-adv-x="519" 
d="M329 59c-38 -35 -87 -64 -159 -64c-82 0 -128 54 -128 121c0 77 43 133 150 152c47 8 107 9 136 9v54c0 73 -16 115 -107 115c-69 0 -149 -23 -149 -23v34s78 53 182 53c119 0 165 -66 165 -187v-240c0 -25 7 -43 37 -43h31v-27s-31 -23 -76 -23c-41 0 -74 20 -82 69z
M214 57c49 0 83 19 115 38c0 0 -3 28 -3 71v71s-53 1 -111 -14c-51 -13 -82 -44 -82 -93c0 -43 27 -73 81 -73zM206 590l-28 30l149 177l62 -64z" />
    <glyph glyph-name="agrave" unicode="&#xe0;" horiz-adv-x="519" 
d="M329 59c-38 -35 -87 -64 -159 -64c-82 0 -128 54 -128 121c0 77 43 133 150 152c47 8 107 9 136 9v54c0 73 -16 115 -107 115c-69 0 -149 -23 -149 -23v34s78 53 182 53c119 0 165 -66 165 -187v-240c0 -25 7 -43 37 -43h31v-27s-31 -23 -76 -23c-41 0 -74 20 -82 69z
M214 57c49 0 83 19 115 38c0 0 -3 28 -3 71v71s-53 1 -111 -14c-51 -13 -82 -44 -82 -93c0 -43 27 -73 81 -73zM339 620l-28 -30l-183 143l62 64z" />
    <glyph glyph-name="adieresis" unicode="&#xe4;" horiz-adv-x="519" 
d="M329 59c-38 -35 -87 -64 -159 -64c-82 0 -128 54 -128 121c0 77 43 133 150 152c47 8 107 9 136 9v54c0 73 -16 115 -107 115c-69 0 -149 -23 -149 -23v34s78 53 182 53c119 0 165 -66 165 -187v-240c0 -25 7 -43 37 -43h31v-27s-31 -23 -76 -23c-41 0 -74 20 -82 69z
M214 57c49 0 83 19 115 38c0 0 -3 28 -3 71v71s-53 1 -111 -14c-51 -13 -82 -44 -82 -93c0 -43 27 -73 81 -73zM149 590c-32 0 -54 27 -54 57c0 32 23 56 57 56c35 0 55 -23 55 -54c0 -32 -22 -59 -58 -59zM348 590c-32 0 -54 27 -54 57c0 32 23 56 57 56
c35 0 55 -23 55 -54c0 -32 -22 -59 -58 -59z" />
    <glyph glyph-name="eacute" unicode="&#xe9;" horiz-adv-x="521" 
d="M472 257h-327c3 -119 70 -205 179 -205c68 0 128 24 128 24v-34s-64 -52 -168 -52c-144 0 -234 105 -234 251c0 166 105 269 231 269c139 0 205 -91 191 -253zM277 459c-73 0 -121 -60 -130 -155l234 6c-1 79 -18 149 -104 149zM243 589l-28 30l149 177l62 -64z" />
    <glyph glyph-name="egrave" unicode="&#xe8;" horiz-adv-x="521" 
d="M472 257h-327c3 -119 70 -205 179 -205c68 0 128 24 128 24v-34s-64 -52 -168 -52c-144 0 -234 105 -234 251c0 166 105 269 231 269c139 0 205 -91 191 -253zM277 459c-73 0 -121 -60 -130 -155l234 6c-1 79 -18 149 -104 149zM345 620l-28 -30l-183 143l62 64z" />
    <glyph glyph-name="edieresis" unicode="&#xeb;" horiz-adv-x="521" 
d="M472 257h-327c3 -119 70 -205 179 -205c68 0 128 24 128 24v-34s-64 -52 -168 -52c-144 0 -234 105 -234 251c0 166 105 269 231 269c139 0 205 -91 191 -253zM277 459c-73 0 -121 -60 -130 -155l234 6c-1 79 -18 149 -104 149zM175 590c-32 0 -54 27 -54 57
c0 32 23 56 57 56c35 0 55 -23 55 -54c0 -32 -22 -59 -58 -59zM374 590c-32 0 -54 27 -54 57c0 32 23 56 57 56c35 0 55 -23 55 -54c0 -32 -22 -59 -58 -59z" />
    <glyph glyph-name="oacute" unicode="&#xf3;" horiz-adv-x="574" 
d="M286 39c104 0 143 87 143 210c0 129 -53 212 -141 212c-104 0 -143 -87 -143 -210c0 -129 53 -212 141 -212zM274 -10c-140 0 -224 101 -224 249c0 154 84 271 250 271c140 0 224 -101 224 -249c0 -154 -84 -271 -250 -271zM247 590l-28 30l149 177l62 -64z" />
    <glyph glyph-name="ograve" unicode="&#xf2;" horiz-adv-x="574" 
d="M286 39c104 0 143 87 143 210c0 129 -53 212 -141 212c-104 0 -143 -87 -143 -210c0 -129 53 -212 141 -212zM274 -10c-140 0 -224 101 -224 249c0 154 84 271 250 271c140 0 224 -101 224 -249c0 -154 -84 -271 -250 -271zM366 620l-28 -30l-183 143l62 64z" />
    <glyph glyph-name="odieresis" unicode="&#xf6;" horiz-adv-x="574" 
d="M286 39c104 0 143 87 143 210c0 129 -53 212 -141 212c-104 0 -143 -87 -143 -210c0 -129 53 -212 141 -212zM274 -10c-140 0 -224 101 -224 249c0 154 84 271 250 271c140 0 224 -101 224 -249c0 -154 -84 -271 -250 -271zM183 590c-32 0 -54 27 -54 57
c0 32 23 56 57 56c35 0 55 -23 55 -54c0 -32 -22 -59 -58 -59zM382 590c-32 0 -54 27 -54 57c0 32 23 56 57 56c35 0 55 -23 55 -54c0 -32 -22 -59 -58 -59z" />
    <glyph glyph-name="uacute" unicode="&#xfa;" horiz-adv-x="620" 
d="M514 441v-358c0 -25 7 -43 37 -43h31v-27s-31 -23 -76 -23c-41 0 -74 20 -82 69c-44 -36 -98 -69 -167 -69c-95 0 -155 73 -155 179v282l-81 8v31l158 15l20 -5l-4 -29v-291c0 -58 25 -116 103 -116c51 0 91 16 127 34c0 0 -4 52 -4 101v252l-81 8v31l158 15l20 -5z
M275 589l-28 30l149 177l62 -64z" />
    <glyph glyph-name="ugrave" unicode="&#xf9;" horiz-adv-x="620" 
d="M514 441v-358c0 -25 7 -43 37 -43h31v-27s-31 -23 -76 -23c-41 0 -74 20 -82 69c-44 -36 -98 -69 -167 -69c-95 0 -155 73 -155 179v282l-81 8v31l158 15l20 -5l-4 -29v-291c0 -58 25 -116 103 -116c51 0 91 16 127 34c0 0 -4 52 -4 101v252l-81 8v31l158 15l20 -5z
M357 620l-28 -30l-183 143l62 64z" />
    <glyph glyph-name="udieresis" unicode="&#xfc;" horiz-adv-x="620" 
d="M514 441v-358c0 -25 7 -43 37 -43h31v-27s-31 -23 -76 -23c-41 0 -74 20 -82 69c-44 -36 -98 -69 -167 -69c-95 0 -155 73 -155 179v282l-81 8v31l158 15l20 -5l-4 -29v-291c0 -58 25 -116 103 -116c51 0 91 16 127 34c0 0 -4 52 -4 101v252l-81 8v31l158 15l20 -5z
M205 590c-32 0 -54 27 -54 57c0 32 23 56 57 56c35 0 55 -23 55 -54c0 -32 -22 -59 -58 -59zM404 590c-32 0 -54 27 -54 57c0 32 23 56 57 56c35 0 55 -23 55 -54c0 -32 -22 -59 -58 -59z" />
    <glyph glyph-name="cent" unicode="&#xa2;" horiz-adv-x="484" 
d="M265 458c-85 0 -126 -104 -126 -191c0 -124 57 -215 162 -215c72 0 125 24 125 24v-34s-47 -42 -127 -50v-106h-58v105c-127 12 -197 113 -197 250c0 135 77 240 197 264v105h58v-100c58 -1 87 -17 133 -22l-20 -81c-58 8 -94 51 -147 51z" />
    <glyph glyph-name="Oslash" unicode="&#xd8;" horiz-adv-x="769" 
d="M153 -64l-50 32l65 93c-73 64 -115 165 -115 286c0 179 104 367 343 367c72 0 135 -22 186 -60l56 80l50 -33l-62 -88c57 -64 90 -155 90 -260c0 -179 -104 -367 -343 -367c-59 0 -112 14 -157 40zM155 364c0 -81 22 -165 65 -228l313 448c-41 50 -96 83 -165 83
c-141 0 -213 -133 -213 -303zM399 33c143 0 215 133 215 296c0 70 -16 141 -46 200l-308 -440c37 -35 84 -56 139 -56z" />
    <glyph glyph-name="ae" unicode="&#xe6;" horiz-adv-x="797" 
d="M748 257h-327c3 -119 70 -205 179 -205c68 0 128 24 128 24v-34s-64 -52 -168 -52c-92 0 -162 42 -200 111c-39 -59 -102 -106 -190 -106c-82 0 -128 54 -128 121c0 77 43 133 150 152c47 8 106 9 135 9c0 1 1 3 1 54c0 73 -16 115 -107 115c-69 0 -149 -23 -149 -23v34
s78 53 182 53c74 0 115 -29 136 -78c42 50 101 78 167 78c139 0 205 -91 191 -253zM553 459c-73 0 -121 -60 -130 -155l234 6c-1 79 -18 149 -104 149zM326 237c0 0 -53 1 -111 -14c-51 -13 -82 -44 -82 -93c0 -43 27 -73 81 -73c62 0 110 47 125 93c-8 27 -13 56 -13 87z
" />
    <glyph glyph-name="oslash" unicode="&#xf8;" horiz-adv-x="574" 
d="M100 -60l-50 32l61 85c-39 44 -61 107 -61 182c0 154 84 271 250 271c45 0 85 -11 118 -30l56 77l50 -33l-60 -83c39 -44 60 -106 60 -180c0 -154 -84 -271 -250 -271c-45 0 -84 10 -117 29zM145 251c0 -47 7 -88 20 -121l211 292c-23 25 -53 39 -88 39
c-104 0 -143 -87 -143 -210zM286 39c104 0 143 87 143 210c0 45 -7 85 -19 118l-211 -291c23 -24 52 -37 87 -37z" />
    <glyph glyph-name="questiondown" unicode="&#xbf;" horiz-adv-x="400" 
d="M169 253l4 44c73 -1 117 -34 117 -95c0 -135 -162 -180 -162 -275c0 -47 40 -73 107 -73c71 0 126 33 126 33v-45s-43 -62 -138 -62c-98 0 -166 53 -166 141c0 155 163 207 163 292c0 27 -22 39 -51 40zM218 509c34 0 58 -25 58 -63c0 -39 -26 -62 -64 -62
c-36 0 -57 23 -57 60c0 41 25 65 63 65z" />
    <glyph glyph-name="exclamdown" unicode="&#xa1;" horiz-adv-x="266" 
d="M160 251l26 -501l-104 -5l25 506h53zM136 466c34 0 58 -25 58 -63c0 -39 -26 -62 -64 -62c-36 0 -57 23 -57 60c0 41 25 65 63 65z" />
    <glyph glyph-name="Agrave" unicode="&#xc0;" horiz-adv-x="684" 
d="M183 203l-16 -48c-15 -43 -26 -89 -30 -111l84 -13v-31h-234v31l75 13l241 657l74 6l247 -663l63 -13v-31h-243v31l78 13l-57 159h-282zM322 623h-4s-11 -54 -27 -101l-91 -269h246l-97 266c-18 50 -27 104 -27 104zM380 781l-28 -30l-183 143l62 64z" />
    <glyph glyph-name="OE" unicode="&#x152;" horiz-adv-x="1016" 
d="M641 333v-283l264 4l27 119h37l-4 -173h-422v29c-45 -26 -97 -43 -170 -43c-191 0 -320 151 -320 361c0 179 104 367 339 367c62 0 112 -18 151 -39v25h412l-6 -170h-41l-13 114l-254 6v-267l234 6v-61zM384 667c-157 0 -229 -133 -229 -287c0 -175 87 -347 244 -347
c64 0 115 30 144 52v510c-27 28 -83 72 -159 72z" />
    <glyph glyph-name="oe" unicode="&#x153;" horiz-adv-x="876" 
d="M827 257h-327c3 -119 70 -205 179 -205c68 0 128 24 128 24v-34s-64 -52 -168 -52c-78 0 -141 31 -181 82c-16 -23 -67 -82 -179 -82c-144 0 -229 97 -229 248c0 167 97 272 255 272c78 0 131 -37 161 -81c42 52 103 81 170 81c139 0 205 -91 191 -253zM294 39
c89 0 118 86 124 110c-8 28 -13 59 -13 92c0 36 5 68 14 98c-20 73 -63 122 -131 122c-96 0 -143 -80 -143 -199c0 -141 49 -223 149 -223zM632 459c-73 0 -121 -60 -130 -155l234 6c-1 79 -18 149 -104 149z" />
    <glyph glyph-name="quotedblleft" unicode="&#x201c;" horiz-adv-x="442" 
d="M179 713l18 -24c-46 -28 -88 -76 -94 -127c48 12 75 -22 75 -56c0 -37 -28 -60 -64 -60c-34 0 -65 22 -65 72c0 81 56 156 130 195zM383 713l18 -24c-46 -28 -88 -76 -94 -127c48 12 75 -22 75 -56c0 -37 -28 -60 -64 -60c-34 0 -65 22 -65 72c0 81 56 156 130 195z" />
    <glyph glyph-name="quoteright" unicode="&#x2019;" horiz-adv-x="229" 
d="M77 433l-20 22c44 38 71 93 74 143c-48 -12 -75 22 -75 56c0 37 28 60 64 60c34 0 65 -22 65 -72c0 -81 -38 -155 -108 -209z" />
    <glyph glyph-name="ydieresis" unicode="&#xff;" horiz-adv-x="574" 
d="M164 -250c0 0 32 119 98 232l-193 474l-65 13v31h233v-31l-65 -13l97 -263c22 -61 36 -116 36 -116h4s14 53 34 113l90 266l-75 13v31h212v-31l-69 -13l-172 -457c-53 -141 -71 -254 -71 -254zM195 590c-32 0 -54 27 -54 57c0 32 23 56 57 56c35 0 55 -23 55 -54
c0 -32 -22 -59 -58 -59zM394 590c-32 0 -54 27 -54 57c0 32 23 56 57 56c35 0 55 -23 55 -54c0 -32 -22 -59 -58 -59z" />
    <glyph glyph-name="Ydieresis" unicode="&#x178;" horiz-adv-x="632" 
d="M369 299v-255l80 -13v-31h-258v31l80 13v255l-230 357l-58 13v31h239v-31l-77 -13l143 -234c22 -36 43 -83 43 -83h4s17 38 45 89l93 159c13 24 23 45 23 65l-68 17v31h205v-31l-59 -15zM224 795c-32 0 -54 27 -54 57c0 32 23 56 57 56c35 0 55 -23 55 -54
c0 -32 -22 -59 -58 -59zM423 795c-32 0 -54 27 -54 57c0 32 23 56 57 56c35 0 55 -23 55 -54c0 -32 -22 -59 -58 -59z" />
    <glyph glyph-name="Aacute" unicode="&#xc1;" horiz-adv-x="684" 
d="M183 203l-16 -48c-15 -43 -26 -89 -30 -111l84 -13v-31h-234v31l75 13l241 657l74 6l247 -663l63 -13v-31h-243v31l78 13l-57 159h-282zM322 623h-4s-11 -54 -27 -101l-91 -269h246l-97 266c-18 50 -27 104 -27 104zM314 750l-28 30l149 177l62 -64z" />
    <glyph glyph-name="Edieresis" unicode="&#xcb;" horiz-adv-x="600" 
d="M225 333v-283l264 4l27 119h37l-4 -173h-502v31l80 13v612l-80 13v31h492l-6 -170h-41l-13 114l-254 6v-267l234 6v-61zM221 785c-32 0 -54 27 -54 57c0 32 23 56 57 56c35 0 55 -23 55 -54c0 -32 -22 -59 -58 -59zM420 785c-32 0 -54 27 -54 57c0 32 23 56 57 56
c35 0 55 -23 55 -54c0 -32 -22 -59 -58 -59z" />
    <glyph glyph-name="Egrave" unicode="&#xc8;" horiz-adv-x="600" 
d="M225 333v-283l264 4l27 119h37l-4 -173h-502v31l80 13v612l-80 13v31h492l-6 -170h-41l-13 114l-254 6v-267l234 6v-61zM402 780l-28 -30l-183 143l62 64z" />
    <glyph glyph-name="Iacute" unicode="&#xcd;" horiz-adv-x="352" 
d="M225 656v-612l80 -13v-31h-258v31l80 13v612l-80 13v31h258v-31zM134 751l-28 30l149 177l62 -64z" />
    <glyph glyph-name="Idieresis" unicode="&#xcf;" horiz-adv-x="352" 
d="M225 656v-612l80 -13v-31h-258v31l80 13v612l-80 13v31h258v-31zM76 783c-32 0 -54 27 -54 57c0 32 23 56 57 56c35 0 55 -23 55 -54c0 -32 -22 -59 -58 -59zM275 783c-32 0 -54 27 -54 57c0 32 23 56 57 56c35 0 55 -23 55 -54c0 -32 -22 -59 -58 -59z" />
    <glyph glyph-name="Igrave" unicode="&#xcc;" horiz-adv-x="352" 
d="M225 656v-612l80 -13v-31h-258v31l80 13v612l-80 13v31h258v-31zM259 780l-28 -30l-183 143l62 64z" />
    <glyph glyph-name="Oacute" unicode="&#xd3;" horiz-adv-x="769" 
d="M399 33c143 0 215 133 215 296c0 166 -87 338 -246 338c-141 0 -213 -133 -213 -303c0 -159 87 -331 244 -331zM373 -14c-191 0 -320 151 -320 361c0 179 104 367 343 367c191 0 320 -151 320 -361c0 -179 -104 -367 -343 -367zM364 750l-28 30l149 177l62 -64z" />
    <glyph glyph-name="Ograve" unicode="&#xd2;" horiz-adv-x="769" 
d="M399 33c143 0 215 133 215 296c0 166 -87 338 -246 338c-141 0 -213 -133 -213 -303c0 -159 87 -331 244 -331zM373 -14c-191 0 -320 151 -320 361c0 179 104 367 343 367c191 0 320 -151 320 -361c0 -179 -104 -367 -343 -367zM455 780l-28 -30l-183 143l62 64z" />
    <glyph glyph-name="Uacute" unicode="&#xda;" horiz-adv-x="742" 
d="M634 655v-371c0 -139 -57 -298 -260 -298c-170 0 -265 105 -265 277v393l-80 13v31h258v-31l-80 -14v-404c0 -127 62 -212 171 -212c124 0 183 89 183 222v394l-80 14v31h233v-31zM368 750l-28 30l149 177l62 -64z" />
    <glyph glyph-name="Ucircumflex" unicode="&#xdb;" horiz-adv-x="742" 
d="M634 655v-371c0 -139 -57 -298 -260 -298c-170 0 -265 105 -265 277v393l-80 13v31h258v-31l-80 -14v-404c0 -127 62 -212 171 -212c124 0 183 89 183 222v394l-80 14v31h233v-31zM246 751l-17 27l143 122h29l141 -120l-20 -28l-136 74z" />
    <glyph glyph-name="Ugrave" unicode="&#xd9;" horiz-adv-x="742" 
d="M634 655v-371c0 -139 -57 -298 -260 -298c-170 0 -265 105 -265 277v393l-80 13v31h258v-31l-80 -14v-404c0 -127 62 -212 171 -212c124 0 183 89 183 222v394l-80 14v31h233v-31zM434 781l-28 -30l-183 143l62 64z" />
    <glyph glyph-name="dotlessi" unicode="&#x131;" horiz-adv-x="320" 
d="M191 505l20 -5v-457l80 -12v-31h-253v31l80 12v409l-81 8v31z" />
    <glyph glyph-name="circumflex" unicode="&#x2c6;" horiz-adv-x="384" 
d="M50 562l-17 27l143 122h29l141 -120l-20 -28l-136 74z" />
    <glyph glyph-name="tilde" unicode="&#x2dc;" horiz-adv-x="424" 
d="M272 541c-53 0 -97 55 -136 55c-34 0 -53 -30 -64 -52l-27 7c9 55 40 111 107 111c55 0 95 -55 133 -55c28 0 51 25 66 51l27 -6c-12 -65 -43 -111 -106 -111z" />
    <glyph glyph-name="macron" unicode="&#xaf;" horiz-adv-x="364" 
d="M25 554v59h234v-59h-234z" />
    <glyph glyph-name="breve" unicode="&#x2d8;" horiz-adv-x="398" 
d="M199 516c-72 0 -132 48 -139 146l24 6c19 -51 61 -83 115 -83c51 0 96 32 115 83l24 -6c-8 -88 -56 -146 -139 -146z" />
    <glyph glyph-name="dotaccent" unicode="&#x2d9;" horiz-adv-x="186" 
d="M92 508c-32 0 -59 26 -59 59s29 59 61 59s58 -26 58 -59s-28 -59 -60 -59z" />
    <glyph glyph-name="ring" unicode="&#x2da;" horiz-adv-x="308" 
d="M42 624c0 61 46 99 103 99s103 -38 103 -99s-46 -99 -103 -99s-103 38 -103 99zM199 624c0 38 -20 58 -54 58s-54 -20 -54 -58s20 -58 54 -58s54 20 54 58z" />
    <glyph glyph-name="cedilla" unicode="&#xb8;" horiz-adv-x="240" 
d="M125 -200c-42 0 -90 13 -125 34l13 28c33 -11 70 -15 92 -15c41 0 59 16 59 36c0 28 -49 43 -93 27l-15 13l42 98l19 -2l9 -71c64 10 108 -19 108 -66c0 -45 -46 -82 -109 -82z" />
    <glyph glyph-name="hungarumlaut" unicode="&#x2dd;" horiz-adv-x="507" 
d="M90 500l-28 30l149 177l62 -64zM278 500l-28 30l149 177l62 -64z" />
    <glyph glyph-name="ogonek" unicode="&#x2db;" horiz-adv-x="213" 
d="M118 -194c-47 0 -104 21 -104 80c0 62 44 94 104 114h43c-55 -21 -84 -51 -84 -93c0 -38 30 -57 67 -57s71 16 71 16v-28s-37 -32 -97 -32z" />
    <glyph glyph-name="caron" unicode="&#x2c7;" horiz-adv-x="384" 
d="M330 712l17 -27l-143 -122h-29l-141 120l20 28l136 -74z" />
    <glyph glyph-name="commaaccent" unicode="&#xf6c3;" horiz-adv-x="170" 
d="M35 -312l-18 24c46 28 88 76 94 127c-48 -12 -75 22 -75 56c0 37 28 60 64 60c34 0 65 -22 65 -72c0 -81 -56 -156 -130 -195z" />
    <glyph glyph-name="caron.alt" horiz-adv-x="168" 
d="M21 444l-18 24c46 28 88 76 94 127c-48 -12 -75 22 -75 56c0 37 28 60 64 60c34 0 65 -22 65 -72c0 -81 -56 -156 -130 -195z" />
    <glyph glyph-name="Dcroat" unicode="&#x110;" horiz-adv-x="736" 
d="M21 331v54h112v271l-80 23v21h277c226 0 355 -145 355 -337c0 -243 -166 -363 -372 -363h-260v21l80 23v287h-112zM293 650h-62v-265h124v-54h-124v-281h90c171 0 261 120 261 294c0 169 -90 306 -289 306z" />
    <glyph glyph-name="Eng" unicode="&#x14a;" horiz-adv-x="759" 
d="M583 234v417l-80 28v21h215v-21l-80 -28v-540c0 -92 1 -134 -34 -183c-24 -33 -45 -60 -94 -115l-30 23c31 45 51 74 74 117c10 19 16 38 21 57l-346 474c-18 24 -36 50 -52 79l-3 -1c4 -32 5 -60 5 -90v-425l80 -26v-21h-215v21l80 26v577l-49 55v21h113l346 -476
c18 -25 33 -50 49 -78l4 1c-3 33 -4 59 -4 87z" />
    <glyph glyph-name="dcroat" unicode="&#x111;" horiz-adv-x="595" 
d="M488 579v-496c0 -25 7 -43 37 -43h31v-27s-31 -23 -76 -23c-41 0 -74 20 -82 69c-37 -33 -79 -69 -158 -69c-116 0 -190 110 -190 233c0 180 94 287 244 287c65 0 101 -27 101 -27v96h-165v54h165v74l-81 8v31l154 15l20 -5v-123h76v-54h-76zM305 455
c-102 0 -158 -76 -158 -195c0 -114 47 -196 141 -196c36 0 79 14 111 35c-1 9 -4 51 -4 100v232s-36 24 -90 24z" />
    <glyph glyph-name="Abreve" unicode="&#x102;" horiz-adv-x="684" 
d="M183 203l-16 -48c-15 -43 -26 -89 -30 -111l84 -13v-31h-234v31l75 13l241 657l74 6l247 -663l63 -13v-31h-243v31l78 13l-57 159h-282zM322 623h-4s-11 -54 -27 -101l-91 -269h246l-97 266c-18 50 -27 104 -27 104zM337 783c-72 0 -132 48 -139 146l24 6
c19 -51 61 -83 115 -83c51 0 96 32 115 83l24 -6c-8 -88 -56 -146 -139 -146z" />
    <glyph glyph-name="Amacron" unicode="&#x100;" horiz-adv-x="684" 
d="M183 203l-16 -48c-15 -43 -26 -89 -30 -111l84 -13v-31h-234v31l75 13l241 657l74 6l247 -663l63 -13v-31h-243v31l78 13l-57 159h-282zM322 623h-4s-11 -54 -27 -101l-91 -269h246l-97 266c-18 50 -27 104 -27 104zM220 801v59h234v-59h-234z" />
    <glyph glyph-name="Aogonek" unicode="&#x104;" horiz-adv-x="684" 
d="M588 -194c-47 0 -104 21 -104 80c0 62 44 94 104 114h-144v31l78 13l-57 159h-282l-16 -48c-15 -43 -26 -89 -30 -111l84 -13v-31h-234v31l75 13l241 657l74 6l247 -663l63 -13v-31h-56c-55 -21 -84 -51 -84 -93c0 -38 30 -57 67 -57s71 16 71 16v-28s-37 -32 -97 -32z
M322 623h-4s-11 -54 -27 -101l-91 -269h246l-97 266c-18 50 -27 104 -27 104z" />
    <glyph glyph-name="Aringacute" unicode="&#x1fa;" horiz-adv-x="684" 
d="M183 203l-16 -48c-15 -43 -26 -89 -30 -111l84 -13v-31h-234v31l75 13l241 657l74 6l247 -663l63 -13v-31h-243v31l78 13l-57 159h-282zM322 623h-4s-11 -54 -27 -101l-91 -269h246l-97 266c-18 50 -27 104 -27 104zM240 837c0 52 42 84 94 84s94 -32 94 -84
s-42 -85 -94 -85s-94 33 -94 85zM383 837c0 32 -18 49 -49 49s-50 -17 -50 -49c0 -33 19 -50 50 -50s49 17 49 50zM311 949l-26 27l137 158l57 -58z" />
    <glyph glyph-name="Cacute" unicode="&#x106;" horiz-adv-x="664" 
d="M437 38c43 0 84 9 107 15l21 150h38v-178s-78 -39 -177 -39c-231 0 -374 129 -374 352c0 203 123 376 350 376c130 0 204 -40 204 -40l-8 -170h-39l-15 134c-20 8 -67 24 -135 24c-166 0 -255 -121 -255 -303c0 -181 101 -321 283 -321zM333 748l-28 30l149 177l62 -64z
" />
    <glyph glyph-name="Ccaron" unicode="&#x10c;" horiz-adv-x="664" 
d="M437 38c43 0 84 9 107 15l21 150h38v-178s-78 -39 -177 -39c-231 0 -374 129 -374 352c0 203 123 376 350 376c130 0 204 -40 204 -40l-8 -170h-39l-15 134c-20 8 -67 24 -135 24c-166 0 -255 -121 -255 -303c0 -181 101 -321 283 -321zM546 919l17 -27l-143 -122h-29
l-141 120l20 28l136 -74z" />
    <glyph glyph-name="Ccircumflex" unicode="&#x108;" horiz-adv-x="664" 
d="M437 38c43 0 84 9 107 15l21 150h38v-178s-78 -39 -177 -39c-231 0 -374 129 -374 352c0 203 123 376 350 376c130 0 204 -40 204 -40l-8 -170h-39l-15 134c-20 8 -67 24 -135 24c-166 0 -255 -121 -255 -303c0 -181 101 -321 283 -321zM256 750l-17 27l143 122h29
l141 -120l-20 -28l-136 74z" />
    <glyph glyph-name="Cdotaccent" unicode="&#x10a;" horiz-adv-x="664" 
d="M437 38c43 0 84 9 107 15l21 150h38v-178s-78 -39 -177 -39c-231 0 -374 129 -374 352c0 203 123 376 350 376c130 0 204 -40 204 -40l-8 -170h-39l-15 134c-20 8 -67 24 -135 24c-166 0 -255 -121 -255 -303c0 -181 101 -321 283 -321zM399 782c-32 0 -59 26 -59 59
s29 59 61 59s58 -26 58 -59s-28 -59 -60 -59z" />
    <glyph glyph-name="Dcaron" unicode="&#x10e;" horiz-adv-x="740" 
d="M297 650h-72v-600h100c171 0 261 120 261 294c0 169 -90 306 -289 306zM317 0h-270v31l80 13v612l-80 13v31h287c226 0 355 -145 355 -337c0 -243 -166 -363 -372 -363zM503 918l17 -27l-143 -122h-29l-141 120l20 28l136 -74z" />
    <glyph glyph-name="Ebreve" unicode="&#x114;" horiz-adv-x="600" 
d="M225 333v-283l264 4l27 119h37l-4 -173h-502v31l80 13v612l-80 13v31h492l-6 -170h-41l-13 114l-254 6v-267l234 6v-61zM328 760c-72 0 -132 48 -139 146l24 6c19 -51 61 -83 115 -83c51 0 96 32 115 83l24 -6c-8 -88 -56 -146 -139 -146z" />
    <glyph glyph-name="Ecaron" unicode="&#x11a;" horiz-adv-x="600" 
d="M225 333v-283l264 4l27 119h37l-4 -173h-502v31l80 13v612l-80 13v31h492l-6 -170h-41l-13 114l-254 6v-267l234 6v-61zM472 919l17 -27l-143 -122h-29l-141 120l20 28l136 -74z" />
    <glyph glyph-name="Edotaccent" unicode="&#x116;" horiz-adv-x="600" 
d="M225 333v-283l264 4l27 119h37l-4 -173h-502v31l80 13v612l-80 13v31h492l-6 -170h-41l-13 114l-254 6v-267l234 6v-61zM328 782c-32 0 -59 26 -59 59s29 59 61 59s58 -26 58 -59s-28 -59 -60 -59z" />
    <glyph glyph-name="Emacron" unicode="&#x112;" horiz-adv-x="600" 
d="M225 333v-283l264 4l27 119h37l-4 -173h-502v31l80 13v612l-80 13v31h492l-6 -170h-41l-13 114l-254 6v-267l234 6v-61zM206 800v59h234v-59h-234z" />
    <glyph glyph-name="Eogonek" unicode="&#x118;" horiz-adv-x="600" 
d="M471 -193c-47 0 -104 21 -104 80c0 61 42 93 101 113h-421v31l80 13v612l-80 13v31h492l-6 -170h-41l-13 114l-254 6v-267l234 6v-61l-234 5v-283l264 4l27 119h37l-4 -173h-38c-53 -21 -81 -50 -81 -92c0 -38 30 -57 67 -57s71 16 71 16v-28s-37 -32 -97 -32z" />
    <glyph glyph-name="Gbreve" unicode="&#x11e;" horiz-adv-x="722" 
d="M428 662c-167 0 -275 -111 -275 -291c0 -200 105 -333 280 -333c59 0 94 12 94 12v210l-100 14v31h268v-31l-70 -14v-242s-74 -32 -200 -32c-202 0 -374 105 -374 352c0 218 134 376 377 376c130 0 202 -40 202 -40l-8 -170h-39l-15 133c-21 8 -72 25 -140 25zM419 770
c-72 0 -132 48 -139 146l24 6c19 -51 61 -83 115 -83c51 0 96 32 115 83l24 -6c-8 -88 -56 -146 -139 -146z" />
    <glyph glyph-name="Gcircumflex" unicode="&#x11c;" horiz-adv-x="722" 
d="M428 662c-167 0 -275 -111 -275 -291c0 -200 105 -333 280 -333c59 0 94 12 94 12v210l-100 14v31h268v-31l-70 -14v-242s-74 -32 -200 -32c-202 0 -374 105 -374 352c0 218 134 376 377 376c130 0 202 -40 202 -40l-8 -170h-39l-15 133c-21 8 -72 25 -140 25zM272 769
l-17 27l143 122h29l141 -120l-20 -28l-136 74z" />
    <glyph glyph-name="Gcommaaccent" unicode="&#x122;" horiz-adv-x="722" 
d="M428 662c-167 0 -275 -111 -275 -291c0 -200 105 -333 280 -333c59 0 94 12 94 12v210l-100 14v31h268v-31l-70 -14v-242s-74 -32 -200 -32c-202 0 -374 105 -374 352c0 218 134 376 377 376c130 0 202 -40 202 -40l-8 -170h-39l-15 133c-21 8 -72 25 -140 25zM346 -320
l-18 24c46 28 88 76 94 127c-48 -12 -75 22 -75 56c0 37 28 60 64 60c34 0 65 -22 65 -72c0 -81 -56 -156 -130 -195z" />
    <glyph glyph-name="Gdotaccent" unicode="&#x120;" horiz-adv-x="722" 
d="M428 662c-167 0 -275 -111 -275 -291c0 -200 105 -333 280 -333c59 0 94 12 94 12v210l-100 14v31h268v-31l-70 -14v-242s-74 -32 -200 -32c-202 0 -374 105 -374 352c0 218 134 376 377 376c130 0 202 -40 202 -40l-8 -170h-39l-15 133c-21 8 -72 25 -140 25zM420 783
c-32 0 -59 26 -59 59s29 59 61 59s58 -26 58 -59s-28 -59 -60 -59z" />
    <glyph glyph-name="Hbar" unicode="&#x126;" horiz-adv-x="806" 
d="M678 44l80 -13v-31h-258v31l80 13v291h-354v-291l80 -13v-31h-258v31l80 13v452h-92v51h92v109l-80 13v31h258v-31l-80 -13v-109h354v109l-80 13v31h258v-31l-80 -13v-109h92v-51h-92v-452zM226 385h354v111h-354v-111z" />
    <glyph glyph-name="Hcircumflex" unicode="&#x124;" horiz-adv-x="804" 
d="M677 44l80 -13v-31h-258v31l80 13v291h-354v-291l80 -13v-31h-258v31l80 13v612l-80 13v31h258v-31l-80 -13v-271h354v271l-80 13v31h258v-31l-80 -13v-612zM260 784l-17 27l143 122h29l141 -120l-20 -28l-136 74z" />
    <glyph glyph-name="Idotaccent" unicode="&#x130;" horiz-adv-x="352" 
d="M225 656v-612l80 -13v-31h-258v31l80 13v612l-80 13v31h258v-31zM175 796c-32 0 -59 26 -59 59s29 59 61 59s58 -26 58 -59s-28 -59 -60 -59z" />
    <glyph glyph-name="Ibreve" unicode="&#x12c;" horiz-adv-x="352" 
d="M225 656v-612l80 -13v-31h-258v31l80 13v612l-80 13v31h258v-31zM176 779c-72 0 -132 48 -139 146l24 6c19 -51 61 -83 115 -83c51 0 96 32 115 83l24 -6c-8 -88 -56 -146 -139 -146z" />
    <glyph glyph-name="Imacron" unicode="&#x12a;" horiz-adv-x="352" 
d="M225 656v-612l80 -13v-31h-258v31l80 13v612l-80 13v31h258v-31zM58 797v59h234v-59h-234z" />
    <glyph glyph-name="Iogonek" unicode="&#x12e;" horiz-adv-x="352" 
d="M169 -194c-47 0 -104 21 -104 80c0 62 44 94 104 114h-122v31l80 13v612l-80 13v31h258v-31l-80 -13v-612l80 -13v-31h-93c-55 -21 -84 -51 -84 -93c0 -38 30 -57 67 -57s71 16 71 16v-28s-37 -32 -97 -32z" />
    <glyph glyph-name="Itilde" unicode="&#x128;" horiz-adv-x="352" 
d="M225 656v-612l80 -13v-31h-258v31l80 13v612l-80 13v31h258v-31zM233 794c-53 0 -97 55 -136 55c-34 0 -53 -30 -64 -52l-27 7c9 55 40 111 107 111c55 0 95 -55 133 -55c28 0 51 25 66 51l27 -6c-12 -65 -43 -111 -106 -111z" />
    <glyph glyph-name="Jcircumflex" unicode="&#x134;" horiz-adv-x="339" 
d="M219 656v-525c0 -45 -3 -80 -17 -118c-27 -72 -77 -122 -133 -182l-33 24l42 58c39 53 43 95 43 166v577l-80 13v31h258v-31zM18 785l-17 27l143 122h29l141 -120l-20 -28l-136 74z" />
    <glyph glyph-name="Kcommaaccent" unicode="&#x136;" horiz-adv-x="673" 
d="M225 332v-288l80 -13v-31h-258v31l80 13v612l-80 13v31h258v-31l-80 -13v-274h90l183 274l-68 13v31h219v-31l-74 -13l-207 -278l233 -307c24 -31 34 -35 72 -40v-31h-80c-53 0 -69 7 -100 51l-202 281h-66zM308 -312l-18 24c46 28 88 76 94 127c-48 -12 -75 22 -75 56
c0 37 28 60 64 60c34 0 65 -22 65 -72c0 -81 -56 -156 -130 -195z" />
    <glyph glyph-name="Lacute" unicode="&#x139;" horiz-adv-x="581" 
d="M225 656v-606l264 4l29 149h37l-6 -203h-502v31l80 13v612l-80 13v31h258v-31zM158 748l-28 30l149 177l62 -64z" />
    <glyph glyph-name="Lcaron" unicode="&#x13d;" horiz-adv-x="581" 
d="M225 656v-606l264 4l29 149h37l-6 -203h-502v31l80 13v612l-80 13v31h258v-31zM398 442l-18 24c46 28 88 76 94 127c-48 -12 -75 22 -75 56c0 37 28 60 64 60c34 0 65 -22 65 -72c0 -81 -56 -156 -130 -195z" />
    <glyph glyph-name="Lcommaaccent" unicode="&#x13b;" horiz-adv-x="580" 
d="M225 656v-606l264 4l29 149h37l-6 -203h-502v31l80 13v612l-80 13v31h258v-31zM257 -312l-18 24c46 28 88 76 94 127c-48 -12 -75 22 -75 56c0 37 28 60 64 60c34 0 65 -22 65 -72c0 -81 -56 -156 -130 -195z" />
    <glyph glyph-name="Ldot" unicode="&#x13f;" horiz-adv-x="588" 
d="M501 310c-32 0 -59 26 -59 59s29 59 61 59s58 -26 58 -59s-28 -59 -60 -59zM225 656v-606l264 4l29 149h37l-6 -203h-502v31l80 13v612l-80 13v31h258v-31z" />
    <glyph glyph-name="Nacute" unicode="&#x143;" horiz-adv-x="766" 
d="M587 234v417l-80 18v31h218v-31l-80 -18v-651l-54 -4l-358 488c-29 39 -52 79 -52 79l-3 -1s5 -44 5 -90v-425l80 -16v-31h-218v31l80 16v563l-46 53v37l110 4l349 -480c25 -34 49 -78 49 -78l4 1s-4 46 -4 87zM377 750l-28 30l149 177l62 -64z" />
    <glyph glyph-name="Ncaron" unicode="&#x147;" horiz-adv-x="766" 
d="M587 234v417l-80 18v31h218v-31l-80 -18v-651l-54 -4l-358 488c-29 39 -52 79 -52 79l-3 -1s5 -44 5 -90v-425l80 -16v-31h-218v31l80 16v563l-46 53v37l110 4l349 -480c25 -34 49 -78 49 -78l4 1s-4 46 -4 87zM529 934l17 -27l-143 -122h-29l-141 120l20 28l136 -74z
" />
    <glyph glyph-name="Ncommaaccent" unicode="&#x145;" horiz-adv-x="766" 
d="M587 234v417l-80 18v31h218v-31l-80 -18v-651l-54 -4l-358 488c-29 39 -52 79 -52 79l-3 -1s5 -44 5 -90v-425l80 -16v-31h-218v31l80 16v563l-46 53v37l110 4l349 -480c25 -34 49 -78 49 -78l4 1s-4 46 -4 87zM339 -319l-18 24c46 28 88 76 94 127
c-48 -12 -75 22 -75 56c0 37 28 60 64 60c34 0 65 -22 65 -72c0 -81 -56 -156 -130 -195z" />
    <glyph glyph-name="Obreve" unicode="&#x14e;" horiz-adv-x="769" 
d="M399 33c143 0 215 133 215 296c0 166 -87 338 -246 338c-141 0 -213 -133 -213 -303c0 -159 87 -331 244 -331zM373 -14c-191 0 -320 151 -320 361c0 179 104 367 343 367c191 0 320 -151 320 -361c0 -179 -104 -367 -343 -367zM385 763c-72 0 -132 48 -139 146l24 6
c19 -51 61 -83 115 -83c51 0 96 32 115 83l24 -6c-8 -88 -56 -146 -139 -146z" />
    <glyph glyph-name="Ohungarumlaut" unicode="&#x150;" horiz-adv-x="769" 
d="M399 33c143 0 215 133 215 296c0 166 -87 338 -246 338c-141 0 -213 -133 -213 -303c0 -159 87 -331 244 -331zM373 -14c-191 0 -320 151 -320 361c0 179 104 367 343 367c191 0 320 -151 320 -361c0 -179 -104 -367 -343 -367zM291 757l-28 30l149 177l62 -64zM479 757
l-28 30l149 177l62 -64z" />
    <glyph glyph-name="Omacron" unicode="&#x14c;" horiz-adv-x="769" 
d="M399 33c143 0 215 133 215 296c0 166 -87 338 -246 338c-141 0 -213 -133 -213 -303c0 -159 87 -331 244 -331zM373 -14c-191 0 -320 151 -320 361c0 179 104 367 343 367c191 0 320 -151 320 -361c0 -179 -104 -367 -343 -367zM263 783v59h234v-59h-234z" />
    <glyph glyph-name="Oslashacute" unicode="&#x1fe;" horiz-adv-x="769" 
d="M349 750l-28 30l149 177l62 -64zM399 33c143 0 215 133 215 296c0 166 -87 338 -246 338c-141 0 -213 -133 -213 -303c0 -159 87 -331 244 -331zM373 -14c-191 0 -320 151 -320 361c0 179 104 367 343 367c191 0 320 -151 320 -361c0 -179 -104 -367 -343 -367z" />
    <glyph glyph-name="Racute" unicode="&#x154;" horiz-adv-x="656" 
d="M225 287v-243l101 -13v-31h-279v31l80 13v612l-80 13v31h270c173 0 263 -76 263 -202c0 -95 -59 -167 -161 -195l168 -230c25 -34 34 -38 72 -44v-29s-29 -9 -65 -9c-59 0 -74 11 -117 74l-147 222h-105zM225 337h102c97 0 153 64 153 160c0 82 -51 153 -177 153h-78
v-313zM298 749l-28 30l149 177l62 -64z" />
    <glyph glyph-name="Rcaron" unicode="&#x158;" horiz-adv-x="656" 
d="M225 287v-243l101 -13v-31h-279v31l80 13v612l-80 13v31h270c173 0 263 -76 263 -202c0 -95 -59 -167 -161 -195l168 -230c25 -34 34 -38 72 -44v-29s-29 -9 -65 -9c-59 0 -74 11 -117 74l-147 222h-105zM225 337h102c97 0 153 64 153 160c0 82 -51 153 -177 153h-78
v-313zM462 931l17 -27l-143 -122h-29l-141 120l20 28l136 -74z" />
    <glyph glyph-name="Rcommaaccent" unicode="&#x156;" horiz-adv-x="656" 
d="M225 287v-243l101 -13v-31h-279v31l80 13v612l-80 13v31h270c173 0 263 -76 263 -202c0 -95 -59 -167 -161 -195l168 -230c25 -34 34 -38 72 -44v-29s-29 -9 -65 -9c-59 0 -74 11 -117 74l-147 222h-105zM225 337h102c97 0 153 64 153 160c0 82 -51 153 -177 153h-78
v-313zM291 -320l-18 24c46 28 88 76 94 127c-48 -12 -75 22 -75 56c0 37 28 60 64 60c34 0 65 -22 65 -72c0 -81 -56 -156 -130 -195z" />
    <glyph glyph-name="Sacute" unicode="&#x15a;" horiz-adv-x="540" 
d="M239 38c85 0 155 41 155 118c0 92 -74 130 -152 170c-86 44 -176 89 -176 208c0 107 89 180 226 180c108 0 175 -41 175 -41l-8 -169h-39l-15 134c-34 15 -82 24 -120 24c-79 0 -125 -39 -125 -110c0 -76 67 -115 141 -154c89 -47 187 -92 187 -218
c0 -119 -96 -194 -248 -194c-114 0 -178 40 -178 40l-1 177h38l22 -149c37 -12 80 -16 118 -16zM252 749l-28 30l149 177l62 -64z" />
    <glyph glyph-name="Scedilla" unicode="&#x15e;" horiz-adv-x="543" 
d="M272 -200c-42 0 -90 13 -125 34l13 28c33 -11 70 -15 92 -15c41 0 59 16 59 36c0 28 -49 43 -93 27l-15 13l27 63c-107 3 -167 40 -167 40l-1 177h38l22 -149c37 -12 80 -16 118 -16c85 0 155 41 155 118c0 92 -74 130 -152 170c-86 44 -176 89 -176 208
c0 107 89 180 226 180c108 0 175 -41 175 -41l-8 -169h-39l-15 134c-34 15 -82 24 -120 24c-79 0 -125 -39 -125 -110c0 -76 67 -115 141 -154c89 -47 187 -92 187 -218c0 -112 -85 -184 -221 -193l5 -39c64 10 108 -19 108 -66c0 -45 -46 -82 -109 -82z" />
    <glyph glyph-name="Scircumflex" unicode="&#x15c;" horiz-adv-x="540" 
d="M239 38c85 0 155 41 155 118c0 92 -74 130 -152 170c-86 44 -176 89 -176 208c0 107 89 180 226 180c108 0 175 -41 175 -41l-8 -169h-39l-15 134c-34 15 -82 24 -120 24c-79 0 -125 -39 -125 -110c0 -76 67 -115 141 -154c89 -47 187 -92 187 -218
c0 -119 -96 -194 -248 -194c-114 0 -178 40 -178 40l-1 177h38l22 -149c37 -12 80 -16 118 -16zM141 782l-17 27l143 122h29l141 -120l-20 -28l-136 74z" />
    <glyph glyph-name="Scommaaccent" unicode="&#x218;" horiz-adv-x="540" 
d="M239 38c85 0 155 41 155 118c0 92 -74 130 -152 170c-86 44 -176 89 -176 208c0 107 89 180 226 180c108 0 175 -41 175 -41l-8 -169h-39l-15 134c-34 15 -82 24 -120 24c-79 0 -125 -39 -125 -110c0 -76 67 -115 141 -154c89 -47 187 -92 187 -218
c0 -119 -96 -194 -248 -194c-114 0 -178 40 -178 40l-1 177h38l22 -149c37 -12 80 -16 118 -16zM201 -320l-18 24c46 28 88 76 94 127c-48 -12 -75 22 -75 56c0 37 28 60 64 60c34 0 65 -22 65 -72c0 -81 -56 -156 -130 -195z" />
    <glyph glyph-name="Tcaron" unicode="&#x164;" horiz-adv-x="622" 
d="M33 700h573l-21 -184h-37l-7 126l-176 9v-607l80 -13v-31h-258v31l80 13v607l-169 -9l-37 -126h-37zM457 932l17 -27l-143 -122h-29l-141 120l20 28l136 -74z" />
    <glyph glyph-name="Tcommaaccent" unicode="&#x162;" horiz-adv-x="624" 
d="M34 700h573l-21 -184h-37l-7 126l-176 9v-607l80 -13v-31h-258v31l80 13v607l-169 -9l-37 -126h-37zM266 -320l-18 24c46 28 88 76 94 127c-48 -12 -75 22 -75 56c0 37 28 60 64 60c34 0 65 -22 65 -72c0 -81 -56 -156 -130 -195z" />
    <glyph glyph-name="Tbar" unicode="&#x166;" horiz-adv-x="622" 
d="M119 327v52h148v272l-169 -9l-37 -126h-37l9 184h573l-21 -184h-37l-7 126l-176 9v-272h148v-52h-148v-283l80 -13v-31h-258v31l80 13v283h-148z" />
    <glyph glyph-name="Ubreve" unicode="&#x16c;" horiz-adv-x="742" 
d="M634 655v-371c0 -139 -57 -298 -260 -298c-170 0 -265 105 -265 277v393l-80 13v31h258v-31l-80 -14v-404c0 -127 62 -212 171 -212c124 0 183 89 183 222v394l-80 14v31h233v-31zM385 763c-72 0 -132 48 -139 146l24 6c19 -51 61 -83 115 -83c51 0 96 32 115 83l24 -6
c-8 -88 -56 -146 -139 -146z" />
    <glyph glyph-name="Uhungarumlaut" unicode="&#x170;" horiz-adv-x="742" 
d="M634 655v-371c0 -139 -57 -298 -260 -298c-170 0 -265 105 -265 277v393l-80 13v31h258v-31l-80 -14v-404c0 -127 62 -212 171 -212c124 0 183 89 183 222v394l-80 14v31h233v-31zM308 750l-28 30l149 177l62 -64zM496 750l-28 30l149 177l62 -64z" />
    <glyph glyph-name="Umacron" unicode="&#x16a;" horiz-adv-x="742" 
d="M634 655v-371c0 -139 -57 -298 -260 -298c-170 0 -265 105 -265 277v393l-80 13v31h258v-31l-80 -14v-404c0 -127 62 -212 171 -212c124 0 183 89 183 222v394l-80 14v31h233v-31zM274 783v59h234v-59h-234z" />
    <glyph glyph-name="Uogonek" unicode="&#x172;" horiz-adv-x="748" 
d="M399 -201c-47 0 -104 21 -104 80c0 55 35 87 85 107h-3c-170 0 -265 105 -265 277v393l-80 13v31h258v-31l-80 -14v-404c0 -127 62 -212 171 -212c124 0 183 89 183 222v394l-80 14v31h233v-31l-80 -14v-371c0 -124 -46 -265 -200 -293c-52 -21 -79 -50 -79 -91
c0 -38 30 -57 67 -57s71 16 71 16v-28s-37 -32 -97 -32z" />
    <glyph glyph-name="Uring" unicode="&#x16e;" horiz-adv-x="742" 
d="M634 655v-371c0 -139 -57 -298 -260 -298c-170 0 -265 105 -265 277v393l-80 13v31h258v-31l-80 -14v-404c0 -127 62 -212 171 -212c124 0 183 89 183 222v394l-80 14v31h233v-31zM280 862c0 61 46 99 103 99s103 -38 103 -99s-46 -99 -103 -99s-103 38 -103 99zM437 862
c0 38 -20 58 -54 58s-54 -20 -54 -58s20 -58 54 -58s54 20 54 58z" />
    <glyph glyph-name="Utilde" unicode="&#x168;" horiz-adv-x="742" 
d="M634 655v-371c0 -139 -57 -298 -260 -298c-170 0 -265 105 -265 277v393l-80 13v31h258v-31l-80 -14v-404c0 -127 62 -212 171 -212c124 0 183 89 183 222v394l-80 14v31h233v-31zM442 783c-53 0 -97 55 -136 55c-34 0 -53 -30 -64 -52l-27 7c9 55 40 111 107 111
c55 0 95 -55 133 -55c28 0 51 25 66 51l27 -6c-12 -65 -43 -111 -106 -111z" />
    <glyph glyph-name="Wacute" unicode="&#x1e82;" horiz-adv-x="983" 
d="M985 669l-66 -13c-13 -32 -41 -119 -65 -201l-126 -455l-90 -6l-124 461c-16 58 -22 111 -22 111h-4s-7 -59 -20 -109l-115 -457l-88 -6l-200 662l-76 13v31h259v-31l-84 -13l128 -438c19 -66 27 -117 27 -117h4s10 52 25 117l118 482l79 5l128 -492
c18 -66 24 -119 24 -119h4s9 53 28 118l87 335c7 27 21 82 25 109l-84 13v31h228v-31zM471 748l-28 30l149 177l62 -64z" />
    <glyph glyph-name="Wcircumflex" unicode="&#x174;" horiz-adv-x="983" 
d="M985 669l-66 -13c-13 -32 -41 -119 -65 -201l-126 -455l-90 -6l-124 461c-16 58 -22 111 -22 111h-4s-7 -59 -20 -109l-115 -457l-88 -6l-200 662l-76 13v31h259v-31l-84 -13l128 -438c19 -66 27 -117 27 -117h4s10 52 25 117l118 482l79 5l128 -492
c18 -66 24 -119 24 -119h4s9 53 28 118l87 335c7 27 21 82 25 109l-84 13v31h228v-31zM355 783l-17 27l143 122h29l141 -120l-20 -28l-136 74z" />
    <glyph glyph-name="Wdieresis" unicode="&#x1e84;" horiz-adv-x="983" 
d="M985 669l-66 -13c-13 -32 -41 -119 -65 -201l-126 -455l-90 -6l-124 461c-16 58 -22 111 -22 111h-4s-7 -59 -20 -109l-115 -457l-88 -6l-200 662l-76 13v31h259v-31l-84 -13l128 -438c19 -66 27 -117 27 -117h4s10 52 25 117l118 482l79 5l128 -492
c18 -66 24 -119 24 -119h4s9 53 28 118l87 335c7 27 21 82 25 109l-84 13v31h228v-31zM400 782c-32 0 -54 27 -54 57c0 32 23 56 57 56c35 0 55 -23 55 -54c0 -32 -22 -59 -58 -59zM599 782c-32 0 -54 27 -54 57c0 32 23 56 57 56c35 0 55 -23 55 -54c0 -32 -22 -59 -58 -59
z" />
    <glyph glyph-name="Wgrave" unicode="&#x1e80;" horiz-adv-x="983" 
d="M985 669l-66 -13c-13 -32 -41 -119 -65 -201l-126 -455l-90 -6l-124 461c-16 58 -22 111 -22 111h-4s-7 -59 -20 -109l-115 -457l-88 -6l-200 662l-76 13v31h259v-31l-84 -13l128 -438c19 -66 27 -117 27 -117h4s10 52 25 117l118 482l79 5l128 -492
c18 -66 24 -119 24 -119h4s9 53 28 118l87 335c7 27 21 82 25 109l-84 13v31h228v-31zM577 780l-28 -30l-183 143l62 64z" />
    <glyph glyph-name="Ycircumflex" unicode="&#x176;" horiz-adv-x="632" 
d="M369 299v-255l80 -13v-31h-258v31l80 13v255l-230 357l-58 13v31h239v-31l-77 -13l143 -234c22 -36 43 -83 43 -83h4s17 38 45 89l93 159c13 24 23 45 23 65l-68 17v31h205v-31l-59 -15zM188 760l-17 27l143 122h29l141 -120l-20 -28l-136 74z" />
    <glyph glyph-name="Ygrave" unicode="&#x1ef2;" horiz-adv-x="632" 
d="M369 299v-255l80 -13v-31h-258v31l80 13v255l-230 357l-58 13v31h239v-31l-77 -13l143 -234c22 -36 43 -83 43 -83h4s17 38 45 89l93 159c13 24 23 45 23 65l-68 17v31h205v-31l-59 -15zM403 780l-28 -30l-183 143l62 64z" />
    <glyph glyph-name="Zacute" unicode="&#x179;" horiz-adv-x="591" 
d="M135 643l-37 -127h-37l9 184h463v-25l-375 -626l319 8l30 123h37l-6 -180h-501v25l375 626zM276 749l-28 30l149 177l62 -64z" />
    <glyph glyph-name="Zdotaccent" unicode="&#x17b;" horiz-adv-x="591" 
d="M135 643l-37 -127h-37l9 184h463v-25l-375 -626l319 8l30 123h37l-6 -180h-501v25l375 626zM298 783c-32 0 -59 26 -59 59s29 59 61 59s58 -26 58 -59s-28 -59 -60 -59z" />
    <glyph glyph-name="abreve" unicode="&#x103;" horiz-adv-x="519" 
d="M329 59c-38 -35 -87 -64 -159 -64c-82 0 -128 54 -128 121c0 77 43 133 150 152c47 8 107 9 136 9v54c0 73 -16 115 -107 115c-69 0 -149 -23 -149 -23v34s78 53 182 53c119 0 165 -66 165 -187v-240c0 -25 7 -43 37 -43h31v-27s-31 -23 -76 -23c-41 0 -74 20 -82 69z
M214 57c49 0 83 19 115 38c0 0 -3 28 -3 71v71s-53 1 -111 -14c-51 -13 -82 -44 -82 -93c0 -43 27 -73 81 -73zM247 590c-72 0 -132 48 -139 146l24 6c19 -51 61 -83 115 -83c51 0 96 32 115 83l24 -6c-8 -88 -56 -146 -139 -146z" />
    <glyph glyph-name="amacron" unicode="&#x101;" horiz-adv-x="519" 
d="M329 59c-38 -35 -87 -64 -159 -64c-82 0 -128 54 -128 121c0 77 43 133 150 152c47 8 107 9 136 9v54c0 73 -16 115 -107 115c-69 0 -149 -23 -149 -23v34s78 53 182 53c119 0 165 -66 165 -187v-240c0 -25 7 -43 37 -43h31v-27s-31 -23 -76 -23c-41 0 -74 20 -82 69z
M214 57c49 0 83 19 115 38c0 0 -3 28 -3 71v71s-53 1 -111 -14c-51 -13 -82 -44 -82 -93c0 -43 27 -73 81 -73zM138 615v59h234v-59h-234z" />
    <glyph glyph-name="aogonek" unicode="&#x105;" horiz-adv-x="518" 
d="M407 -198c-47 0 -104 21 -104 80c0 57 37 89 90 110c-32 5 -57 25 -64 67c-38 -35 -87 -64 -159 -64c-82 0 -128 54 -128 121c0 77 43 133 150 152c47 8 107 9 136 9v54c0 73 -16 115 -107 115c-69 0 -149 -23 -149 -23v34s78 53 182 53c119 0 165 -66 165 -187v-240
c0 -25 7 -43 37 -43h31v-27s-17 -12 -41 -18c-53 -21 -80 -51 -80 -92c0 -38 30 -57 67 -57s71 16 71 16v-28s-37 -32 -97 -32zM214 57c49 0 83 19 115 38c0 0 -3 28 -3 71v71s-53 1 -111 -14c-51 -13 -82 -44 -82 -93c0 -43 27 -73 81 -73z" />
    <glyph glyph-name="aringacute" unicode="&#x1fb;" horiz-adv-x="519" 
d="M329 59c-38 -35 -87 -64 -159 -64c-82 0 -128 54 -128 121c0 77 43 133 150 152c47 8 107 9 136 9v54c0 73 -16 115 -107 115c-69 0 -149 -23 -149 -23v34s78 53 182 53c119 0 165 -66 165 -187v-240c0 -25 7 -43 37 -43h31v-27s-31 -23 -76 -23c-41 0 -74 20 -82 69z
M214 57c49 0 83 19 115 38c0 0 -3 28 -3 71v71s-53 1 -111 -14c-51 -13 -82 -44 -82 -93c0 -43 27 -73 81 -73zM154 675c0 61 46 99 103 99s103 -38 103 -99s-46 -99 -103 -99s-103 38 -103 99zM311 675c0 38 -20 58 -54 58s-54 -20 -54 -58s20 -58 54 -58s54 20 54 58z
M203 809l-26 27l137 160l58 -58z" />
    <glyph glyph-name="aeacute" unicode="&#x1fd;" horiz-adv-x="797" 
d="M748 257h-327c3 -119 70 -205 179 -205c68 0 128 24 128 24v-34s-64 -52 -168 -52c-92 0 -162 42 -200 111c-39 -59 -102 -106 -190 -106c-82 0 -128 54 -128 121c0 77 43 133 150 152c47 8 106 9 135 9c0 1 1 3 1 54c0 73 -16 115 -107 115c-69 0 -149 -23 -149 -23v34
s78 53 182 53c74 0 115 -29 136 -78c42 50 101 78 167 78c139 0 205 -91 191 -253zM553 459c-73 0 -121 -60 -130 -155l234 6c-1 79 -18 149 -104 149zM326 237c0 0 -53 1 -111 -14c-51 -13 -82 -44 -82 -93c0 -43 27 -73 81 -73c62 0 110 47 125 93c-8 27 -13 56 -13 87z
M408 590l-28 30l149 177l62 -64z" />
    <glyph glyph-name="cacute" unicode="&#x107;" horiz-adv-x="475" 
d="M271 458c-85 0 -126 -104 -126 -191c0 -124 57 -215 162 -215c72 0 125 24 125 24v-34s-58 -52 -158 -52c-144 0 -224 105 -224 251c0 154 101 269 250 269c62 0 91 -17 138 -22l-20 -81c-58 8 -94 51 -147 51zM219 591l-28 30l149 177l62 -64z" />
    <glyph glyph-name="ccaron" unicode="&#x10d;" horiz-adv-x="475" 
d="M271 458c-85 0 -126 -104 -126 -191c0 -124 57 -215 162 -215c72 0 125 24 125 24v-34s-58 -52 -158 -52c-144 0 -224 105 -224 251c0 154 101 269 250 269c62 0 91 -17 138 -22l-20 -81c-58 8 -94 51 -147 51zM412 740l17 -27l-143 -122h-29l-141 120l20 28l136 -74z
" />
    <glyph glyph-name="ccircumflex" unicode="&#x109;" horiz-adv-x="475" 
d="M271 458c-85 0 -126 -104 -126 -191c0 -124 57 -215 162 -215c72 0 125 24 125 24v-34s-58 -52 -158 -52c-144 0 -224 105 -224 251c0 154 101 269 250 269c62 0 91 -17 138 -22l-20 -81c-58 8 -94 51 -147 51zM128 590l-17 27l143 122h29l141 -120l-20 -28l-136 74z" />
    <glyph glyph-name="cdotaccent" unicode="&#x10b;" horiz-adv-x="475" 
d="M271 458c-85 0 -126 -104 -126 -191c0 -124 57 -215 162 -215c72 0 125 24 125 24v-34s-58 -52 -158 -52c-144 0 -224 105 -224 251c0 154 101 269 250 269c62 0 91 -17 138 -22l-20 -81c-58 8 -94 51 -147 51zM280 591c-32 0 -59 26 -59 59s29 59 61 59s58 -26 58 -59
s-28 -59 -60 -59z" />
    <glyph glyph-name="dcaron" unicode="&#x10f;" horiz-adv-x="615" 
d="M305 455c-102 0 -158 -76 -158 -195c0 -114 47 -196 141 -196c36 0 79 14 111 35c-1 9 -4 51 -4 100v232s-36 24 -90 24zM488 756v-673c0 -25 7 -43 37 -43h31v-27s-31 -23 -76 -23c-41 0 -74 20 -82 69c-37 -33 -79 -69 -158 -69c-116 0 -190 110 -190 233
c0 180 94 287 244 287c65 0 101 -27 101 -27v224l-81 8v31l154 15zM569 500l-18 24c46 28 88 76 94 127c-48 -12 -75 22 -75 56c0 37 28 60 64 60c34 0 65 -22 65 -72c0 -81 -56 -156 -130 -195z" />
    <glyph glyph-name="ebreve" unicode="&#x115;" horiz-adv-x="521" 
d="M472 257h-327c3 -119 70 -205 179 -205c68 0 128 24 128 24v-34s-64 -52 -168 -52c-144 0 -234 105 -234 251c0 166 105 269 231 269c139 0 205 -91 191 -253zM277 459c-73 0 -121 -60 -130 -155l234 6c-1 79 -18 149 -104 149zM286 590c-72 0 -132 48 -139 146l24 6
c19 -51 61 -83 115 -83c51 0 96 32 115 83l24 -6c-8 -88 -56 -146 -139 -146z" />
    <glyph glyph-name="ecaron" unicode="&#x11b;" horiz-adv-x="521" 
d="M472 257h-327c3 -119 70 -205 179 -205c68 0 128 24 128 24v-34s-64 -52 -168 -52c-144 0 -234 105 -234 251c0 166 105 269 231 269c139 0 205 -91 191 -253zM277 459c-73 0 -121 -60 -130 -155l234 6c-1 79 -18 149 -104 149zM431 740l17 -27l-143 -122h-29l-141 120
l20 28l136 -74z" />
    <glyph glyph-name="edotaccent" unicode="&#x117;" horiz-adv-x="521" 
d="M472 257h-327c3 -119 70 -205 179 -205c68 0 128 24 128 24v-34s-64 -52 -168 -52c-144 0 -234 105 -234 251c0 166 105 269 231 269c139 0 205 -91 191 -253zM277 459c-73 0 -121 -60 -130 -155l234 6c-1 79 -18 149 -104 149zM286 591c-32 0 -59 26 -59 59s29 59 61 59
s58 -26 58 -59s-28 -59 -60 -59z" />
    <glyph glyph-name="emacron" unicode="&#x113;" horiz-adv-x="521" 
d="M472 257h-327c3 -119 70 -205 179 -205c68 0 128 24 128 24v-34s-64 -52 -168 -52c-144 0 -234 105 -234 251c0 166 105 269 231 269c139 0 205 -91 191 -253zM277 459c-73 0 -121 -60 -130 -155l234 6c-1 79 -18 149 -104 149zM166 615v59h234v-59h-234z" />
    <glyph glyph-name="eogonek" unicode="&#x119;" horiz-adv-x="522" 
d="M291 -194c-46 0 -87 31 -87 80c0 56 38 85 86 104h-6c-144 0 -234 105 -234 251c0 166 105 269 231 269c139 0 205 -91 191 -253h-327c3 -119 70 -205 179 -205c68 0 128 24 128 24v-34s-35 -28 -93 -43c-54 -21 -92 -50 -92 -92c0 -38 23 -57 57 -57c36 0 61 16 61 16
v-28s-32 -32 -94 -32zM277 459c-73 0 -121 -60 -130 -155l234 6c-1 79 -18 149 -104 149z" />
    <glyph glyph-name="gbreve" unicode="&#x11f;" horiz-adv-x="555" 
d="M42 -117c0 58 37 102 88 128c-15 13 -25 32 -25 61c0 33 26 71 57 88c-72 27 -109 87 -109 160c0 119 79 190 216 190c50 0 86 -14 103 -23l165 15l-3 -59l-100 -2c21 -25 38 -61 38 -105c0 -103 -79 -190 -221 -190c-18 0 -35 2 -50 4c-36 -32 -21 -78 33 -81l118 -7
c98 -6 158 -57 158 -143c0 -106 -106 -181 -236 -183c-129 -2 -232 44 -232 147zM229 -16c-24 2 -48 5 -69 12c-21 -23 -34 -48 -34 -82c0 -63 60 -118 159 -118c102 0 156 35 156 96c0 55 -42 83 -103 86zM257 457c-73 0 -109 -54 -109 -118c0 -86 38 -140 120 -140
c67 0 109 53 109 123c0 86 -39 135 -120 135zM255 590c-72 0 -132 48 -139 146l24 6c19 -51 61 -83 115 -83c51 0 96 32 115 83l24 -6c-8 -88 -56 -146 -139 -146z" />
    <glyph glyph-name="gcircumflex" unicode="&#x11d;" horiz-adv-x="555" 
d="M42 -117c0 58 37 102 88 128c-15 13 -25 32 -25 61c0 33 26 71 57 88c-72 27 -109 87 -109 160c0 119 79 190 216 190c50 0 86 -14 103 -23l165 15l-3 -59l-100 -2c21 -25 38 -61 38 -105c0 -103 -79 -190 -221 -190c-18 0 -35 2 -50 4c-36 -32 -21 -78 33 -81l118 -7
c98 -6 158 -57 158 -143c0 -106 -106 -181 -236 -183c-129 -2 -232 44 -232 147zM229 -16c-24 2 -48 5 -69 12c-21 -23 -34 -48 -34 -82c0 -63 60 -118 159 -118c102 0 156 35 156 96c0 55 -42 83 -103 86zM257 457c-73 0 -109 -54 -109 -118c0 -86 38 -140 120 -140
c67 0 109 53 109 123c0 86 -39 135 -120 135zM120 591l-17 27l143 122h29l141 -120l-20 -28l-136 74z" />
    <glyph glyph-name="gcommaaccent" unicode="&#x123;" horiz-adv-x="555" 
d="M337 858l18 -24c-46 -28 -88 -76 -94 -127c48 12 75 -22 75 -56c0 -37 -28 -60 -64 -60c-34 0 -65 22 -65 72c0 81 56 156 130 195zM42 -117c0 58 37 102 88 128c-15 13 -25 32 -25 61c0 33 26 71 57 88c-72 27 -109 87 -109 160c0 119 79 190 216 190
c50 0 86 -14 103 -23l165 15l-3 -59l-100 -2c21 -25 38 -61 38 -105c0 -103 -79 -190 -221 -190c-18 0 -35 2 -50 4c-36 -32 -21 -78 33 -81l118 -7c98 -6 158 -57 158 -143c0 -106 -106 -181 -236 -183c-129 -2 -232 44 -232 147zM229 -16c-24 2 -48 5 -69 12
c-21 -23 -34 -48 -34 -82c0 -63 60 -118 159 -118c102 0 156 35 156 96c0 55 -42 83 -103 86zM257 457c-73 0 -109 -54 -109 -118c0 -86 38 -140 120 -140c67 0 109 53 109 123c0 86 -39 135 -120 135z" />
    <glyph glyph-name="gdotaccent" unicode="&#x121;" horiz-adv-x="555" 
d="M42 -117c0 58 37 102 88 128c-15 13 -25 32 -25 61c0 33 26 71 57 88c-72 27 -109 87 -109 160c0 119 79 190 216 190c50 0 86 -14 103 -23l165 15l-3 -59l-100 -2c21 -25 38 -61 38 -105c0 -103 -79 -190 -221 -190c-18 0 -35 2 -50 4c-36 -32 -21 -78 33 -81l118 -7
c98 -6 158 -57 158 -143c0 -106 -106 -181 -236 -183c-129 -2 -232 44 -232 147zM229 -16c-24 2 -48 5 -69 12c-21 -23 -34 -48 -34 -82c0 -63 60 -118 159 -118c102 0 156 35 156 96c0 55 -42 83 -103 86zM257 457c-73 0 -109 -54 -109 -118c0 -86 38 -140 120 -140
c67 0 109 53 109 123c0 86 -39 135 -120 135zM266 590c-32 0 -59 26 -59 59s29 59 61 59s58 -26 58 -59s-28 -59 -60 -59z" />
    <glyph glyph-name="hbar" unicode="&#x127;" horiz-adv-x="623" 
d="M202 756l-2 -123h161v-54h-161l-2 -138c45 35 99 69 162 69c105 0 161 -73 161 -179v-288l80 -12v-31h-243v31l70 12v265c0 83 -31 128 -103 128s-127 -34 -127 -34s4 -41 4 -95v-264l70 -12v-31h-243v31l80 12v536h-82v54h82v74l-81 8v31l154 15z" />
    <glyph glyph-name="hcircumflex" unicode="&#x125;" horiz-adv-x="623" 
d="M202 756l-4 -315c45 35 99 69 162 69c105 0 161 -73 161 -179v-288l80 -12v-31h-243v31l70 12v265c0 83 -31 128 -103 128s-127 -34 -127 -34s4 -41 4 -95v-264l70 -12v-31h-243v31l80 12v664l-81 8v31l154 15zM3 824l-17 27l143 122h29l141 -120l-20 -28l-136 74z" />
    <glyph glyph-name="ibreve" unicode="&#x12d;" horiz-adv-x="320" 
d="M191 505l20 -5v-457l80 -12v-31h-253v31l80 12v409l-81 8v31zM149 591c-72 0 -132 48 -139 146l24 6c19 -51 61 -83 115 -83c51 0 96 32 115 83l24 -6c-8 -88 -56 -146 -139 -146z" />
    <glyph glyph-name="imacron" unicode="&#x12b;" horiz-adv-x="320" 
d="M191 505l20 -5v-457l80 -12v-31h-253v31l80 12v409l-81 8v31zM25 620v59h234v-59h-234z" />
    <glyph glyph-name="iogonek" unicode="&#x12f;" horiz-adv-x="320" 
d="M161 -192c-47 0 -104 21 -104 80c0 60 41 92 98 112h-117v31l80 12v409l-81 8v31l154 14l20 -5v-457l80 -12v-31h-93c-51 -21 -78 -50 -78 -91c0 -38 30 -57 67 -57s71 16 71 16v-28s-37 -32 -97 -32zM162 627c-34 0 -59 23 -59 57c0 35 27 56 64 56c36 0 58 -21 58 -54
c0 -37 -25 -59 -63 -59z" />
    <glyph glyph-name="itilde" unicode="&#x129;" horiz-adv-x="320" 
d="M191 505l20 -5v-457l80 -12v-31h-253v31l80 12v409l-81 8v31zM208 590c-53 0 -97 55 -136 55c-34 0 -53 -30 -64 -52l-27 7c9 55 40 111 107 111c55 0 95 -55 133 -55c28 0 51 25 66 51l27 -6c-12 -65 -43 -111 -106 -111z" />
    <glyph glyph-name="jcircumflex" unicode="&#x135;" horiz-adv-x="291" 
d="M181 505l20 -5v-483c0 -129 -81 -215 -156 -274l-20 20c62 64 83 146 83 242v447l-81 8v31zM-7 591l-17 27l143 122h29l141 -120l-20 -28l-136 74z" />
    <glyph glyph-name="kcommaaccent" unicode="&#x137;" horiz-adv-x="588" 
d="M108 43v662l-81 10v31l154 15l20 -5v-472h74l126 175l-58 10v31h205v-31l-71 -10l-148 -171l188 -225c22 -26 27 -27 61 -32v-31h-62c-64 0 -73 8 -109 53l-150 185h-56v-195l70 -12v-31h-243v31zM241 -312l-18 24c46 28 88 76 94 127c-48 -12 -75 22 -75 56
c0 37 28 60 64 60c34 0 65 -22 65 -72c0 -81 -56 -156 -130 -195z" />
    <glyph glyph-name="lacute" unicode="&#x13a;" horiz-adv-x="311" 
d="M109 42v663l-81 10v31l154 15l20 -5v-714l80 -11v-31h-253v31zM117 798l-28 30l149 177l62 -64z" />
    <glyph glyph-name="lcaron" unicode="&#x13e;" horiz-adv-x="332" 
d="M109 42v663l-81 10v31l154 15l20 -5v-714l80 -11v-31h-253v31zM273 496l-18 24c46 28 88 76 94 127c-48 -12 -75 22 -75 56c0 37 28 60 64 60c34 0 65 -22 65 -72c0 -81 -56 -156 -130 -195z" />
    <glyph glyph-name="lcommaaccent" unicode="&#x13c;" horiz-adv-x="309" 
d="M108 42v663l-81 10v31l154 15l20 -5v-714l80 -11v-31h-253v31zM82 -319l-18 24c46 28 88 76 94 127c-48 -12 -75 22 -75 56c0 37 28 60 64 60c34 0 65 -22 65 -72c0 -81 -56 -156 -130 -195z" />
    <glyph glyph-name="ldot" unicode="&#x140;" horiz-adv-x="402" 
d="M352 320c-32 0 -59 26 -59 59s29 59 61 59s58 -26 58 -59s-28 -59 -60 -59zM109 42v663l-81 10v31l154 15l20 -5v-714l80 -11v-31h-253v31z" />
    <glyph glyph-name="nacute" unicode="&#x144;" horiz-adv-x="632" 
d="M530 331v-289l80 -11v-31h-243v31l70 11v266c0 83 -31 128 -103 128s-127 -34 -127 -34s4 -41 4 -95v-265l70 -11v-31h-243v31l80 11v409l-81 8v31l154 15l20 -5l-4 -59c45 35 99 69 162 69c105 0 161 -73 161 -179zM285 590l-28 30l149 177l62 -64z" />
    <glyph glyph-name="ncaron" unicode="&#x148;" horiz-adv-x="632" 
d="M530 331v-289l80 -11v-31h-243v31l70 11v266c0 83 -31 128 -103 128s-127 -34 -127 -34s4 -41 4 -95v-265l70 -11v-31h-243v31l80 11v409l-81 8v31l154 15l20 -5l-4 -59c45 35 99 69 162 69c105 0 161 -73 161 -179zM447 740l17 -27l-143 -122h-29l-141 120l20 28
l136 -74z" />
    <glyph glyph-name="ncommaaccent" unicode="&#x146;" horiz-adv-x="633" 
d="M531 331v-289l80 -11v-31h-243v31l70 11v266c0 83 -31 128 -103 128s-127 -34 -127 -34s4 -41 4 -95v-265l70 -11v-31h-243v31l80 11v409l-81 8v31l154 15l20 -5l-4 -59c45 35 99 69 162 69c105 0 161 -73 161 -179zM257 -319l-18 24c46 28 88 76 94 127
c-48 -12 -75 22 -75 56c0 37 28 60 64 60c34 0 65 -22 65 -72c0 -81 -56 -156 -130 -195z" />
    <glyph glyph-name="obreve" unicode="&#x14f;" horiz-adv-x="574" 
d="M286 39c104 0 143 87 143 210c0 129 -53 212 -141 212c-104 0 -143 -87 -143 -210c0 -129 53 -212 141 -212zM274 -10c-140 0 -224 101 -224 249c0 154 84 271 250 271c140 0 224 -101 224 -249c0 -154 -84 -271 -250 -271zM288 590c-72 0 -132 48 -139 146l24 6
c19 -51 61 -83 115 -83c51 0 96 32 115 83l24 -6c-8 -88 -56 -146 -139 -146z" />
    <glyph glyph-name="ohungarumlaut" unicode="&#x151;" horiz-adv-x="574" 
d="M286 39c104 0 143 87 143 210c0 129 -53 212 -141 212c-104 0 -143 -87 -143 -210c0 -129 53 -212 141 -212zM274 -10c-140 0 -224 101 -224 249c0 154 84 271 250 271c140 0 224 -101 224 -249c0 -154 -84 -271 -250 -271zM168 591l-28 30l149 177l62 -64zM356 591
l-28 30l149 177l62 -64z" />
    <glyph glyph-name="omacron" unicode="&#x14d;" horiz-adv-x="574" 
d="M286 39c104 0 143 87 143 210c0 129 -53 212 -141 212c-104 0 -143 -87 -143 -210c0 -129 53 -212 141 -212zM274 -10c-140 0 -224 101 -224 249c0 154 84 271 250 271c140 0 224 -101 224 -249c0 -154 -84 -271 -250 -271zM168 622v59h234v-59h-234z" />
    <glyph glyph-name="oslashacute" unicode="&#x1ff;" horiz-adv-x="574" 
d="M264 590l-28 30l149 177l62 -64zM286 39c104 0 143 87 143 210c0 129 -53 212 -141 212c-104 0 -143 -87 -143 -210c0 -129 53 -212 141 -212zM274 -10c-140 0 -224 101 -224 249c0 154 84 271 250 271c140 0 224 -101 224 -249c0 -154 -84 -271 -250 -271z" />
    <glyph glyph-name="racute" unicode="&#x155;" horiz-adv-x="463" 
d="M207 397c0 0 4 -46 4 -100v-254l100 -12v-31h-273v31l80 12v409l-81 8v31l154 14l20 -5l-4 -67c35 35 83 77 133 77c51 0 70 -33 111 -50l-39 -73c-43 18 -61 47 -105 47c-34 0 -71 -17 -100 -37zM208 590l-28 30l149 177l62 -64z" />
    <glyph glyph-name="rcaron" unicode="&#x159;" horiz-adv-x="463" 
d="M207 397c0 0 4 -46 4 -100v-254l100 -12v-31h-273v31l80 12v409l-81 8v31l154 14l20 -5l-4 -67c35 35 83 77 133 77c51 0 70 -33 111 -50l-39 -73c-43 18 -61 47 -105 47c-34 0 -71 -17 -100 -37zM404 740l17 -27l-143 -122h-29l-141 120l20 28l136 -74z" />
    <glyph glyph-name="rcommaaccent" unicode="&#x157;" horiz-adv-x="465" 
d="M208 397c0 0 4 -46 4 -100v-254l100 -12v-31h-273v31l80 12v409l-81 8v31l154 14l20 -5l-4 -67c35 35 83 77 133 77c51 0 70 -33 111 -50l-39 -73c-43 18 -61 47 -105 47c-34 0 -71 -17 -100 -37zM94 -320l-18 24c46 28 88 76 94 127c-48 -12 -75 22 -75 56
c0 37 28 60 64 60c34 0 65 -22 65 -72c0 -81 -56 -156 -130 -195z" />
    <glyph glyph-name="sacute" unicode="&#x15b;" horiz-adv-x="436" 
d="M232 42c52 0 86 27 86 65c0 115 -264 84 -264 264c0 85 74 139 173 139c63 0 110 -16 152 -22l-20 -84c-69 9 -101 54 -161 54c-46 0 -68 -26 -68 -59c0 -127 260 -87 260 -269c0 -95 -85 -140 -174 -140c-80 0 -130 16 -172 22l20 84c69 -9 104 -54 168 -54zM179 590
l-28 30l149 177l62 -64z" />
    <glyph glyph-name="scedilla" unicode="&#x15f;" horiz-adv-x="437" 
d="M223 -200c-42 0 -90 13 -125 34l13 28c33 -11 70 -15 92 -15c41 0 59 16 59 36c0 28 -49 43 -93 27l-15 13l29 68c-61 4 -103 16 -138 21l20 84c69 -9 104 -54 168 -54c52 0 86 27 86 65c0 115 -264 84 -264 264c0 85 74 139 173 139c63 0 110 -16 152 -22l-20 -84
c-69 9 -101 54 -161 54c-46 0 -68 -26 -68 -59c0 -127 260 -87 260 -269c0 -95 -84 -139 -173 -140l6 -42c64 10 108 -19 108 -66c0 -45 -46 -82 -109 -82z" />
    <glyph glyph-name="scircumflex" unicode="&#x15d;" horiz-adv-x="436" 
d="M232 42c52 0 86 27 86 65c0 115 -264 84 -264 264c0 85 74 139 173 139c63 0 110 -16 152 -22l-20 -84c-69 9 -101 54 -161 54c-46 0 -68 -26 -68 -59c0 -127 260 -87 260 -269c0 -95 -85 -140 -174 -140c-80 0 -130 16 -172 22l20 84c69 -9 104 -54 168 -54zM85 591
l-17 27l143 122h29l141 -120l-20 -28l-136 74z" />
    <glyph glyph-name="scommaaccent" unicode="&#x219;" horiz-adv-x="436" 
d="M232 42c52 0 86 27 86 65c0 115 -264 84 -264 264c0 85 74 139 173 139c63 0 110 -16 152 -22l-20 -84c-69 9 -101 54 -161 54c-46 0 -68 -26 -68 -59c0 -127 260 -87 260 -269c0 -95 -85 -140 -174 -140c-80 0 -130 16 -172 22l20 84c69 -9 104 -54 168 -54zM148 -320
l-18 24c46 28 88 76 94 127c-48 -12 -75 22 -75 56c0 37 28 60 64 60c34 0 65 -22 65 -72c0 -81 -56 -156 -130 -195z" />
    <glyph glyph-name="tcaron" unicode="&#x165;" horiz-adv-x="384" 
d="M34 455v22l64 23l73 116h21l-1 -116h170v-55l-170 8v-305c0 -63 23 -96 77 -96c52 0 94 19 94 19v-37s-53 -44 -131 -44c-79 0 -132 45 -132 157v226c0 29 2 69 4 81zM273 525l-18 22c44 25 85 67 91 113c-47 -11 -72 19 -72 50c0 32 26 53 61 53c33 0 62 -20 62 -64
c0 -72 -53 -139 -124 -174z" />
    <glyph glyph-name="tcommaaccent" unicode="&#x163;" horiz-adv-x="384" 
d="M34 455v22l64 23l73 116h21l-1 -116h170v-55l-170 8v-305c0 -63 23 -96 77 -96c52 0 94 19 94 19v-37s-53 -44 -131 -44c-79 0 -132 45 -132 157v226c0 29 2 69 4 81zM159 -319l-18 24c46 28 88 76 94 127c-48 -12 -75 22 -75 56c0 37 28 60 64 60c34 0 65 -22 65 -72
c0 -81 -56 -156 -130 -195z" />
    <glyph glyph-name="ubreve" unicode="&#x16d;" horiz-adv-x="620" 
d="M514 441v-358c0 -25 7 -43 37 -43h31v-27s-31 -23 -76 -23c-41 0 -74 20 -82 69c-44 -36 -98 -69 -167 -69c-95 0 -155 73 -155 179v282l-81 8v31l158 15l20 -5l-4 -29v-291c0 -58 25 -116 103 -116c51 0 91 16 127 34c0 0 -4 52 -4 101v252l-81 8v31l158 15l20 -5z
M304 590c-72 0 -132 48 -139 146l24 6c19 -51 61 -83 115 -83c51 0 96 32 115 83l24 -6c-8 -88 -56 -146 -139 -146z" />
    <glyph glyph-name="uhungarumlaut" unicode="&#x171;" horiz-adv-x="620" 
d="M514 441v-358c0 -25 7 -43 37 -43h31v-27s-31 -23 -76 -23c-41 0 -74 20 -82 69c-44 -36 -98 -69 -167 -69c-95 0 -155 73 -155 179v282l-81 8v31l158 15l20 -5l-4 -29v-291c0 -58 25 -116 103 -116c51 0 91 16 127 34c0 0 -4 52 -4 101v252l-81 8v31l158 15l20 -5z
M191 591l-28 30l149 177l62 -64zM379 591l-28 30l149 177l62 -64z" />
    <glyph glyph-name="umacron" unicode="&#x16b;" horiz-adv-x="620" 
d="M514 441v-358c0 -25 7 -43 37 -43h31v-27s-31 -23 -76 -23c-41 0 -74 20 -82 69c-44 -36 -98 -69 -167 -69c-95 0 -155 73 -155 179v282l-81 8v31l158 15l20 -5l-4 -29v-291c0 -58 25 -116 103 -116c51 0 91 16 127 34c0 0 -4 52 -4 101v252l-81 8v31l158 15l20 -5z
M181 624v59h234v-59h-234z" />
    <glyph glyph-name="uogonek" unicode="&#x173;" horiz-adv-x="620" 
d="M506 -197c-47 0 -104 21 -104 80c0 56 36 88 88 108c-34 5 -59 25 -66 68c-44 -36 -98 -69 -167 -69c-95 0 -155 73 -155 179v282l-81 8v31l158 15l20 -5l-4 -29v-291c0 -58 25 -116 103 -116c51 0 91 16 127 34c0 0 -4 52 -4 101v252l-81 8v31l158 15l20 -5l-4 -59v-358
c0 -25 7 -43 37 -43h31v-27s-15 -11 -37 -17c-53 -21 -80 -51 -80 -92c0 -38 30 -57 67 -57s71 16 71 16v-28s-37 -32 -97 -32z" />
    <glyph glyph-name="uring" unicode="&#x16f;" horiz-adv-x="620" 
d="M514 441v-358c0 -25 7 -43 37 -43h31v-27s-31 -23 -76 -23c-41 0 -74 20 -82 69c-44 -36 -98 -69 -167 -69c-95 0 -155 73 -155 179v282l-81 8v31l158 15l20 -5l-4 -29v-291c0 -58 25 -116 103 -116c51 0 91 16 127 34c0 0 -4 52 -4 101v252l-81 8v31l158 15l20 -5z
M204 689c0 61 46 99 103 99s103 -38 103 -99s-46 -99 -103 -99s-103 38 -103 99zM361 689c0 38 -20 58 -54 58s-54 -20 -54 -58s20 -58 54 -58s54 20 54 58z" />
    <glyph glyph-name="utilde" unicode="&#x169;" horiz-adv-x="620" 
d="M514 441v-358c0 -25 7 -43 37 -43h31v-27s-31 -23 -76 -23c-41 0 -74 20 -82 69c-44 -36 -98 -69 -167 -69c-95 0 -155 73 -155 179v282l-81 8v31l158 15l20 -5l-4 -29v-291c0 -58 25 -116 103 -116c51 0 91 16 127 34c0 0 -4 52 -4 101v252l-81 8v31l158 15l20 -5z
M373 590c-53 0 -97 55 -136 55c-34 0 -53 -30 -64 -52l-27 7c9 55 40 111 107 111c55 0 95 -55 133 -55c28 0 51 25 66 51l27 -6c-12 -65 -43 -111 -106 -111z" />
    <glyph glyph-name="wacute" unicode="&#x1e83;" horiz-adv-x="831" 
d="M758 456l-160 -456l-77 -5l-92 339c-11 38 -19 83 -19 83h-4s-7 -48 -16 -85l-83 -332l-85 -5l-157 461l-60 13v31h220v-31l-69 -13l86 -270c18 -58 29 -118 29 -118h4s9 55 25 116l81 316l78 7l91 -315c17 -63 25 -122 25 -122h5s13 62 31 122l81 264l-70 13v31h205v-31
zM407 590l-28 30l149 177l62 -64z" />
    <glyph glyph-name="wcircumflex" unicode="&#x175;" horiz-adv-x="831" 
d="M758 456l-160 -456l-77 -5l-92 339c-11 38 -19 83 -19 83h-4s-7 -48 -16 -85l-83 -332l-85 -5l-157 461l-60 13v31h220v-31l-69 -13l86 -270c18 -58 29 -118 29 -118h4s9 55 25 116l81 316l78 7l91 -315c17 -63 25 -122 25 -122h5s13 62 31 122l81 264l-70 13v31h205v-31
zM275 591l-17 27l143 122h29l141 -120l-20 -28l-136 74z" />
    <glyph glyph-name="wdieresis" unicode="&#x1e85;" horiz-adv-x="831" 
d="M758 456l-160 -456l-77 -5l-92 339c-11 38 -19 83 -19 83h-4s-7 -48 -16 -85l-83 -332l-85 -5l-157 461l-60 13v31h220v-31l-69 -13l86 -270c18 -58 29 -118 29 -118h4s9 55 25 116l81 316l78 7l91 -315c17 -63 25 -122 25 -122h5s13 62 31 122l81 264l-70 13v31h205v-31
zM311 590c-32 0 -54 27 -54 57c0 32 23 56 57 56c35 0 55 -23 55 -54c0 -32 -22 -59 -58 -59zM510 590c-32 0 -54 27 -54 57c0 32 23 56 57 56c35 0 55 -23 55 -54c0 -32 -22 -59 -58 -59z" />
    <glyph glyph-name="wgrave" unicode="&#x1e81;" horiz-adv-x="831" 
d="M758 456l-160 -456l-77 -5l-92 339c-11 38 -19 83 -19 83h-4s-7 -48 -16 -85l-83 -332l-85 -5l-157 461l-60 13v31h220v-31l-69 -13l86 -270c18 -58 29 -118 29 -118h4s9 55 25 116l81 316l78 7l91 -315c17 -63 25 -122 25 -122h5s13 62 31 122l81 264l-70 13v31h205v-31
zM484 620l-28 -30l-183 143l62 64z" />
    <glyph glyph-name="ycircumflex" unicode="&#x177;" horiz-adv-x="574" 
d="M164 -250c0 0 32 119 98 232l-193 474l-65 13v31h233v-31l-65 -13l97 -263c22 -61 36 -116 36 -116h4s14 53 34 113l90 266l-75 13v31h212v-31l-69 -13l-172 -457c-53 -141 -71 -254 -71 -254zM162 591l-17 27l143 122h29l141 -120l-20 -28l-136 74z" />
    <glyph glyph-name="ygrave" unicode="&#x1ef3;" horiz-adv-x="574" 
d="M164 -250c0 0 32 119 98 232l-193 474l-65 13v31h233v-31l-65 -13l97 -263c22 -61 36 -116 36 -116h4s14 53 34 113l90 266l-75 13v31h212v-31l-69 -13l-172 -457c-53 -141 -71 -254 -71 -254zM359 620l-28 -30l-183 143l62 64z" />
    <glyph glyph-name="zacute" unicode="&#x17a;" horiz-adv-x="472" 
d="M372 54l16 86h38l-9 -140h-377v10l270 443l-205 -9l-16 -84h-35l6 140h362v-10l-271 -443zM198 591l-28 30l149 177l62 -64z" />
    <glyph glyph-name="zdotaccent" unicode="&#x17c;" horiz-adv-x="472" 
d="M372 54l16 86h38l-9 -140h-377v10l270 443l-205 -9l-16 -84h-35l6 140h362v-10l-271 -443zM247 590c-32 0 -59 26 -59 59s29 59 61 59s58 -26 58 -59s-28 -59 -60 -59z" />
    <glyph glyph-name="Scaron" unicode="&#x160;" horiz-adv-x="540" 
d="M239 38c85 0 155 41 155 118c0 92 -74 130 -152 170c-86 44 -176 89 -176 208c0 107 89 180 226 180c108 0 175 -41 175 -41l-8 -169h-39l-15 134c-34 15 -82 24 -120 24c-79 0 -125 -39 -125 -110c0 -76 67 -115 141 -154c89 -47 187 -92 187 -218
c0 -119 -96 -194 -248 -194c-114 0 -178 40 -178 40l-1 177h38l22 -149c37 -12 80 -16 118 -16zM429 935l17 -27l-143 -122h-29l-141 120l20 28l136 -74z" />
    <glyph glyph-name="scaron" unicode="&#x161;" horiz-adv-x="436" 
d="M232 42c52 0 86 27 86 65c0 115 -264 84 -264 264c0 85 74 139 173 139c63 0 110 -16 152 -22l-20 -84c-69 9 -101 54 -161 54c-46 0 -68 -26 -68 -59c0 -127 260 -87 260 -269c0 -95 -85 -140 -174 -140c-80 0 -130 16 -172 22l20 84c69 -9 104 -54 168 -54zM374 739
l17 -27l-143 -122h-29l-141 120l20 28l136 -74z" />
    <glyph glyph-name="Aring" unicode="&#xc5;" horiz-adv-x="684" 
d="M183 203l-16 -48c-15 -43 -26 -89 -30 -111l84 -13v-31h-234v31l75 13l241 657l74 6l247 -663l63 -13v-31h-243v31l78 13l-57 159h-282zM322 623h-4s-11 -54 -27 -101l-91 -269h246l-97 266c-18 50 -27 104 -27 104zM240 850c0 61 46 99 103 99s103 -38 103 -99
s-46 -99 -103 -99s-103 38 -103 99zM397 850c0 38 -20 58 -54 58s-54 -20 -54 -58s20 -58 54 -58s54 20 54 58z" />
    <glyph glyph-name="Ccedilla" unicode="&#xc7;" horiz-adv-x="666" 
d="M402 -200c-42 0 -90 13 -125 34l13 28c33 -11 70 -15 92 -15c41 0 59 16 59 36c0 28 -49 43 -93 27l-15 13l28 67c-191 23 -307 147 -307 348c0 203 123 376 350 376c130 0 204 -40 204 -40l-8 -170h-39l-15 134c-20 8 -67 24 -135 24c-166 0 -255 -121 -255 -303
c0 -181 101 -321 283 -321c43 0 84 9 107 15l21 150h38v-178s-78 -39 -177 -39c-10 0 -20 1 -30 1l5 -39c64 10 108 -19 108 -66c0 -45 -46 -82 -109 -82z" />
    <glyph glyph-name="Ntilde" unicode="&#xd1;" horiz-adv-x="766" 
d="M587 234v417l-80 18v31h218v-31l-80 -18v-651l-54 -4l-358 488c-29 39 -52 79 -52 79l-3 -1s5 -44 5 -90v-425l80 -16v-31h-218v31l80 16v563l-46 53v37l110 4l349 -480c25 -34 49 -78 49 -78l4 1s-4 46 -4 87zM452 760c-53 0 -97 55 -136 55c-34 0 -53 -30 -64 -52
l-27 7c9 55 40 111 107 111c55 0 95 -55 133 -55c28 0 51 25 66 51l27 -6c-12 -65 -43 -111 -106 -111z" />
    <glyph glyph-name="acircumflex" unicode="&#xe2;" horiz-adv-x="519" 
d="M329 59c-38 -35 -87 -64 -159 -64c-82 0 -128 54 -128 121c0 77 43 133 150 152c47 8 107 9 136 9v54c0 73 -16 115 -107 115c-69 0 -149 -23 -149 -23v34s78 53 182 53c119 0 165 -66 165 -187v-240c0 -25 7 -43 37 -43h31v-27s-31 -23 -76 -23c-41 0 -74 20 -82 69z
M214 57c49 0 83 19 115 38c0 0 -3 28 -3 71v71s-53 1 -111 -14c-51 -13 -82 -44 -82 -93c0 -43 27 -73 81 -73zM104 590l-17 27l143 122h29l141 -120l-20 -28l-136 74z" />
    <glyph glyph-name="atilde" unicode="&#xe3;" horiz-adv-x="519" 
d="M329 59c-38 -35 -87 -64 -159 -64c-82 0 -128 54 -128 121c0 77 43 133 150 152c47 8 107 9 136 9v54c0 73 -16 115 -107 115c-69 0 -149 -23 -149 -23v34s78 53 182 53c119 0 165 -66 165 -187v-240c0 -25 7 -43 37 -43h31v-27s-31 -23 -76 -23c-41 0 -74 20 -82 69z
M214 57c49 0 83 19 115 38c0 0 -3 28 -3 71v71s-53 1 -111 -14c-51 -13 -82 -44 -82 -93c0 -43 27 -73 81 -73zM316 590c-53 0 -97 55 -136 55c-34 0 -53 -30 -64 -52l-27 7c9 55 40 111 107 111c55 0 95 -55 133 -55c28 0 51 25 66 51l27 -6c-12 -65 -43 -111 -106 -111z
" />
    <glyph glyph-name="aring" unicode="&#xe5;" horiz-adv-x="519" 
d="M329 59c-38 -35 -87 -64 -159 -64c-82 0 -128 54 -128 121c0 77 43 133 150 152c47 8 107 9 136 9v54c0 73 -16 115 -107 115c-69 0 -149 -23 -149 -23v34s78 53 182 53c119 0 165 -66 165 -187v-240c0 -25 7 -43 37 -43h31v-27s-31 -23 -76 -23c-41 0 -74 20 -82 69z
M214 57c49 0 83 19 115 38c0 0 -3 28 -3 71v71s-53 1 -111 -14c-51 -13 -82 -44 -82 -93c0 -43 27 -73 81 -73zM150 689c0 61 46 99 103 99s103 -38 103 -99s-46 -99 -103 -99s-103 38 -103 99zM307 689c0 38 -20 58 -54 58s-54 -20 -54 -58s20 -58 54 -58s54 20 54 58z" />
    <glyph glyph-name="ccedilla" unicode="&#xe7;" horiz-adv-x="476" 
d="M268 -200c-42 0 -90 13 -125 34l13 28c33 -11 70 -15 92 -15c41 0 59 16 59 36c0 28 -49 43 -93 27l-15 13l30 71c-116 19 -179 116 -179 247c0 154 101 269 250 269c62 0 91 -17 138 -22l-20 -81c-58 8 -94 51 -147 51c-85 0 -126 -104 -126 -191
c0 -124 57 -215 162 -215c72 0 125 24 125 24v-34s-58 -52 -158 -52h-11l6 -42c64 10 108 -19 108 -66c0 -45 -46 -82 -109 -82z" />
    <glyph glyph-name="ecircumflex" unicode="&#xea;" horiz-adv-x="521" 
d="M472 257h-327c3 -119 70 -205 179 -205c68 0 128 24 128 24v-34s-64 -52 -168 -52c-144 0 -234 105 -234 251c0 166 105 269 231 269c139 0 205 -91 191 -253zM277 459c-73 0 -121 -60 -130 -155l234 6c-1 79 -18 149 -104 149zM139 590l-17 27l143 122h29l141 -120
l-20 -28l-136 74z" />
    <glyph glyph-name="iacute" unicode="&#xed;" horiz-adv-x="320" 
d="M191 505l20 -5v-457l80 -12v-31h-253v31l80 12v409l-81 8v31zM92 590l-28 30l149 177l62 -64z" />
    <glyph glyph-name="igrave" unicode="&#xec;" horiz-adv-x="320" 
d="M191 505l20 -5v-457l80 -12v-31h-253v31l80 12v409l-81 8v31zM234 619l-28 -30l-183 143l62 64z" />
    <glyph glyph-name="icircumflex" unicode="&#xee;" horiz-adv-x="320" 
d="M191 505l20 -5v-457l80 -12v-31h-253v31l80 12v409l-81 8v31zM10 589l-17 27l143 122h29l141 -120l-20 -28l-136 74z" />
    <glyph glyph-name="idieresis" unicode="&#xef;" horiz-adv-x="320" 
d="M191 505l20 -5v-457l80 -12v-31h-253v31l80 12v409l-81 8v31zM49 589c-32 0 -54 27 -54 57c0 32 23 56 57 56c35 0 55 -23 55 -54c0 -32 -22 -59 -58 -59zM248 589c-32 0 -54 27 -54 57c0 32 23 56 57 56c35 0 55 -23 55 -54c0 -32 -22 -59 -58 -59z" />
    <glyph glyph-name="ntilde" unicode="&#xf1;" horiz-adv-x="632" 
d="M530 331v-289l80 -11v-31h-243v31l70 11v266c0 83 -31 128 -103 128s-127 -34 -127 -34s4 -41 4 -95v-265l70 -11v-31h-243v31l80 11v409l-81 8v31l154 15l20 -5l-4 -59c45 35 99 69 162 69c105 0 161 -73 161 -179zM373 590c-53 0 -97 55 -136 55c-34 0 -53 -30 -64 -52
l-27 7c9 55 40 111 107 111c55 0 95 -55 133 -55c28 0 51 25 66 51l27 -6c-12 -65 -43 -111 -106 -111z" />
    <glyph glyph-name="ocircumflex" unicode="&#xf4;" horiz-adv-x="574" 
d="M286 39c104 0 143 87 143 210c0 129 -53 212 -141 212c-104 0 -143 -87 -143 -210c0 -129 53 -212 141 -212zM274 -10c-140 0 -224 101 -224 249c0 154 84 271 250 271c140 0 224 -101 224 -249c0 -154 -84 -271 -250 -271zM155 589l-17 27l143 122h29l141 -120l-20 -28
l-136 74z" />
    <glyph glyph-name="otilde" unicode="&#xf5;" horiz-adv-x="574" 
d="M286 39c104 0 143 87 143 210c0 129 -53 212 -141 212c-104 0 -143 -87 -143 -210c0 -129 53 -212 141 -212zM274 -10c-140 0 -224 101 -224 249c0 154 84 271 250 271c140 0 224 -101 224 -249c0 -154 -84 -271 -250 -271zM356 590c-53 0 -97 55 -136 55
c-34 0 -53 -30 -64 -52l-27 7c9 55 40 111 107 111c55 0 95 -55 133 -55c28 0 51 25 66 51l27 -6c-12 -65 -43 -111 -106 -111z" />
    <glyph glyph-name="ucircumflex" unicode="&#xfb;" horiz-adv-x="620" 
d="M514 441v-358c0 -25 7 -43 37 -43h31v-27s-31 -23 -76 -23c-41 0 -74 20 -82 69c-44 -36 -98 -69 -167 -69c-95 0 -155 73 -155 179v282l-81 8v31l158 15l20 -5l-4 -29v-291c0 -58 25 -116 103 -116c51 0 91 16 127 34c0 0 -4 52 -4 101v252l-81 8v31l158 15l20 -5z
M167 589l-17 27l143 122h29l141 -120l-20 -28l-136 74z" />
    <glyph glyph-name="AE" unicode="&#xc6;" horiz-adv-x="918" 
d="M543 333v-283l264 4l27 119h37l-4 -173h-502v31l80 13v159h-239l-25 -48c-29 -56 -52 -111 -52 -111l84 -13v-31h-234v31l75 13l344 613l-70 12v31h529l-6 -170h-41l-13 114l-254 6v-267l234 6v-61zM397 549l-163 -296h211v395c-3 -7 -25 -56 -48 -99z" />
    <glyph glyph-name="Atilde" unicode="&#xc3;" horiz-adv-x="684" 
d="M183 203l-16 -48c-15 -43 -26 -89 -30 -111l84 -13v-31h-234v31l75 13l241 657l74 6l247 -663l63 -13v-31h-243v31l78 13l-57 159h-282zM322 623h-4s-11 -54 -27 -101l-91 -269h246l-97 266c-18 50 -27 104 -27 104zM404 784c-53 0 -97 55 -136 55c-34 0 -53 -30 -64 -52
l-27 7c9 55 40 111 107 111c55 0 95 -55 133 -55c28 0 51 25 66 51l27 -6c-12 -65 -43 -111 -106 -111z" />
    <glyph glyph-name="Otilde" unicode="&#xd5;" horiz-adv-x="769" 
d="M399 33c143 0 215 133 215 296c0 166 -87 338 -246 338c-141 0 -213 -133 -213 -303c0 -159 87 -331 244 -331zM373 -14c-191 0 -320 151 -320 361c0 179 104 367 343 367c191 0 320 -151 320 -361c0 -179 -104 -367 -343 -367zM435 789c-53 0 -97 55 -136 55
c-34 0 -53 -30 -64 -52l-27 7c9 55 40 111 107 111c55 0 95 -55 133 -55c28 0 51 25 66 51l27 -6c-12 -65 -43 -111 -106 -111z" />
    <glyph glyph-name="Acircumflex" unicode="&#xc2;" horiz-adv-x="684" 
d="M183 203l-16 -48c-15 -43 -26 -89 -30 -111l84 -13v-31h-234v31l75 13l241 657l74 6l247 -663l63 -13v-31h-243v31l78 13l-57 159h-282zM322 623h-4s-11 -54 -27 -101l-91 -269h246l-97 266c-18 50 -27 104 -27 104zM200 762l-17 27l143 122h29l141 -120l-20 -28l-136 74
z" />
    <glyph glyph-name="Ecircumflex" unicode="&#xca;" horiz-adv-x="600" 
d="M225 333v-283l264 4l27 119h37l-4 -173h-502v31l80 13v612l-80 13v31h492l-6 -170h-41l-13 114l-254 6v-267l234 6v-61zM188 762l-17 27l143 122h29l141 -120l-20 -28l-136 74z" />
    <glyph glyph-name="Icircumflex" unicode="&#xce;" horiz-adv-x="352" 
d="M225 656v-612l80 -13v-31h-258v31l80 13v612l-80 13v31h258v-31zM35 762l-17 27l143 122h29l141 -120l-20 -28l-136 74z" />
    <glyph glyph-name="Ocircumflex" unicode="&#xd4;" horiz-adv-x="769" 
d="M399 33c143 0 215 133 215 296c0 166 -87 338 -246 338c-141 0 -213 -133 -213 -303c0 -159 87 -331 244 -331zM373 -14c-191 0 -320 151 -320 361c0 179 104 367 343 367c191 0 320 -151 320 -361c0 -179 -104 -367 -343 -367zM243 751l-17 27l143 122h29l141 -120
l-20 -28l-136 74z" />
    <glyph glyph-name="AEacute" unicode="&#x1fc;" horiz-adv-x="918" 
d="M543 333v-283l264 4l27 119h37l-4 -173h-502v31l80 13v159h-239l-25 -48c-29 -56 -52 -111 -52 -111l84 -13v-31h-234v31l75 13l344 613l-70 12v31h529l-6 -170h-41l-13 114l-254 6v-267l234 6v-61zM397 549l-163 -296h211v395c-3 -7 -25 -56 -48 -99zM595 750l-28 30
l149 177l62 -64z" />
    <glyph glyph-name="sterling" unicode="&#xa3;" horiz-adv-x="563" 
d="M221 434l16 -88h175v-50h-166l3 -17c31 -185 -94 -219 -106 -222l300 15l23 108h42l-10 -180h-452v57s137 29 111 177l-11 62h-91v50h82l-12 72c-32 181 66 297 240 297c54 0 125 -20 125 -20l-10 -180h-39l-14 129c-19 4 -41 7 -69 7c-119 0 -163 -70 -137 -217z" />
    <glyph glyph-name="section" unicode="&#xa7;" horiz-adv-x="494" 
d="M447 332c0 -71 -52 -105 -80 -118c22 -21 36 -49 36 -89c0 -88 -79 -135 -188 -135c-88 0 -154 20 -154 20l8 66s79 -22 151 -22c65 0 98 21 98 67c0 99 -268 65 -268 240c0 76 78 106 93 111c-29 24 -49 56 -49 104c0 88 74 139 182 139c95 0 150 -20 150 -20l-8 -71
s-72 26 -156 26c-55 0 -87 -24 -87 -60c0 -108 272 -101 272 -258zM362 299c0 93 -116 108 -195 156l2 -2c-1 -1 -34 -26 -34 -71c0 -92 123 -97 202 -145c11 11 25 32 25 62z" />
    <glyph glyph-name="germandbls" unicode="&#xdf;" horiz-adv-x="658" 
d="M476 -10c-61 0 -106 16 -162 21l8 72c52 -5 102 -24 151 -24c51 0 70 30 70 70c0 93 -222 68 -222 224c0 120 133 135 133 249c0 60 -47 104 -118 104c-100 0 -129 -54 -129 -135v-571h-159v31l66 11v408h-66v50h67v47c0 135 80 213 220 213c114 0 217 -66 217 -161
c0 -135 -146 -126 -146 -236c0 -87 222 -80 222 -227c0 -90 -62 -146 -152 -146z" />
    <glyph glyph-name="registered" unicode="&#xae;" horiz-adv-x="474" 
d="M237 338c-106 0 -190 82 -190 188s84 189 190 189s190 -83 190 -189c0 -105 -85 -188 -190 -188zM237 370c77 0 136 55 136 156c0 105 -58 158 -136 158s-137 -53 -137 -158c0 -101 59 -156 137 -156zM233 602h-18v-75h20c21 0 36 10 36 38c0 21 -15 37 -38 37zM167 461
v148l-24 2v17h100c51 0 79 -24 79 -62c0 -23 -13 -41 -36 -50l21 -44c7 -14 9 -16 27 -19v-15c-39 -12 -64 -2 -75 23l-17 41h-27v-64h-72v19z" />
    <glyph glyph-name="copyright" unicode="&#xa9;" horiz-adv-x="809" 
d="M405 -8c-203 0 -358 159 -358 362c0 202 155 363 358 363c202 0 357 -161 357 -363c0 -200 -158 -362 -357 -362zM405 38c151 0 270 128 270 316c0 190 -116 317 -270 317c-155 0 -270 -127 -270 -317s115 -316 270 -316zM436 513c-90 0 -128 -65 -128 -157
c0 -82 38 -149 121 -149c55 0 98 20 98 20v-43s-42 -25 -117 -25c-117 0 -184 79 -184 189c0 126 85 213 190 213c66 0 112 -16 112 -16l-3 -150h-36l-18 114c-11 2 -22 4 -35 4z" />
    <glyph glyph-name="trademark" unicode="&#x2122;" horiz-adv-x="1034" 
d="M974 346h-205v29l61 15v121c0 46 2 79 2 79l-3 1s-12 -30 -39 -70l-91 -135h-12l-89 134c-24 37 -36 71 -36 71l-3 -1s3 -36 3 -78v-122l55 -15v-29h-179v29l68 15v265l-67 20v27h137l99 -158c15 -25 30 -56 30 -56h3s14 29 30 54l98 161h138v-28l-60 -20v-265l60 -15
v-29zM332 346h-205v29l60 15v260h-96l-15 -79h-30v130h362v-130h-30l-15 79h-91v-260l60 -15v-29z" />
    <glyph glyph-name="notequal" unicode="&#x2260;" horiz-adv-x="533" 
d="M61 342v69h254l99 155l58 -40l-80 -115h80v-69h-127l-80 -121h207v-69h-252c-34 -54 -68 -107 -101 -161l-58 39c28 40 56 81 83 122h-83v69h130c26 40 53 80 79 121h-209z" />
    <glyph glyph-name="infinity" unicode="&#x221e;" horiz-adv-x="728" 
d="M209 430c79 0 140 -86 154 -106c14 19 74 106 168 106c67 0 137 -47 137 -144c0 -95 -70 -142 -142 -142c-87 0 -148 86 -163 106c-14 -19 -73 -106 -163 -106c-71 0 -141 52 -141 142c0 97 70 144 150 144zM526 359c-63 0 -115 -48 -136 -72c21 -24 75 -72 135 -72
c47 0 76 30 76 72c0 41 -29 72 -75 72zM208 359c-54 0 -82 -31 -82 -72c0 -42 28 -72 76 -72c60 0 113 48 134 72c-21 24 -72 72 -128 72z" />
    <glyph glyph-name="plusminus" unicode="&#xb1;" horiz-adv-x="554" 
d="M71 313v64h170v144h70v-144h171v-64h-171v-143h-70v143h-170zM71 65v63h411v-63h-411z" />
    <glyph glyph-name="lessequal" unicode="&#x2264;" 
d="M63 64v65h365v-65h-365zM63 343l365 184v-78l-251 -116l251 -116v-79l-365 185v20z" />
    <glyph glyph-name="greaterequal" unicode="&#x2265;" horiz-adv-x="501" 
d="M438 129v-65h-365v65h365zM73 527l365 -184v-20l-365 -185v79l251 116l-251 116v78z" />
    <glyph glyph-name="mu" unicode="&#xb5;" horiz-adv-x="609" 
d="M413 59c-39 -40 -85 -69 -149 -69c-41 0 -83 23 -106 54l-3 -2c16 -57 29 -134 29 -205v-39h-94v619c0 36 -5 83 -5 83h98v-294c0 -95 42 -136 109 -136c43 0 82 14 117 33v314c0 36 -5 83 -5 83h98v-417c0 -25 8 -43 38 -43h31v-27s-31 -23 -76 -23c-41 0 -74 20 -82 69
z" />
    <glyph glyph-name="logicalnot" unicode="&#xac;" horiz-adv-x="649" 
d="M75 269v64h497v-235h-62v171h-435z" />
    <glyph glyph-name="radical" unicode="&#x221a;" horiz-adv-x="628" 
d="M622 701l-253 -701l-86 -5l-156 444h-103v61h175l106 -312c22 -62 31 -119 31 -119h4s12 56 32 117l171 515h79z" />
    <glyph glyph-name="florin" unicode="&#x192;" horiz-adv-x="392" 
d="M117 -70v511l-96 1v58h97v47c0 135 65 213 181 213c55 0 89 -16 142 -20l-8 -72c-57 5 -93 23 -137 23c-71 0 -86 -51 -86 -110v-81h171l-5 -63l-166 2v-475c0 -135 -65 -213 -181 -213c-55 0 -89 16 -142 20l8 72c57 -5 93 -23 137 -23c71 0 85 51 85 110z" />
    <glyph glyph-name="Delta" unicode="&#x2206;" horiz-adv-x="653" 
d="M52 0l-18 29l285 671h52l245 -673l-15 -27h-549zM303 480l-165 -418h367l-140 417c-17 51 -27 102 -27 102h-4s-13 -55 -31 -101z" />
    <glyph glyph-name="divide" unicode="&#xf7;" horiz-adv-x="544" 
d="M61 253v64h421v-64h-421zM265 402c-34 0 -58 25 -58 63c0 39 26 62 64 62c36 0 57 -23 57 -60c0 -41 -25 -65 -63 -65zM265 48c-34 0 -58 25 -58 63c0 39 26 62 64 62c36 0 57 -23 57 -60c0 -41 -25 -65 -63 -65z" />
    <glyph glyph-name="lozenge" unicode="&#x25ca;" horiz-adv-x="622" 
d="M20 328v31l265 341h52l265 -343v-31l-265 -341h-52zM502 336l-198 275l-186 -259l199 -281z" />
    <glyph glyph-name="guilsinglleft" unicode="&#x2039;" horiz-adv-x="348" 
d="M26 269l228 240l52 -50l-209 -205l206 -201l-49 -53l-228 240v29z" />
    <glyph glyph-name="guilsinglright" unicode="&#x203a;" horiz-adv-x="348" 
d="M94 509l228 -240v-29l-228 -240l-49 53l206 201l-209 205z" />
    <glyph glyph-name="daggerdbl" unicode="&#x2021;" horiz-adv-x="578" 
d="M528 -35l-215 14l15 -229h-78l14 229l-214 -14v74l214 -14l-19 200l19 214l-214 -13v74l214 -13l-14 228h78l-14 -228l214 13v-74l-214 13l19 -214l-20 -200l215 14v-74z" />
    <glyph glyph-name="periodcentered" unicode="&#xb7;" horiz-adv-x="255" 
d="M127 218c-32 0 -59 26 -59 59s29 59 61 59s58 -26 58 -59s-28 -59 -60 -59z" />
    <glyph glyph-name="uni271A" unicode="&#x271a;" horiz-adv-x="799" 
d="M50 256v186h251v257h196v-257h252v-186h-252v-256h-196v256h-251z" />
    <glyph glyph-name="uni271B" unicode="&#x271b;" horiz-adv-x="799" 
d="M50 286v126h281v287h136v-287h282v-126h-282v-286h-136v286h-281zM341 402v-106h116v106h-116z" />
    <glyph glyph-name="uni271C" unicode="&#x271c;" horiz-adv-x="799" 
d="M50 256v186h251v257h196v-257h252v-186h-252v-256h-196v256h-251zM311 432v-166h176v166h-176z" />
    <glyph glyph-name="uni2722" unicode="&#x2722;" horiz-adv-x="795" 
d="M745 424l-1 -151h-146v39l-162 1v-168h39v-145h-154v145h44v167h-170v-39h-145v151h145v-36h170v168h-44v145h154v-145h-39v-168h162v36h147z" />
    <glyph glyph-name="uni2723" unicode="&#x2723;" horiz-adv-x="921" 
d="M323 629c0 75 60 136 135 136s136 -61 136 -136c0 -62 -41 -113 -97 -129v-112h109c17 55 68 96 129 96c75 0 136 -61 136 -136s-61 -135 -136 -135c-63 0 -115 41 -130 99l-108 1v-109c56 -17 97 -69 97 -130c0 -75 -61 -135 -136 -135s-135 60 -135 135
c0 64 43 117 103 132v106h-110c-16 -58 -69 -99 -131 -99c-75 0 -135 60 -135 135s60 136 135 136c61 0 113 -41 130 -96h111v110c-60 14 -103 67 -103 131zM677 348c0 -32 26 -58 58 -58s59 26 59 58s-27 59 -59 59s-58 -27 -58 -59zM127 348c0 -32 26 -58 58 -58
s59 26 59 58s-27 59 -59 59s-58 -27 -58 -59zM400 74c0 -32 26 -58 58 -58s59 26 59 58s-27 59 -59 59s-58 -27 -58 -59zM400 629c0 -32 26 -58 58 -58s59 26 59 58s-27 59 -59 59s-58 -27 -58 -59z" />
    <glyph glyph-name="uni2724" unicode="&#x2724;" horiz-adv-x="865" 
d="M324 629c0 59 47 107 106 107s107 -48 107 -107c0 -45 -29 -84 -68 -99v-142h140c16 39 54 67 99 67c59 0 107 -48 107 -107s-48 -106 -107 -106c-47 0 -86 29 -100 70l-139 1v-141c40 -15 68 -54 68 -99c0 -59 -48 -106 -107 -106s-106 47 -106 106c0 47 31 88 74 102
v137h-142c-15 -41 -54 -70 -100 -70c-59 0 -106 47 -106 106s47 107 106 107c45 0 83 -28 99 -67h143v140c-43 13 -74 53 -74 101z" />
    <glyph glyph-name="uni2725" unicode="&#x2725;" horiz-adv-x="865" 
d="M50 348c0 29 77 107 106 107c19 0 61 -35 86 -67l163 -10l-10 157c-32 25 -68 67 -68 87c0 29 77 107 106 107s107 -78 107 -107c0 -20 -36 -62 -68 -87l-10 -157l160 10c25 32 66 67 86 67c29 0 107 -78 107 -107s-78 -106 -107 -106c-21 0 -65 38 -89 71l-157 10
l10 -162c32 -25 68 -68 68 -87c0 -29 -78 -106 -107 -106s-106 77 -106 106c0 20 36 62 68 87l10 162l-159 -10c-25 -33 -70 -71 -90 -71c-29 0 -106 77 -106 106z" />
    <glyph glyph-name="uni2726" unicode="&#x2726;" horiz-adv-x="825" 
d="M50 351c0 98 262 364 361 364c98 0 364 -266 364 -364c0 -99 -266 -361 -364 -361c-99 0 -361 262 -361 361z" />
    <glyph glyph-name="uni2727" unicode="&#x2727;" horiz-adv-x="822" 
d="M50 337v31c129 97 244 220 345 347h32c101 -127 216 -250 345 -347v-31c-129 -97 -244 -220 -345 -347h-32c-101 127 -216 250 -345 347z" />
    <glyph glyph-name="uni25C6" unicode="&#x25c6;" horiz-adv-x="534" 
d="M50 343v19c78 58 147 132 207 208h20c60 -76 129 -150 207 -208v-19c-78 -58 -147 -132 -207 -209h-20c-60 77 -129 151 -207 209z" />
    <glyph glyph-name="uni2756" unicode="&#x2756;" horiz-adv-x="826" 
d="M243 536v15c62 46 116 104 163 164h16c47 -60 102 -118 163 -164v-15c-61 -46 -116 -104 -163 -165h-16c-47 61 -101 119 -163 165zM50 345v15c61 46 116 104 163 164h16c47 -60 102 -118 163 -164v-15c-61 -45 -116 -104 -163 -164h-16c-47 60 -102 119 -163 164z
M434 345v15c61 46 116 104 163 164h16c47 -60 101 -118 163 -164v-15c-62 -45 -116 -104 -163 -164h-16c-47 60 -102 119 -163 164zM242 155v15c62 45 116 104 163 164h16c47 -60 102 -119 163 -164v-15c-61 -46 -116 -104 -163 -165h-16c-47 61 -101 119 -163 165z" />
    <glyph glyph-name="uni2766" unicode="&#x2766;" horiz-adv-x="885" 
d="M713 137l36 -33c-51 -59 -135 -115 -267 -113c-149 3 -276 108 -276 294c0 220 163 254 253 202c-2 31 -8 59 -18 84c-31 -9 -60 -15 -89 -15c-76 0 -137 34 -166 138c-49 -21 -85 -69 -85 -151h-50c0 144 100 212 206 212c81 0 164 -41 212 -124c106 37 223 101 367 61
l-10 -50c-117 30 -225 -16 -337 -56c11 -30 18 -63 20 -101c82 57 226 11 226 -126c0 -198 -230 -221 -230 -268c0 -19 14 -27 39 -27c76 0 131 34 169 73z" />
    <glyph glyph-name="uni2776" unicode="&#x2776;" horiz-adv-x="815" 
d="M408 -8c-203 0 -358 159 -358 362c0 202 155 363 358 363c202 0 357 -161 357 -363c0 -200 -158 -362 -357 -362zM280 555l4 -40l105 10v-404h65v471h-10z" />
    <glyph glyph-name="uni2777" unicode="&#x2777;" horiz-adv-x="815" 
d="M408 -8c-203 0 -358 159 -358 362c0 202 155 363 358 363c202 0 357 -161 357 -363c0 -200 -158 -362 -357 -362zM468 462c0 -103 -91 -211 -193 -308v-33h272l6 54l-201 -5c100 92 181 195 181 295c0 88 -54 126 -132 126c-67 0 -111 -23 -111 -23v-54s49 23 101 23
c49 0 77 -25 77 -75z" />
    <glyph glyph-name="uni2778" unicode="&#x2778;" horiz-adv-x="815" 
d="M408 -8c-203 0 -358 159 -358 362c0 202 155 363 358 363c202 0 357 -161 357 -363c0 -200 -158 -362 -357 -362zM353 390l-6 -49c104 -2 141 -45 141 -92c0 -51 -37 -82 -98 -82c-56 0 -104 18 -104 18l-14 -53s54 -20 118 -20c108 0 164 62 164 137
c0 66 -48 111 -119 122c68 17 99 63 99 113c0 68 -50 107 -133 107c-64 0 -109 -23 -109 -23v-54s46 23 103 23c49 0 75 -25 75 -61c0 -52 -39 -82 -117 -86z" />
    <glyph glyph-name="uni2779" unicode="&#x2779;" horiz-adv-x="815" 
d="M408 -8c-203 0 -358 159 -358 362c0 202 155 363 358 363c202 0 357 -161 357 -363c0 -200 -158 -362 -357 -362zM430 249v-128h64s-3 30 -3 60v68h69l5 50l-74 -1v291l-53 11l-219 -321l18 -30h193zM430 297l-142 -3l112 168c22 36 33 59 33 59h1s-4 -32 -4 -61v-163z
" />
    <glyph glyph-name="uni277A" unicode="&#x277a;" horiz-adv-x="815" 
d="M408 -8c-203 0 -358 159 -358 362c0 202 155 363 358 363c202 0 357 -161 357 -363c0 -200 -158 -362 -357 -362zM536 531l3 60h-230l-12 -221c119 -11 187 -48 187 -111c0 -54 -30 -90 -98 -90c-42 0 -76 10 -105 18l-14 -53c28 -10 71 -20 122 -20
c109 0 162 65 162 145c0 81 -54 145 -201 164l6 113z" />
    <glyph glyph-name="uni277B" unicode="&#x277b;" horiz-adv-x="815" 
d="M408 -8c-203 0 -358 159 -358 362c0 202 155 363 358 363c202 0 357 -161 357 -363c0 -200 -158 -362 -357 -362zM409 407c-44 0 -77 -17 -91 -26c18 110 98 155 201 169l-6 51c-155 -18 -266 -93 -266 -277c0 -65 13 -119 44 -160c21 -28 53 -52 107 -52
c103 0 152 73 152 157c0 87 -50 138 -141 138zM407 162c-73 0 -93 80 -93 163c11 9 41 29 81 29c67 0 90 -38 90 -93c0 -59 -23 -99 -78 -99z" />
    <glyph glyph-name="uni277C" unicode="&#x277c;" horiz-adv-x="815" 
d="M407 716c203 0 358 -159 358 -362c0 -202 -155 -363 -358 -363c-202 0 -357 161 -357 363c0 200 158 362 357 362zM278 591l-6 -61l222 7c-63 -130 -131 -277 -182 -415l69 -20c50 159 108 324 179 477v12h-282z" />
    <glyph glyph-name="uni277D" unicode="&#x277d;" horiz-adv-x="815" 
d="M407 716c203 0 358 -159 358 -362c0 -202 -155 -363 -358 -363c-202 0 -357 161 -357 363c0 200 158 362 357 362zM257 238c0 -80 62 -124 151 -124c78 0 148 53 148 132c0 67 -49 102 -101 130c36 18 87 56 88 115c1 67 -56 108 -132 108c-79 0 -141 -45 -141 -118
c0 -55 38 -88 83 -114c-45 -20 -96 -64 -96 -129zM493 240c0 -49 -39 -75 -87 -75c-57 0 -85 34 -85 77c0 48 37 85 68 105c53 -29 104 -56 104 -107zM334 488c0 36 30 59 74 59c47 0 72 -25 71 -62c-1 -41 -26 -65 -60 -90c-46 25 -85 49 -85 93z" />
    <glyph glyph-name="uni277E" unicode="&#x277e;" horiz-adv-x="815" 
d="M407 716c203 0 358 -159 358 -362c0 -202 -155 -363 -358 -363c-202 0 -357 161 -357 363c0 200 158 362 357 362zM419 307c32 0 60 7 76 11c-26 -119 -116 -148 -205 -158l11 -48c145 13 267 83 267 288c0 115 -39 199 -153 199c-102 0 -150 -69 -150 -153
c0 -88 56 -139 154 -139zM502 391c0 -8 0 -15 -1 -23c-12 -4 -39 -11 -70 -11c-68 0 -101 41 -101 96c0 60 27 98 81 98c69 0 91 -66 91 -160z" />
    <glyph glyph-name="uni277F" unicode="&#x277f;" horiz-adv-x="815" 
d="M407 716c203 0 358 -159 358 -362c0 -202 -155 -363 -358 -363c-202 0 -357 161 -357 363c0 200 158 362 357 362zM156 557l4 -40l72 8v-404h65v471h-10zM497 172c-62 0 -78 93 -78 199c0 88 18 170 75 170c61 0 80 -103 80 -209c0 -88 -20 -160 -77 -160zM491 110
c86 0 163 73 163 256c0 144 -66 237 -152 237c-96 0 -163 -83 -163 -266c0 -144 66 -227 152 -227z" />
    <glyph glyph-name="uni2794" unicode="&#x2794;" horiz-adv-x="767" 
d="M606 280l-4 3c-57 51 -123 128 -140 165h90c31 -47 70 -94 123 -142l50 -46v-29l-50 -46c-53 -49 -92 -96 -123 -142h-90c17 36 85 112 141 163h-542v74h545z" />
    <glyph glyph-name="arrowright" unicode="&#x2192;" horiz-adv-x="779" 
d="M601 280l-4 3c-57 51 -107 128 -124 165l64 34c32 -58 78 -116 143 -176l50 -46v-29l-50 -46c-65 -60 -111 -118 -143 -176l-64 34c17 36 66 112 122 163h-529v74h535z" />
    <glyph glyph-name="arrowboth" unicode="&#x2194;" horiz-adv-x="961" 
d="M182 283l-4 -3h605l-4 3c-57 51 -107 128 -124 165l64 34c32 -58 78 -116 143 -176l50 -46v-29l-50 -46c-65 -60 -111 -118 -143 -176l-64 34c17 36 66 112 122 163h-593c56 -51 105 -127 122 -163l-64 -34c-32 58 -78 116 -143 176l-50 46v29l50 46
c65 60 111 118 143 176l64 -34c-17 -37 -67 -114 -124 -165z" />
    <glyph glyph-name="arrowupdn" unicode="&#x2195;" horiz-adv-x="577" 
d="M86 425l-34 59c58 32 113 78 173 143l46 50h29l46 -50c60 -65 121 -111 179 -143l-34 -59c-36 16 -116 73 -167 128v-615c51 55 131 111 167 128l34 -59c-58 -32 -119 -78 -179 -143l-46 -50h-29l-46 50c-60 65 -115 111 -173 143l34 59c36 -17 111 -68 165 -127v613
c-54 -59 -129 -111 -165 -127z" />
    <glyph glyph-name="uni2799" unicode="&#x2799;" horiz-adv-x="757" 
d="M489 280v202h37c32 -58 78 -116 143 -176l50 -46v-29l-50 -46c-65 -60 -111 -118 -143 -176h-37v197h-434v74h434z" />
    <glyph glyph-name="uni279B" unicode="&#x279b;" horiz-adv-x="752" 
d="M51 211v69l475 1c-105 28 -200 108 -227 167l70 46c32 -58 210 -191 346 -234v-29c-136 -43 -314 -176 -346 -234l-70 46c27 59 122 139 227 167z" />
    <glyph glyph-name="uni27B3" unicode="&#x27b3;" horiz-adv-x="1152" 
d="M797 61h-10v145h-295l-23 -21c-65 -60 -111 -118 -143 -176l-64 34c17 37 67 114 124 165l42 37l-42 38c-57 51 -107 128 -124 165l64 34c32 -58 78 -116 143 -176l29 -26h289v153h10s189 -64 318 -183v-9c-128 -118 -318 -180 -318 -180zM218 245l-42 38
c-50 45 -94 110 -116 150l65 34c31 -53 75 -106 134 -161l50 -46v-29l-50 -46c-59 -54 -102 -107 -133 -159l-65 35c22 40 66 103 115 147z" />
    <glyph glyph-name="uni27B4" unicode="&#x27b4;" horiz-adv-x="950" 
d="M560 -34l-7 7l103 103l-209 209l-31 1c-88 4 -162 -5 -225 -23l-22 69c39 14 128 33 205 29l56 -4l-3 57c-5 76 15 166 29 204l69 -21c-18 -64 -27 -137 -23 -225l2 -39l204 -205l108 109l7 -8s89 -178 96 -354l-6 -6c-174 7 -353 97 -353 97zM281 506l-3 56
c-3 68 12 145 24 189l70 -22c-15 -60 -22 -128 -19 -209l3 -68l-20 -20l-68 3c-80 3 -148 -4 -207 -19l-21 71c44 13 119 26 185 22z" />
    <glyph glyph-name="uni27B5" unicode="&#x27b5;" horiz-adv-x="1152" 
d="M365 61h-10s-190 62 -318 180v9c129 119 318 183 318 183h10v-153h289l29 26c65 60 111 118 143 176l64 -34c-17 -37 -67 -114 -124 -165l-42 -38l42 -37c57 -51 107 -128 124 -165l-64 -34c-32 58 -78 116 -143 176l-23 21h-295v-145zM976 283l-42 -38l42 -37
c49 -44 93 -107 115 -147l-65 -35c-31 52 -74 105 -133 159l-50 46v29l50 46c59 55 103 108 134 161l65 -34c-22 -40 -66 -105 -116 -150z" />
    <glyph glyph-name="uni27B6" unicode="&#x27b6;" horiz-adv-x="951" 
d="M547 647l7 7s179 90 353 97l6 -6c-7 -176 -96 -354 -96 -354l-7 -8l-108 109l-204 -205l-2 -39c-4 -88 5 -161 23 -225l-69 -21c-14 38 -34 128 -29 204l3 57l-56 -4c-77 -4 -166 15 -205 29l22 69c63 -18 137 -27 225 -23l31 1l209 209zM272 58l3 56l-56 -3
c-66 -4 -141 9 -185 22l21 71c59 -15 127 -22 207 -19l68 3l20 -20l-3 -68c-3 -81 4 -149 19 -209l-70 -22c-12 44 -27 121 -24 189z" />
    <glyph glyph-name="uni27BB" unicode="&#x27bb;" horiz-adv-x="841" 
d="M674 280l-4 3c-57 51 -107 128 -124 165l64 34c32 -58 78 -116 143 -176l50 -46v-29l-50 -46c-65 -60 -111 -118 -143 -176l-64 34c17 36 66 112 122 163h-163c-168 0 -357 -44 -439 -68v216c78 -17 267 -74 440 -74h168z" />
    <glyph glyph-name="uni27BC" unicode="&#x27bc;" horiz-adv-x="868" 
d="M701 280l-4 3c-57 51 -107 128 -124 165l64 34c32 -58 78 -116 143 -176l50 -46v-29l-50 -46c-65 -60 -111 -118 -143 -176l-64 34c17 36 66 112 122 163h-284c-20 -39 -91 -67 -163 -67h-192c10 3 72 31 72 94v24c0 69 -60 93 -67 95c57 0 178 1 180 1
c75 0 149 -30 170 -73h290z" />
    <glyph glyph-name="uni27BD" unicode="&#x27bd;" horiz-adv-x="873" 
d="M706 280l-4 3c-57 51 -107 128 -124 165l64 34c32 -58 78 -116 143 -176l50 -46v-29l-50 -46c-65 -60 -111 -118 -143 -176l-64 34c17 36 66 112 122 163h-284l-54 -67h-301l72 84v44l-72 85l301 1l54 -73h290z" />
    <glyph glyph-name="uni27BE" unicode="&#x27be;" horiz-adv-x="758" 
d="M55 190v105h477c-44 48 -83 111 -99 145l94 48c35 -63 81 -120 139 -174l53 -48v-43l-53 -48c-58 -53 -104 -110 -139 -173l-94 48c16 34 57 98 95 140h-473zM575 279l4 -2h-505v-69h499c-53 -47 -99 -117 -115 -150l60 -31c30 53 74 107 135 162l47 42v27l-47 43
c-61 55 -105 108 -135 162l-60 -31c16 -35 63 -106 117 -153z" />
    <glyph glyph-name="filledbox" unicode="&#x25a0;" horiz-adv-x="635" 
d="M73 86l-22 22c23 160 17 328 -1 489l23 23c161 -18 329 -24 489 -1l22 -22c-23 -160 -17 -328 1 -490l-22 -22c-162 18 -330 24 -490 1z" />
    <glyph glyph-name="H18533" unicode="&#x25cf;" horiz-adv-x="637" 
d="M50 351c0 148 120 269 268 269s269 -121 269 -269s-121 -268 -269 -268s-268 120 -268 268z" />
    <glyph glyph-name="triagup" unicode="&#x25b2;" horiz-adv-x="723" 
d="M673 92h-623v25l300 486h24l299 -486v-25z" />
    <glyph glyph-name="triagdn" unicode="&#x25bc;" horiz-adv-x="723" 
d="M50 603h623v-25l-299 -486h-24l-300 486v25z" />
    <glyph glyph-name="Zcaron" unicode="&#x17d;" horiz-adv-x="591" 
d="M135 643l-37 -127h-37l9 184h463v-25l-375 -626l319 8l30 123h37l-6 -180h-501v25l375 626zM438 926l17 -27l-143 -122h-29l-141 120l20 28l136 -74z" />
    <glyph glyph-name="zcaron" unicode="&#x17e;" horiz-adv-x="472" 
d="M372 54l16 86h38l-9 -140h-377v10l270 443l-205 -9l-16 -84h-35l6 140h362v-10l-271 -443zM378 739l17 -27l-143 -122h-29l-141 120l20 28l136 -74z" />
    <glyph glyph-name="uni2715" unicode="&#x2715;" horiz-adv-x="845" 
d="M652 -7l-114 116l29 29l-145 148l-146 -146l25 -24l-126 -126l-116 116l126 126l29 -29l146 144l-149 148l-29 -29l-116 116l126 126l116 -116l-29 -29l148 -149l144 145l-29 30l126 126l116 -116l-126 -126l-25 25l-145 -146l147 -146l29 29l115 -114z" />
    <glyph glyph-name="uni2780" unicode="&#x2780;" horiz-adv-x="815" 
d="M408 -8c-203 0 -358 159 -358 362c0 202 155 363 358 363c202 0 357 -161 357 -363c0 -200 -158 -362 -357 -362zM284 515l-4 40l164 37h10v-471h-65v404zM408 26c180 0 323 147 323 328c0 183 -140 329 -323 329c-184 0 -325 -146 -325 -329c0 -184 141 -328 325 -328z
" />
    <glyph glyph-name="uni2781" unicode="&#x2781;" horiz-adv-x="815" 
d="M468 462c0 50 -28 75 -77 75c-52 0 -101 -23 -101 -23v54s44 23 111 23c78 0 132 -38 132 -126c0 -100 -81 -203 -181 -295l201 5l-6 -54h-272v33c102 97 193 205 193 308zM408 -8c-203 0 -358 159 -358 362c0 202 155 363 358 363c202 0 357 -161 357 -363
c0 -200 -158 -362 -357 -362zM408 26c180 0 323 147 323 328c0 183 -140 329 -323 329c-184 0 -325 -146 -325 -329c0 -184 141 -328 325 -328z" />
    <glyph glyph-name="uni2782" unicode="&#x2782;" horiz-adv-x="815" 
d="M347 341l6 49c78 4 117 34 117 86c0 36 -26 61 -75 61c-57 0 -103 -23 -103 -23v54s45 23 109 23c83 0 133 -39 133 -107c0 -50 -31 -96 -99 -113c71 -11 119 -56 119 -122c0 -75 -56 -137 -164 -137c-64 0 -118 20 -118 20l14 53s48 -18 104 -18c61 0 98 31 98 82
c0 47 -37 90 -141 92zM408 -8c-203 0 -358 159 -358 362c0 202 155 363 358 363c202 0 357 -161 357 -363c0 -200 -158 -362 -357 -362zM408 26c180 0 323 147 323 328c0 183 -140 329 -323 329c-184 0 -325 -146 -325 -329c0 -184 141 -328 325 -328z" />
    <glyph glyph-name="uni2783" unicode="&#x2783;" horiz-adv-x="815" 
d="M430 121v128h-193l-18 30l219 321l53 -11v-291l74 1l-5 -50h-69v-68c0 -30 3 -60 3 -60h-64zM288 294l142 3v163c0 29 4 61 4 61h-1s-11 -23 -33 -59zM408 -8c-203 0 -358 159 -358 362c0 202 155 363 358 363c202 0 357 -161 357 -363c0 -200 -158 -362 -357 -362z
M408 26c180 0 323 147 323 328c0 183 -140 329 -323 329c-184 0 -325 -146 -325 -329c0 -184 141 -328 325 -328z" />
    <glyph glyph-name="uni2784" unicode="&#x2784;" horiz-adv-x="815" 
d="M539 591l-3 -60l-180 5l-6 -113c147 -19 201 -83 201 -164c0 -80 -53 -145 -162 -145c-51 0 -94 10 -122 20l14 53c29 -8 63 -18 105 -18c68 0 98 36 98 90c0 63 -68 100 -187 111l12 221h230zM408 -8c-203 0 -358 159 -358 362c0 202 155 363 358 363
c202 0 357 -161 357 -363c0 -200 -158 -362 -357 -362zM408 26c180 0 323 147 323 328c0 183 -140 329 -323 329c-184 0 -325 -146 -325 -329c0 -184 141 -328 325 -328z" />
    <glyph glyph-name="uni2785" unicode="&#x2785;" horiz-adv-x="815" 
d="M409 407c91 0 141 -51 141 -138c0 -84 -49 -157 -152 -157c-54 0 -86 24 -107 52c-31 41 -44 95 -44 160c0 184 111 259 266 277l6 -51c-103 -14 -183 -59 -201 -169c14 9 47 26 91 26zM407 162c55 0 78 40 78 99c0 55 -23 93 -90 93c-40 0 -70 -20 -81 -29
c0 -83 20 -163 93 -163zM408 -8c-203 0 -358 159 -358 362c0 202 155 363 358 363c202 0 357 -161 357 -363c0 -200 -158 -362 -357 -362zM408 26c180 0 323 147 323 328c0 183 -140 329 -323 329c-184 0 -325 -146 -325 -329c0 -184 141 -328 325 -328z" />
    <glyph glyph-name="uni2786" unicode="&#x2786;" horiz-adv-x="815" 
d="M272 530l6 61h282v-12c-71 -153 -129 -318 -179 -477l-69 20c51 138 119 285 182 415zM408 -8c-203 0 -358 159 -358 362c0 202 155 363 358 363c202 0 357 -161 357 -363c0 -200 -158 -362 -357 -362zM408 26c180 0 323 147 323 328c0 183 -140 329 -323 329
c-184 0 -325 -146 -325 -329c0 -184 141 -328 325 -328z" />
    <glyph glyph-name="uni2787" unicode="&#x2787;" horiz-adv-x="815" 
d="M257 238c0 65 51 109 96 129c-45 26 -83 59 -83 114c0 73 62 118 141 118c76 0 133 -41 132 -108c-1 -59 -52 -97 -88 -115c52 -28 101 -63 101 -130c0 -79 -70 -132 -148 -132c-89 0 -151 44 -151 124zM493 240c0 51 -51 78 -104 107c-31 -20 -68 -57 -68 -105
c0 -43 28 -77 85 -77c48 0 87 26 87 75zM334 488c0 -44 39 -68 85 -93c34 25 59 49 60 90c1 37 -24 62 -71 62c-44 0 -74 -23 -74 -59zM408 -8c-203 0 -358 159 -358 362c0 202 155 363 358 363c202 0 357 -161 357 -363c0 -200 -158 -362 -357 -362zM408 26
c180 0 323 147 323 328c0 183 -140 329 -323 329c-184 0 -325 -146 -325 -329c0 -184 141 -328 325 -328z" />
    <glyph glyph-name="uni2788" unicode="&#x2788;" horiz-adv-x="815" 
d="M419 307c-98 0 -154 51 -154 139c0 84 48 153 150 153c114 0 153 -84 153 -199c0 -205 -122 -275 -267 -288l-11 48c89 10 179 39 205 158c-16 -4 -44 -11 -76 -11zM502 391c0 94 -22 160 -91 160c-54 0 -81 -38 -81 -98c0 -55 33 -96 101 -96c31 0 58 7 70 11
c1 8 1 15 1 23zM408 -8c-203 0 -358 159 -358 362c0 202 155 363 358 363c202 0 357 -161 357 -363c0 -200 -158 -362 -357 -362zM408 26c180 0 323 147 323 328c0 183 -140 329 -323 329c-184 0 -325 -146 -325 -329c0 -184 141 -328 325 -328z" />
    <glyph glyph-name="uni2789" unicode="&#x2789;" horiz-adv-x="815" 
d="M160 517l-4 40l131 35h10v-471h-65v404zM497 172c57 0 77 72 77 160c0 106 -19 209 -80 209c-57 0 -75 -82 -75 -170c0 -106 16 -199 78 -199zM491 110c-86 0 -152 83 -152 227c0 183 67 266 163 266c86 0 152 -93 152 -237c0 -183 -77 -256 -163 -256zM408 -8
c-203 0 -358 159 -358 362c0 202 155 363 358 363c202 0 357 -161 357 -363c0 -200 -158 -362 -357 -362zM408 26c180 0 323 147 323 328c0 183 -140 329 -323 329c-184 0 -325 -146 -325 -329c0 -184 141 -328 325 -328z" />
    <glyph glyph-name="uni278A" unicode="&#x278a;" horiz-adv-x="815" 
d="M280 555l4 -40l105 10v-404h65v471h-10zM86 0l-30 29v642l30 29h643l29 -29v-643l-29 -28h-643z" />
    <glyph glyph-name="uni278B" unicode="&#x278b;" horiz-adv-x="815" 
d="M468 462c0 -103 -91 -211 -193 -308v-33h272l6 54l-201 -5c100 92 181 195 181 295c0 88 -54 126 -132 126c-67 0 -111 -23 -111 -23v-54s49 23 101 23c49 0 77 -25 77 -75zM86 0l-30 29v642l30 29h643l29 -29v-643l-29 -28h-643z" />
    <glyph glyph-name="uni278C" unicode="&#x278c;" horiz-adv-x="815" 
d="M353 390l-6 -49c104 -2 141 -45 141 -92c0 -51 -37 -82 -98 -82c-56 0 -104 18 -104 18l-14 -53s54 -20 118 -20c108 0 164 62 164 137c0 66 -48 111 -119 122c68 17 99 63 99 113c0 68 -50 107 -133 107c-64 0 -109 -23 -109 -23v-54s46 23 103 23c49 0 75 -25 75 -61
c0 -52 -39 -82 -117 -86zM86 0l-30 29v642l30 29h643l29 -29v-643l-29 -28h-643z" />
    <glyph glyph-name="uni278D" unicode="&#x278d;" horiz-adv-x="815" 
d="M430 249v-128h64s-3 30 -3 60v68h69l5 50l-74 -1v291l-53 11l-219 -321l18 -30h193zM430 297l-142 -3l112 168c22 36 33 59 33 59h1s-4 -32 -4 -61v-163zM86 0l-30 29v642l30 29h643l29 -29v-643l-29 -28h-643z" />
    <glyph glyph-name="uni278E" unicode="&#x278e;" horiz-adv-x="815" 
d="M536 531l3 60h-230l-12 -221c119 -11 187 -48 187 -111c0 -54 -30 -90 -98 -90c-42 0 -76 10 -105 18l-14 -53c28 -10 71 -20 122 -20c109 0 162 65 162 145c0 81 -54 145 -201 164l6 113zM86 0l-30 29v642l30 29h643l29 -29v-643l-29 -28h-643z" />
    <glyph glyph-name="uni278F" unicode="&#x278f;" horiz-adv-x="815" 
d="M409 407c-44 0 -77 -17 -91 -26c18 110 98 155 201 169l-6 51c-155 -18 -266 -93 -266 -277c0 -65 13 -119 44 -160c21 -28 53 -52 107 -52c103 0 152 73 152 157c0 87 -50 138 -141 138zM407 162c-73 0 -93 80 -93 163c11 9 41 29 81 29c67 0 90 -38 90 -93
c0 -59 -23 -99 -78 -99zM86 0l-30 29v642l30 29h643l29 -29v-643l-29 -28h-643z" />
    <glyph glyph-name="uni2790" unicode="&#x2790;" horiz-adv-x="815" 
d="M278 591l-6 -61l222 7c-63 -130 -131 -277 -182 -415l69 -20c50 159 108 324 179 477v12h-282zM86 0l-30 29v642l30 29h643l29 -29v-643l-29 -28h-643z" />
    <glyph glyph-name="uni2791" unicode="&#x2791;" horiz-adv-x="815" 
d="M257 238c0 -80 62 -124 151 -124c78 0 148 53 148 132c0 67 -49 102 -101 130c36 18 87 56 88 115c1 67 -56 108 -132 108c-79 0 -141 -45 -141 -118c0 -55 38 -88 83 -114c-45 -20 -96 -64 -96 -129zM493 240c0 -49 -39 -75 -87 -75c-57 0 -85 34 -85 77
c0 48 37 85 68 105c53 -29 104 -56 104 -107zM334 488c0 36 30 59 74 59c47 0 72 -25 71 -62c-1 -41 -26 -65 -60 -90c-46 25 -85 49 -85 93zM86 0l-30 29v642l30 29h643l29 -29v-643l-29 -28h-643z" />
    <glyph glyph-name="uni2792" unicode="&#x2792;" horiz-adv-x="815" 
d="M419 307c32 0 60 7 76 11c-26 -119 -116 -148 -205 -158l11 -48c145 13 267 83 267 288c0 115 -39 199 -153 199c-102 0 -150 -69 -150 -153c0 -88 56 -139 154 -139zM502 391c0 -8 0 -15 -1 -23c-12 -4 -39 -11 -70 -11c-68 0 -101 41 -101 96c0 60 27 98 81 98
c69 0 91 -66 91 -160zM86 0l-30 29v642l30 29h643l29 -29v-643l-29 -28h-643z" />
    <glyph glyph-name="uni2793" unicode="&#x2793;" horiz-adv-x="815" 
d="M156 557l4 -40l72 8v-404h65v471h-10zM497 172c-62 0 -78 93 -78 199c0 88 18 170 75 170c61 0 80 -103 80 -209c0 -88 -20 -160 -77 -160zM491 110c86 0 163 73 163 256c0 144 -66 237 -152 237c-96 0 -163 -83 -163 -266c0 -144 66 -227 152 -227zM86 0l-30 29v642
l30 29h643l29 -29v-643l-29 -28h-643z" />
    <glyph glyph-name="onehalf" unicode="&#xbd;" horiz-adv-x="728" 
d="M123 0l-53 35c158 218 318 443 480 677l53 -33c-170 -234 -331 -461 -480 -679zM591 273c0 46 -19 71 -71 71c-44 0 -88 -19 -88 -19v23s39 41 114 41c67 0 118 -39 118 -109c0 -63 -52 -134 -169 -231l186 12l-5 -61h-264v32c132 113 179 185 179 241zM41 656l150 55h12
v-387h-71v320l-85 -8z" />
    <glyph glyph-name="onequarter" unicode="&#xbc;" horiz-adv-x="718" 
d="M541 -10v107h-157l-13 19l183 287l59 -8v-256h63l-4 -42h-59v-55c0 -25 2 -52 2 -52h-74zM123 0l-53 35c158 218 318 443 480 677l53 -33c-170 -234 -331 -461 -480 -679zM41 656l150 55h12v-387h-71v320l-85 -8zM518 274l-85 -136l107 1v136c0 23 4 49 4 49h-2
s-6 -21 -24 -50z" />
    <glyph glyph-name="threequarters" unicode="&#xbe;" horiz-adv-x="758" 
d="M581 -10v107h-157l-13 19l183 287l59 -8v-256h63l-4 -42h-59v-55c0 -25 2 -52 2 -52h-74zM171 0l-53 35c158 218 318 443 480 677l53 -33c-170 -234 -331 -461 -480 -679zM107 513l3 28c62 0 94 27 94 67s-25 59 -68 59c-53 0 -76 -14 -76 -14v25s34 32 107 32
c63 0 108 -32 108 -87c0 -46 -27 -81 -83 -94c59 -8 99 -41 99 -98c0 -62 -58 -112 -139 -112c-68 0 -104 36 -104 36l5 21s37 -16 78 -16c57 0 87 29 87 75c0 42 -25 78 -111 78zM558 274l-85 -136l107 1v136c0 23 4 49 4 49h-2s-6 -21 -24 -50z" />
    <glyph glyph-name="brokenbar" unicode="&#xa6;" horiz-adv-x="232" 
d="M155 373h-78v392h78v-392zM77 143h78v-402h-78v402z" />
    <glyph glyph-name="minus" unicode="&#x2212;" horiz-adv-x="521" 
d="M75 253v64h371v-64h-371z" />
    <glyph glyph-name="yen" unicode="&#xa5;" horiz-adv-x="718" 
d="M419 123v-79l80 -13v-31h-258v31l80 13v79h-138v60h138v81h-138v60h122l-214 332l-58 13v31h239v-31l-77 -13l143 -234c22 -36 43 -83 43 -83h4s17 38 45 89l93 159c13 24 23 45 23 65l-68 17v31h205v-31l-59 -15l-191 -330h121v-60h-135v-81h135v-60h-135z" />
    <glyph glyph-name="uni00A0" unicode="&#xa0;" horiz-adv-x="235" 
 />
    <glyph glyph-name="fraction" unicode="&#x2044;" horiz-adv-x="473" 
d="M82 0h-83l396 701h82z" />
    <glyph glyph-name="perthousand" unicode="&#x2030;" horiz-adv-x="1340" 
d="M271 0h-98c175 245 337 480 478 700h97c-173 -241 -333 -475 -477 -700zM233 394c58 0 91 42 91 121c0 89 -29 146 -99 146c-59 0 -90 -42 -90 -121c0 -90 25 -146 98 -146zM221 341c-116 0 -178 89 -178 176c0 117 64 197 196 197c116 0 178 -89 178 -176
c0 -117 -64 -197 -196 -197zM695 43c58 0 91 42 91 121c0 89 -29 146 -99 146c-59 0 -90 -42 -90 -121c0 -90 25 -146 98 -146zM683 -10c-116 0 -178 89 -178 176c0 117 64 197 196 197c116 0 178 -89 178 -176c0 -117 -64 -197 -196 -197zM1115 43c58 0 91 42 91 121
c0 89 -29 146 -99 146c-59 0 -90 -42 -90 -121c0 -90 25 -146 98 -146zM1103 -10c-116 0 -178 89 -178 176c0 117 64 197 196 197c116 0 178 -89 178 -176c0 -117 -64 -197 -196 -197z" />
    <glyph glyph-name="quotesinglbase" unicode="&#x201a;" horiz-adv-x="250" 
d="M81 -171l-20 22c44 38 71 93 74 143c-48 -12 -75 22 -75 56c0 37 28 60 64 60c34 0 65 -22 65 -72c0 -81 -38 -155 -108 -209z" />
    <glyph glyph-name="oneeighth" unicode="&#x215b;" horiz-adv-x="734" 
d="M431 90c0 54 43 84 83 101c-39 23 -73 50 -73 97c0 60 54 96 120 96c62 0 113 -33 112 -87c-2 -45 -40 -75 -73 -92c43 -24 84 -53 84 -108c0 -64 -61 -108 -126 -108c-73 0 -127 37 -127 101zM123 0l-53 35c158 218 318 443 480 677l53 -33
c-170 -234 -331 -461 -480 -679zM41 656l150 55h12v-387h-71v320l-85 -8zM621 88c0 44 -42 67 -86 91c-32 -24 -45 -57 -45 -90s24 -61 66 -61c38 0 65 20 65 60zM504 300c0 -39 34 -60 73 -81c21 16 35 41 36 76c1 32 -19 52 -55 52c-34 0 -54 -20 -54 -47z" />
    <glyph glyph-name="onethird" unicode="&#x2153;" horiz-adv-x="706" 
d="M123 0l-53 35c158 218 318 443 480 677l53 -33c-170 -234 -331 -461 -480 -679zM471 184l3 28c62 0 94 27 94 67s-25 59 -68 59c-53 0 -76 -14 -76 -14v25s34 32 107 32c63 0 108 -32 108 -87c0 -46 -27 -81 -83 -94c59 -8 99 -41 99 -98c0 -62 -58 -112 -139 -112
c-68 0 -104 36 -104 36l5 21s37 -16 78 -16c57 0 87 29 87 75c0 42 -25 78 -111 78zM41 656l150 55h12v-387h-71v320l-85 -8z" />
    <glyph glyph-name="threeeighths" unicode="&#x215c;" horiz-adv-x="782" 
d="M484 90c0 54 43 84 83 101c-39 23 -73 50 -73 97c0 60 54 96 120 96c62 0 113 -33 112 -87c-2 -45 -40 -75 -73 -92c43 -24 84 -53 84 -108c0 -64 -61 -108 -126 -108c-73 0 -127 37 -127 101zM168 0l-53 35c158 218 318 443 480 677l53 -33
c-170 -234 -331 -461 -480 -679zM104 513l3 28c62 0 94 27 94 67s-25 59 -68 59c-53 0 -76 -14 -76 -14v25s34 32 107 32c63 0 108 -32 108 -87c0 -46 -27 -81 -83 -94c59 -8 99 -41 99 -98c0 -62 -58 -112 -139 -112c-68 0 -104 36 -104 36l5 21s37 -16 78 -16
c57 0 87 29 87 75c0 42 -25 78 -111 78zM674 88c0 44 -42 67 -86 91c-32 -24 -45 -57 -45 -90s24 -61 66 -61c38 0 65 20 65 60zM557 300c0 -39 34 -60 73 -81c21 16 35 41 36 76c1 32 -19 52 -55 52c-34 0 -54 -20 -54 -47z" />
    <glyph glyph-name="fiveeighths" unicode="&#x215d;" horiz-adv-x="796" 
d="M498 90c0 54 43 84 83 101c-39 23 -73 50 -73 97c0 60 54 96 120 96c62 0 113 -33 112 -87c-2 -45 -40 -75 -73 -92c43 -24 84 -53 84 -108c0 -64 -61 -108 -126 -108c-73 0 -127 37 -127 101zM186 0l-53 35c158 218 318 443 480 677l53 -33
c-170 -234 -331 -461 -480 -679zM278 700l-2 -56l-162 8l-6 -92c128 -6 180 -57 180 -133c0 -65 -49 -118 -136 -118c-68 0 -107 37 -107 37l4 23s45 -14 83 -14c55 0 84 26 84 72c0 67 -65 91 -150 91l11 182h201zM688 88c0 44 -42 67 -86 91c-32 -24 -45 -57 -45 -90
s24 -61 66 -61c38 0 65 20 65 60zM571 300c0 -39 34 -60 73 -81c21 16 35 41 36 76c1 32 -19 52 -55 52c-34 0 -54 -20 -54 -47z" />
    </font>
</defs>
</svg>
