<svg xmlns="http://www.w3.org/2000/svg">
<defs>
<font id="PermianSansTypeface-Bold" horiz-adv-x="500" >
  <font-face 
    font-family="PermianSansTypeface"
    font-weight="700"
    font-stretch="normal"
    units-per-em="1000"
    panose-1="2 0 0 0 0 0 0 0 0 0"
    ascent="750"
    descent="-250"
    x-height="500"
    cap-height="700"
    bbox="-110 -376 1365 1206"
    underline-thickness="50"
    underline-position="-100"
    stemh="94"
    stemv="133"
    unicode-range="U+0020-FFFD"
  />
<missing-glyph horiz-adv-x="634" 
d="M47 0l-23 22v489l23 22h490l22 -22v-490l-22 -21h-490zM76 31h432l19 19v432l-19 20h-432l-21 -20v-431zM183 323v89c0 7 -1 14 -1 14l13 1v-7c5 5 13 7 21 7c20 0 29 -15 29 -32c0 -24 -14 -39 -35 -39c-5 0 -10 2 -15 4v-25c0 -5 1 -12 1 -12h-13zM120 356
c-15 0 -21 10 -21 23v36c0 5 -1 11 -1 11h14v-43c0 -10 3 -16 13 -16c7 0 13 2 17 5v54h13v-54c0 -7 1 -14 1 -14l-13 -1v7c-6 -4 -14 -8 -23 -8zM492 323c-26 10 -39 39 -39 69c0 29 12 58 39 70l4 -9c-20 -10 -31 -34 -31 -60c0 -27 12 -53 31 -62zM284 356
c-9 0 -15 2 -23 3l1 11c8 0 14 -3 22 -3c9 0 13 3 13 8c0 6 -5 8 -16 12c-13 4 -19 11 -19 21c0 12 9 19 22 19c9 0 14 -2 21 -2l-1 -11c-9 0 -13 3 -21 3c-6 0 -10 -4 -10 -8c0 -6 4 -8 17 -12c12 -5 18 -10 18 -21c0 -12 -9 -20 -24 -20zM211 366c14 0 21 11 21 25
c0 16 -6 25 -19 25c-7 0 -13 -1 -18 -4v-41c4 -2 9 -5 16 -5zM303 76c-8 0 -15 2 -15 9c0 4 3 7 6 8c-1 1 -2 2 -2 4s2 4 3 6c-4 1 -6 5 -6 9c0 7 5 13 14 13c3 0 5 -1 7 -2c2 2 6 3 10 3v-5c-3 0 -5 0 -8 -1c2 -1 4 -4 4 -7c0 -6 -5 -12 -14 -12c-2 0 -3 0 -4 1
c0 -1 -1 -2 -1 -3c0 -2 1 -2 3 -2l7 -1c7 0 11 -3 11 -9c0 -7 -6 -11 -15 -11zM378 77v40c0 4 -1 7 -1 7h6v-3c3 2 6 4 10 4c9 0 13 -7 13 -15c0 -12 -6 -18 -16 -18c-2 0 -5 0 -7 2v-12c0 -2 1 -5 1 -5h-6zM203 161c-9 0 -14 7 -14 16c0 11 6 17 15 17c4 0 6 -1 8 -2v11
c0 3 -1 6 -1 6l6 1v-41c0 -4 1 -7 1 -7h-6v3c-2 -2 -5 -4 -9 -4zM253 231c-10 0 -15 6 -15 15c0 11 6 18 16 18c9 0 15 -6 15 -15c0 -11 -7 -18 -16 -18zM242 161c-9 0 -14 7 -14 15c0 12 6 18 16 18c9 0 14 -6 14 -15c0 -11 -6 -18 -16 -18zM98 162l-8 25c-1 4 -2 7 -2 7h6

<glyph glyph-name="f_b" unicode="fb" horiz-adv-x="982" 
d="M652 -9c-73 0 -150 16 -206 40v418c0 113 8 194 8 194l-10 1c-27 0 -76 17 -144 17c-37 0 -66 -31 -66 -90v-71h151l-5 -93l-146 2v-316c0 -46 5 -93 5 -93h-138l-1 411l-55 1v88h55v47c0 135 87 213 203 213c55 0 99 -20 168 -20c18 0 69 6 108 16l-2 -296
c42 32 75 51 137 51c149 0 217 -110 217 -233c0 -180 -97 -287 -279 -287zM667 81c98 0 127 79 127 176c0 94 -35 154 -110 154c-35 0 -74 -13 -107 -33c0 0 2 -38 2 -96v-176c25 -13 57 -25 88 -25z" />
    <glyph glyph-name="f_f" unicode="ff" horiz-adv-x="752" 
d="M101 0l-1 411l-55 1v88h57v77c0 87 59 183 181 183c55 0 77 -1 120 -13l-17 -103c-39 10 -50 17 -100 17c-43 0 -52 -39 -52 -70v-91h215v77c0 105 85 183 201 183c55 0 89 -16 142 -20l-12 -102c-57 5 -93 23 -137 23c-45 0 -62 -5 -62 -90v-71h151l-5 -93l-146 2v-316
c0 -46 5 -93 5 -93h-138l-1 404l-213 4v-315c0 -46 5 -93 5 -93h-138z" />
    <glyph glyph-name="f_f_b" unicode="ffb" horiz-adv-x="1339" 
d="M1009 -9c-73 0 -150 16 -206 40v414c0 117 8 198 8 198l-10 1c-75 0 -76 17 -144 17c-37 0 -66 -31 -66 -90v-71h151l-5 -93l-146 2v-316c0 -46 5 -93 5 -93h-139v404l-223 4v-315c0 -46 5 -93 5 -93h-138l-1 411l-55 1v88h57v77c0 87 59 183 181 183c55 0 77 -1 120 -13
l-17 -103c-39 10 -50 17 -100 17c-43 0 -52 -39 -52 -70v-91h223v47c0 135 87 213 203 213c55 0 99 -20 168 -20c18 0 69 6 108 16l-2 -296c42 32 75 51 137 51c149 0 217 -110 217 -233c0 -180 -97 -287 -279 -287zM1024 81c98 0 127 79 127 176c0 94 -35 154 -110 154
c-35 0 -74 -13 -107 -33c0 0 2 -38 2 -96v-176c25 -13 57 -25 88 -25z" />
    <glyph glyph-name="f_f_h" unicode="ffh" horiz-adv-x="1330" 
d="M101 0l-1 411l-55 1v88h57v77c0 87 59 183 181 183c55 0 77 -1 120 -13l-17 -103c-39 10 -50 17 -100 17c-43 0 -52 -39 -52 -70v-91h223v47c0 135 87 213 203 213c55 0 99 -20 168 -20c18 0 69 6 108 16l-2 -305c44 36 85 60 154 60c107 0 167 -69 167 -168v-259
c0 -36 5 -83 5 -83h-138v297c0 72 -20 113 -81 113c-46 0 -71 -15 -107 -34c1 -10 2 -47 2 -95v-198c0 -36 5 -83 5 -83h-138v446c0 115 8 196 8 196l-10 1c-61 0 -76 17 -144 17c-37 0 -66 -31 -66 -90v-71h151l-5 -93l-146 2v-316c0 -46 5 -93 5 -93h-139v404l-223 4v-315
c0 -46 5 -93 5 -93h-138z" />
    <glyph glyph-name="f_f_i" unicode="ffi" horiz-adv-x="995" 
d="M101 0l-1 412l-55 2v86h57v77c0 87 59 183 181 183c55 0 77 -1 120 -13l-17 -103c-39 10 -50 17 -100 17c-43 0 -52 -39 -52 -70v-91h223v77c0 87 59 183 181 183c55 0 78 -1 123 -13l-20 -102c-34 8 -50 16 -100 16c-43 0 -52 -39 -52 -70v-91l327 10v-417
c0 -46 5 -93 5 -93h-138v404l-194 4v-315c0 -46 5 -93 5 -93h-138l-1 404l-221 4v-315c0 -46 5 -93 5 -93h-138zM843 579c-42 0 -75 29 -75 73c0 45 35 70 82 70c44 0 74 -25 74 -68c0 -47 -33 -75 -81 -75z" />
    <glyph glyph-name="f_f_j" unicode="ffj" horiz-adv-x="996" 
d="M756 -257l-51 44c28 36 42 71 64 127c13 33 16 74 16 112v378l-196 4v-315c0 -46 5 -93 5 -93h-138l-1 404l-221 4v-315c0 -46 5 -93 5 -93h-138l-1 411l-55 1v88h57v77c0 87 59 183 181 183c55 0 77 -1 120 -13l-17 -103c-39 10 -50 17 -100 17c-43 0 -52 -39 -52 -70
v-91h223v77c0 87 59 183 181 183c55 0 84 0 130 -12l-16 -102c-42 10 -61 15 -111 15c-43 0 -52 -39 -52 -70v-91l329 10v-484c0 -33 -1 -78 -19 -111c-30 -57 -79 -107 -143 -172zM849 579c-42 0 -75 29 -75 73c0 45 35 70 82 70c44 0 74 -25 74 -68c0 -47 -33 -75 -81 -75
z" />
    <glyph glyph-name="f_f_k" unicode="ffk" horiz-adv-x="1274" 
d="M1113 -5l-161 214h-16v-116c0 -46 5 -93 5 -93h-138v431c0 131 8 212 8 212l-10 1c-71 0 -76 17 -144 17c-37 0 -66 -31 -66 -90v-71h151l-5 -93l-146 2v-316c0 -46 5 -93 5 -93h-139v404l-223 4v-315c0 -46 5 -93 5 -93h-138l-1 411l-55 1v88h57v77c0 87 59 183 181 183
c55 0 77 -1 120 -13l-17 -103c-39 10 -50 17 -100 17c-43 0 -52 -39 -52 -70v-91h223v47c0 135 87 213 203 213c55 0 99 -20 168 -20c18 0 69 6 108 16v-458h35l68 87c64 79 83 121 83 121l116 -6s-33 -62 -106 -143l-78 -83l147 -200c31 -41 60 -74 60 -74z" />
    <glyph glyph-name="f_f_l" unicode="ffl" horiz-adv-x="1015" 
d="M101 0l-1 411l-55 1v88h57v77c0 87 59 183 181 183c55 0 77 -1 120 -13l-17 -103c-39 10 -50 17 -100 17c-43 0 -52 -39 -52 -70v-91h223v47c0 135 87 213 203 213c55 0 99 -20 168 -20c18 0 69 6 108 16v-663c0 -46 5 -93 5 -93h-138v437c0 125 8 206 8 206l-10 1
c-81 0 -76 17 -144 17c-37 0 -66 -31 -66 -90v-71h151l-5 -93l-146 2v-316c0 -46 5 -93 5 -93h-139v404l-223 4v-315c0 -46 5 -93 5 -93h-138z" />
    <glyph glyph-name="f_h" unicode="fh" horiz-adv-x="973" 
d="M101 0l-1 411l-55 1v88h55v47c0 135 87 213 203 213c55 0 99 -20 168 -20c18 0 69 6 108 16l-2 -305c44 36 85 60 154 60c107 0 167 -69 167 -168v-259c0 -36 5 -83 5 -83h-138v297c0 72 -20 113 -81 113c-46 0 -71 -15 -107 -34c1 -10 2 -47 2 -95v-198
c0 -36 5 -83 5 -83h-138v434c0 127 8 208 8 208l-10 1c-67 0 -76 17 -144 17c-37 0 -66 -31 -66 -90v-71h151l-5 -93l-146 2v-316c0 -46 5 -93 5 -93h-138z" />
    <glyph glyph-name="f_j" unicode="fj" horiz-adv-x="641" 
d="M401 -257l-51 44c28 36 42 71 64 127c13 33 16 74 16 112v378l-196 4v-315c0 -46 5 -93 5 -93h-138l-1 411l-55 1v88h57v77c0 87 59 183 181 183c57 0 83 1 126 -11l-14 -103c-38 10 -62 15 -109 15c-43 0 -52 -39 -52 -70v-91l329 10v-484c0 -33 -1 -78 -19 -111
c-30 -57 -79 -107 -143 -172zM494 579c-42 0 -75 29 -75 73c0 45 35 70 82 70c44 0 74 -25 74 -68c0 -47 -33 -75 -81 -75z" />
    <glyph glyph-name="f_k" unicode="fk" horiz-adv-x="917" 
d="M756 -5l-161 214h-16v-116c0 -46 5 -93 5 -93h-138v431c0 131 8 212 8 212l-10 1c-67 0 -76 17 -144 17c-37 0 -66 -31 -66 -90v-71h151l-5 -93l-146 2v-316c0 -46 5 -93 5 -93h-138l-1 411l-55 1v88h55v47c0 135 87 213 203 213c55 0 99 -20 168 -20c18 0 69 6 108 16
v-458h35l68 87c64 79 83 121 83 121l116 -6s-33 -62 -106 -143l-78 -83l147 -200c31 -41 60 -74 60 -74z" />
    <glyph glyph-name="fi" unicode="fi" horiz-adv-x="635" 
d="M96 0l-1 411l-45 1v88h47v77c0 87 59 183 191 183c45 0 67 -8 113 -13l-20 -102c-41 6 -56 16 -92 16c-42 0 -60 -25 -60 -70v-91l327 10v-417c0 -46 5 -93 5 -93h-138v405l-194 4v-316c0 -46 5 -93 5 -93h-138zM483 579c-42 0 -75 29 -75 73c0 45 35 70 82 70
c44 0 74 -25 74 -68c0 -47 -33 -75 -81 -75z" />
    <glyph glyph-name="fl" unicode="fl" horiz-adv-x="653" 
d="M95 0v411l-45 1v88h45v47c0 135 87 213 203 213c55 0 99 -20 168 -20c18 0 69 6 108 16v-663c0 -46 5 -93 5 -93h-138v487c0 83 8 156 8 156l-10 1c-55 0 -76 17 -128 17c-53 0 -82 -31 -82 -90v-71h171l-1 -93l-170 2v-316c0 -46 5 -93 5 -93h-139z" />
    <glyph glyph-name=".notdef" horiz-adv-x="634" 
d="M47 0l-23 22v489l23 22h490l22 -22v-490l-22 -21h-490zM76 31h432l19 19v432l-19 20h-432l-21 -20v-431zM183 323v89c0 7 -1 14 -1 14l13 1v-7c5 5 13 7 21 7c20 0 29 -15 29 -32c0 -24 -14 -39 -35 -39c-5 0 -10 2 -15 4v-25c0 -5 1 -12 1 -12h-13zM120 356
c-15 0 -21 10 -21 23v36c0 5 -1 11 -1 11h14v-43c0 -10 3 -16 13 -16c7 0 13 2 17 5v54h13v-54c0 -7 1 -14 1 -14l-13 -1v7c-6 -4 -14 -8 -23 -8zM492 323c-26 10 -39 39 -39 69c0 29 12 58 39 70l4 -9c-20 -10 -31 -34 -31 -60c0 -27 12 -53 31 -62zM284 356
c-9 0 -15 2 -23 3l1 11c8 0 14 -3 22 -3c9 0 13 3 13 8c0 6 -5 8 -16 12c-13 4 -19 11 -19 21c0 12 9 19 22 19c9 0 14 -2 21 -2l-1 -11c-9 0 -13 3 -21 3c-6 0 -10 -4 -10 -8c0 -6 4 -8 17 -12c12 -5 18 -10 18 -21c0 -12 -9 -20 -24 -20zM211 366c14 0 21 11 21 25
c0 16 -6 25 -19 25c-7 0 -13 -1 -18 -4v-41c4 -2 9 -5 16 -5zM303 76c-8 0 -15 2 -15 9c0 4 3 7 6 8c-1 1 -2 2 -2 4s2 4 3 6c-4 1 -6 5 -6 9c0 7 5 13 14 13c3 0 5 -1 7 -2c2 2 6 3 10 3v-5c-3 0 -5 0 -8 -1c2 -1 4 -4 4 -7c0 -6 -5 -12 -14 -12c-2 0 -3 0 -4 1
c0 -1 -1 -2 -1 -3c0 -2 1 -2 3 -2l7 -1c7 0 11 -3 11 -9c0 -7 -6 -11 -15 -11zM378 77v40c0 4 -1 7 -1 7h6v-3c3 2 6 4 10 4c9 0 13 -7 13 -15c0 -12 -6 -18 -16 -18c-2 0 -5 0 -7 2v-12c0 -2 1 -5 1 -5h-6zM203 161c-9 0 -14 7 -14 16c0 11 6 17 15 17c4 0 6 -1 8 -2v11
c0 3 -1 6 -1 6l6 1v-41c0 -4 1 -7 1 -7h-6v3c-2 -2 -5 -4 -9 -4zM253 231c-10 0 -15 6 -15 15c0 11 6 18 16 18c9 0 15 -6 15 -15c0 -11 -7 -18 -16 -18zM242 161c-9 0 -14 7 -14 15c0 12 6 18 16 18c9 0 14 -6 14 -15c0 -11 -6 -18 -16 -18zM98 162l-8 25c-1 4 -2 7 -2 7h6
l5 -19c2 -4 2 -8 2 -8l5 20c1 2 2 7 2 7h6l5 -18c1 -5 2 -9 2 -9s1 4 2 9l3 8l2 10h5c0 -5 -1 -8 -3 -13l-7 -19h-6l-5 19c-1 3 -1 7 -1 7h-1s0 -4 -1 -7l-5 -19h-6zM407 161c-6 0 -9 4 -9 9s3 8 10 9c3 1 7 1 9 1v2c0 6 -3 7 -8 7s-9 -1 -9 -1v4s4 2 10 2c9 0 13 -3 13 -11
c0 -4 -1 -11 -1 -15c0 -1 1 -2 2 -2s3 2 3 2v-5s-2 -2 -5 -2s-5 2 -5 4c-3 -2 -6 -4 -10 -4zM154 161c-10 0 -15 7 -15 16c0 11 6 17 15 17c10 0 14 -7 13 -16h-22c0 -7 4 -12 11 -12c4 0 9 2 9 2v-4s-4 -3 -11 -3zM239 92v48h6v-19c3 2 7 4 11 4c7 0 9 -5 9 -11v-16
c0 -3 1 -6 1 -6h-7v20c0 5 -1 7 -6 7c-3 0 -6 0 -8 -2v-25h-6zM480 161c-10 0 -16 7 -16 16c0 11 7 17 16 17s13 -7 12 -16h-22c1 -7 4 -12 12 -12c4 0 8 2 8 2v-4s-4 -3 -10 -3zM363 162v47l6 1v-20c3 3 7 4 11 4c7 0 9 -4 9 -10v-22h-6v20c0 5 -1 7 -6 7c-3 0 -6 -1 -8 -2
v-25h-6zM416 92v48h6v-19c3 2 7 4 11 4c7 0 9 -5 9 -11v-16c0 -3 1 -6 1 -6h-6v20c0 5 -2 7 -7 7c-3 0 -6 0 -8 -2v-19c0 -3 1 -6 1 -6h-7zM180 92c-8 0 -10 4 -10 10v17c0 2 -1 5 -1 5h7v-20c0 -5 1 -7 6 -7c3 0 6 1 8 2v25h6v-32h-6v3c-3 -2 -6 -3 -10 -3zM268 162v32h6
v-4c3 3 6 4 10 4c8 0 10 -4 10 -10v-17c0 -2 1 -5 1 -5h-7v20c0 5 -1 7 -6 7c-3 0 -6 -1 -8 -2v-25h-6zM353 76l-6 1s1 4 5 14l1 1l-9 25c-2 4 -3 7 -3 7h7l6 -18l2 -8s1 4 3 8l2 6l3 12h5c0 -4 -2 -9 -3 -13l-8 -19c-4 -11 -5 -16 -5 -16zM336 216c0 0 0 4 5 14v2l-9 25
c-1 4 -3 6 -3 6l7 1l6 -19l2 -8s1 4 3 9l2 6c2 6 3 8 3 11h6c-1 -3 -2 -8 -4 -12l-8 -20c-4 -10 -5 -15 -5 -15h-5zM393 385v10h40v-10h-40zM254 236c5 0 9 5 9 10c0 9 -4 14 -10 14c-5 0 -9 -5 -9 -11c0 -9 4 -13 10 -13zM244 166c5 0 8 5 8 11c0 8 -3 13 -9 13
s-9 -5 -9 -11c0 -9 3 -13 10 -13zM204 166c3 0 6 1 8 2v19c-2 2 -4 3 -7 3c-7 0 -10 -5 -10 -12s3 -12 9 -12zM219 231c-4 0 -7 1 -11 1l1 6c3 -1 6 -2 10 -2s6 1 6 4s-2 4 -7 5c-6 2 -9 5 -9 10c0 6 4 9 10 9c4 0 6 -1 10 -1l-1 -5c-4 0 -6 1 -9 1s-5 -1 -5 -4
c0 -2 2 -3 8 -5c5 -2 8 -5 8 -10s-4 -9 -11 -9zM149 92c-4 0 -7 1 -10 1v5c4 0 7 -1 10 -1c4 0 7 1 7 3c0 3 -3 4 -8 6c-6 2 -9 5 -9 10s4 9 10 9c5 0 7 -2 10 -2l-1 -5c-4 0 -5 2 -9 2c-3 0 -5 -2 -5 -4c0 -3 2 -4 8 -6c5 -2 9 -4 9 -9c0 -6 -5 -9 -12 -9zM391 96
c6 0 9 5 9 12s-3 11 -9 11c-2 0 -6 0 -8 -2v-18c2 -2 4 -3 8 -3zM442 162l-9 25c-2 4 -3 7 -3 7h7l6 -19c2 -4 2 -8 2 -8h1s0 4 2 8l3 10c1 3 2 5 2 9h6l-3 -11l-8 -21h-6zM221 92c-10 0 -15 6 -15 15c0 10 6 18 15 18c3 0 5 -2 9 -2l-1 -5c-3 0 -6 2 -9 2
c-5 0 -8 -5 -8 -11c0 -7 3 -12 10 -12c4 0 8 1 8 1v-4s-4 -2 -9 -2zM333 161c-7 0 -10 4 -10 11v17h-4v4l4 1l3 7h2v-7h12v-5h-12v-17c0 -4 2 -6 6 -6c3 0 6 1 6 1v-4s-3 -2 -7 -2zM278 232v31l6 1v-5c2 2 5 5 8 5s5 -2 8 -3l-2 -5c-3 1 -5 3 -7 3c-3 0 -5 -2 -7 -4v-18
c0 -2 1 -5 1 -5h-7zM306 232v31l6 1v-5c2 2 5 5 8 5s5 -2 8 -3l-3 -5c-2 1 -4 3 -6 3c-3 0 -5 -2 -7 -4v-18c0 -2 1 -5 1 -5h-7zM366 404c-6 0 -9 3 -9 8c0 6 4 9 10 9c5 0 8 -3 8 -8c0 -6 -4 -9 -9 -9zM366 356c-6 0 -9 3 -9 8c0 6 4 9 10 9c5 0 8 -3 8 -9
c0 -5 -4 -8 -9 -8zM328 92v41c0 3 -1 7 -1 7h6v-42c0 -3 1 -6 1 -6h-6zM304 80c5 0 9 2 9 6c0 3 -2 5 -6 5h-7c-2 0 -3 1 -4 1c-1 -2 -2 -3 -2 -5c0 -4 3 -7 10 -7zM303 106c4 0 7 2 7 7s-3 7 -8 7c-4 0 -7 -3 -7 -7c0 -5 3 -7 8 -7zM409 166c3 0 6 2 7 3c0 2 1 5 1 8
c-2 0 -5 0 -7 -1c-5 -1 -6 -3 -6 -6c0 -2 2 -4 5 -4zM145 182h16c0 4 -2 8 -7 8s-8 -3 -9 -8zM470 182h16c0 4 -2 8 -7 8s-8 -3 -9 -8zM367 220l-2 2c2 2 4 5 4 9c-2 0 -4 1 -4 4c0 2 1 4 4 4s4 -2 4 -5c0 -5 -2 -11 -6 -14zM306 188l-2 2c2 3 4 6 4 9c-2 0 -4 2 -4 4
c0 3 2 4 4 4c3 0 4 -2 4 -5c0 -5 -2 -10 -6 -14z" />
    <glyph glyph-name="A" unicode="A" horiz-adv-x="636" 
d="M491 -4l-56 153h-267c-19 -59 -31 -102 -38 -149h-107c8 60 25 110 49 177l188 520l109 6l216 -583c27 -74 49 -118 49 -118zM280 480l-81 -240h203l-87 240c-11 32 -16 61 -16 61h-4s-5 -31 -15 -61z" />
    <glyph glyph-name="A.sc" horiz-adv-x="597" 
d="M447 -5l-49 125h-238c-19 -48 -28 -82 -36 -120h-107c11 50 40 126 70 200l161 401l101 6l196 -505c19 -49 46 -102 46 -102zM193 207h172l-62 162c-15 38 -22 78 -22 78h-4s-8 -39 -24 -82z" />
    <glyph glyph-name="AE" unicode="&#xc6;" horiz-adv-x="925" 
d="M-5 0c19 60 47 110 85 177l302 523h488l-5 -99l-304 9v-210l259 5l-5 -106l-254 8v-216l309 9l-5 -100h-442v159h-241l-4 -8c-33 -60 -52 -103 -68 -151h-115zM423 250v356h-3s-22 -54 -48 -101l-140 -255h191z" />
    <glyph glyph-name="AE.sc" horiz-adv-x="831" 
d="M-5 0c18 50 57 125 98 200l220 401h465l-5 -96s-53 8 -103 7l-171 1v-169l214 3l-5 -95l-209 4v-169l164 2c69 1 120 7 120 7l-5 -96h-412v120h-204c-25 -48 -41 -82 -54 -120h-113zM327 438l-120 -231h159v308h-7s-10 -35 -32 -77z" />
    <glyph glyph-name="AEacute" unicode="&#x1fc;" horiz-adv-x="925" 
d="M-5 0c19 60 47 110 85 177l302 523h488l-5 -99l-304 9v-210l259 5l-5 -106l-254 8v-216l309 9l-5 -100h-442v159h-241l-4 -8c-33 -60 -52 -103 -68 -151h-115zM423 250v356h-3s-22 -54 -48 -101l-140 -255h191zM619 750l-70 73l160 181l97 -100z" />
    <glyph glyph-name="acute" unicode="&#xb4;" horiz-adv-x="294" 
d="M113 592l-70 73l160 181l97 -100z" />
    <glyph glyph-name="AEacute.sc" horiz-adv-x="831" 
d="M516 668l-70 73l160 181l97 -100zM-5 0c18 50 57 125 98 200l220 401h465l-5 -96s-53 8 -103 7l-171 1v-169l214 3l-5 -95l-209 4v-169l164 2c69 1 120 7 120 7l-5 -96h-412v120h-204c-25 -48 -41 -82 -54 -120h-113zM327 438l-120 -231h159v308h-7s-10 -35 -32 -77z" />
    <glyph glyph-name="Aacute" unicode="&#xc1;" horiz-adv-x="636" 
d="M491 -4l-56 153h-267c-19 -59 -31 -102 -38 -149h-107c8 60 25 110 49 177l188 520l109 6l216 -583c27 -74 49 -118 49 -118zM280 480l-81 -240h203l-87 240c-11 32 -16 61 -16 61h-4s-5 -31 -15 -61zM294 750l-70 73l160 181l97 -100z" />
    <glyph glyph-name="Aacute.sc" horiz-adv-x="597" 
d="M304 664l-70 73l160 181l97 -100zM447 -5l-49 125h-238c-19 -48 -28 -82 -36 -120h-107c11 50 40 126 70 200l161 401l101 6l196 -505c19 -49 46 -102 46 -102zM193 207h172l-62 162c-15 38 -22 78 -22 78h-4s-8 -39 -24 -82z" />
    <glyph glyph-name="Abreve" unicode="&#x102;" horiz-adv-x="636" 
d="M491 -4l-56 153h-267c-19 -59 -31 -102 -38 -149h-107c8 60 25 110 49 177l188 520l109 6l216 -583c27 -74 49 -118 49 -118zM280 480l-81 -240h203l-87 240c-11 32 -16 61 -16 61h-4s-5 -31 -15 -61zM315 781c-75 0 -137 45 -160 130l90 36c1 -1 18 -54 70 -54
c54 0 68 53 70 54l92 -37c-23 -85 -93 -129 -162 -129z" />
    <glyph glyph-name="breve" unicode="&#x2d8;" horiz-adv-x="398" 
d="M204 519c-75 0 -137 45 -160 130l90 36c1 -1 18 -54 70 -54c54 0 68 53 70 54l92 -37c-23 -85 -93 -129 -162 -129z" />
    <glyph glyph-name="Abreve.sc" horiz-adv-x="597" 
d="M447 -5l-49 125h-238c-19 -48 -28 -82 -36 -120h-107c11 50 40 126 70 200l161 401l101 6l196 -505c19 -49 46 -102 46 -102zM193 207h172l-62 162c-15 38 -22 78 -22 78h-4s-8 -39 -24 -82zM288 664c-75 0 -137 45 -160 130l90 36c1 -1 18 -54 70 -54c54 0 68 53 70 54
l92 -37c-23 -85 -93 -129 -162 -129z" />
    <glyph glyph-name="Acircumflex" unicode="&#xc2;" horiz-adv-x="636" 
d="M491 -4l-56 153h-267c-19 -59 -31 -102 -38 -149h-107c8 60 25 110 49 177l188 520l109 6l216 -583c27 -74 49 -118 49 -118zM280 480l-81 -240h203l-87 240c-11 32 -16 61 -16 61h-4s-5 -31 -15 -61zM200 761l-61 69l151 124h38l148 -118l-59 -73l-108 74z" />
    <glyph glyph-name="circumflex" unicode="&#x2c6;" horiz-adv-x="384" 
d="M91 526l-61 69l151 124h38l148 -118l-59 -73l-108 74z" />
    <glyph glyph-name="Acircumflex.sc" horiz-adv-x="597" 
d="M174 655l-61 69l151 124h38l148 -118l-59 -73l-108 74zM447 -5l-49 125h-238c-19 -48 -28 -82 -36 -120h-107c11 50 40 126 70 200l161 401l101 6l196 -505c19 -49 46 -102 46 -102zM193 207h172l-62 162c-15 38 -22 78 -22 78h-4s-8 -39 -24 -82z" />
    <glyph glyph-name="Adieresis" unicode="&#xc4;" horiz-adv-x="636" 
d="M491 -4l-56 153h-267c-19 -59 -31 -102 -38 -149h-107c8 60 25 110 49 177l188 520l109 6l216 -583c27 -74 49 -118 49 -118zM280 480l-81 -240h203l-87 240c-11 32 -16 61 -16 61h-4s-5 -31 -15 -61zM197 775c-44 0 -77 31 -77 81c0 53 37 82 84 82c48 0 76 -29 76 -78
c0 -55 -33 -85 -83 -85zM405 775c-44 0 -77 31 -77 81c0 53 37 82 84 82c48 0 76 -29 76 -78c0 -55 -33 -85 -83 -85z" />
    <glyph glyph-name="dieresis" unicode="&#xa8;" horiz-adv-x="502" 
d="M162 627c-44 0 -77 31 -77 81c0 53 37 82 84 82c48 0 76 -29 76 -78c0 -55 -33 -85 -83 -85zM370 627c-44 0 -77 31 -77 81c0 53 37 82 84 82c48 0 76 -29 76 -78c0 -55 -33 -85 -83 -85z" />
    <glyph glyph-name="Adieresis.sc" horiz-adv-x="597" 
d="M145 661c-44 0 -77 31 -77 81c0 53 37 82 84 82c48 0 76 -29 76 -78c0 -55 -33 -85 -83 -85zM353 661c-44 0 -77 31 -77 81c0 53 37 82 84 82c48 0 76 -29 76 -78c0 -55 -33 -85 -83 -85zM447 -5l-49 125h-238c-19 -48 -28 -82 -36 -120h-107c11 50 40 126 70 200
l161 401l101 6l196 -505c19 -49 46 -102 46 -102zM193 207h172l-62 162c-15 38 -22 78 -22 78h-4s-8 -39 -24 -82z" />
    <glyph glyph-name="Agrave" unicode="&#xc0;" horiz-adv-x="636" 
d="M491 -4l-56 153h-267c-19 -59 -31 -102 -38 -149h-107c8 60 25 110 49 177l188 520l109 6l216 -583c27 -74 49 -118 49 -118zM280 480l-81 -240h203l-87 240c-11 32 -16 61 -16 61h-4s-5 -31 -15 -61zM310 751l-187 154l96 101l160 -181z" />
    <glyph glyph-name="grave" unicode="`" horiz-adv-x="550" 
d="M230 592l-187 154l96 101l160 -181z" />
    <glyph glyph-name="Agrave.sc" horiz-adv-x="597" 
d="M447 -5l-49 125h-238c-19 -48 -28 -82 -36 -120h-107c11 50 40 126 70 200l161 401l101 6l196 -505c19 -49 46 -102 46 -102zM193 207h172l-62 162c-15 38 -22 78 -22 78h-4s-8 -39 -24 -82zM309 656l-187 154l96 101l160 -181z" />
    <glyph glyph-name="Amacron" unicode="&#x100;" horiz-adv-x="636" 
d="M491 -4l-56 153h-267c-19 -59 -31 -102 -38 -149h-107c8 60 25 110 49 177l188 520l109 6l216 -583c27 -74 49 -118 49 -118zM280 480l-81 -240h203l-87 240c-11 32 -16 61 -16 61h-4s-5 -31 -15 -61zM172 776v104h274v-104h-274z" />
    <glyph glyph-name="macron" unicode="&#xaf;" horiz-adv-x="364" 
d="M45 539v104h274v-104h-274z" />
    <glyph glyph-name="Amacron.sc" horiz-adv-x="597" 
d="M447 -5l-49 125h-238c-19 -48 -28 -82 -36 -120h-107c11 50 40 126 70 200l161 401l101 6l196 -505c19 -49 46 -102 46 -102zM193 207h172l-62 162c-15 38 -22 78 -22 78h-4s-8 -39 -24 -82zM163 666v104h274v-104h-274z" />
    <glyph glyph-name="Aogonek" unicode="&#x104;" horiz-adv-x="637" 
d="M491 -4l-56 153h-267c-19 -59 -31 -102 -38 -149h-107c8 60 25 110 49 177l188 520l109 6l216 -583c27 -74 49 -118 49 -118c-45 -20 -83 -57 -83 -90c0 -27 22 -38 52 -38c31 0 63 11 63 11v-65s-36 -17 -82 -17c-84 0 -129 36 -129 90c0 52 48 88 86 105zM280 480
l-81 -240h203l-87 240c-11 32 -16 61 -16 61h-4s-5 -31 -15 -61z" />
    <glyph glyph-name="ogonek" unicode="&#x2db;" horiz-adv-x="213" 
d="M153 -199c-84 0 -129 36 -129 90c0 56 57 94 96 109h83c-45 -20 -83 -57 -83 -90c0 -27 22 -38 52 -38c31 0 63 11 63 11v-65s-36 -17 -82 -17z" />
    <glyph glyph-name="Aogonek.sc" horiz-adv-x="597" 
d="M447 -5l-49 125h-238c-19 -48 -28 -82 -36 -120h-107c11 50 40 126 70 200l161 401l101 6l196 -505c19 -49 46 -102 46 -102h-8c-44 -20 -82 -57 -82 -90c0 -27 22 -38 52 -38c31 0 63 11 63 11v-65s-36 -17 -82 -17c-84 0 -129 36 -129 90c0 52 49 89 87 106zM193 207
h172l-62 162c-15 38 -22 78 -22 78h-4s-8 -39 -24 -82z" />
    <glyph glyph-name="Aring" unicode="&#xc5;" horiz-adv-x="636" 
d="M491 -4l-56 153h-267c-19 -59 -31 -102 -38 -149h-107c8 60 25 110 49 177l188 520l109 6l216 -583c27 -74 49 -118 49 -118zM280 480l-81 -240h203l-87 240c-11 32 -16 61 -16 61h-4s-5 -31 -15 -61zM310 827c14 0 22 17 22 38s-8 36 -22 36s-25 -15 -25 -36
s11 -38 25 -38zM310 754c-70 0 -125 42 -125 111s55 111 125 111s124 -42 124 -111s-54 -111 -124 -111z" />
    <glyph glyph-name="ring" unicode="&#x2da;" horiz-adv-x="308" 
d="M154 618c14 0 22 17 22 38s-8 36 -22 36s-25 -15 -25 -36s11 -38 25 -38zM154 545c-70 0 -125 42 -125 111s55 111 125 111s124 -42 124 -111s-54 -111 -124 -111z" />
    <glyph glyph-name="Aring.sc" horiz-adv-x="597" 
d="M286 731c14 0 22 17 22 38s-8 36 -22 36s-25 -15 -25 -36s11 -38 25 -38zM286 658c-70 0 -125 42 -125 111s55 111 125 111s124 -42 124 -111s-54 -111 -124 -111zM447 -5l-49 125h-238c-19 -48 -28 -82 -36 -120h-107c11 50 40 126 70 200l161 401l101 6l196 -505
c19 -49 46 -102 46 -102zM193 207h172l-62 162c-15 38 -22 78 -22 78h-4s-8 -39 -24 -82z" />
    <glyph glyph-name="Aringacute" unicode="&#x1fa;" horiz-adv-x="636" 
d="M491 -4l-56 153h-267c-19 -59 -31 -102 -38 -149h-107c8 60 25 110 49 177l188 520l109 6l216 -583c27 -74 49 -118 49 -118zM311 760c-82 0 -146 43 -146 115c0 66 54 108 127 114l-47 50l147 167l89 -92l-151 -125c72 -6 126 -48 126 -114c0 -72 -63 -115 -145 -115z
M280 480l-81 -240h203l-87 240c-11 32 -16 61 -16 61h-4s-5 -31 -15 -61zM311 836c17 0 26 17 26 39s-9 37 -26 37c-16 0 -29 -15 -29 -37s13 -39 29 -39z" />
    <glyph glyph-name="Aringacute.sc" horiz-adv-x="597" 
d="M288 886l-63 66l144 164l88 -90zM282 727c14 0 21 16 21 36s-7 34 -21 34c-13 0 -23 -14 -23 -34s10 -36 23 -36zM282 658c-66 0 -118 40 -118 105c0 66 52 106 118 106c67 0 118 -40 118 -106c0 -65 -51 -105 -118 -105zM447 -5l-49 125h-238c-19 -48 -28 -82 -36 -120
h-107c11 50 40 126 70 200l161 401l101 6l196 -505c19 -49 46 -102 46 -102zM193 207h172l-62 162c-15 38 -22 78 -22 78h-4s-8 -39 -24 -82z" />
    <glyph glyph-name="Atilde" unicode="&#xc3;" horiz-adv-x="636" 
d="M491 -4l-56 153h-267c-19 -59 -31 -102 -38 -149h-107c8 60 25 110 49 177l188 520l109 6l216 -583c27 -74 49 -118 49 -118zM280 480l-81 -240h203l-87 240c-11 32 -16 61 -16 61h-4s-5 -31 -15 -61zM371 767c-65 0 -87 36 -123 36c-24 0 -39 -22 -44 -39l-82 20
c10 58 53 119 124 119c68 0 88 -36 122 -36c22 0 35 23 38 39l80 -20c-13 -79 -64 -119 -115 -119z" />
    <glyph glyph-name="tilde" unicode="&#x2dc;" horiz-adv-x="424" 
d="M287 536c-65 0 -87 36 -123 36c-24 0 -39 -22 -44 -39l-82 20c10 58 53 119 124 119c68 0 88 -36 122 -36c22 0 35 23 38 39l80 -20c-13 -79 -64 -119 -115 -119z" />
    <glyph glyph-name="Atilde.sc" horiz-adv-x="597" 
d="M447 -5l-49 125h-238c-19 -48 -28 -82 -36 -120h-107c11 50 40 126 70 200l161 401l101 6l196 -505c19 -49 46 -102 46 -102zM193 207h172l-62 162c-15 38 -22 78 -22 78h-4s-8 -39 -24 -82zM349 671c-65 0 -87 36 -123 36c-24 0 -39 -22 -44 -39l-82 20
c10 58 53 119 124 119c68 0 88 -36 122 -36c22 0 35 23 38 39l80 -20c-13 -79 -64 -119 -115 -119z" />
    <glyph glyph-name="B" unicode="B" horiz-adv-x="641" 
d="M96 0v598c0 51 -6 102 -6 102h230c151 0 239 -73 239 -176c0 -88 -49 -133 -118 -153v-4c93 -18 148 -76 148 -162c0 -133 -118 -205 -260 -205h-233zM233 90h96c78 0 122 42 122 113c0 65 -34 119 -121 119h-97v-232zM233 412h145s47 35 47 97c0 53 -30 101 -116 101
h-76v-198z" />
    <glyph glyph-name="B.sc" horiz-adv-x="584" 
d="M92 0v524c0 26 -2 56 -6 77h185c173 0 234 -72 234 -163c0 -58 -36 -113 -93 -131v-3c65 -18 118 -58 118 -135c0 -99 -84 -169 -221 -169h-217zM225 90h76c55 0 91 30 91 87c0 51 -40 80 -89 80h-78v-167zM225 346h106s36 20 36 76c0 59 -36 89 -95 89h-47v-165z" />
    <glyph glyph-name="C" unicode="C" horiz-adv-x="594" 
d="M404 -10c-220 0 -348 141 -348 339c0 228 119 384 329 384c63 0 116 -14 167 -20l-14 -98c-58 3 -92 20 -155 20c-116 0 -185 -99 -185 -251c0 -151 57 -274 212 -274c79 0 130 19 130 19l17 -90s-52 -29 -153 -29z" />
    <glyph glyph-name="C.sc" horiz-adv-x="572" 
d="M353 -10c-169 0 -296 100 -296 301c0 161 89 319 283 319c90 0 141 -29 191 -43l-29 -98c-52 14 -89 42 -167 42c-92 0 -138 -73 -138 -208c0 -144 54 -214 168 -214c85 0 148 29 148 29l13 -87s-63 -41 -173 -41z" />
    <glyph glyph-name="Cacute" unicode="&#x106;" horiz-adv-x="594" 
d="M359 749l-70 73l160 181l97 -100zM404 -10c-220 0 -348 141 -348 339c0 228 119 384 329 384c63 0 116 -14 167 -20l-14 -98c-58 3 -92 20 -155 20c-116 0 -185 -99 -185 -251c0 -151 57 -274 212 -274c79 0 130 19 130 19l17 -90s-52 -29 -153 -29z" />
    <glyph glyph-name="Cacute.sc" horiz-adv-x="572" 
d="M345 666l-70 73l160 181l97 -100zM353 -10c-169 0 -296 100 -296 301c0 161 89 319 283 319c90 0 141 -29 191 -43l-29 -98c-52 14 -89 42 -167 42c-92 0 -138 -73 -138 -208c0 -144 54 -214 168 -214c85 0 148 29 148 29l13 -87s-63 -41 -173 -41z" />
    <glyph glyph-name="Ccaron" unicode="&#x10c;" horiz-adv-x="594" 
d="M463 957l61 -69l-151 -124h-38l-148 118l59 73l108 -74zM404 -10c-220 0 -348 141 -348 339c0 228 119 384 329 384c63 0 116 -14 167 -20l-14 -98c-58 3 -92 20 -155 20c-116 0 -185 -99 -185 -251c0 -151 57 -274 212 -274c79 0 130 19 130 19l17 -90s-52 -29 -153 -29
z" />
    <glyph glyph-name="caron" unicode="&#x2c7;" horiz-adv-x="384" 
d="M305 772l61 -69l-151 -124h-38l-148 118l59 73l108 -74z" />
    <glyph glyph-name="Ccaron.sc" horiz-adv-x="572" 
d="M446 857l61 -69l-151 -124h-38l-148 118l59 73l108 -74zM353 -10c-169 0 -296 100 -296 301c0 161 89 319 283 319c90 0 141 -29 191 -43l-29 -98c-52 14 -89 42 -167 42c-92 0 -138 -73 -138 -208c0 -144 54 -214 168 -214c85 0 148 29 148 29l13 -87s-63 -41 -173 -41z
" />
    <glyph glyph-name="Ccedilla" unicode="&#xc7;" horiz-adv-x="597" 
d="M360 -200c-41 0 -77 5 -116 20l24 61c27 -7 60 -10 76 -10c25 0 33 8 33 22c0 16 -24 26 -58 9l-13 15l28 79c-176 27 -276 158 -276 333c0 228 119 384 329 384c63 0 116 -14 167 -20l-14 -98c-58 3 -92 20 -155 20c-116 0 -185 -99 -185 -251c0 -151 57 -274 212 -274
c79 0 130 19 130 19l17 -90s-52 -29 -153 -29h-5v-22c53 -5 88 -30 88 -76c0 -55 -52 -92 -129 -92z" />
    <glyph glyph-name="cedilla" unicode="&#xb8;" horiz-adv-x="240" 
d="M116 -200c-41 0 -77 5 -116 20l24 61c27 -7 60 -10 76 -10c25 0 33 8 33 22c0 16 -24 26 -58 9l-13 15l37 103l58 4v-56c53 -5 88 -30 88 -76c0 -55 -52 -92 -129 -92z" />
    <glyph glyph-name="Ccedilla.sc" horiz-adv-x="573" 
d="M333 -200c-41 0 -77 5 -116 20l24 61c27 -7 60 -10 76 -10c25 0 33 8 33 22c0 16 -24 26 -58 9l-13 15l27 76c-145 16 -249 116 -249 298c0 161 89 319 283 319c90 0 141 -29 191 -43l-29 -98c-52 14 -89 42 -167 42c-92 0 -138 -73 -138 -208c0 -144 54 -214 168 -214
c85 0 148 29 148 29l13 -87s-56 -35 -152 -40v-23c53 -5 88 -30 88 -76c0 -55 -52 -92 -129 -92z" />
    <glyph glyph-name="Ccircumflex" unicode="&#x108;" horiz-adv-x="594" 
d="M255 762l-61 69l151 124h38l148 -118l-59 -73l-108 74zM404 -10c-220 0 -348 141 -348 339c0 228 119 384 329 384c63 0 116 -14 167 -20l-14 -98c-58 3 -92 20 -155 20c-116 0 -185 -99 -185 -251c0 -151 57 -274 212 -274c79 0 130 19 130 19l17 -90s-52 -29 -153 -29z
" />
    <glyph glyph-name="Ccircumflex.sc" horiz-adv-x="572" 
d="M212 654l-61 69l151 124h38l148 -118l-59 -73l-108 74zM353 -10c-169 0 -296 100 -296 301c0 161 89 319 283 319c90 0 141 -29 191 -43l-29 -98c-52 14 -89 42 -167 42c-92 0 -138 -73 -138 -208c0 -144 54 -214 168 -214c85 0 148 29 148 29l13 -87s-63 -41 -173 -41z
" />
    <glyph glyph-name="Cdotaccent" unicode="&#x10a;" horiz-adv-x="594" 
d="M404 -10c-220 0 -348 141 -348 339c0 228 119 384 329 384c63 0 116 -14 167 -20l-14 -98c-58 3 -92 20 -155 20c-116 0 -185 -99 -185 -251c0 -151 57 -274 212 -274c79 0 130 19 130 19l17 -90s-52 -29 -153 -29zM348 775c-42 0 -79 34 -79 79c0 43 39 79 81 79
c44 0 78 -36 78 -79c0 -45 -38 -79 -80 -79z" />
    <glyph glyph-name="dotaccent" unicode="&#x2d9;" horiz-adv-x="186" 
d="M112 508c-42 0 -79 34 -79 79c0 43 39 79 81 79c44 0 78 -36 78 -79c0 -45 -38 -79 -80 -79z" />
    <glyph glyph-name="Cdotaccent.sc" horiz-adv-x="572" 
d="M353 -10c-169 0 -296 100 -296 301c0 161 89 319 283 319c90 0 141 -29 191 -43l-29 -98c-52 14 -89 42 -167 42c-92 0 -138 -73 -138 -208c0 -144 54 -214 168 -214c85 0 148 29 148 29l13 -87s-63 -41 -173 -41zM338 662c-42 0 -79 34 -79 79c0 43 39 79 81 79
c44 0 78 -36 78 -79c0 -45 -38 -79 -80 -79z" />
    <glyph glyph-name="D" unicode="D" horiz-adv-x="743" 
d="M96 0v598c0 51 -6 102 -6 102h217c242 0 383 -113 383 -337c0 -254 -178 -363 -384 -363h-210zM234 92h47c201 0 264 108 264 254c0 162 -78 262 -259 262h-52v-516z" />
    <glyph glyph-name="D.sc" horiz-adv-x="668" 
d="M92 0v523c0 26 -2 56 -6 77h208c191 0 319 -97 319 -291c0 -208 -143 -309 -336 -309h-185zM225 92h60c143 0 191 104 191 216c0 126 -48 200 -219 200h-32v-416z" />
    <glyph glyph-name="Dcaron" unicode="&#x10e;" horiz-adv-x="743" 
d="M434 954l61 -69l-151 -124h-38l-148 118l59 73l108 -74zM96 0v598c0 51 -6 102 -6 102h217c242 0 383 -113 383 -337c0 -254 -178 -363 -384 -363h-210zM234 92h47c201 0 264 108 264 254c0 162 -78 262 -259 262h-52v-516z" />
    <glyph glyph-name="Dcaron.sc" horiz-adv-x="668" 
d="M92 0v523c0 26 -2 56 -6 77h208c191 0 319 -97 319 -291c0 -208 -143 -309 -336 -309h-185zM225 92h60c143 0 191 104 191 216c0 126 -48 200 -219 200h-32v-416zM403 855l61 -69l-151 -124h-38l-148 118l59 73l108 -74z" />
    <glyph glyph-name="Dcroat" unicode="&#x110;" horiz-adv-x="752" 
d="M15 305v84h90v209c0 51 -6 102 -6 102h217c242 0 383 -113 383 -337c0 -254 -178 -363 -384 -363h-210v305h-90zM243 92h47c201 0 264 108 264 254c0 162 -78 262 -259 262h-52v-219h106v-84h-106v-213z" />
    <glyph glyph-name="Dcroat.sc" horiz-adv-x="700" 
d="M33 241v84h91v198c0 26 -2 56 -6 77h208c191 0 319 -97 319 -291c0 -208 -143 -309 -336 -309h-185v241h-91zM257 92h60c143 0 191 82 191 205c0 137 -48 211 -219 211h-32v-183h80v-84h-80v-149z" />
    <glyph glyph-name="Delta" unicode="&#x2206;" horiz-adv-x="655" 
d="M171 88h306l-127 343c-13 36 -19 76 -19 76h-2c1 0 -10 -45 -21 -75zM53 0l-18 29l285 671h52l245 -673l-15 -27h-549z" />
    <glyph glyph-name="E" unicode="E" horiz-adv-x="598" 
d="M96 0v598c0 51 -6 102 -6 102h453l-5 -99s-39 5 -85 6l-219 3v-210l259 5l-5 -106l-254 8v-216l204 3c61 1 105 6 105 6l-5 -100h-442z" />
    <glyph glyph-name="E.sc" horiz-adv-x="557" 
d="M92 0v498c0 51 -6 103 -6 103h418l-5 -96s-32 5 -92 6l-182 2v-169l214 3l-5 -95l-209 4v-169l179 2c39 1 105 7 105 7l-5 -96h-412z" />
    <glyph glyph-name="Eacute" unicode="&#xc9;" horiz-adv-x="598" 
d="M334 750l-70 73l160 181l97 -100zM96 0v598c0 51 -6 102 -6 102h453l-5 -99s-39 5 -85 6l-219 3v-210l259 5l-5 -106l-254 8v-216l204 3c61 1 105 6 105 6l-5 -100h-442z" />
    <glyph glyph-name="Eacute.sc" horiz-adv-x="557" 
d="M312 665l-70 73l160 181l97 -100zM92 0v498c0 51 -6 103 -6 103h418l-5 -96s-32 5 -92 6l-182 2v-169l214 3l-5 -95l-209 4v-169l179 2c39 1 105 7 105 7l-5 -96h-412z" />
    <glyph glyph-name="Ebreve" unicode="&#x114;" horiz-adv-x="598" 
d="M96 0v598c0 51 -6 102 -6 102h453l-5 -99s-39 5 -85 6l-219 3v-210l259 5l-5 -106l-254 8v-216l204 3c61 1 105 6 105 6l-5 -100h-442zM319 776c-75 0 -137 45 -160 130l90 36c1 -1 18 -54 70 -54c54 0 68 53 70 54l92 -37c-23 -85 -93 -129 -162 -129z" />
    <glyph glyph-name="Ebreve.sc" horiz-adv-x="557" 
d="M92 0v498c0 51 -6 103 -6 103h418l-5 -96s-32 5 -92 6l-182 2v-169l214 3l-5 -95l-209 4v-169l179 2c39 1 105 7 105 7l-5 -96h-412zM303 665c-75 0 -137 45 -160 130l90 36c1 -1 18 -54 70 -54c54 0 68 53 70 54l92 -37c-23 -85 -93 -129 -162 -129z" />
    <glyph glyph-name="Ecaron" unicode="&#x11a;" horiz-adv-x="598" 
d="M443 956l61 -69l-151 -124h-38l-148 118l59 73l108 -74zM96 0v598c0 51 -6 102 -6 102h453l-5 -99s-39 5 -85 6l-219 3v-210l259 5l-5 -106l-254 8v-216l204 3c61 1 105 6 105 6l-5 -100h-442z" />
    <glyph glyph-name="Ecaron.sc" horiz-adv-x="557" 
d="M409 855l61 -69l-151 -124h-38l-148 118l59 73l108 -74zM92 0v498c0 51 -6 103 -6 103h418l-5 -96s-32 5 -92 6l-182 2v-169l214 3l-5 -95l-209 4v-169l179 2c39 1 105 7 105 7l-5 -96h-412z" />
    <glyph glyph-name="Ecircumflex" unicode="&#xca;" horiz-adv-x="598" 
d="M218 762l-61 69l151 124h38l148 -118l-59 -73l-108 74zM96 0v598c0 51 -6 102 -6 102h453l-5 -99s-39 5 -85 6l-219 3v-210l259 5l-5 -106l-254 8v-216l204 3c61 1 105 6 105 6l-5 -100h-442z" />
    <glyph glyph-name="Ecircumflex.sc" horiz-adv-x="557" 
d="M183 654l-61 69l151 124h38l148 -118l-59 -73l-108 74zM92 0v498c0 51 -6 103 -6 103h418l-5 -96s-32 5 -92 6l-182 2v-169l214 3l-5 -95l-209 4v-169l179 2c39 1 105 7 105 7l-5 -96h-412z" />
    <glyph glyph-name="Edieresis" unicode="&#xcb;" horiz-adv-x="598" 
d="M202 772c-44 0 -77 31 -77 81c0 53 37 82 84 82c48 0 76 -29 76 -78c0 -55 -33 -85 -83 -85zM410 772c-44 0 -77 31 -77 81c0 53 37 82 84 82c48 0 76 -29 76 -78c0 -55 -33 -85 -83 -85zM96 0v598c0 51 -6 102 -6 102h453l-5 -99s-39 5 -85 6l-219 3v-210l259 5l-5 -106
l-254 8v-216l204 3c61 1 105 6 105 6l-5 -100h-442z" />
    <glyph glyph-name="Edieresis.sc" horiz-adv-x="557" 
d="M173 666c-44 0 -77 31 -77 81c0 53 37 82 84 82c48 0 76 -29 76 -78c0 -55 -33 -85 -83 -85zM381 666c-44 0 -77 31 -77 81c0 53 37 82 84 82c48 0 76 -29 76 -78c0 -55 -33 -85 -83 -85zM92 0v498c0 51 -6 103 -6 103h418l-5 -96s-32 5 -92 6l-182 2v-169l214 3l-5 -95
l-209 4v-169l179 2c39 1 105 7 105 7l-5 -96h-412z" />
    <glyph glyph-name="Edotaccent" unicode="&#x116;" horiz-adv-x="598" 
d="M96 0v598c0 51 -6 102 -6 102h453l-5 -99s-39 5 -85 6l-219 3v-210l259 5l-5 -106l-254 8v-216l204 3c61 1 105 6 105 6l-5 -100h-442zM334 775c-42 0 -79 34 -79 79c0 43 39 79 81 79c44 0 78 -36 78 -79c0 -45 -38 -79 -80 -79z" />
    <glyph glyph-name="Edotaccent.sc" horiz-adv-x="557" 
d="M299 663c-42 0 -79 34 -79 79c0 43 39 79 81 79c44 0 78 -36 78 -79c0 -45 -38 -79 -80 -79zM92 0v498c0 51 -6 103 -6 103h418l-5 -96s-32 5 -92 6l-182 2v-169l214 3l-5 -95l-209 4v-169l179 2c39 1 105 7 105 7l-5 -96h-412z" />
    <glyph glyph-name="Egrave" unicode="&#xc8;" horiz-adv-x="598" 
d="M96 0v598c0 51 -6 102 -6 102h453l-5 -99s-39 5 -85 6l-219 3v-210l259 5l-5 -106l-254 8v-216l204 3c61 1 105 6 105 6l-5 -100h-442zM352 751l-187 154l96 101l160 -181z" />
    <glyph glyph-name="Egrave.sc" horiz-adv-x="557" 
d="M339 662l-187 154l96 101l160 -181zM92 0v498c0 51 -6 103 -6 103h418l-5 -96s-32 5 -92 6l-182 2v-169l214 3l-5 -95l-209 4v-169l179 2c39 1 105 7 105 7l-5 -96h-412z" />
    <glyph glyph-name="Emacron" unicode="&#x112;" horiz-adv-x="598" 
d="M96 0v598c0 51 -6 102 -6 102h453l-5 -99s-39 5 -85 6l-219 3v-210l259 5l-5 -106l-254 8v-216l204 3c61 1 105 6 105 6l-5 -100h-442zM195 774v104h274v-104h-274z" />
    <glyph glyph-name="Emacron.sc" horiz-adv-x="557" 
d="M171 662v104h274v-104h-274zM92 0v498c0 51 -6 103 -6 103h418l-5 -96s-32 5 -92 6l-182 2v-169l214 3l-5 -95l-209 4v-169l179 2c39 1 105 7 105 7l-5 -96h-412z" />
    <glyph glyph-name="Eng" unicode="&#x14a;" horiz-adv-x="755" 
d="M490 -209l-87 66c73 91 90 116 100 127c10 28 13 40 17 70l-290 395c-15 22 -33 61 -33 61h-3s7 -45 7 -71v-346c0 -46 5 -93 5 -93h-110v598c0 51 -6 103 -6 103l101 5l334 -459c22 -32 32 -55 32 -55l3 1s-5 28 -5 68v337c0 51 -6 103 -6 103l111 5v-615
c0 -45 -4 -79 -18 -114c-19 -45 -54 -85 -152 -186z" />
    <glyph glyph-name="Eng.sc" horiz-adv-x="717" 
d="M463 -210l-78 62c53 72 105 123 107 184l-263 328c-23 29 -34 59 -34 59l-4 -1s5 -31 5 -71v-231c0 -77 5 -120 5 -120h-110v511c0 30 -5 90 -5 90l110 5l294 -370c16 -21 30 -54 30 -54l5 1s-5 37 -5 61v241c0 63 -5 116 -5 116l110 5l2 -515c0 -136 -60 -194 -164 -301
z" />
    <glyph glyph-name="Eogonek" unicode="&#x118;" horiz-adv-x="598" 
d="M96 0v598c0 51 -6 102 -6 102h453l-5 -99s-39 5 -85 6l-219 3v-210l259 5l-5 -106l-254 8v-216l204 3c61 1 105 6 105 6l-5 -100h-3c-45 -20 -83 -57 -83 -90c0 -27 22 -38 52 -38c31 0 63 11 63 11v-65s-36 -17 -82 -17c-84 0 -129 36 -129 90c0 56 57 94 96 109h-356z
" />
    <glyph glyph-name="Eogonek.sc" horiz-adv-x="557" 
d="M92 0v498c0 51 -6 103 -6 103h418l-5 -96s-32 5 -92 6l-182 2v-169l214 3l-5 -95l-209 4v-169l179 2c39 1 105 7 105 7l-5 -96h-12c-43 -20 -78 -56 -78 -88c0 -27 22 -38 52 -38c31 0 63 11 63 11v-65s-36 -17 -82 -17c-84 0 -129 36 -129 90s52 91 90 107h-316z" />
    <glyph glyph-name="Eth" unicode="&#xd0;" horiz-adv-x="752" 
d="M15 305v84h90v209c0 51 -6 102 -6 102h217c242 0 383 -113 383 -337c0 -254 -178 -363 -384 -363h-210v305h-90zM243 92h47c201 0 264 108 264 254c0 162 -78 262 -259 262h-52v-219h106v-84h-106v-213z" />
    <glyph glyph-name="Eth.sc" horiz-adv-x="700" 
d="M33 241v84h91v198c0 26 -2 56 -6 77h208c191 0 319 -97 319 -291c0 -208 -143 -309 -336 -309h-185v241h-91zM257 92h60c143 0 191 82 191 205c0 137 -48 211 -219 211h-32v-183h80v-84h-80v-149z" />
    <glyph glyph-name="Euro" unicode="&#x20ac;" horiz-adv-x="703" 
d="M52 376v94h110c36 149 135 243 304 243c63 0 126 -14 177 -20l-14 -98c-58 3 -102 20 -165 20c-90 0 -143 -55 -164 -145h295l-13 -94h-293v-12c0 -15 0 -30 1 -44h275l-12 -94h-247c24 -81 77 -136 183 -136c96 0 140 19 140 19l29 -86s-55 -33 -173 -33
c-182 0 -292 93 -327 236h-106v94h95v9c0 16 0 31 1 47h-96z" />
    <glyph glyph-name="Euro.old" horiz-adv-x="688" 
d="M66 296v94h114c39 100 127 172 249 172c90 0 141 -29 191 -43l-29 -98c-52 14 -89 42 -161 42c-56 0 -95 -25 -116 -73h202l-20 -94h-202v-22c0 -8 0 -16 1 -24h191l-19 -94h-144c25 -40 67 -67 131 -67c85 0 148 29 148 29l13 -87s-63 -41 -173 -41
c-130 0 -225 61 -264 166h-112v94h93v21c0 8 0 16 1 25h-94z" />
    <glyph glyph-name="Euro.sc" horiz-adv-x="659" 
d="M54 316v94h97c35 112 121 200 266 200c90 0 141 -29 191 -43l-29 -98c-52 14 -89 42 -167 42c-65 0 -106 -33 -126 -101h211l-6 -94h-217v-13c0 -15 0 -30 1 -43h206l-6 -94h-175c26 -52 73 -77 142 -77c85 0 148 29 148 29l13 -87s-63 -41 -173 -41
c-130 0 -234 58 -276 176h-100v94h81c-1 10 -1 20 -1 31v25h-80z" />
    <glyph glyph-name="Euro.sctab" 
d="M14 316v94h73c28 112 99 200 235 200c85 0 116 -22 166 -36l-29 -98c-52 14 -78 35 -134 35c-51 0 -85 -33 -101 -101h192l-21 -94h-181v-13c0 -12 0 -23 1 -33h161l-21 -94h-123c19 -53 56 -83 116 -83c71 0 122 25 122 25l13 -87s-53 -41 -153 -41
c-126 0 -211 66 -243 186h-73v94h60c-1 7 0 14 0 21v25h-60z" />
    <glyph glyph-name="Euro.tab" horiz-adv-x="510" 
d="M-6 376v94h86c33 149 124 243 283 243c59 0 98 -14 149 -20l-14 -98c-58 3 -94 18 -130 18c-89 0 -134 -54 -152 -143h238l-13 -94h-233v-12c0 -15 0 -30 1 -44h215l-12 -94h-187c25 -80 77 -126 161 -126c68 0 107 25 107 25l26 -97s-47 -38 -159 -38
c-156 0 -253 92 -284 236h-82v94h72v9c0 16 0 31 1 47h-73z" />
    <glyph glyph-name="F" unicode="F" horiz-adv-x="578" 
d="M96 0v598c0 51 -6 102 -6 102h453l-5 -100s-49 5 -96 6l-208 3v-229l259 5l-5 -106l-254 8v-194c0 -46 5 -93 5 -93h-143z" />
    <glyph glyph-name="F.sc" horiz-adv-x="518" 
d="M92 -5v503c0 51 -6 103 -6 103h398l-5 -96s-46 7 -91 7l-163 1v-180l214 3l-5 -95l-209 4v-152c0 -46 5 -93 5 -93z" />
    <glyph glyph-name="G" unicode="G" horiz-adv-x="684" 
d="M439 -10c-236 0 -385 107 -385 357c0 210 139 366 364 366c72 0 131 -14 182 -20l-14 -98c-46 5 -111 20 -176 20c-172 0 -214 -150 -214 -277c0 -165 104 -251 243 -251c28 0 48 5 48 5v117c0 51 -6 103 -6 103l139 5v-302s-96 -25 -181 -25z" />
    <glyph glyph-name="G.sc" horiz-adv-x="649" 
d="M394 -10c-213 0 -340 100 -340 301c0 181 122 318 327 318c96 0 147 -28 197 -42l-29 -98c-43 11 -90 41 -177 41c-129 0 -181 -92 -181 -202c0 -145 64 -223 198 -223c42 0 66 7 66 7v84c0 30 -2 58 -5 89l133 5v-248s-90 -32 -189 -32z" />
    <glyph glyph-name="Gbreve" unicode="&#x11e;" horiz-adv-x="684" 
d="M439 -10c-236 0 -385 107 -385 357c0 210 139 366 364 366c72 0 131 -14 182 -20l-14 -98c-46 5 -111 20 -176 20c-172 0 -214 -150 -214 -277c0 -165 104 -251 243 -251c28 0 48 5 48 5v117c0 51 -6 103 -6 103l139 5v-302s-96 -25 -181 -25zM398 777
c-75 0 -137 45 -160 130l90 36c1 -1 18 -54 70 -54c54 0 68 53 70 54l92 -37c-23 -85 -93 -129 -162 -129z" />
    <glyph glyph-name="Gbreve.sc" horiz-adv-x="649" 
d="M394 -10c-213 0 -340 100 -340 301c0 181 122 318 327 318c96 0 147 -28 197 -42l-29 -98c-43 11 -90 41 -177 41c-129 0 -181 -92 -181 -202c0 -145 64 -223 198 -223c42 0 66 7 66 7v84c0 30 -2 58 -5 89l133 5v-248s-90 -32 -189 -32zM363 665c-75 0 -137 45 -160 130
l90 36c1 -1 18 -54 70 -54c54 0 68 53 70 54l92 -37c-23 -85 -93 -129 -162 -129z" />
    <glyph glyph-name="Gcircumflex" unicode="&#x11c;" horiz-adv-x="684" 
d="M284 761l-61 69l151 124h38l148 -118l-59 -73l-108 74zM439 -10c-236 0 -385 107 -385 357c0 210 139 366 364 366c72 0 131 -14 182 -20l-14 -98c-46 5 -111 20 -176 20c-172 0 -214 -150 -214 -277c0 -165 104 -251 243 -251c28 0 48 5 48 5v117c0 51 -6 103 -6 103
l139 5v-302s-96 -25 -181 -25z" />
    <glyph glyph-name="Gcircumflex.sc" horiz-adv-x="649" 
d="M262 654l-61 69l151 124h38l148 -118l-59 -73l-108 74zM394 -10c-213 0 -340 100 -340 301c0 181 122 318 327 318c96 0 147 -28 197 -42l-29 -98c-43 11 -90 41 -177 41c-129 0 -181 -92 -181 -202c0 -145 64 -223 198 -223c42 0 66 7 66 7v84c0 30 -2 58 -5 89l133 5
v-248s-90 -32 -189 -32z" />
    <glyph glyph-name="Gcommaaccent" unicode="&#x122;" horiz-adv-x="684" 
d="M393 -375l-66 39c22 27 37 61 45 94c-37 7 -62 37 -62 77c0 52 39 82 83 82s80 -26 80 -91c0 -69 -34 -145 -80 -201zM439 -10c-236 0 -385 107 -385 357c0 210 139 366 364 366c72 0 131 -14 182 -20l-14 -98c-46 5 -111 20 -176 20c-172 0 -214 -150 -214 -277
c0 -165 104 -251 243 -251c28 0 48 5 48 5v117c0 51 -6 103 -6 103l139 5v-302s-96 -25 -181 -25z" />
    <glyph glyph-name="commaaccent" unicode="&#xf6c3;" horiz-adv-x="170" 
d="M95 -339l-66 39c22 27 37 61 45 94c-37 7 -62 37 -62 77c0 52 39 82 83 82s80 -26 80 -91c0 -69 -34 -145 -80 -201z" />
    <glyph glyph-name="Gcommaaccent.sc" horiz-adv-x="649" 
d="M350 -376l-66 39c22 27 37 61 45 94c-37 7 -62 37 -62 77c0 52 39 82 83 82s80 -26 80 -91c0 -69 -34 -145 -80 -201zM394 -10c-213 0 -340 100 -340 301c0 181 122 318 327 318c96 0 147 -28 197 -42l-29 -98c-43 11 -90 41 -177 41c-129 0 -181 -92 -181 -202
c0 -145 64 -223 198 -223c42 0 66 7 66 7v84c0 30 -2 58 -5 89l133 5v-248s-90 -32 -189 -32z" />
    <glyph glyph-name="Gdotaccent" unicode="&#x120;" horiz-adv-x="684" 
d="M439 -10c-236 0 -385 107 -385 357c0 210 139 366 364 366c72 0 131 -14 182 -20l-14 -98c-46 5 -111 20 -176 20c-172 0 -214 -150 -214 -277c0 -165 104 -251 243 -251c28 0 48 5 48 5v117c0 51 -6 103 -6 103l139 5v-302s-96 -25 -181 -25zM382 775
c-42 0 -79 34 -79 79c0 43 39 79 81 79c44 0 78 -36 78 -79c0 -45 -38 -79 -80 -79z" />
    <glyph glyph-name="Gdotaccent.sc" horiz-adv-x="649" 
d="M394 -10c-213 0 -340 100 -340 301c0 181 122 318 327 318c96 0 147 -28 197 -42l-29 -98c-43 11 -90 41 -177 41c-129 0 -181 -92 -181 -202c0 -145 64 -223 198 -223c42 0 66 7 66 7v84c0 30 -2 58 -5 89l133 5v-248s-90 -32 -189 -32zM356 662c-42 0 -79 34 -79 79
c0 43 39 79 81 79c44 0 78 -36 78 -79c0 -45 -38 -79 -80 -79z" />
    <glyph glyph-name="H" unicode="H" horiz-adv-x="782" 
d="M96 0v598c0 51 -6 103 -6 103l144 5v-297h314v189c0 51 -6 103 -6 103l144 5v-613c0 -46 5 -93 5 -93h-143v315h-314v-222c0 -46 5 -93 5 -93h-143z" />
    <glyph glyph-name="H.sc" horiz-adv-x="724" 
d="M92 0v498c0 51 -6 103 -6 103l139 5v-259h274v151c0 51 -6 103 -6 103l139 5v-513c0 -46 5 -93 5 -93h-138v253h-274v-160c0 -46 5 -93 5 -93h-138z" />
    <glyph glyph-name="H18533" unicode="&#x25cf;" horiz-adv-x="637" 
d="M318 83c-148 0 -268 120 -268 268s120 269 268 269s269 -121 269 -269s-121 -268 -269 -268z" />
    <glyph glyph-name="Hbar" unicode="&#x126;" horiz-adv-x="791" 
d="M30 475v94h71v29c0 51 -6 103 -6 103l144 5v-137h314v29c0 51 -6 103 -6 103l144 5v-137h69v-94h-69v-382c0 -46 5 -93 5 -93h-143v315h-314v-222c0 -46 5 -93 5 -93h-143v475h-71zM239 409h314v66h-314v-66z" />
    <glyph glyph-name="Hbar.sc" horiz-adv-x="779" 
d="M49 416v76h70v6c0 51 -6 103 -6 103l139 5v-114h274v6c0 51 -6 103 -6 103l139 5v-114h71v-76h-71v-323c0 -46 5 -93 5 -93h-138v253h-274v-160c0 -46 5 -93 5 -93h-138v416h-70zM252 347h274v69h-274v-69z" />
    <glyph glyph-name="Hcircumflex" unicode="&#x124;" horiz-adv-x="782" 
d="M277 763l-61 69l151 124h38l148 -118l-59 -73l-108 74zM96 0v598c0 51 -6 103 -6 103l144 5v-297h314v189c0 51 -6 103 -6 103l144 5v-613c0 -46 5 -93 5 -93h-143v315h-314v-222c0 -46 5 -93 5 -93h-143z" />
    <glyph glyph-name="Hcircumflex.sc" horiz-adv-x="724" 
d="M256 654l-61 69l151 124h38l148 -118l-59 -73l-108 74zM92 0v498c0 51 -6 103 -6 103l139 5v-259h274v151c0 51 -6 103 -6 103l139 5v-513c0 -46 5 -93 5 -93h-138v253h-274v-160c0 -46 5 -93 5 -93h-138z" />
    <glyph glyph-name="I" unicode="I" horiz-adv-x="330" 
d="M96 0v598c0 51 -6 103 -6 103l144 5v-613c0 -46 5 -93 5 -93h-143z" />
    <glyph glyph-name="I.sc" horiz-adv-x="317" 
d="M92 0v498c0 51 -6 103 -6 103l139 5v-513c0 -46 5 -93 5 -93h-138z" />
    <glyph glyph-name="IJ.sc" horiz-adv-x="627" 
d="M92 0v498c0 51 -6 103 -6 103l139 5v-513c0 -46 5 -93 5 -93h-138zM372 -210l-78 62c64 80 108 118 108 238v408c0 51 -6 103 -6 103l140 5v-515c0 -136 -60 -194 -164 -301z" />
    <glyph glyph-name="L.sc" horiz-adv-x="527" 
d="M92 0v498c0 51 -6 103 -6 103l139 5v-514l173 3c56 1 111 6 111 6l-5 -101h-412z" />
    <glyph glyph-name="J.sc" horiz-adv-x="318" 
d="M63 -210l-78 62c64 80 108 118 108 238v408c0 51 -6 103 -6 103l140 5v-515c0 -136 -60 -194 -164 -301z" />
    <glyph glyph-name="Iacute" unicode="&#xcd;" horiz-adv-x="330" 
d="M96 0v598c0 51 -6 103 -6 103l144 5v-613c0 -46 5 -93 5 -93h-143zM154 750l-70 73l160 181l97 -100z" />
    <glyph glyph-name="Iacute.sc" horiz-adv-x="317" 
d="M153 664l-70 73l160 181l97 -100zM92 0v498c0 51 -6 103 -6 103l139 5v-513c0 -46 5 -93 5 -93h-138z" />
    <glyph glyph-name="Ibreve" unicode="&#x12c;" horiz-adv-x="330" 
d="M96 0v598c0 51 -6 103 -6 103l144 5v-613c0 -46 5 -93 5 -93h-143zM168 776c-75 0 -137 45 -160 130l90 36c1 -1 18 -54 70 -54c54 0 68 53 70 54l92 -37c-23 -85 -93 -129 -162 -129z" />
    <glyph glyph-name="Ibreve.sc" horiz-adv-x="317" 
d="M92 0v498c0 51 -6 103 -6 103l139 5v-513c0 -46 5 -93 5 -93h-138zM159 665c-75 0 -137 45 -160 130l90 36c1 -1 18 -54 70 -54c54 0 68 53 70 54l92 -37c-23 -85 -93 -129 -162 -129z" />
    <glyph glyph-name="Icircumflex" unicode="&#xce;" horiz-adv-x="330" 
d="M96 0v598c0 51 -6 103 -6 103l144 5v-613c0 -46 5 -93 5 -93h-143zM68 760l-61 69l151 124h38l148 -118l-59 -73l-108 74z" />
    <glyph glyph-name="Icircumflex.sc" horiz-adv-x="317" 
d="M51 654l-61 69l151 124h38l148 -118l-59 -73l-108 74zM92 0v498c0 51 -6 103 -6 103l139 5v-513c0 -46 5 -93 5 -93h-138z" />
    <glyph glyph-name="Idieresis" unicode="&#xcf;" horiz-adv-x="330" 
d="M96 0v598c0 51 -6 103 -6 103l144 5v-613c0 -46 5 -93 5 -93h-143zM57 772c-44 0 -77 31 -77 81c0 53 37 82 84 82c48 0 76 -29 76 -78c0 -55 -33 -85 -83 -85zM265 772c-44 0 -77 31 -77 81c0 53 37 82 84 82c48 0 76 -29 76 -78c0 -55 -33 -85 -83 -85z" />
    <glyph glyph-name="Idieresis.sc" horiz-adv-x="317" 
d="M51 663c-44 0 -77 31 -77 81c0 53 37 82 84 82c48 0 76 -29 76 -78c0 -55 -33 -85 -83 -85zM259 663c-44 0 -77 31 -77 81c0 53 37 82 84 82c48 0 76 -29 76 -78c0 -55 -33 -85 -83 -85zM92 0v498c0 51 -6 103 -6 103l139 5v-513c0 -46 5 -93 5 -93h-138z" />
    <glyph glyph-name="Idotaccent" unicode="&#x130;" horiz-adv-x="330" 
d="M96 0v598c0 51 -6 103 -6 103l144 5v-613c0 -46 5 -93 5 -93h-143zM164 775c-42 0 -79 34 -79 79c0 43 39 79 81 79c44 0 78 -36 78 -79c0 -45 -38 -79 -80 -79z" />
    <glyph glyph-name="Idotaccent.sc" horiz-adv-x="317" 
d="M92 0v498c0 51 -6 103 -6 103l139 5v-513c0 -46 5 -93 5 -93h-138zM157 662c-42 0 -79 34 -79 79c0 43 39 79 81 79c44 0 78 -36 78 -79c0 -45 -38 -79 -80 -79z" />
    <glyph glyph-name="Igrave" unicode="&#xcc;" horiz-adv-x="330" 
d="M96 0v598c0 51 -6 103 -6 103l144 5v-613c0 -46 5 -93 5 -93h-143zM174 750l-187 154l96 101l160 -181z" />
    <glyph glyph-name="Igrave.sc" horiz-adv-x="317" 
d="M92 0v498c0 51 -6 103 -6 103l139 5v-513c0 -46 5 -93 5 -93h-138zM183 668l-187 154l96 101l160 -181z" />
    <glyph glyph-name="Imacron" unicode="&#x12a;" horiz-adv-x="330" 
d="M96 0v598c0 51 -6 103 -6 103l144 5v-613c0 -46 5 -93 5 -93h-143zM27 776v104h274v-104h-274z" />
    <glyph glyph-name="Imacron.sc" horiz-adv-x="317" 
d="M92 0v498c0 51 -6 103 -6 103l139 5v-513c0 -46 5 -93 5 -93h-138zM20 666v104h274v-104h-274z" />
    <glyph glyph-name="Iogonek" unicode="&#x12e;" horiz-adv-x="330" 
d="M96 0v598c0 51 -6 103 -6 103l144 5v-613c0 -46 5 -93 5 -93h1c-45 -20 -83 -57 -83 -90c0 -27 22 -38 52 -38c31 0 63 11 63 11v-65s-36 -17 -82 -17c-84 0 -129 36 -129 90c0 56 57 94 96 109h-61z" />
    <glyph glyph-name="Iogonek.sc" horiz-adv-x="317" 
d="M92 0v498c0 51 -6 103 -6 103l139 5v-513c0 -46 5 -93 5 -93c-45 -20 -83 -57 -83 -90c0 -27 22 -38 52 -38c31 0 63 11 63 11v-65s-36 -17 -82 -17c-84 0 -129 36 -129 90c0 56 57 94 96 109h-55z" />
    <glyph glyph-name="Itilde" unicode="&#x128;" horiz-adv-x="330" 
d="M96 0v598c0 51 -6 103 -6 103l144 5v-613c0 -46 5 -93 5 -93h-143zM243 770c-65 0 -87 36 -123 36c-24 0 -39 -22 -44 -39l-82 20c10 58 53 119 124 119c68 0 88 -36 122 -36c22 0 35 23 38 39l80 -20c-13 -79 -64 -119 -115 -119z" />
    <glyph glyph-name="Itilde.sc" horiz-adv-x="317" 
d="M92 0v498c0 51 -6 103 -6 103l139 5v-513c0 -46 5 -93 5 -93h-138zM225 671c-65 0 -87 36 -123 36c-24 0 -39 -22 -44 -39l-82 20c10 58 53 119 124 119c68 0 88 -36 122 -36c22 0 35 23 38 39l80 -20c-13 -79 -64 -119 -115 -119z" />
    <glyph glyph-name="J" unicode="J" horiz-adv-x="329" 
d="M64 -209l-76 61c69 88 85 101 98 141c9 26 10 58 10 97v508c0 51 -6 103 -6 103l144 5v-615c0 -45 -4 -79 -18 -114c-20 -53 -57 -89 -152 -186z" />
    <glyph glyph-name="Jcircumflex" unicode="&#x134;" horiz-adv-x="329" 
d="M54 764l-61 69l151 124h38l148 -118l-59 -73l-108 74zM64 -209l-76 61c69 88 85 101 98 141c9 26 10 58 10 97v508c0 51 -6 103 -6 103l144 5v-615c0 -45 -4 -79 -18 -114c-20 -53 -57 -89 -152 -186z" />
    <glyph glyph-name="Jcircumflex.sc" horiz-adv-x="318" 
d="M53 654l-61 69l151 124h38l148 -118l-59 -73l-108 74zM63 -210l-78 62c64 80 108 118 108 238v408c0 51 -6 103 -6 103l140 5v-515c0 -136 -60 -194 -164 -301z" />
    <glyph glyph-name="K" unicode="K" horiz-adv-x="652" 
d="M495 -5l-215 317h-46v-219c0 -46 5 -93 5 -93h-143v598c0 51 -6 103 -6 103l144 5v-301h58c115 155 146 223 182 295h133c-42 -75 -103 -176 -218 -321l208 -309c23 -35 51 -70 51 -70z" />
    <glyph glyph-name="K.sc" horiz-adv-x="593" 
d="M92 0v498c0 51 -6 103 -6 103l139 5v-260h39l100 133c62 85 82 120 82 120h112s-24 -60 -112 -169l-91 -112l217 -318h-152l-170 255h-25v-162c0 -46 5 -93 5 -93h-138z" />
    <glyph glyph-name="Kcommaaccent" unicode="&#x136;" horiz-adv-x="652" 
d="M348 -376l-66 39c22 27 37 61 45 94c-37 7 -62 37 -62 77c0 52 39 82 83 82s80 -26 80 -91c0 -69 -34 -145 -80 -201zM495 -5l-215 317h-46v-219c0 -46 5 -93 5 -93h-143v598c0 51 -6 103 -6 103l144 5v-301h58c115 155 146 223 182 295h133c-42 -75 -103 -176 -218 -321
l208 -309c23 -35 51 -70 51 -70z" />
    <glyph glyph-name="Kcommaaccent.sc" horiz-adv-x="593" 
d="M305 -376l-66 39c22 27 37 61 45 94c-37 7 -62 37 -62 77c0 52 39 82 83 82s80 -26 80 -91c0 -69 -34 -145 -80 -201zM92 0v498c0 51 -6 103 -6 103l139 5v-260h39l100 133c62 85 82 120 82 120h112s-24 -60 -112 -169l-91 -112l217 -318h-152l-170 255h-25v-162
c0 -46 5 -93 5 -93h-138z" />
    <glyph glyph-name="L" unicode="L" horiz-adv-x="560" 
d="M96 0v598c0 51 -6 102 -6 102l144 5v-614l215 2c54 -1 94 7 94 7l-5 -100h-442z" />
    <glyph glyph-name="Lacute" unicode="&#x139;" horiz-adv-x="560" 
d="M181 750l-70 73l160 181l97 -100zM96 0v598c0 51 -6 102 -6 102l144 5v-614l215 2c54 -1 94 7 94 7l-5 -100h-442z" />
    <glyph glyph-name="Lacute.sc" horiz-adv-x="527" 
d="M92 0v498c0 51 -6 103 -6 103l139 5v-514l173 3c56 1 111 6 111 6l-5 -101h-412zM173 664l-70 73l160 181l97 -100z" />
    <glyph glyph-name="Lcaron" unicode="&#x13d;" horiz-adv-x="560" 
d="M421 403l-61 50c31 29 61 72 74 112c-35 6 -59 35 -59 73c0 50 37 78 79 78s76 -25 76 -87c0 -81 -50 -175 -109 -226zM96 0v598c0 51 -6 102 -6 102l144 5v-614l215 2c54 -1 94 7 94 7l-5 -100h-442z" />
    <glyph glyph-name="comma" unicode="," horiz-adv-x="275" 
d="M103 -184l-64 53c32 30 64 75 78 117c-37 7 -62 37 -62 77c0 52 39 82 83 82s80 -26 80 -91c0 -86 -53 -184 -115 -238z" />
    <glyph glyph-name="Lcaron.sc" horiz-adv-x="560" 
d="M92 0v498c0 51 -6 103 -6 103l139 5v-514l173 3c56 1 111 6 111 6l-5 -101h-412zM435 317l-66 39c22 27 37 61 45 94c-37 7 -62 37 -62 77c0 52 39 82 83 82s80 -26 80 -91c0 -69 -34 -145 -80 -201z" />
    <glyph glyph-name="Lcommaaccent" unicode="&#x13b;" horiz-adv-x="559" 
d="M307 -376l-66 39c22 27 37 61 45 94c-37 7 -62 37 -62 77c0 52 39 82 83 82s80 -26 80 -91c0 -69 -34 -145 -80 -201zM96 0v598c0 51 -6 102 -6 102l144 5v-614l215 2c54 -1 94 7 94 7l-5 -100h-442z" />
    <glyph glyph-name="Lcommaaccent.sc" horiz-adv-x="525" 
d="M92 0v498c0 51 -6 103 -6 103l139 5v-514l173 3c56 1 111 6 111 6l-5 -101h-412zM278 -376l-66 39c22 27 37 61 45 94c-37 7 -62 37 -62 77c0 52 39 82 83 82s80 -26 80 -91c0 -69 -34 -145 -80 -201z" />
    <glyph glyph-name="Ldot" unicode="&#x13f;" horiz-adv-x="620" 
d="M504 293c-41 0 -77 32 -77 78c0 53 40 81 85 81c46 0 76 -28 76 -75c0 -55 -35 -84 -84 -84zM96 0v598c0 51 -6 102 -6 102l144 5v-614l215 2c54 -1 94 7 94 7l-5 -100h-442z" />
    <glyph glyph-name="Ldot.sc" horiz-adv-x="586" 
d="M92 0v498c0 51 -6 103 -6 103l139 5v-514l173 3c56 1 111 6 111 6l-5 -101h-412zM467 284c-42 0 -79 34 -79 79c0 43 39 79 81 79c44 0 78 -36 78 -79c0 -45 -38 -79 -80 -79z" />
    <glyph glyph-name="Lslash" unicode="&#x141;" horiz-adv-x="572" 
d="M44 190l-39 73l103 58v277c0 51 -6 102 -6 102l144 5v-306l68 39l39 -72l-107 -61v-214l215 2c54 -1 94 7 94 7l-5 -100h-442v226z" />
    <glyph glyph-name="Lslash.sc" horiz-adv-x="540" 
d="M38 155l-34 68l101 55v220c0 51 -6 103 -6 103l139 5v-255l79 44l34 -67l-113 -63v-173l173 3c56 1 111 6 111 6l-5 -101h-412v192z" />
    <glyph glyph-name="M" unicode="M" horiz-adv-x="922" 
d="M96 0v587c0 51 -6 114 -6 114l119 5l211 -321c24 -36 36 -67 36 -67h3s12 28 33 60l210 323l124 5v-613c0 -46 5 -93 5 -93h-139v425c0 64 4 109 4 109l-4 1s-9 -28 -40 -75l-188 -290h-43l-171 257c-36 54 -54 89 -54 89l-3 -1s7 -43 7 -110v-322c0 -36 5 -83 5 -83
h-109z" />
    <glyph glyph-name="M.sc" horiz-adv-x="850" 
d="M92 0v496c0 52 -5 105 -5 105l127 5l210 -336l209 331l125 5v-515c0 -55 5 -91 5 -91h-139v294c0 89 7 140 7 140l-5 1s-14 -39 -52 -99l-145 -224h-42l-148 228c-30 46 -48 85 -48 85l-3 -2s7 -40 7 -111v-222c0 -52 5 -90 5 -90h-108z" />
    <glyph glyph-name="N" unicode="N" horiz-adv-x="755" 
d="M565 -10l-335 459c-15 22 -33 61 -33 61h-3s7 -45 7 -71v-346c0 -46 5 -93 5 -93h-110v598c0 51 -6 103 -6 103l101 5l334 -459c22 -32 32 -55 32 -55l3 1s-5 28 -5 68v337c0 51 -6 103 -6 103l111 5v-706z" />
    <glyph glyph-name="N.sc" horiz-adv-x="716" 
d="M91 0v511c0 30 -5 90 -5 90l110 5l294 -370c16 -21 30 -54 30 -54l5 1s-5 37 -5 61v241c0 63 -5 116 -5 116l110 5v-486c0 -53 4 -120 4 -120h-109l-291 364c-22 30 -34 59 -34 59l-4 -1s5 -31 5 -71v-231c0 -77 5 -120 5 -120h-110z" />
    <glyph glyph-name="Nacute" unicode="&#x143;" horiz-adv-x="755" 
d="M388 752l-70 73l160 181l97 -100zM565 -10l-335 459c-15 22 -33 61 -33 61h-3s7 -45 7 -71v-346c0 -46 5 -93 5 -93h-110v598c0 51 -6 103 -6 103l101 5l334 -459c22 -32 32 -55 32 -55l3 1s-5 28 -5 68v337c0 51 -6 103 -6 103l111 5v-706z" />
    <glyph glyph-name="Nacute.sc" horiz-adv-x="716" 
d="M362 665l-70 73l160 181l97 -100zM91 0v511c0 30 -5 90 -5 90l110 5l294 -370c16 -21 30 -54 30 -54l5 1s-5 37 -5 61v241c0 63 -5 116 -5 116l110 5v-486c0 -53 4 -120 4 -120h-109l-291 364c-22 30 -34 59 -34 59l-4 -1s5 -31 5 -71v-231c0 -77 5 -120 5 -120h-110z
" />
    <glyph glyph-name="thinspace" unicode="&#x2009;" horiz-adv-x="40" 
 />
    <glyph glyph-name="Ncaron" unicode="&#x147;" horiz-adv-x="755" 
d="M485 955l61 -69l-151 -124h-38l-148 118l59 73l108 -74zM565 -10l-335 459c-15 22 -33 61 -33 61h-3s7 -45 7 -71v-346c0 -46 5 -93 5 -93h-110v598c0 51 -6 103 -6 103l101 5l334 -459c22 -32 32 -55 32 -55l3 1s-5 28 -5 68v337c0 51 -6 103 -6 103l111 5v-706z" />
    <glyph glyph-name="Ncaron.sc" horiz-adv-x="716" 
d="M475 858l61 -69l-151 -124h-38l-148 118l59 73l108 -74zM91 0v511c0 30 -5 90 -5 90l110 5l294 -370c16 -21 30 -54 30 -54l5 1s-5 37 -5 61v241c0 63 -5 116 -5 116l110 5v-486c0 -53 4 -120 4 -120h-109l-291 364c-22 30 -34 59 -34 59l-4 -1s5 -31 5 -71v-231
c0 -77 5 -120 5 -120h-110z" />
    <glyph glyph-name="Ncommaaccent" unicode="&#x145;" horiz-adv-x="755" 
d="M373 -376l-66 39c22 27 37 61 45 94c-37 7 -62 37 -62 77c0 52 39 82 83 82s80 -26 80 -91c0 -69 -34 -145 -80 -201zM565 -10l-335 459c-15 22 -33 61 -33 61h-3s7 -45 7 -71v-346c0 -46 5 -93 5 -93h-110v598c0 51 -6 103 -6 103l101 5l334 -459c22 -32 32 -55 32 -55
l3 1s-5 28 -5 68v337c0 51 -6 103 -6 103l111 5v-706z" />
    <glyph glyph-name="Ncommaaccent.sc" horiz-adv-x="717" 
d="M353 -376l-66 39c22 27 37 61 45 94c-37 7 -62 37 -62 77c0 52 39 82 83 82s80 -26 80 -91c0 -69 -34 -145 -80 -201zM91 0v511c0 30 -5 90 -5 90l110 5l294 -370c16 -21 30 -54 30 -54l5 1s-5 37 -5 61v241c0 63 -5 116 -5 116l110 5v-486c0 -53 4 -120 4 -120h-109
l-291 364c-22 30 -34 59 -34 59l-4 -1s5 -31 5 -71v-231c0 -77 5 -120 5 -120h-110z" />
    <glyph glyph-name="Ntilde" unicode="&#xd1;" horiz-adv-x="755" 
d="M565 -10l-335 459c-15 22 -33 61 -33 61h-3s7 -45 7 -71v-346c0 -46 5 -93 5 -93h-110v598c0 51 -6 103 -6 103l101 5l334 -459c22 -32 32 -55 32 -55l3 1s-5 28 -5 68v337c0 51 -6 103 -6 103l111 5v-706zM462 770c-65 0 -87 36 -123 36c-24 0 -39 -22 -44 -39l-82 20
c10 58 53 119 124 119c68 0 88 -36 122 -36c22 0 35 23 38 39l80 -20c-13 -79 -64 -119 -115 -119z" />
    <glyph glyph-name="Ntilde.sc" horiz-adv-x="716" 
d="M91 0v511c0 30 -5 90 -5 90l110 5l294 -370c16 -21 30 -54 30 -54l5 1s-5 37 -5 61v241c0 63 -5 116 -5 116l110 5v-486c0 -53 4 -120 4 -120h-109l-291 364c-22 30 -34 59 -34 59l-4 -1s5 -31 5 -71v-231c0 -77 5 -120 5 -120h-110zM438 671c-65 0 -87 36 -123 36
c-24 0 -39 -22 -44 -39l-82 20c10 58 53 119 124 119c68 0 88 -36 122 -36c22 0 35 23 38 39l80 -20c-13 -79 -64 -119 -115 -119z" />
    <glyph glyph-name="O" unicode="O" horiz-adv-x="759" 
d="M388 80c121 0 172 104 172 258c0 145 -42 282 -189 282c-121 0 -172 -104 -172 -258c0 -145 42 -282 189 -282zM368 -10c-204 0 -311 169 -311 347c0 220 110 373 334 373c204 0 311 -169 311 -347c0 -220 -110 -373 -334 -373z" />
    <glyph glyph-name="O.sc" horiz-adv-x="697" 
d="M361 81c91 0 142 81 142 192c0 145 -42 246 -169 246c-94 0 -141 -85 -141 -196c0 -145 45 -242 168 -242zM338 -10c-179 0 -281 125 -281 305c0 154 82 315 301 315c180 0 282 -129 282 -309c0 -154 -82 -311 -302 -311z" />
    <glyph glyph-name="OE" unicode="&#x152;" horiz-adv-x="1004" 
d="M388 -10c-231 0 -330 169 -330 347c0 220 100 373 330 373c62 0 109 -8 124 -10h437l-5 -99l-304 9v-210l259 5l-5 -106l-254 8v-216l309 9l-5 -100h-428c-5 -1 -75 -10 -128 -10zM406 82c40 0 77 5 96 9v513c-18 6 -51 16 -94 16c-145 0 -208 -104 -208 -258
c0 -169 83 -280 206 -280z" />
    <glyph glyph-name="OE.sc" horiz-adv-x="966" 
d="M338 -10c-179 0 -281 125 -281 305c0 154 94 315 290 315c68 0 117 -18 154 -44v35h412l-5 -96s-62 6 -119 7l-155 1v-169l214 3l-5 -95l-209 4v-169l168 2c54 1 116 7 116 7l-5 -96h-412v37c-45 -33 -95 -47 -163 -47zM356 83c72 0 118 31 145 69v271
c-33 53 -78 96 -146 96c-121 0 -162 -97 -162 -215c0 -113 48 -221 163 -221z" />
    <glyph glyph-name="Oacute" unicode="&#xd3;" horiz-adv-x="759" 
d="M370 750l-70 73l160 181l97 -100zM388 80c121 0 172 104 172 258c0 145 -42 282 -189 282c-121 0 -172 -104 -172 -258c0 -145 42 -282 189 -282zM368 -10c-204 0 -311 169 -311 347c0 220 110 373 334 373c204 0 311 -169 311 -347c0 -220 -110 -373 -334 -373z" />
    <glyph glyph-name="Oacute.sc" horiz-adv-x="697" 
d="M361 81c91 0 142 81 142 192c0 145 -42 246 -169 246c-94 0 -141 -85 -141 -196c0 -145 45 -242 168 -242zM338 -10c-179 0 -281 125 -281 305c0 154 82 315 301 315c180 0 282 -129 282 -309c0 -154 -82 -311 -302 -311zM360 664l-70 73l160 181l97 -100z" />
    <glyph glyph-name="Obreve" unicode="&#x14e;" horiz-adv-x="759" 
d="M388 80c121 0 172 104 172 258c0 145 -42 282 -189 282c-121 0 -172 -104 -172 -258c0 -145 42 -282 189 -282zM368 -10c-204 0 -311 169 -311 347c0 220 110 373 334 373c204 0 311 -169 311 -347c0 -220 -110 -373 -334 -373zM366 778c-75 0 -137 45 -160 130l90 36
c1 -1 18 -54 70 -54c54 0 68 53 70 54l92 -37c-23 -85 -93 -129 -162 -129z" />
    <glyph glyph-name="Obreve.sc" horiz-adv-x="697" 
d="M361 81c91 0 142 81 142 192c0 145 -42 246 -169 246c-94 0 -141 -85 -141 -196c0 -145 45 -242 168 -242zM338 -10c-179 0 -281 125 -281 305c0 154 82 315 301 315c180 0 282 -129 282 -309c0 -154 -82 -311 -302 -311zM360 664c-75 0 -137 45 -160 130l90 36
c1 -1 18 -54 70 -54c54 0 68 53 70 54l92 -37c-23 -85 -93 -129 -162 -129z" />
    <glyph glyph-name="Ocircumflex" unicode="&#xd4;" horiz-adv-x="759" 
d="M267 757l-61 69l151 124h38l148 -118l-59 -73l-108 74zM388 80c121 0 172 104 172 258c0 145 -42 282 -189 282c-121 0 -172 -104 -172 -258c0 -145 42 -282 189 -282zM368 -10c-204 0 -311 169 -311 347c0 220 110 373 334 373c204 0 311 -169 311 -347
c0 -220 -110 -373 -334 -373z" />
    <glyph glyph-name="Ocircumflex.sc" horiz-adv-x="697" 
d="M236 654l-61 69l151 124h38l148 -118l-59 -73l-108 74zM361 81c91 0 142 81 142 192c0 145 -42 246 -169 246c-94 0 -141 -85 -141 -196c0 -145 45 -242 168 -242zM338 -10c-179 0 -281 125 -281 305c0 154 82 315 301 315c180 0 282 -129 282 -309
c0 -154 -82 -311 -302 -311z" />
    <glyph glyph-name="Odieresis" unicode="&#xd6;" horiz-adv-x="759" 
d="M262 775c-44 0 -77 31 -77 81c0 53 37 82 84 82c48 0 76 -29 76 -78c0 -55 -33 -85 -83 -85zM470 775c-44 0 -77 31 -77 81c0 53 37 82 84 82c48 0 76 -29 76 -78c0 -55 -33 -85 -83 -85zM388 80c121 0 172 104 172 258c0 145 -42 282 -189 282
c-121 0 -172 -104 -172 -258c0 -145 42 -282 189 -282zM368 -10c-204 0 -311 169 -311 347c0 220 110 373 334 373c204 0 311 -169 311 -347c0 -220 -110 -373 -334 -373z" />
    <glyph glyph-name="Odieresis.sc" horiz-adv-x="697" 
d="M231 661c-44 0 -77 31 -77 81c0 53 37 82 84 82c48 0 76 -29 76 -78c0 -55 -33 -85 -83 -85zM439 661c-44 0 -77 31 -77 81c0 53 37 82 84 82c48 0 76 -29 76 -78c0 -55 -33 -85 -83 -85zM361 81c91 0 142 81 142 192c0 145 -42 246 -169 246c-94 0 -141 -85 -141 -196
c0 -145 45 -242 168 -242zM338 -10c-179 0 -281 125 -281 305c0 154 82 315 301 315c180 0 282 -129 282 -309c0 -154 -82 -311 -302 -311z" />
    <glyph glyph-name="Ograve" unicode="&#xd2;" horiz-adv-x="759" 
d="M388 80c121 0 172 104 172 258c0 145 -42 282 -189 282c-121 0 -172 -104 -172 -258c0 -145 42 -282 189 -282zM368 -10c-204 0 -311 169 -311 347c0 220 110 373 334 373c204 0 311 -169 311 -347c0 -220 -110 -373 -334 -373zM414 749l-187 154l96 101l160 -181z" />
    <glyph glyph-name="Ograve.sc" horiz-adv-x="697" 
d="M361 81c91 0 142 81 142 192c0 145 -42 246 -169 246c-94 0 -141 -85 -141 -196c0 -145 45 -242 168 -242zM338 -10c-179 0 -281 125 -281 305c0 154 82 315 301 315c180 0 282 -129 282 -309c0 -154 -82 -311 -302 -311zM386 661l-187 154l96 101l160 -181z" />
    <glyph glyph-name="Ohungarumlaut" unicode="&#x150;" horiz-adv-x="759" 
d="M295 750l-66 70l160 181l93 -97zM484 750l-66 70l160 181l93 -97zM388 80c121 0 172 104 172 258c0 145 -42 282 -189 282c-121 0 -172 -104 -172 -258c0 -145 42 -282 189 -282zM368 -10c-204 0 -311 169 -311 347c0 220 110 373 334 373c204 0 311 -169 311 -347
c0 -220 -110 -373 -334 -373z" />
    <glyph glyph-name="hungarumlaut" unicode="&#x2dd;" horiz-adv-x="507" 
d="M110 488l-66 70l160 181l93 -97zM299 488l-66 70l160 181l93 -97z" />
    <glyph glyph-name="Ohungarumlaut.sc" horiz-adv-x="697" 
d="M361 81c91 0 142 81 142 192c0 145 -42 246 -169 246c-94 0 -141 -85 -141 -196c0 -145 45 -242 168 -242zM338 -10c-179 0 -281 125 -281 305c0 154 82 315 301 315c180 0 282 -129 282 -309c0 -154 -82 -311 -302 -311zM267 653l-66 70l160 181l93 -97zM456 653l-66 70
l160 181l93 -97z" />
    <glyph glyph-name="Omacron" unicode="&#x14c;" horiz-adv-x="759" 
d="M231 776v104h274v-104h-274zM388 80c121 0 172 104 172 258c0 145 -42 282 -189 282c-121 0 -172 -104 -172 -258c0 -145 42 -282 189 -282zM368 -10c-204 0 -311 169 -311 347c0 220 110 373 334 373c204 0 311 -169 311 -347c0 -220 -110 -373 -334 -373z" />
    <glyph glyph-name="Omacron.sc" horiz-adv-x="697" 
d="M361 81c91 0 142 81 142 192c0 145 -42 246 -169 246c-94 0 -141 -85 -141 -196c0 -145 45 -242 168 -242zM338 -10c-179 0 -281 125 -281 305c0 154 82 315 301 315c180 0 282 -129 282 -309c0 -154 -82 -311 -302 -311zM212 666v104h274v-104h-274z" />
    <glyph glyph-name="Oslash" unicode="&#xd8;" horiz-adv-x="759" 
d="M154 -70l-87 55l75 103c-56 65 -85 156 -85 249c0 220 110 373 334 373c60 0 112 -15 155 -41l53 75l85 -55l-61 -86c52 -64 79 -151 79 -240c0 -220 -110 -373 -334 -373c-57 0 -107 13 -148 36zM199 362c0 -59 7 -117 25 -165l263 380c-28 27 -66 43 -116 43
c-121 0 -172 -104 -172 -258zM388 80c121 0 172 104 172 258c0 53 -6 105 -20 150l-260 -373c27 -22 62 -35 108 -35z" />
    <glyph glyph-name="Oslash.sc" horiz-adv-x="697" 
d="M161 -64l-69 49l52 75c-57 54 -87 136 -87 235c0 154 82 315 301 315c57 0 106 -13 146 -36l55 78l69 -50l-58 -83c46 -55 70 -130 70 -218c0 -154 -82 -311 -302 -311c-46 0 -87 9 -123 24zM193 323c0 -62 8 -115 27 -155l220 314c-26 24 -61 37 -106 37
c-94 0 -141 -85 -141 -196zM361 81c91 0 142 81 142 192c0 48 -5 91 -16 128l-210 -300c22 -13 50 -20 84 -20z" />
    <glyph glyph-name="Oslashacute" unicode="&#x1fe;" horiz-adv-x="759" 
d="M154 -70l-87 55l75 103c-56 65 -85 156 -85 249c0 220 110 373 334 373c60 0 112 -15 155 -41l53 75l85 -55l-61 -86c52 -64 79 -151 79 -240c0 -220 -110 -373 -334 -373c-57 0 -107 13 -148 36zM199 362c0 -59 7 -117 25 -165l263 380c-28 27 -66 43 -116 43
c-121 0 -172 -104 -172 -258zM388 80c121 0 172 104 172 258c0 53 -6 105 -20 150l-260 -373c27 -22 62 -35 108 -35zM388 751l-70 73l160 181l97 -100z" />
    <glyph glyph-name="Oslashacute.sc" horiz-adv-x="697" 
d="M361 663l-70 73l160 181l97 -100zM361 81c91 0 142 81 142 192c0 145 -42 246 -169 246c-94 0 -141 -85 -141 -196c0 -145 45 -242 168 -242zM338 -10c-179 0 -281 125 -281 305c0 154 82 315 301 315c180 0 282 -129 282 -309c0 -154 -82 -311 -302 -311z" />
    <glyph glyph-name="Otilde" unicode="&#xd5;" horiz-adv-x="759" 
d="M388 80c121 0 172 104 172 258c0 145 -42 282 -189 282c-121 0 -172 -104 -172 -258c0 -145 42 -282 189 -282zM368 -10c-204 0 -311 169 -311 347c0 220 110 373 334 373c204 0 311 -169 311 -347c0 -220 -110 -373 -334 -373zM456 761c-65 0 -87 36 -123 36
c-24 0 -39 -22 -44 -39l-82 20c10 58 53 119 124 119c68 0 88 -36 122 -36c22 0 35 23 38 39l80 -20c-13 -79 -64 -119 -115 -119z" />
    <glyph glyph-name="Otilde.sc" horiz-adv-x="697" 
d="M361 81c91 0 142 81 142 192c0 145 -42 246 -169 246c-94 0 -141 -85 -141 -196c0 -145 45 -242 168 -242zM338 -10c-179 0 -281 125 -281 305c0 154 82 315 301 315c180 0 282 -129 282 -309c0 -154 -82 -311 -302 -311zM419 657c-65 0 -87 36 -123 36
c-24 0 -39 -22 -44 -39l-82 20c10 58 53 119 124 119c68 0 88 -36 122 -36c22 0 35 23 38 39l80 -20c-13 -79 -64 -119 -115 -119z" />
    <glyph glyph-name="P" unicode="P" horiz-adv-x="605" 
d="M96 0v598c0 51 -6 102 -6 102h216c173 0 263 -101 263 -209c0 -133 -102 -244 -269 -244h-66v-154c0 -46 5 -93 5 -93h-143zM234 340h50c101 0 145 58 145 146c0 70 -45 122 -137 122h-58v-268z" />
    <glyph glyph-name="P.sc" horiz-adv-x="587" 
d="M92 0v498c0 51 -6 103 -6 103h221c172 0 238 -94 238 -212c0 -131 -87 -222 -253 -222h-67v-74c0 -46 5 -93 5 -93h-138zM225 262h62c81 0 123 35 123 127c0 78 -31 117 -117 117h-68v-244z" />
    <glyph glyph-name="Q" unicode="Q" horiz-adv-x="740" 
d="M359 -10c-204 0 -301 169 -301 347c0 220 100 373 324 373c204 0 301 -169 301 -347c0 -140 -40 -252 -127 -316l105 -154c28 -40 58 -76 58 -76l-147 -5l-122 188c-28 -7 -58 -10 -91 -10zM379 79c121 0 162 105 162 259c0 145 -32 283 -179 283
c-121 0 -162 -105 -162 -259c0 -145 32 -283 179 -283z" />
    <glyph glyph-name="Q.sc" horiz-adv-x="697" 
d="M338 -10c-179 0 -281 125 -281 305c0 154 82 315 301 315c180 0 282 -129 282 -309c0 -111 -42 -223 -148 -278l93 -148c24 -38 52 -68 52 -68l-140 -5l-112 191c-15 -2 -31 -3 -47 -3zM361 81c91 0 142 81 142 192c0 145 -42 246 -169 246c-94 0 -141 -85 -141 -196
c0 -145 45 -242 168 -242z" />
    <glyph glyph-name="R" unicode="R" horiz-adv-x="647" 
d="M463 -5l-146 252h-83v-154c0 -46 5 -93 5 -93h-143v598c0 51 -6 102 -6 102h216c173 0 273 -85 273 -222c0 -89 -65 -156 -144 -183l130 -219c24 -40 52 -76 52 -76zM234 338h38c117 0 167 60 167 145c0 77 -51 125 -147 125h-58v-270z" />
    <glyph glyph-name="R.sc" horiz-adv-x="616" 
d="M435 -5l-125 215s-13 -3 -42 -3h-43v-114c0 -46 5 -93 5 -93h-138v498c0 51 -6 103 -6 103h211c150 0 238 -74 238 -192c0 -77 -39 -134 -108 -162l108 -171c24 -40 52 -76 52 -76zM225 302h52c81 0 123 37 123 107c0 54 -25 97 -117 97h-58v-204z" />
    <glyph glyph-name="Racute" unicode="&#x154;" horiz-adv-x="647" 
d="M312 750l-70 73l160 181l97 -100zM463 -5l-146 252h-83v-154c0 -46 5 -93 5 -93h-143v598c0 51 -6 102 -6 102h216c173 0 273 -85 273 -222c0 -89 -65 -156 -144 -183l130 -219c24 -40 52 -76 52 -76zM234 338h38c117 0 167 60 167 145c0 77 -51 125 -147 125h-58v-270z
" />
    <glyph glyph-name="Racute.sc" horiz-adv-x="616" 
d="M306 664l-70 73l160 181l97 -100zM435 -5l-125 215s-13 -3 -42 -3h-43v-114c0 -46 5 -93 5 -93h-138v498c0 51 -6 103 -6 103h211c150 0 238 -74 238 -192c0 -77 -39 -134 -108 -162l108 -171c24 -40 52 -76 52 -76zM225 302h52c81 0 123 37 123 107c0 54 -25 97 -117 97
h-58v-204z" />
    <glyph glyph-name="Rcaron" unicode="&#x158;" horiz-adv-x="647" 
d="M412 956l61 -69l-151 -124h-38l-148 118l59 73l108 -74zM463 -5l-146 252h-83v-154c0 -46 5 -93 5 -93h-143v598c0 51 -6 102 -6 102h216c173 0 273 -85 273 -222c0 -89 -65 -156 -144 -183l130 -219c24 -40 52 -76 52 -76zM234 338h38c117 0 167 60 167 145
c0 77 -51 125 -147 125h-58v-270z" />
    <glyph glyph-name="Rcaron.sc" horiz-adv-x="616" 
d="M400 855l61 -69l-151 -124h-38l-148 118l59 73l108 -74zM435 -5l-125 215s-13 -3 -42 -3h-43v-114c0 -46 5 -93 5 -93h-138v498c0 51 -6 103 -6 103h211c150 0 238 -74 238 -192c0 -77 -39 -134 -108 -162l108 -171c24 -40 52 -76 52 -76zM225 302h52
c81 0 123 37 123 107c0 54 -25 97 -117 97h-58v-204z" />
    <glyph glyph-name="Rcommaaccent" unicode="&#x156;" horiz-adv-x="647" 
d="M334 -376l-66 39c22 27 37 61 45 94c-37 7 -62 37 -62 77c0 52 39 82 83 82s80 -26 80 -91c0 -69 -34 -145 -80 -201zM463 -5l-146 252h-83v-154c0 -46 5 -93 5 -93h-143v598c0 51 -6 102 -6 102h216c173 0 273 -85 273 -222c0 -89 -65 -156 -144 -183l130 -219
c24 -40 52 -76 52 -76zM234 338h38c117 0 167 60 167 145c0 77 -51 125 -147 125h-58v-270z" />
    <glyph glyph-name="Rcommaaccent.sc" horiz-adv-x="616" 
d="M304 -376l-66 39c22 27 37 61 45 94c-37 7 -62 37 -62 77c0 52 39 82 83 82s80 -26 80 -91c0 -69 -34 -145 -80 -201zM435 -5l-125 215s-13 -3 -42 -3h-43v-114c0 -46 5 -93 5 -93h-138v498c0 51 -6 103 -6 103h211c150 0 238 -74 238 -192c0 -77 -39 -134 -108 -162
l108 -171c24 -40 52 -76 52 -76zM225 302h52c81 0 123 37 123 107c0 54 -25 97 -117 97h-58v-204z" />
    <glyph glyph-name="S" unicode="S" horiz-adv-x="549" 
d="M231 -10c-111 0 -169 25 -169 25v97s73 -23 169 -23c97 0 130 48 130 91c0 48 -10 86 -118 124c-117 42 -182 100 -182 207c0 124 91 202 225 202c84 0 125 -14 192 -20l-16 -100c-62 4 -106 20 -156 20c-76 0 -108 -35 -108 -89c0 -46 23 -82 112 -116
c135 -52 188 -107 188 -218c0 -125 -97 -200 -267 -200z" />
    <glyph glyph-name="S.sc" horiz-adv-x="520" 
d="M247 -11c-120 0 -191 39 -191 39l28 90c46 -19 107 -34 163 -34c69 0 92 24 92 64c0 50 -42 76 -138 111c-92 33 -145 97 -145 174c0 112 84 177 212 177c90 0 132 -22 182 -36l-37 -98c-48 13 -93 39 -161 39c-40 0 -67 -27 -67 -61c0 -55 43 -75 112 -101
c116 -44 173 -88 173 -186c0 -106 -83 -178 -223 -178z" />
    <glyph glyph-name="Sacute" unicode="&#x15a;" horiz-adv-x="549" 
d="M273 750l-70 73l160 181l97 -100zM231 -10c-111 0 -169 25 -169 25v97s73 -23 169 -23c97 0 130 48 130 91c0 48 -10 86 -118 124c-117 42 -182 100 -182 207c0 124 91 202 225 202c84 0 125 -14 192 -20l-16 -100c-62 4 -106 20 -156 20c-76 0 -108 -35 -108 -89
c0 -46 23 -82 112 -116c135 -52 188 -107 188 -218c0 -125 -97 -200 -267 -200z" />
    <glyph glyph-name="Sacute.sc" horiz-adv-x="520" 
d="M271 664l-70 73l160 181l97 -100zM247 -11c-120 0 -191 39 -191 39l28 90c46 -19 107 -34 163 -34c69 0 92 24 92 64c0 50 -42 76 -138 111c-92 33 -145 97 -145 174c0 112 84 177 212 177c90 0 132 -22 182 -36l-37 -98c-48 13 -93 39 -161 39c-40 0 -67 -27 -67 -61
c0 -55 43 -75 112 -101c116 -44 173 -88 173 -186c0 -106 -83 -178 -223 -178z" />
    <glyph glyph-name="Scaron" unicode="&#x160;" horiz-adv-x="549" 
d="M398 956l61 -69l-151 -124h-38l-148 118l59 73l108 -74zM231 -10c-111 0 -169 25 -169 25v97s73 -23 169 -23c97 0 130 48 130 91c0 48 -10 86 -118 124c-117 42 -182 100 -182 207c0 124 91 202 225 202c84 0 125 -14 192 -20l-16 -100c-62 4 -106 20 -156 20
c-76 0 -108 -35 -108 -89c0 -46 23 -82 112 -116c135 -52 188 -107 188 -218c0 -125 -97 -200 -267 -200z" />
    <glyph glyph-name="Scaron.sc" horiz-adv-x="520" 
d="M375 855l61 -69l-151 -124h-38l-148 118l59 73l108 -74zM247 -11c-120 0 -191 39 -191 39l28 90c46 -19 107 -34 163 -34c69 0 92 24 92 64c0 50 -42 76 -138 111c-92 33 -145 97 -145 174c0 112 84 177 212 177c90 0 132 -22 182 -36l-37 -98c-48 13 -93 39 -161 39
c-40 0 -67 -27 -67 -61c0 -55 43 -75 112 -101c116 -44 173 -88 173 -186c0 -106 -83 -178 -223 -178z" />
    <glyph glyph-name="Scedilla" unicode="&#x15e;" horiz-adv-x="550" 
d="M250 -218c-41 0 -77 5 -116 20l24 61c27 -7 60 -10 76 -10c25 0 33 8 33 22c0 16 -24 26 -58 9l-13 15l32 91c-108 1 -165 25 -165 25v97s73 -23 169 -23c97 0 130 48 130 91c0 48 -10 86 -118 124c-117 42 -182 100 -182 207c0 124 91 202 225 202c84 0 125 -14 192 -20
l-16 -100c-62 4 -106 20 -156 20c-76 0 -108 -35 -108 -89c0 -46 23 -82 112 -116c135 -52 188 -107 188 -218c0 -110 -75 -181 -208 -196v-44c53 -5 88 -30 88 -76c0 -55 -52 -92 -129 -92z" />
    <glyph glyph-name="Scedilla.sc" horiz-adv-x="521" 
d="M252 -200c-41 0 -77 5 -116 20l24 61c27 -7 60 -10 76 -10c25 0 33 8 33 22c0 16 -24 26 -58 9l-13 15l26 73c-106 4 -167 38 -167 38l28 90c46 -19 107 -34 163 -34c69 0 92 24 92 64c0 50 -42 76 -138 111c-92 33 -145 97 -145 174c0 112 84 177 212 177
c90 0 132 -22 182 -36l-37 -98c-48 13 -93 39 -161 39c-40 0 -67 -27 -67 -61c0 -55 43 -75 112 -101c116 -44 173 -88 173 -186c0 -94 -66 -162 -178 -175v-24c53 -5 88 -30 88 -76c0 -55 -52 -92 -129 -92z" />
    <glyph glyph-name="Scircumflex" unicode="&#x15c;" horiz-adv-x="549" 
d="M179 764l-61 69l151 124h38l148 -118l-59 -73l-108 74zM231 -10c-111 0 -169 25 -169 25v97s73 -23 169 -23c97 0 130 48 130 91c0 48 -10 86 -118 124c-117 42 -182 100 -182 207c0 124 91 202 225 202c84 0 125 -14 192 -20l-16 -100c-62 4 -106 20 -156 20
c-76 0 -108 -35 -108 -89c0 -46 23 -82 112 -116c135 -52 188 -107 188 -218c0 -125 -97 -200 -267 -200z" />
    <glyph glyph-name="Scircumflex.sc" horiz-adv-x="520" 
d="M154 654l-61 69l151 124h38l148 -118l-59 -73l-108 74zM247 -11c-120 0 -191 39 -191 39l28 90c46 -19 107 -34 163 -34c69 0 92 24 92 64c0 50 -42 76 -138 111c-92 33 -145 97 -145 174c0 112 84 177 212 177c90 0 132 -22 182 -36l-37 -98c-48 13 -93 39 -161 39
c-40 0 -67 -27 -67 -61c0 -55 43 -75 112 -101c116 -44 173 -88 173 -186c0 -106 -83 -178 -223 -178z" />
    <glyph glyph-name="Scommaaccent" unicode="&#x218;" horiz-adv-x="549" 
d="M273 -376l-66 39c22 27 37 61 45 94c-37 7 -62 37 -62 77c0 52 39 82 83 82s80 -26 80 -91c0 -69 -34 -145 -80 -201zM231 -10c-111 0 -169 25 -169 25v97s73 -23 169 -23c97 0 130 48 130 91c0 48 -10 86 -118 124c-117 42 -182 100 -182 207c0 124 91 202 225 202
c84 0 125 -14 192 -20l-16 -100c-62 4 -106 20 -156 20c-76 0 -108 -35 -108 -89c0 -46 23 -82 112 -116c135 -52 188 -107 188 -218c0 -125 -97 -200 -267 -200z" />
    <glyph glyph-name="Scommaaccent.sc" horiz-adv-x="519" 
d="M250 -376l-66 39c22 27 37 61 45 94c-37 7 -62 37 -62 77c0 52 39 82 83 82s80 -26 80 -91c0 -69 -34 -145 -80 -201zM247 -11c-120 0 -191 39 -191 39l28 90c46 -19 107 -34 163 -34c69 0 92 24 92 64c0 50 -42 76 -138 111c-92 33 -145 97 -145 174
c0 112 84 177 212 177c90 0 132 -22 182 -36l-37 -98c-48 13 -93 39 -161 39c-40 0 -67 -27 -67 -61c0 -55 43 -75 112 -101c116 -44 173 -88 173 -186c0 -106 -83 -178 -223 -178z" />
    <glyph glyph-name="T" unicode="T" horiz-adv-x="589" 
d="M227 0v605l-117 2c-41 1 -87 -7 -87 -7l5 100h540l-4 -99s-32 3 -80 4h-119v-512c0 -46 5 -93 5 -93h-143z" />
    <glyph glyph-name="T.sc" horiz-adv-x="552" 
d="M206 0v508l-106 -2c-33 -1 -77 -6 -77 -6l5 101h502l-5 -101s-47 5 -70 6l-116 2v-415c0 -46 5 -93 5 -93h-138z" />
    <glyph glyph-name="Tbar" unicode="&#x166;" horiz-adv-x="609" 
d="M115 305v94h120v206l-117 2c-41 1 -87 -7 -87 -7l5 100h540l-4 -99s-32 3 -80 4h-119v-206h140v-94h-140v-212c0 -46 5 -93 5 -93h-143v305h-120z" />
    <glyph glyph-name="Tbar.sc" horiz-adv-x="552" 
d="M106 247v82h100v179l-106 -2c-33 -1 -77 -6 -77 -6l5 101h502l-5 -101s-47 5 -70 6l-116 2v-179h101v-82h-101v-154c0 -46 5 -93 5 -93h-138v247h-100z" />
    <glyph glyph-name="Tcaron" unicode="&#x164;" horiz-adv-x="589" 
d="M406 956l61 -69l-151 -124h-38l-148 118l59 73l108 -74zM227 0v605l-117 2c-41 1 -87 -7 -87 -7l5 100h540l-4 -99s-32 3 -80 4h-119v-512c0 -46 5 -93 5 -93h-143z" />
    <glyph glyph-name="Tcaron.sc" horiz-adv-x="552" 
d="M206 0v508l-106 -2c-33 -1 -77 -6 -77 -6l5 101h502l-5 -101s-47 5 -70 6l-116 2v-415c0 -46 5 -93 5 -93h-138zM385 855l61 -69l-151 -124h-38l-148 118l59 73l108 -74z" />
    <glyph glyph-name="Tcommaaccent" unicode="&#x162;" horiz-adv-x="588" 
d="M297 -375l-66 39c22 27 37 61 45 94c-37 7 -62 37 -62 77c0 52 39 82 83 82s80 -26 80 -91c0 -69 -34 -145 -80 -201zM226 0v605l-117 2c-41 1 -87 -7 -87 -7l5 100h540l-4 -99s-32 3 -80 4h-119v-512c0 -46 5 -93 5 -93h-143z" />
    <glyph glyph-name="Tcommaaccent.sc" horiz-adv-x="549" 
d="M205 0v508l-106 -2c-33 -1 -77 -6 -77 -6l5 101h502l-5 -101s-47 5 -70 6l-116 2v-415c0 -46 5 -93 5 -93h-138zM271 -376l-66 39c22 27 37 61 45 94c-37 7 -62 37 -62 77c0 52 39 82 83 82s80 -26 80 -91c0 -69 -34 -145 -80 -201z" />
    <glyph glyph-name="Thorn" unicode="&#xde;" horiz-adv-x="605" 
d="M96 0v598c0 51 -6 102 -6 102h144v-104h72c173 0 263 -97 263 -237c0 -125 -102 -236 -253 -236h-82v-30c0 -46 5 -93 5 -93h-143zM292 501h-58v-282h54c99 0 141 64 141 139c0 112 -63 143 -137 143z" />
    <glyph glyph-name="Thorn.sc" horiz-adv-x="581" 
d="M92 0v498c0 51 -6 103 -6 103h139v-64h72c172 0 238 -104 238 -222c0 -131 -87 -232 -253 -232h-57v-16c0 -46 5 -67 5 -67h-138zM278 447h-53v-274h47c81 0 128 50 128 142c0 78 -36 132 -122 132z" />
    <glyph glyph-name="U" unicode="U" horiz-adv-x="752" 
d="M374 -14c-170 0 -285 102 -285 294v318c0 51 -6 103 -6 103l144 5v-425c0 -140 54 -200 162 -200c95 0 167 60 167 200v317c0 51 -6 103 -6 103l114 5v-425c0 -185 -99 -295 -290 -295z" />
    <glyph glyph-name="U.sc" horiz-adv-x="699" 
d="M350 -11c-160 0 -265 96 -265 267v243c0 59 -6 101 -6 101h144v-335c0 -98 28 -175 136 -175c110 0 146 77 146 178v231c0 60 -6 101 -6 101h116v-327c0 -164 -88 -284 -265 -284z" />
    <glyph glyph-name="Uacute" unicode="&#xda;" horiz-adv-x="753" 
d="M378 750l-70 73l160 181l97 -100zM374 -14c-170 0 -285 102 -285 294v318c0 51 -6 103 -6 103l144 5v-425c0 -140 54 -200 162 -200c95 0 167 60 167 200v317c0 51 -6 103 -6 103l114 5v-425c0 -185 -99 -295 -290 -295z" />
    <glyph glyph-name="Uacute.sc" horiz-adv-x="699" 
d="M368 660l-70 73l160 181l97 -100zM350 -11c-160 0 -265 96 -265 267v243c0 59 -6 101 -6 101h144v-335c0 -98 28 -175 136 -175c110 0 146 77 146 178v231c0 60 -6 101 -6 101h116v-327c0 -164 -88 -284 -265 -284z" />
    <glyph glyph-name="Ubreve" unicode="&#x16c;" horiz-adv-x="753" 
d="M374 -14c-170 0 -285 102 -285 294v318c0 51 -6 103 -6 103l144 5v-425c0 -140 54 -200 162 -200c95 0 167 60 167 200v317c0 51 -6 103 -6 103l114 5v-425c0 -185 -99 -295 -290 -295zM380 767c-75 0 -137 45 -160 130l90 36c1 -1 18 -54 70 -54c54 0 68 53 70 54
l92 -37c-23 -85 -93 -129 -162 -129z" />
    <glyph glyph-name="Ubreve.sc" horiz-adv-x="699" 
d="M350 -11c-160 0 -265 96 -265 267v243c0 59 -6 101 -6 101h144v-335c0 -98 28 -175 136 -175c110 0 146 77 146 178v231c0 60 -6 101 -6 101h116v-327c0 -164 -88 -284 -265 -284zM364 662c-75 0 -137 45 -160 130l90 36c1 -1 18 -54 70 -54c54 0 68 53 70 54l92 -37
c-23 -85 -93 -129 -162 -129z" />
    <glyph glyph-name="Ucircumflex" unicode="&#xdb;" horiz-adv-x="753" 
d="M276 756l-61 69l151 124h38l148 -118l-59 -73l-108 74zM374 -14c-170 0 -285 102 -285 294v318c0 51 -6 103 -6 103l144 5v-425c0 -140 54 -200 162 -200c95 0 167 60 167 200v317c0 51 -6 103 -6 103l114 5v-425c0 -185 -99 -295 -290 -295z" />
    <glyph glyph-name="Ucircumflex.sc" horiz-adv-x="699" 
d="M256 654l-61 69l151 124h38l148 -118l-59 -73l-108 74zM350 -11c-160 0 -265 96 -265 267v243c0 59 -6 101 -6 101h144v-335c0 -98 28 -175 136 -175c110 0 146 77 146 178v231c0 60 -6 101 -6 101h116v-327c0 -164 -88 -284 -265 -284z" />
    <glyph glyph-name="Udieresis" unicode="&#xdc;" horiz-adv-x="753" 
d="M273 775c-44 0 -77 31 -77 81c0 53 37 82 84 82c48 0 76 -29 76 -78c0 -55 -33 -85 -83 -85zM481 775c-44 0 -77 31 -77 81c0 53 37 82 84 82c48 0 76 -29 76 -78c0 -55 -33 -85 -83 -85zM374 -14c-170 0 -285 102 -285 294v318c0 51 -6 103 -6 103l144 5v-425
c0 -140 54 -200 162 -200c95 0 167 60 167 200v317c0 51 -6 103 -6 103l114 5v-425c0 -185 -99 -295 -290 -295z" />
    <glyph glyph-name="Udieresis.sc" horiz-adv-x="699" 
d="M250 660c-44 0 -77 31 -77 81c0 53 37 82 84 82c48 0 76 -29 76 -78c0 -55 -33 -85 -83 -85zM458 660c-44 0 -77 31 -77 81c0 53 37 82 84 82c48 0 76 -29 76 -78c0 -55 -33 -85 -83 -85zM350 -11c-160 0 -265 96 -265 267v243c0 59 -6 101 -6 101h144v-335
c0 -98 28 -175 136 -175c110 0 146 77 146 178v231c0 60 -6 101 -6 101h116v-327c0 -164 -88 -284 -265 -284z" />
    <glyph glyph-name="Ugrave" unicode="&#xd9;" horiz-adv-x="753" 
d="M374 -14c-170 0 -285 102 -285 294v318c0 51 -6 103 -6 103l144 5v-425c0 -140 54 -200 162 -200c95 0 167 60 167 200v317c0 51 -6 103 -6 103l114 5v-425c0 -185 -99 -295 -290 -295zM390 749l-187 154l96 101l160 -181z" />
    <glyph glyph-name="Ugrave.sc" horiz-adv-x="699" 
d="M397 659l-187 154l96 101l160 -181zM350 -11c-160 0 -265 96 -265 267v243c0 59 -6 101 -6 101h144v-335c0 -98 28 -175 136 -175c110 0 146 77 146 178v231c0 60 -6 101 -6 101h116v-327c0 -164 -88 -284 -265 -284z" />
    <glyph glyph-name="Uhungarumlaut" unicode="&#x170;" horiz-adv-x="753" 
d="M374 -14c-170 0 -285 102 -285 294v318c0 51 -6 103 -6 103l144 5v-425c0 -140 54 -200 162 -200c95 0 167 60 167 200v317c0 51 -6 103 -6 103l114 5v-425c0 -185 -99 -295 -290 -295zM306 749l-66 70l160 181l93 -97zM495 749l-66 70l160 181l93 -97z" />
    <glyph glyph-name="Uhungarumlaut.sc" horiz-adv-x="699" 
d="M268 651l-66 70l160 181l93 -97zM457 651l-66 70l160 181l93 -97zM350 -11c-160 0 -265 96 -265 267v243c0 59 -6 101 -6 101h144v-335c0 -98 28 -175 136 -175c110 0 146 77 146 178v231c0 60 -6 101 -6 101h116v-327c0 -164 -88 -284 -265 -284z" />
    <glyph glyph-name="Umacron" unicode="&#x16a;" horiz-adv-x="753" 
d="M374 -14c-170 0 -285 102 -285 294v318c0 51 -6 103 -6 103l144 5v-425c0 -140 54 -200 162 -200c95 0 167 60 167 200v317c0 51 -6 103 -6 103l114 5v-425c0 -185 -99 -295 -290 -295zM248 776v104h274v-104h-274z" />
    <glyph glyph-name="Umacron.sc" horiz-adv-x="699" 
d="M231 662v104h274v-104h-274zM350 -11c-160 0 -265 96 -265 267v243c0 59 -6 101 -6 101h144v-335c0 -98 28 -175 136 -175c110 0 146 77 146 178v231c0 60 -6 101 -6 101h116v-327c0 -164 -88 -284 -265 -284z" />
    <glyph glyph-name="Uogonek" unicode="&#x172;" horiz-adv-x="752" 
d="M374 -14c-170 0 -285 102 -285 294v318c0 51 -6 103 -6 103l144 5v-425c0 -140 54 -200 162 -200c95 0 167 60 167 200v317c0 51 -6 103 -6 103l114 5v-425c0 -147 -62 -246 -183 -281h6c-45 -20 -83 -57 -83 -90c0 -27 22 -38 52 -38c31 0 63 11 63 11v-65
s-36 -17 -82 -17c-84 0 -129 36 -129 90c0 43 33 76 67 95h-1z" />
    <glyph glyph-name="Uogonek.sc" horiz-adv-x="699" 
d="M390 -198c-84 0 -129 36 -129 90c0 45 36 79 70 98c-149 7 -246 101 -246 266v243c0 59 -6 101 -6 101h144v-335c0 -98 28 -175 136 -175c110 0 146 77 146 178v231c0 60 -6 101 -6 101h116v-327c0 -134 -59 -238 -176 -272h1c-45 -20 -83 -57 -83 -90
c0 -27 22 -38 52 -38c31 0 63 11 63 11v-65s-36 -17 -82 -17z" />
    <glyph glyph-name="Uring" unicode="&#x16e;" horiz-adv-x="753" 
d="M385 821c14 0 22 17 22 38s-8 36 -22 36s-25 -15 -25 -36s11 -38 25 -38zM385 748c-70 0 -125 42 -125 111s55 111 125 111s124 -42 124 -111s-54 -111 -124 -111zM374 -14c-170 0 -285 102 -285 294v318c0 51 -6 103 -6 103l144 5v-425c0 -140 54 -200 162 -200
c95 0 167 60 167 200v317c0 51 -6 103 -6 103l114 5v-425c0 -185 -99 -295 -290 -295z" />
    <glyph glyph-name="Uring.sc" horiz-adv-x="699" 
d="M356 725c14 0 22 17 22 38s-8 36 -22 36s-25 -15 -25 -36s11 -38 25 -38zM356 652c-70 0 -125 42 -125 111s55 111 125 111s124 -42 124 -111s-54 -111 -124 -111zM350 -11c-160 0 -265 96 -265 267v243c0 59 -6 101 -6 101h144v-335c0 -98 28 -175 136 -175
c110 0 146 77 146 178v231c0 60 -6 101 -6 101h116v-327c0 -164 -88 -284 -265 -284z" />
    <glyph glyph-name="Utilde" unicode="&#x168;" horiz-adv-x="753" 
d="M374 -14c-170 0 -285 102 -285 294v318c0 51 -6 103 -6 103l144 5v-425c0 -140 54 -200 162 -200c95 0 167 60 167 200v317c0 51 -6 103 -6 103l114 5v-425c0 -185 -99 -295 -290 -295zM461 762c-65 0 -87 36 -123 36c-24 0 -39 -22 -44 -39l-82 20c10 58 53 119 124 119
c68 0 88 -36 122 -36c22 0 35 23 38 39l80 -20c-13 -79 -64 -119 -115 -119z" />
    <glyph glyph-name="Utilde.sc" horiz-adv-x="699" 
d="M350 -11c-160 0 -265 96 -265 267v243c0 59 -6 101 -6 101h144v-335c0 -98 28 -175 136 -175c110 0 146 77 146 178v231c0 60 -6 101 -6 101h116v-327c0 -164 -88 -284 -265 -284zM431 659c-65 0 -87 36 -123 36c-24 0 -39 -22 -44 -39l-82 20c10 58 53 119 124 119
c68 0 88 -36 122 -36c22 0 35 23 38 39l80 -20c-13 -79 -64 -119 -115 -119z" />
    <glyph glyph-name="V" unicode="V" horiz-adv-x="644" 
d="M267 -5l-216 583c-27 74 -49 118 -49 118l149 6l183 -502c8 -22 11 -42 11 -42h4s-1 18 7 41l117 348c20 60 32 105 39 153h107c-8 -60 -25 -112 -49 -179l-188 -520z" />
    <glyph glyph-name="V.sc" horiz-adv-x="592" 
d="M246 -5l-196 505c-19 49 -46 102 -46 102l144 5l140 -373c18 -47 27 -87 27 -87h3s7 35 25 83l92 252c18 48 28 79 36 117h107c-11 -50 -40 -123 -70 -197l-161 -401z" />
    <glyph glyph-name="W" unicode="W" horiz-adv-x="971" 
d="M228 -4l-171 583c-22 75 -39 118 -39 118l143 6l123 -435c17 -62 25 -115 25 -115h4s5 53 21 118l104 429l119 5l115 -433c17 -65 23 -123 23 -123h4s6 57 24 119l74 258c21 73 29 119 35 174h111c-10 -70 -25 -137 -53 -221l-152 -477l-120 -6l-105 398
c-14 55 -24 121 -24 121h-5s-9 -71 -19 -115l-95 -398z" />
    <glyph glyph-name="W.sc" horiz-adv-x="910" 
d="M215 -6l-163 505c-12 36 -26 70 -40 102l145 5l111 -355c15 -47 25 -103 25 -103h4s7 47 20 93l102 360l105 4l101 -353c20 -71 23 -103 23 -103h4s10 52 27 102l58 170c39 112 50 179 50 179h104s-17 -76 -60 -199l-143 -401l-115 -6l-99 337c-14 46 -19 93 -19 93h-5
s-3 -43 -17 -92l-94 -332z" />
    <glyph glyph-name="Wacute" unicode="&#x1e82;" horiz-adv-x="971" 
d="M484 751l-70 73l160 181l97 -100zM228 -4l-171 583c-22 75 -39 118 -39 118l143 6l123 -435c17 -62 25 -115 25 -115h4s5 53 21 118l104 429l119 5l115 -433c17 -65 23 -123 23 -123h4s6 57 24 119l74 258c21 73 29 119 35 174h111c-10 -70 -25 -137 -53 -221l-152 -477
l-120 -6l-105 398c-14 55 -24 121 -24 121h-5s-9 -71 -19 -115l-95 -398z" />
    <glyph glyph-name="Wacute.sc" horiz-adv-x="910" 
d="M215 -6l-163 505c-12 36 -26 70 -40 102l145 5l111 -355c15 -47 25 -103 25 -103h4s7 47 20 93l102 360l105 4l101 -353c20 -71 23 -103 23 -103h4s10 52 27 102l58 170c39 112 50 179 50 179h104s-17 -76 -60 -199l-143 -401l-115 -6l-99 337c-14 46 -19 93 -19 93h-5
s-3 -43 -17 -92l-94 -332zM471 665l-70 73l160 181l97 -100z" />
    <glyph glyph-name="Wcircumflex" unicode="&#x174;" horiz-adv-x="971" 
d="M378 762l-61 69l151 124h38l148 -118l-59 -73l-108 74zM228 -4l-171 583c-22 75 -39 118 -39 118l143 6l123 -435c17 -62 25 -115 25 -115h4s5 53 21 118l104 429l119 5l115 -433c17 -65 23 -123 23 -123h4s6 57 24 119l74 258c21 73 29 119 35 174h111
c-10 -70 -25 -137 -53 -221l-152 -477l-120 -6l-105 398c-14 55 -24 121 -24 121h-5s-9 -71 -19 -115l-95 -398z" />
    <glyph glyph-name="Wcircumflex.sc" horiz-adv-x="910" 
d="M362 654l-61 69l151 124h38l148 -118l-59 -73l-108 74zM215 -6l-163 505c-12 36 -26 70 -40 102l145 5l111 -355c15 -47 25 -103 25 -103h4s7 47 20 93l102 360l105 4l101 -353c20 -71 23 -103 23 -103h4s10 52 27 102l58 170c39 112 50 179 50 179h104s-17 -76 -60 -199
l-143 -401l-115 -6l-99 337c-14 46 -19 93 -19 93h-5s-3 -43 -17 -92l-94 -332z" />
    <glyph glyph-name="Wdieresis" unicode="&#x1e84;" horiz-adv-x="971" 
d="M390 775c-44 0 -77 31 -77 81c0 53 37 82 84 82c48 0 76 -29 76 -78c0 -55 -33 -85 -83 -85zM598 775c-44 0 -77 31 -77 81c0 53 37 82 84 82c48 0 76 -29 76 -78c0 -55 -33 -85 -83 -85zM228 -4l-171 583c-22 75 -39 118 -39 118l143 6l123 -435c17 -62 25 -115 25 -115
h4s5 53 21 118l104 429l119 5l115 -433c17 -65 23 -123 23 -123h4s6 57 24 119l74 258c21 73 29 119 35 174h111c-10 -70 -25 -137 -53 -221l-152 -477l-120 -6l-105 398c-14 55 -24 121 -24 121h-5s-9 -71 -19 -115l-95 -398z" />
    <glyph glyph-name="Wdieresis.sc" horiz-adv-x="910" 
d="M357 663c-44 0 -77 31 -77 81c0 53 37 82 84 82c48 0 76 -29 76 -78c0 -55 -33 -85 -83 -85zM565 663c-44 0 -77 31 -77 81c0 53 37 82 84 82c48 0 76 -29 76 -78c0 -55 -33 -85 -83 -85zM215 -6l-163 505c-12 36 -26 70 -40 102l145 5l111 -355c15 -47 25 -103 25 -103
h4s7 47 20 93l102 360l105 4l101 -353c20 -71 23 -103 23 -103h4s10 52 27 102l58 170c39 112 50 179 50 179h104s-17 -76 -60 -199l-143 -401l-115 -6l-99 337c-14 46 -19 93 -19 93h-5s-3 -43 -17 -92l-94 -332z" />
    <glyph glyph-name="Wgrave" unicode="&#x1e80;" horiz-adv-x="971" 
d="M228 -4l-171 583c-22 75 -39 118 -39 118l143 6l123 -435c17 -62 25 -115 25 -115h4s5 53 21 118l104 429l119 5l115 -433c17 -65 23 -123 23 -123h4s6 57 24 119l74 258c21 73 29 119 35 174h111c-10 -70 -25 -137 -53 -221l-152 -477l-120 -6l-105 398
c-14 55 -24 121 -24 121h-5s-9 -71 -19 -115l-95 -398zM481 751l-187 154l96 101l160 -181z" />
    <glyph glyph-name="Wgrave.sc" horiz-adv-x="910" 
d="M215 -6l-163 505c-12 36 -26 70 -40 102l145 5l111 -355c15 -47 25 -103 25 -103h4s7 47 20 93l102 360l105 4l101 -353c20 -71 23 -103 23 -103h4s10 52 27 102l58 170c39 112 50 179 50 179h104s-17 -76 -60 -199l-143 -401l-115 -6l-99 337c-14 46 -19 93 -19 93h-5
s-3 -43 -17 -92l-94 -332zM463 662l-187 154l96 101l160 -181z" />
    <glyph glyph-name="X" unicode="X" horiz-adv-x="654" 
d="M483 -5l-171 275l-73 -120c-55 -89 -90 -150 -90 -150h-125s39 82 116 183l117 160l-162 251c-43 63 -73 106 -73 106l162 5l155 -263l84 122c41 60 75 138 75 138h122s-24 -73 -93 -166l-129 -173l175 -267c30 -45 66 -96 66 -96z" />
    <glyph glyph-name="X.sc" horiz-adv-x="611" 
d="M440 -3l-150 220l-67 -96c-52 -74 -76 -122 -76 -122l-118 2s26 60 101 157l108 140l-151 219c-27 40 -64 83 -64 83l155 5l142 -217l63 98c49 76 67 114 67 114h124s-22 -50 -96 -150l-107 -144l159 -222c29 -41 65 -85 65 -85z" />
    <glyph glyph-name="Y" unicode="Y" horiz-adv-x="602" 
d="M234 0v284l-186 324c-25 46 -58 92 -58 92l158 5l178 -324l99 200c37 75 49 119 49 119h117s-36 -80 -76 -158l-143 -259v-190c0 -46 5 -93 5 -93h-143z" />
    <glyph glyph-name="Y.sc" horiz-adv-x="575" 
d="M224 0v235l-179 285c-27 42 -56 81 -56 81l147 5l169 -275l86 146c47 80 62 124 62 124h114s-25 -56 -85 -152l-125 -201v-155c0 -46 5 -93 5 -93h-138z" />
    <glyph glyph-name="Yacute" unicode="&#xdd;" horiz-adv-x="602" 
d="M234 0v284l-186 324c-25 46 -58 92 -58 92l158 5l178 -324l99 200c37 75 49 119 49 119h117s-36 -80 -76 -158l-143 -259v-190c0 -46 5 -93 5 -93h-143zM319 750l-70 73l160 181l97 -100z" />
    <glyph glyph-name="Yacute.sc" horiz-adv-x="575" 
d="M303 658l-70 73l160 181l97 -100zM224 0v235l-179 285c-27 42 -56 81 -56 81l147 5l169 -275l86 146c47 80 62 124 62 124h114s-25 -56 -85 -152l-125 -201v-155c0 -46 5 -93 5 -93h-138z" />
    <glyph glyph-name="Ycircumflex" unicode="&#x176;" horiz-adv-x="602" 
d="M234 0v284l-186 324c-25 46 -58 92 -58 92l158 5l178 -324l99 200c37 75 49 119 49 119h117s-36 -80 -76 -158l-143 -259v-190c0 -46 5 -93 5 -93h-143zM205 762l-61 69l151 124h38l148 -118l-59 -73l-108 74z" />
    <glyph glyph-name="Ycircumflex.sc" horiz-adv-x="575" 
d="M186 658l-61 69l151 124h38l148 -118l-59 -73l-108 74zM224 0v235l-179 285c-27 42 -56 81 -56 81l147 5l169 -275l86 146c47 80 62 124 62 124h114s-25 -56 -85 -152l-125 -201v-155c0 -46 5 -93 5 -93h-138z" />
    <glyph glyph-name="Ydieresis" unicode="&#x178;" horiz-adv-x="602" 
d="M234 0v284l-186 324c-25 46 -58 92 -58 92l158 5l178 -324l99 200c37 75 49 119 49 119h117s-36 -80 -76 -158l-143 -259v-190c0 -46 5 -93 5 -93h-143zM207 770c-44 0 -77 31 -77 81c0 53 37 82 84 82c48 0 76 -29 76 -78c0 -55 -33 -85 -83 -85zM415 770
c-44 0 -77 31 -77 81c0 53 37 82 84 82c48 0 76 -29 76 -78c0 -55 -33 -85 -83 -85z" />
    <glyph glyph-name="Ydieresis.sc" horiz-adv-x="575" 
d="M188 663c-44 0 -77 31 -77 81c0 53 37 82 84 82c48 0 76 -29 76 -78c0 -55 -33 -85 -83 -85zM396 663c-44 0 -77 31 -77 81c0 53 37 82 84 82c48 0 76 -29 76 -78c0 -55 -33 -85 -83 -85zM224 0v235l-179 285c-27 42 -56 81 -56 81l147 5l169 -275l86 146
c47 80 62 124 62 124h114s-25 -56 -85 -152l-125 -201v-155c0 -46 5 -93 5 -93h-138z" />
    <glyph glyph-name="Ygrave" unicode="&#x1ef2;" horiz-adv-x="602" 
d="M234 0v284l-186 324c-25 46 -58 92 -58 92l158 5l178 -324l99 200c37 75 49 119 49 119h117s-36 -80 -76 -158l-143 -259v-190c0 -46 5 -93 5 -93h-143zM310 750l-187 154l96 101l160 -181z" />
    <glyph glyph-name="Ygrave.sc" horiz-adv-x="575" 
d="M224 0v235l-179 285c-27 42 -56 81 -56 81l147 5l169 -275l86 146c47 80 62 124 62 124h114s-25 -56 -85 -152l-125 -201v-155c0 -46 5 -93 5 -93h-138zM308 660l-187 154l96 101l160 -181z" />
    <glyph glyph-name="Z" unicode="Z" horiz-adv-x="578" 
d="M42 0v50l322 566l-218 -9c-41 -1 -90 -6 -90 -6l5 99h470v-50l-327 -572l204 9c67 3 119 9 119 9l-5 -96h-480z" />
    <glyph glyph-name="Z.sc" horiz-adv-x="527" 
d="M43 0v55l262 453l-149 -1c-47 -1 -92 -6 -92 -6l5 98h394v-55l-262 -455l174 2c42 1 108 5 108 7l-5 -98h-435z" />
    <glyph glyph-name="Zacute" unicode="&#x179;" horiz-adv-x="578" 
d="M314 751l-70 73l160 181l97 -100zM42 0v50l322 566l-218 -9c-41 -1 -90 -6 -90 -6l5 99h470v-50l-327 -572l204 9c67 3 119 9 119 9l-5 -96h-480z" />
    <glyph glyph-name="Zacute.sc" horiz-adv-x="527" 
d="M279 664l-70 73l160 181l97 -100zM43 0v55l262 453l-149 -1c-47 -1 -92 -6 -92 -6l5 98h394v-55l-262 -455l174 2c42 1 108 5 108 7l-5 -98h-435z" />
    <glyph glyph-name="Zcaron" unicode="&#x17d;" horiz-adv-x="578" 
d="M408 965l61 -69l-151 -124h-38l-148 118l59 73l108 -74zM42 0v50l322 566l-218 -9c-41 -1 -90 -6 -90 -6l5 99h470v-50l-327 -572l204 9c67 3 119 9 119 9l-5 -96h-480z" />
    <glyph glyph-name="Zcaron.sc" horiz-adv-x="527" 
d="M393 856l61 -69l-151 -124h-38l-148 118l59 73l108 -74zM43 0v55l262 453l-149 -1c-47 -1 -92 -6 -92 -6l5 98h394v-55l-262 -455l174 2c42 1 108 5 108 7l-5 -98h-435z" />
    <glyph glyph-name="Zdotaccent" unicode="&#x17b;" horiz-adv-x="578" 
d="M42 0v50l322 566l-218 -9c-41 -1 -90 -6 -90 -6l5 99h470v-50l-327 -572l204 9c67 3 119 9 119 9l-5 -96h-480zM297 775c-42 0 -79 34 -79 79c0 43 39 79 81 79c44 0 78 -36 78 -79c0 -45 -38 -79 -80 -79z" />
    <glyph glyph-name="Zdotaccent.sc" horiz-adv-x="527" 
d="M43 0v55l262 453l-149 -1c-47 -1 -92 -6 -92 -6l5 98h394v-55l-262 -455l174 2c42 1 108 5 108 7l-5 -98h-435zM272 663c-42 0 -79 34 -79 79c0 43 39 79 81 79c44 0 78 -36 78 -79c0 -45 -38 -79 -80 -79z" />
    <glyph glyph-name="a" unicode="a" horiz-adv-x="546" 
d="M191 -10c-105 0 -150 64 -150 132c0 74 42 141 171 162c49 8 88 9 116 9v31c0 62 -40 94 -104 94c-83 0 -144 -22 -144 -22v87s67 27 172 27c161 0 211 -81 209 -180c-1 -61 -4 -180 -4 -230c0 -12 2 -18 11 -18c17 0 38 20 38 20v-83s-32 -29 -78 -29
c-50 0 -71 31 -79 62c-36 -33 -96 -62 -158 -62zM232 84c31 0 69 18 92 36c0 42 1 65 2 107c0 0 -48 -2 -85 -13c-45 -13 -66 -41 -66 -78c0 -31 19 -52 57 -52z" />
    <glyph glyph-name="aacute" unicode="&#xe1;" horiz-adv-x="546" 
d="M191 -10c-105 0 -150 64 -150 132c0 74 42 141 171 162c49 8 88 9 116 9v31c0 62 -40 94 -104 94c-83 0 -144 -22 -144 -22v87s67 27 172 27c161 0 211 -81 209 -180c-1 -61 -4 -180 -4 -230c0 -12 2 -18 11 -18c17 0 38 20 38 20v-83s-32 -29 -78 -29
c-50 0 -71 31 -79 62c-36 -33 -96 -62 -158 -62zM232 84c31 0 69 18 92 36c0 42 1 65 2 107c0 0 -48 -2 -85 -13c-45 -13 -66 -41 -66 -78c0 -31 19 -52 57 -52zM271 570l-70 73l160 181l97 -100z" />
    <glyph glyph-name="abreve" unicode="&#x103;" horiz-adv-x="546" 
d="M191 -10c-105 0 -150 64 -150 132c0 74 42 141 171 162c49 8 88 9 116 9v31c0 62 -40 94 -104 94c-83 0 -144 -22 -144 -22v87s67 27 172 27c161 0 211 -81 209 -180c-1 -61 -4 -180 -4 -230c0 -12 2 -18 11 -18c17 0 38 20 38 20v-83s-32 -29 -78 -29
c-50 0 -71 31 -79 62c-36 -33 -96 -62 -158 -62zM232 84c31 0 69 18 92 36c0 42 1 65 2 107c0 0 -48 -2 -85 -13c-45 -13 -66 -41 -66 -78c0 -31 19 -52 57 -52zM265 596c-75 0 -137 45 -160 130l90 36c1 -1 18 -54 70 -54c54 0 68 53 70 54l92 -37
c-23 -85 -93 -129 -162 -129z" />
    <glyph glyph-name="acircumflex" unicode="&#xe2;" horiz-adv-x="546" 
d="M191 -10c-105 0 -150 64 -150 132c0 74 42 141 171 162c49 8 88 9 116 9v31c0 62 -40 94 -104 94c-83 0 -144 -22 -144 -22v87s67 27 172 27c161 0 211 -81 209 -180c-1 -61 -4 -180 -4 -230c0 -12 2 -18 11 -18c17 0 38 20 38 20v-83s-32 -29 -78 -29
c-50 0 -71 31 -79 62c-36 -33 -96 -62 -158 -62zM232 84c31 0 69 18 92 36c0 42 1 65 2 107c0 0 -48 -2 -85 -13c-45 -13 -66 -41 -66 -78c0 -31 19 -52 57 -52zM157 582l-61 69l151 124h38l148 -118l-59 -73l-108 74z" />
    <glyph glyph-name="adieresis" unicode="&#xe4;" horiz-adv-x="546" 
d="M191 -10c-105 0 -150 64 -150 132c0 74 42 141 171 162c49 8 88 9 116 9v31c0 62 -40 94 -104 94c-83 0 -144 -22 -144 -22v87s67 27 172 27c161 0 211 -81 209 -180c-1 -61 -4 -180 -4 -230c0 -12 2 -18 11 -18c17 0 38 20 38 20v-83s-32 -29 -78 -29
c-50 0 -71 31 -79 62c-36 -33 -96 -62 -158 -62zM232 84c31 0 69 18 92 36c0 42 1 65 2 107c0 0 -48 -2 -85 -13c-45 -13 -66 -41 -66 -78c0 -31 19 -52 57 -52zM152 597c-44 0 -77 31 -77 81c0 53 37 82 84 82c48 0 76 -29 76 -78c0 -55 -33 -85 -83 -85zM360 597
c-44 0 -77 31 -77 81c0 53 37 82 84 82c48 0 76 -29 76 -78c0 -55 -33 -85 -83 -85z" />
    <glyph glyph-name="ae" unicode="&#xe6;" horiz-adv-x="836" 
d="M213 -10c-121 0 -172 64 -172 142c0 82 70 138 171 154c49 8 88 9 116 9v21c0 73 -37 94 -100 94c-87 0 -148 -27 -148 -27v95s67 32 190 32c74 0 118 -24 142 -57c43 38 101 57 163 57c166 0 229 -126 211 -273h-327c4 -90 67 -147 158 -147c83 0 149 27 149 27v-93
s-60 -34 -179 -34c-81 0 -150 25 -198 72c-40 -45 -106 -72 -176 -72zM175 144c0 -50 85 -87 170 -14c-12 27 -19 60 -21 94c-67 -1 -149 -12 -149 -80zM466 321l185 4c-2 70 -29 97 -80 97c-57 0 -92 -34 -105 -101z" />
    <glyph glyph-name="aeacute" unicode="&#x1fd;" horiz-adv-x="836" 
d="M438 571l-70 73l160 181l97 -100zM213 -10c-121 0 -172 64 -172 142c0 82 70 138 171 154c49 8 88 9 116 9v21c0 73 -37 94 -100 94c-87 0 -148 -27 -148 -27v95s67 32 190 32c74 0 118 -24 142 -57c43 38 101 57 163 57c166 0 229 -126 211 -273h-327
c4 -90 67 -147 158 -147c83 0 149 27 149 27v-93s-60 -34 -179 -34c-81 0 -150 25 -198 72c-40 -45 -106 -72 -176 -72zM175 144c0 -50 85 -87 170 -14c-12 27 -19 60 -21 94c-67 -1 -149 -12 -149 -80zM466 321l185 4c-2 70 -29 97 -80 97c-57 0 -92 -34 -105 -101z" />
    <glyph glyph-name="afii10017" unicode="&#x410;" horiz-adv-x="636" 
d="M491 -4l-56 153h-267c-19 -59 -31 -102 -38 -149h-107c8 60 25 110 49 177l188 520l109 6l216 -583c27 -74 49 -118 49 -118zM280 480l-81 -240h203l-87 240c-11 32 -16 61 -16 61h-4s-5 -31 -15 -61z" />
    <glyph glyph-name="afii10017.sc" horiz-adv-x="597" 
d="M447 -5l-49 125h-238c-19 -48 -28 -82 -36 -120h-107c11 50 40 126 70 200l161 401l101 6l196 -505c19 -49 46 -102 46 -102zM193 207h172l-62 162c-15 38 -22 78 -22 78h-4s-8 -39 -24 -82z" />
    <glyph glyph-name="afii10018" unicode="&#x411;" horiz-adv-x="623" 
d="M96 0v598c0 51 -6 102 -6 102h433l-3 -104s-47 8 -107 9l-179 4v-186h72c185 0 273 -76 273 -208c0 -127 -103 -215 -273 -215h-210zM234 92h64c97 0 141 49 141 120c0 67 -41 118 -141 118h-64v-238z" />
    <glyph glyph-name="afii10018.sc" horiz-adv-x="597" 
d="M92 0v515c0 50 -6 86 -6 86h418l-5 -95s-53 5 -84 5l-190 2v-147h106c124 0 219 -53 219 -179c0 -127 -106 -187 -236 -187h-222zM225 92h86c56 0 99 32 99 92c0 39 -18 89 -93 89h-92v-181z" />
    <glyph glyph-name="afii10019" unicode="&#x412;" horiz-adv-x="641" 
d="M96 0v598c0 51 -6 102 -6 102h230c151 0 239 -73 239 -176c0 -88 -49 -133 -118 -153v-4c93 -18 148 -76 148 -162c0 -133 -118 -205 -260 -205h-233zM233 90h96c78 0 122 42 122 113c0 65 -34 119 -121 119h-97v-232zM233 412h145s47 35 47 97c0 53 -30 101 -116 101
h-76v-198z" />
    <glyph glyph-name="afii10019.sc" horiz-adv-x="584" 
d="M92 0v524c0 26 -2 56 -6 77h185c173 0 234 -72 234 -163c0 -58 -36 -113 -93 -131v-3c65 -18 118 -58 118 -135c0 -99 -84 -169 -221 -169h-217zM225 90h76c55 0 91 30 91 87c0 51 -40 80 -89 80h-78v-167zM225 346h106s36 20 36 76c0 59 -36 89 -95 89h-47v-165z" />
    <glyph glyph-name="afii10020" unicode="&#x413;" horiz-adv-x="533" 
d="M96 0v598c0 51 -6 102 -6 102h423l-5 -109s-41 8 -107 8h-167v-506c0 -46 5 -93 5 -93h-143z" />
    <glyph glyph-name="afii10020.sc" horiz-adv-x="502" 
d="M92 -5v503c0 51 -6 103 -6 103h398l-5 -98s-22 5 -71 6l-183 4v-420c0 -46 5 -93 5 -93z" />
    <glyph glyph-name="afii10021" unicode="&#x414;" horiz-adv-x="737" 
d="M19 -206l-10 298h62c87 136 108 361 120 608h425v-608h73v-202c0 -43 5 -90 5 -90l-115 -6l-8 206h-442v-110c0 -43 5 -90 5 -90zM196 92h282v516h-176c-10 -219 -38 -388 -106 -516z" />
    <glyph glyph-name="afii10021.sc" horiz-adv-x="691" 
d="M19 -186l-3 278h58c64 103 97 235 101 509h402v-509h60v-182c0 -43 5 -90 5 -90l-117 -6l-3 186h-391v-90c0 -43 5 -90 5 -90zM196 92h248v415h-167c-6 -203 -36 -332 -81 -415z" />
    <glyph glyph-name="afii10022" unicode="&#x415;" horiz-adv-x="598" 
d="M96 0v598c0 51 -6 102 -6 102h453l-5 -99s-39 5 -85 6l-219 3v-210l259 5l-5 -106l-254 8v-216l204 3c61 1 105 6 105 6l-5 -100h-442z" />
    <glyph glyph-name="afii10022.sc" horiz-adv-x="557" 
d="M92 0v498c0 51 -6 103 -6 103h418l-5 -96s-32 5 -92 6l-182 2v-169l214 3l-5 -95l-209 4v-169l179 2c39 1 105 7 105 7l-5 -96h-412z" />
    <glyph glyph-name="afii10023" unicode="&#x401;" horiz-adv-x="598" 
d="M213 768c-44 0 -77 31 -77 81c0 53 37 82 84 82c48 0 76 -29 76 -78c0 -55 -33 -85 -83 -85zM421 768c-44 0 -77 31 -77 81c0 53 37 82 84 82c48 0 76 -29 76 -78c0 -55 -33 -85 -83 -85zM96 0v598c0 51 -6 102 -6 102h453l-5 -99s-39 5 -85 6l-219 3v-210l259 5l-5 -106
l-254 8v-216l204 3c61 1 105 6 105 6l-5 -100h-442z" />
    <glyph glyph-name="afii10023.sc" horiz-adv-x="557" 
d="M190 666c-44 0 -77 31 -77 81c0 53 37 82 84 82c48 0 76 -29 76 -78c0 -55 -33 -85 -83 -85zM398 666c-44 0 -77 31 -77 81c0 53 37 82 84 82c48 0 76 -29 76 -78c0 -55 -33 -85 -83 -85zM92 0v498c0 51 -6 103 -6 103h418l-5 -96s-32 5 -92 6l-182 2v-169l214 3l-5 -95
l-209 4v-169l179 2c39 1 105 7 105 7l-5 -96h-412z" />
    <glyph glyph-name="afii10024" unicode="&#x416;" horiz-adv-x="986" 
d="M826 -5l-226 312h-41v-214c0 -46 5 -93 5 -93h-143v307h-40l-226 -307h-153s31 38 51 65l224 303c-130 160 -197 251 -242 331l131 6c36 -72 80 -138 203 -302h52v195c0 51 -6 103 -6 103l144 5v-303h55c142 194 162 223 202 297h124c-40 -78 -100 -162 -234 -327
l221 -303c25 -34 57 -70 57 -70z" />
    <glyph glyph-name="afii10024.sc" horiz-adv-x="869" 
d="M24 0l215 313l-92 117c-87 109 -116 169 -116 169l120 10s23 -45 83 -130l94 -135h42v154c0 51 -6 103 -6 103l135 5v-262h42l99 135c62 84 80 122 80 122h115s-32 -61 -117 -171l-89 -113l219 -317h-149l-163 258h-37v-165c0 -46 5 -93 5 -93h-134v258h-36l-164 -258
h-146z" />
    <glyph glyph-name="afii10025" unicode="&#x417;" horiz-adv-x="523" 
d="M201 -10c-95 0 -161 25 -161 25v98s72 -23 158 -23c75 0 130 42 130 123c0 61 -43 103 -111 103h-70v93h55c72 0 114 41 114 107s-44 103 -104 103c-55 0 -108 -15 -154 -20l-14 94c51 6 103 20 174 20c138 0 236 -61 236 -188c0 -76 -51 -140 -131 -160v-3
c77 -5 143 -70 143 -158c0 -121 -99 -214 -265 -214z" />
    <glyph glyph-name="afii10025.sc" horiz-adv-x="519" 
d="M214 -10c-118 0 -186 36 -186 36l27 91c46 -17 91 -29 144 -29c83 0 123 32 123 86c0 53 -33 86 -108 86h-68v93h64c65 0 100 32 100 79s-23 75 -82 75c-68 0 -105 -24 -157 -38l-34 98c50 14 96 43 204 43c126 0 209 -67 209 -158c0 -67 -44 -122 -117 -139v-3
c73 -4 129 -57 129 -136c0 -113 -89 -184 -248 -184z" />
    <glyph glyph-name="afii10026" unicode="&#x418;" horiz-adv-x="782" 
d="M96 0v598c0 51 -6 103 -6 103l141 5v-425c0 -48 -6 -99 -6 -99l5 -1s18 45 43 81l300 439l113 5v-613c0 -46 5 -93 5 -93h-140v416c0 37 4 105 4 105l-4 1s-21 -50 -47 -89l-295 -433h-113z" />
    <glyph glyph-name="afii10026.sc" horiz-adv-x="724" 
d="M92 0v498c0 51 -6 103 -6 103l139 5v-343c0 -57 -13 -98 -13 -98l5 -2s20 41 50 83l252 355h113v-508c0 -46 5 -93 5 -93h-138v346c0 52 5 92 5 92l-3 1s-15 -37 -48 -84l-248 -355h-113z" />
    <glyph glyph-name="afii10027" unicode="&#x419;" horiz-adv-x="782" 
d="M395 767c-94 0 -163 49 -200 81l86 92c39 -35 60 -86 114 -86s75 51 114 86l86 -92c-37 -32 -106 -81 -200 -81zM96 0v598c0 51 -6 103 -6 103l141 5v-425c0 -48 -6 -99 -6 -99l5 -1s18 45 43 81l300 439l113 5v-613c0 -46 5 -93 5 -93h-140v416c0 37 4 105 4 105l-4 1
s-21 -50 -47 -89l-295 -433h-113z" />
    <glyph glyph-name="afii10027.sc" horiz-adv-x="724" 
d="M348 676c-90 0 -163 54 -200 86l86 88c39 -35 64 -81 114 -81c54 0 87 42 126 77l58 -90c-41 -38 -98 -80 -184 -80zM92 0v498c0 51 -6 103 -6 103l139 5v-343c0 -57 -13 -98 -13 -98l5 -2s20 41 50 83l252 355h113v-508c0 -46 5 -93 5 -93h-138v346c0 52 5 92 5 92l-3 1
s-15 -37 -48 -84l-248 -355h-113z" />
    <glyph glyph-name="afii10028" unicode="&#x41a;" horiz-adv-x="652" 
d="M495 -5l-215 317h-46v-219c0 -46 5 -93 5 -93h-143v598c0 51 -6 103 -6 103l144 5v-301h58c115 155 146 223 182 295h133c-42 -75 -103 -176 -218 -321l208 -309c23 -35 51 -70 51 -70z" />
    <glyph glyph-name="afii10028.sc" horiz-adv-x="593" 
d="M92 0v498c0 51 -6 103 -6 103l139 5v-260h39l100 133c62 85 82 120 82 120h112s-24 -60 -112 -169l-91 -112l217 -318h-152l-170 255h-25v-162c0 -46 5 -93 5 -93h-138z" />
    <glyph glyph-name="afii10029" unicode="&#x41b;" horiz-adv-x="703" 
d="M62 -12l-55 117c134 58 149 195 171 595h429v-607c0 -46 5 -93 5 -93h-143v606h-174c-20 -388 -48 -540 -233 -618z" />
    <glyph glyph-name="afii10029.sc" horiz-adv-x="665" 
d="M76 -10l-69 100c106 58 153 150 163 511h403v-508c0 -46 5 -93 5 -93h-138v507h-159c-11 -317 -74 -444 -205 -517z" />
    <glyph glyph-name="afii10030" unicode="&#x41c;" horiz-adv-x="922" 
d="M96 0v587c0 51 -6 114 -6 114l119 5l211 -321c24 -36 36 -67 36 -67h3s12 28 33 60l210 323l124 5v-613c0 -46 5 -93 5 -93h-139v425c0 64 4 109 4 109l-4 1s-9 -28 -40 -75l-188 -290h-43l-171 257c-36 54 -54 89 -54 89l-3 -1s7 -43 7 -110v-322c0 -36 5 -83 5 -83
h-109z" />
    <glyph glyph-name="afii10030.sc" horiz-adv-x="850" 
d="M92 0v496c0 52 -5 105 -5 105l127 5l210 -336l209 331l125 5v-515c0 -55 5 -91 5 -91h-139v294c0 89 7 140 7 140l-5 1s-14 -39 -52 -99l-145 -224h-42l-148 228c-30 46 -48 85 -48 85l-3 -2s7 -40 7 -111v-222c0 -52 5 -90 5 -90h-108z" />
    <glyph glyph-name="afii10031" unicode="&#x41d;" horiz-adv-x="782" 
d="M96 0v598c0 51 -6 103 -6 103l144 5v-297h314v189c0 51 -6 103 -6 103l144 5v-613c0 -46 5 -93 5 -93h-143v315h-314v-222c0 -46 5 -93 5 -93h-143z" />
    <glyph glyph-name="afii10031.sc" horiz-adv-x="724" 
d="M92 0v498c0 51 -6 103 -6 103l139 5v-259h274v151c0 51 -6 103 -6 103l139 5v-513c0 -46 5 -93 5 -93h-138v253h-274v-160c0 -46 5 -93 5 -93h-138z" />
    <glyph glyph-name="afii10032" unicode="&#x41e;" horiz-adv-x="759" 
d="M388 80c121 0 172 104 172 258c0 145 -42 282 -189 282c-121 0 -172 -104 -172 -258c0 -145 42 -282 189 -282zM368 -10c-204 0 -311 169 -311 347c0 220 110 373 334 373c204 0 311 -169 311 -347c0 -220 -110 -373 -334 -373z" />
    <glyph glyph-name="afii10032.sc" horiz-adv-x="697" 
d="M361 81c91 0 142 81 142 192c0 145 -42 246 -169 246c-94 0 -141 -85 -141 -196c0 -145 45 -242 168 -242zM338 -10c-179 0 -281 125 -281 305c0 154 82 315 301 315c180 0 282 -129 282 -309c0 -154 -82 -311 -302 -311z" />
    <glyph glyph-name="afii10033" unicode="&#x41f;" horiz-adv-x="752" 
d="M96 0v597c0 51 -6 103 -6 103h566v-607c0 -46 5 -93 5 -93h-143v606h-284v-513c0 -46 5 -93 5 -93h-143z" />
    <glyph glyph-name="afii10033.sc" horiz-adv-x="704" 
d="M92 0v498c0 51 -6 103 -6 103h526v-508c0 -46 5 -93 5 -93h-138v507h-254v-414c0 -46 5 -93 5 -93h-138z" />
    <glyph glyph-name="afii10034" unicode="&#x420;" horiz-adv-x="605" 
d="M96 0v598c0 51 -6 102 -6 102h216c173 0 263 -101 263 -209c0 -133 -102 -244 -269 -244h-66v-154c0 -46 5 -93 5 -93h-143zM234 340h50c101 0 145 58 145 146c0 70 -45 122 -137 122h-58v-268z" />
    <glyph glyph-name="afii10034.sc" horiz-adv-x="587" 
d="M92 0v498c0 51 -6 103 -6 103h221c172 0 238 -94 238 -212c0 -131 -87 -222 -253 -222h-67v-74c0 -46 5 -93 5 -93h-138zM225 262h62c81 0 123 35 123 127c0 78 -31 117 -117 117h-68v-244z" />
    <glyph glyph-name="afii10035" unicode="&#x421;" horiz-adv-x="594" 
d="M404 -10c-220 0 -348 141 -348 339c0 228 119 384 329 384c63 0 116 -14 167 -20l-14 -98c-58 3 -92 20 -155 20c-116 0 -185 -99 -185 -251c0 -151 57 -274 212 -274c79 0 130 19 130 19l17 -90s-52 -29 -153 -29z" />
    <glyph glyph-name="afii10035.sc" horiz-adv-x="572" 
d="M353 -10c-169 0 -296 100 -296 301c0 161 89 319 283 319c90 0 141 -29 191 -43l-29 -98c-52 14 -89 42 -167 42c-92 0 -138 -73 -138 -208c0 -144 54 -214 168 -214c85 0 148 29 148 29l13 -87s-63 -41 -173 -41z" />
    <glyph glyph-name="afii10036" unicode="&#x422;" horiz-adv-x="589" 
d="M227 0v605l-117 2c-41 1 -87 -7 -87 -7l5 100h540l-4 -99s-32 3 -80 4h-119v-512c0 -46 5 -93 5 -93h-143z" />
    <glyph glyph-name="afii10036.sc" horiz-adv-x="552" 
d="M206 0v508l-106 -2c-33 -1 -77 -6 -77 -6l5 101h502l-5 -101s-47 5 -70 6l-116 2v-415c0 -46 5 -93 5 -93h-138z" />
    <glyph glyph-name="afii10037" unicode="&#x423;" horiz-adv-x="608" 
d="M316 0h-127c21 53 59 116 82 153l-215 444c-25 52 -53 103 -53 103l147 3l146 -309c27 -57 42 -117 42 -117h3s14 58 39 119l60 145c38 96 50 159 50 159h107s-21 -85 -82 -225l-123 -279c-68 -155 -76 -196 -76 -196z" />
    <glyph glyph-name="afii10037.sc" horiz-adv-x="550" 
d="M166 0c13 34 47 90 71 132l-191 392c-25 49 -43 77 -43 77l145 6l130 -287c17 -38 24 -68 24 -68h4s6 35 23 74l37 86c56 130 67 189 67 189h106s-21 -81 -115 -283c-44 -91 -99 -215 -133 -318h-125z" />
    <glyph glyph-name="afii10038" unicode="&#x424;" horiz-adv-x="846" 
d="M359 -20l1 101c-228 1 -318 145 -318 285c0 148 90 282 318 283c0 52 -5 101 -5 101l137 5v-106c227 -1 318 -135 318 -283c0 -140 -91 -285 -318 -285c0 -42 5 -101 5 -101h-138zM492 169c91 0 183 54 183 197c0 141 -99 196 -183 196v-393zM360 169v393
c-78 -1 -183 -56 -183 -196c0 -143 88 -197 183 -197z" />
    <glyph glyph-name="afii10038.sc" horiz-adv-x="770" 
d="M325 -5v74c-210 0 -283 111 -283 245c0 141 87 243 282 243c0 34 -5 69 -5 69l126 5v-74c206 0 283 -101 283 -243c0 -134 -78 -245 -283 -245c0 -40 5 -74 5 -74h-125zM325 158v310c-126 0 -150 -75 -150 -154c0 -72 23 -156 150 -156zM445 158c107 0 150 59 150 156
c0 79 -24 154 -150 154v-310z" />
    <glyph glyph-name="afii10039" unicode="&#x425;" horiz-adv-x="654" 
d="M483 -5l-171 275l-73 -120c-55 -89 -90 -150 -90 -150h-125s39 82 116 183l117 160l-162 251c-43 63 -73 106 -73 106l162 5l155 -263l84 122c41 60 75 138 75 138h122s-24 -73 -93 -166l-129 -173l175 -267c30 -45 66 -96 66 -96z" />
    <glyph glyph-name="afii10039.sc" horiz-adv-x="611" 
d="M440 -3l-150 220l-67 -96c-52 -74 -76 -122 -76 -122l-118 2s26 60 101 157l108 140l-151 219c-27 40 -64 83 -64 83l155 5l142 -217l63 98c49 76 67 114 67 114h124s-22 -50 -96 -150l-107 -144l159 -222c29 -41 65 -85 65 -85z" />
    <glyph glyph-name="afii10040" unicode="&#x426;" horiz-adv-x="787" 
d="M629 -206l-8 206h-525v598c0 51 -6 103 -6 103l144 5v-612h294v504c0 51 -6 103 -6 103l144 5v-612h73v-204c0 -43 5 -90 5 -90z" />
    <glyph glyph-name="afii10040.sc" horiz-adv-x="746" 
d="M580 -186l-3 186h-485v498c0 51 -6 103 -6 103l139 5v-514h274v406c0 51 -6 103 -6 103l139 5v-514h60v-182c0 -46 5 -90 5 -90z" />
    <glyph glyph-name="afii10041" unicode="&#x427;" horiz-adv-x="700" 
d="M466 0v278s-52 -23 -154 -23c-182 0 -261 105 -261 260v83c0 51 -6 103 -6 103l144 5v-178c0 -133 58 -179 162 -179c68 0 115 14 115 14v235c0 51 -6 103 -6 103l144 5v-613c0 -46 5 -93 5 -93h-143z" />
    <glyph glyph-name="afii10041.sc" horiz-adv-x="638" 
d="M413 0v202s-37 -17 -131 -17c-123 0 -227 55 -227 194v119c0 51 -6 103 -6 103l139 5v-194c0 -103 44 -132 122 -135c67 -2 103 13 103 13v208c0 51 -6 103 -6 103l139 5v-513c0 -46 5 -93 5 -93h-138z" />
    <glyph glyph-name="afii10042" unicode="&#x428;" horiz-adv-x="1042" 
d="M96 0v598c0 51 -6 103 -6 103l144 5v-612h218v504c0 51 -6 103 -6 103l144 5v-612h218v504c0 51 -6 103 -6 103l144 5v-613c0 -46 5 -93 5 -93h-855z" />
    <glyph glyph-name="afii10042.sc" horiz-adv-x="943" 
d="M92 0v498c0 51 -6 103 -6 103l139 5v-514h180v406c0 51 -6 103 -6 103l139 5v-514h180v406c0 51 -6 103 -6 103l139 5v-513c0 -46 5 -93 5 -93h-764z" />
    <glyph glyph-name="afii10043" unicode="&#x429;" horiz-adv-x="1067" 
d="M909 -206l-8 206h-805v598c0 51 -6 103 -6 103l144 5v-612h218v504c0 51 -6 103 -6 103l144 5v-612h218v504c0 51 -6 103 -6 103l144 5v-612h73v-204c0 -43 5 -90 5 -90z" />
    <glyph glyph-name="afii10043.sc" horiz-adv-x="965" 
d="M799 -186l-3 186h-704v498c0 51 -6 103 -6 103l139 5v-514h180v406c0 51 -6 103 -6 103l139 5v-514h180v406c0 51 -6 103 -6 103l139 5v-514h60v-182c0 -43 5 -90 5 -90z" />
    <glyph glyph-name="afii10044" unicode="&#x42a;" horiz-adv-x="706" 
d="M189 0v606h-70c-49 0 -98 -7 -98 -7l7 101h299v-247h82c149 0 263 -73 263 -205c0 -142 -93 -248 -263 -248h-220zM327 95h47c126 0 158 67 158 131c0 66 -32 132 -157 132h-48v-263z" />
    <glyph glyph-name="afii10044.sc" horiz-adv-x="677" 
d="M182 0v509h-84c-38 -1 -78 -7 -78 -7l4 99h291v-215h81c130 0 246 -58 246 -189c0 -128 -97 -197 -250 -197h-210zM315 93h77c68 0 110 38 110 100c0 72 -51 100 -134 100h-53v-200z" />
    <glyph glyph-name="afii10045" unicode="&#x42b;" horiz-adv-x="890" 
d="M96 0v598c0 51 -6 102 -6 102l144 5v-252h82c149 0 263 -73 263 -205c0 -142 -93 -248 -263 -248h-220zM656 0v598c0 51 -6 103 -6 103l144 5v-613c0 -46 5 -93 5 -93h-143zM234 95h47c126 0 158 67 158 131c0 66 -32 132 -157 132h-48v-263z" />
    <glyph glyph-name="afii10045.sc" horiz-adv-x="862" 
d="M92 0v515c0 50 -6 86 -6 86l139 5v-220h81c130 0 246 -58 246 -189c0 -128 -97 -197 -250 -197h-210zM637 0v498c0 51 -6 103 -6 103l139 5v-513c0 -46 5 -93 5 -93h-138zM225 93h77c59 0 110 38 110 100c0 74 -62 100 -134 100h-53v-200z" />
    <glyph glyph-name="afii10046" unicode="&#x42c;" horiz-adv-x="613" 
d="M96 0v598c0 51 -6 102 -6 102l144 5v-252h82c149 0 263 -73 263 -205c0 -142 -93 -248 -263 -248h-220zM234 95h47c126 0 158 67 158 131c0 66 -32 132 -157 132h-48v-263z" />
    <glyph glyph-name="afii10046.sc" horiz-adv-x="587" 
d="M92 0v515c0 50 -6 86 -6 86l139 5v-220h81c130 0 246 -58 246 -189c0 -128 -97 -197 -250 -197h-210zM225 93h77c64 0 110 38 110 100c0 74 -54 100 -134 100h-53v-200z" />
    <glyph glyph-name="afii10047" unicode="&#x42d;" horiz-adv-x="585" 
d="M115 297v108l269 -5c-10 123 -70 213 -205 213c-64 0 -122 -19 -122 -19v90s53 29 159 29c191 0 312 -141 312 -339c0 -199 -109 -384 -319 -384c-63 0 -116 14 -167 20l14 98c58 -3 92 -20 155 -20c102 0 160 87 172 217z" />
    <glyph glyph-name="afii10047.sc" horiz-adv-x="581" 
d="M149 255v103l233 -9c-10 81 -54 162 -158 162c-72 0 -108 -29 -160 -43l-30 99c50 14 101 43 201 43c151 0 290 -73 290 -277c0 -206 -123 -343 -306 -343c-110 0 -173 41 -173 41l13 87s63 -31 148 -31c121 0 165 78 175 175z" />
    <glyph glyph-name="afii10048" unicode="&#x42e;" horiz-adv-x="1035" 
d="M644 -10c-196 0 -302 155 -311 325h-99v-222c0 -46 5 -93 5 -93h-143v598c0 51 -6 103 -6 103l144 5v-297h103c22 180 131 301 330 301c204 0 311 -169 311 -347c0 -220 -110 -373 -334 -373zM664 80c111 0 172 104 172 258c0 145 -42 282 -189 282
c-113 0 -172 -104 -172 -258c0 -145 42 -282 189 -282z" />
    <glyph glyph-name="afii10048.sc" horiz-adv-x="974" 
d="M621 -10c-176 0 -280 106 -295 263h-101v-160c0 -46 5 -93 5 -93h-138v498c0 51 -6 103 -6 103l139 5v-259h102c18 136 109 263 291 263c193 0 300 -129 300 -309c0 -154 -87 -311 -297 -311zM634 81c100 0 147 89 147 204c0 133 -47 234 -174 234
c-100 0 -146 -85 -146 -208c0 -133 50 -230 173 -230z" />
    <glyph glyph-name="afii10049" unicode="&#x42f;" horiz-adv-x="644" 
d="M28 0l174 281c-75 27 -127 100 -127 193c0 136 105 226 262 226h211v-598c0 -51 6 -102 6 -102l-144 -5v252h-95l-141 -247h-146zM351 342h59v263h-56c-91 0 -139 -45 -139 -131c0 -92 56 -132 136 -132z" />
    <glyph glyph-name="afii10049.sc" horiz-adv-x="618" 
d="M40 0l126 236c-63 32 -99 90 -99 163c0 128 96 202 238 202h221v-508c0 -46 5 -93 5 -93h-138v209h-100l-103 -209h-150zM314 298h79v210h-80c-58 0 -106 -30 -106 -105c0 -65 46 -105 107 -105z" />
    <glyph glyph-name="afii10050" unicode="&#x490;" horiz-adv-x="534" 
d="M96 0v598c0 51 -6 102 -6 102h319l15 163h89l-5 -265l-274 9v-514c0 -46 5 -93 5 -93h-143z" />
    <glyph glyph-name="afii10050.sc" horiz-adv-x="501" 
d="M92 0v498c0 51 -6 103 -6 103h293l16 149h89l-5 -245s-42 5 -101 7l-153 1v-420c0 -46 5 -93 5 -93h-138z" />
    <glyph glyph-name="afii10051" unicode="&#x402;" horiz-adv-x="735" 
d="M515 -57l-60 95c69 38 110 111 110 199c0 70 -31 113 -116 113c-54 0 -87 -10 -87 -10v-247c0 -46 5 -93 5 -93h-143v609l-109 2c-53 1 -95 -7 -95 -7l9 96h536l-4 -95s-78 7 -98 6l-101 -2v-181s45 22 118 22c152 0 217 -91 217 -204c0 -124 -40 -227 -182 -303z" />
    <glyph glyph-name="afii10051.sc" horiz-adv-x="726" 
d="M460 -139l-47 83c88 44 138 118 138 225c0 79 -33 117 -108 117c-47 0 -86 -8 -104 -11v-182c0 -46 5 -93 5 -93h-138v506l-95 -1c-42 -1 -88 -6 -88 -6l7 102h499l-5 -102s-49 4 -84 5l-101 2v-144c38 12 82 20 135 20c124 0 210 -58 210 -205
c0 -164 -86 -250 -224 -316z" />
    <glyph glyph-name="afii10052" unicode="&#x403;" horiz-adv-x="533" 
d="M291 750l-70 73l160 181l97 -100zM96 0v598c0 51 -6 102 -6 102h423l-5 -109s-41 8 -107 8h-167v-506c0 -46 5 -93 5 -93h-143z" />
    <glyph glyph-name="afii10052.sc" horiz-adv-x="502" 
d="M92 -5v503c0 51 -6 103 -6 103h398l-5 -96s-54 5 -129 6l-125 2v-420c0 -46 5 -93 5 -93zM298 657l-76 82l160 181l103 -109z" />
    <glyph glyph-name="afii10053" unicode="&#x404;" horiz-adv-x="599" 
d="M394 -10c-203 0 -338 141 -338 339c0 228 119 384 329 384c63 0 116 -14 167 -20l-14 -96c-58 3 -92 20 -155 20c-117 0 -182 -100 -187 -216l280 4v-103l-276 4c5 -103 67 -218 191 -218c106 0 156 22 156 22v-95s-46 -25 -153 -25z" />
    <glyph glyph-name="afii10053.sc" horiz-adv-x="568" 
d="M427 255l-228 6c11 -116 69 -172 166 -172c85 0 148 29 148 29l13 -87s-63 -41 -173 -41c-169 0 -296 100 -296 301c0 161 80 319 283 319c90 0 141 -29 191 -43l-29 -98c-52 14 -89 42 -167 42c-82 0 -127 -53 -136 -162l228 4v-98z" />
    <glyph glyph-name="afii10054" unicode="&#x405;" horiz-adv-x="549" 
d="M231 -10c-111 0 -169 25 -169 25v97s73 -23 169 -23c97 0 130 48 130 91c0 48 -10 86 -118 124c-117 42 -182 100 -182 207c0 124 91 202 225 202c84 0 125 -14 192 -20l-16 -100c-62 4 -106 20 -156 20c-76 0 -108 -35 -108 -89c0 -46 23 -82 112 -116
c135 -52 188 -107 188 -218c0 -125 -97 -200 -267 -200z" />
    <glyph glyph-name="afii10054.sc" horiz-adv-x="520" 
d="M247 -11c-120 0 -191 39 -191 39l28 90c46 -19 107 -34 163 -34c69 0 92 24 92 64c0 50 -42 76 -138 111c-92 33 -145 97 -145 174c0 112 84 177 212 177c90 0 132 -22 182 -36l-37 -98c-48 13 -93 39 -161 39c-40 0 -67 -27 -67 -61c0 -55 43 -75 112 -101
c116 -44 173 -88 173 -186c0 -106 -83 -178 -223 -178z" />
    <glyph glyph-name="afii10055" unicode="&#x406;" horiz-adv-x="330" 
d="M96 0v598c0 51 -6 103 -6 103l144 5v-613c0 -46 5 -93 5 -93h-143z" />
    <glyph glyph-name="afii10055.sc" horiz-adv-x="317" 
d="M92 0v498c0 51 -6 103 -6 103l139 5v-513c0 -46 5 -93 5 -93h-138z" />
    <glyph glyph-name="afii10056" unicode="&#x407;" horiz-adv-x="330" 
d="M96 0v598c0 51 -6 103 -6 103l144 5v-613c0 -46 5 -93 5 -93h-143zM62 752c-44 0 -77 31 -77 81c0 53 37 82 84 82c48 0 76 -29 76 -78c0 -55 -33 -85 -83 -85zM260 752c-44 0 -77 31 -77 81c0 53 37 82 84 82c48 0 76 -29 76 -78c0 -55 -33 -85 -83 -85z" />
    <glyph glyph-name="afii10056.sc" horiz-adv-x="317" 
d="M59 691c-42 0 -73 29 -73 77c0 49 35 76 80 76c44 0 70 -27 70 -72c0 -53 -31 -81 -77 -81zM243 691c-42 0 -73 29 -73 77c0 49 35 76 80 76c44 0 70 -27 70 -72c0 -53 -31 -81 -77 -81zM92 0v498c0 51 -6 103 -6 103l139 5v-513c0 -46 5 -93 5 -93h-138z" />
    <glyph glyph-name="afii10057" unicode="&#x408;" horiz-adv-x="329" 
d="M64 -209l-76 61c69 88 85 101 98 141c9 26 10 58 10 97v508c0 51 -6 103 -6 103l144 5v-615c0 -45 -4 -79 -18 -114c-20 -53 -57 -89 -152 -186z" />
    <glyph glyph-name="afii10057.sc" horiz-adv-x="318" 
d="M63 -210l-78 62c64 80 108 118 108 238v408c0 51 -6 103 -6 103l140 5v-515c0 -136 -60 -194 -164 -301z" />
    <glyph glyph-name="afii10058" unicode="&#x409;" horiz-adv-x="988" 
d="M66 -12l-55 117c149 57 147 245 171 595h429v-247h91c125 0 253 -81 253 -210c0 -148 -93 -243 -263 -243h-219v606h-172c-22 -326 -31 -541 -235 -618zM611 95h31c135 0 173 75 173 140c0 66 -43 123 -149 123h-55v-263z" />
    <glyph glyph-name="afii10058.sc" horiz-adv-x="935" 
d="M76 -10l-69 100c106 58 153 150 163 511h403v-215h81c130 0 246 -58 246 -189c0 -128 -97 -197 -250 -197h-210v507h-158c-11 -317 -75 -444 -206 -517zM573 93h77c80 0 110 55 110 110c0 49 -48 90 -134 90h-53v-200z" />
    <glyph glyph-name="afii10059" unicode="&#x40a;" horiz-adv-x="1083" 
d="M96 0v598c0 51 -6 103 -6 103l144 5v-299h334v191c0 51 -6 101 -6 101l144 5v-251h91c125 0 253 -81 253 -210c0 -148 -93 -243 -263 -243h-219v313h-334v-220c0 -46 5 -93 5 -93h-143zM706 95h31c135 0 173 75 173 140c0 66 -43 123 -149 123h-55v-263z" />
    <glyph glyph-name="afii10059.sc" horiz-adv-x="989" 
d="M92 0v498c0 51 -6 103 -6 103l139 5v-259h274v185c0 49 -6 69 -6 69l139 5v-220h76c130 0 246 -58 246 -189c0 -128 -97 -197 -250 -197h-205v253h-274v-160c0 -46 5 -93 5 -93h-138zM632 93h72c80 0 110 55 110 110c0 49 -48 90 -134 90h-48v-200z" />
    <glyph glyph-name="afii10060" unicode="&#x40b;" horiz-adv-x="767" 
d="M225 0v609l-103 2c-45 1 -101 -7 -101 -7l5 96h540l-4 -95s-70 5 -84 4h-115v-189s52 30 160 30c126 0 191 -66 191 -214v-236h-138v216c0 94 -23 134 -129 134c-48 0 -84 -7 -84 -7v-250c0 -46 5 -93 5 -93h-143z" />
    <glyph glyph-name="afii10060.sc" horiz-adv-x="736" 
d="M207 0l1 506l-106 -2c-42 -1 -78 -5 -78 -5l2 102h504l-5 -102s-37 6 -89 6l-96 1v-143c34 11 83 19 131 19c136 0 216 -57 216 -205v-177h-133v180c0 75 -34 106 -108 106c-46 0 -90 -8 -106 -12v-181c0 -46 5 -93 5 -93h-138z" />
    <glyph glyph-name="afii10061" unicode="&#x40c;" horiz-adv-x="652" 
d="M348 750l-70 73l160 181l97 -100zM495 -5l-215 317h-46v-219c0 -46 5 -93 5 -93h-143v598c0 51 -6 103 -6 103l144 5v-301h58c115 155 146 223 182 295h133c-42 -75 -103 -176 -218 -321l208 -309c23 -35 51 -70 51 -70z" />
    <glyph glyph-name="afii10061.sc" horiz-adv-x="593" 
d="M343 663l-70 73l160 181l97 -100zM92 0v498c0 51 -6 103 -6 103l139 5v-260h39l100 133c62 85 82 120 82 120h112s-24 -60 -112 -169l-91 -112l217 -318h-152l-170 255h-25v-162c0 -46 5 -93 5 -93h-138z" />
    <glyph glyph-name="afii10062" unicode="&#x40e;" horiz-adv-x="608" 
d="M327 761c-90 0 -163 54 -200 86l86 88c39 -35 64 -81 114 -81c54 0 87 42 126 77l58 -90c-41 -38 -98 -80 -184 -80zM316 0h-127c21 53 59 116 82 153l-215 444c-25 52 -53 103 -53 103l147 3l146 -309c27 -57 42 -117 42 -117h3s14 58 39 119l60 145
c38 96 50 159 50 159h107s-21 -85 -82 -225l-123 -279c-68 -155 -76 -196 -76 -196z" />
    <glyph glyph-name="afii10062.sc" horiz-adv-x="550" 
d="M299 676c-90 0 -163 54 -200 86l86 88c39 -35 64 -81 114 -81c54 0 87 42 126 77l58 -90c-41 -38 -98 -80 -184 -80zM166 0c13 34 47 90 71 132l-191 392c-25 49 -43 77 -43 77l145 6l130 -287c17 -38 24 -68 24 -68h4s6 35 23 74l37 86c56 130 67 189 67 189h106
s-21 -81 -115 -283c-44 -91 -99 -215 -133 -318h-125z" />
    <glyph glyph-name="afii10065" unicode="&#x430;" horiz-adv-x="545" 
d="M188 -10c-105 0 -150 64 -150 132c0 74 42 141 171 162c49 8 88 9 116 9v31c0 62 -40 94 -104 94c-83 0 -144 -22 -144 -22v87s67 27 172 27c161 0 211 -81 209 -180c-1 -61 -4 -180 -4 -230c0 -12 2 -18 11 -18c17 0 38 20 38 20v-83s-32 -29 -78 -29
c-50 0 -71 31 -79 62c-36 -33 -96 -62 -158 -62zM229 84c31 0 69 18 92 36c0 42 1 65 2 107c0 0 -48 -2 -85 -13c-45 -13 -66 -41 -66 -78c0 -31 19 -52 57 -52z" />
    <glyph glyph-name="afii10066" unicode="&#x431;" horiz-adv-x="592" 
d="M306 -10c-152 0 -244 96 -244 297c0 270 67 427 322 454c105 11 126 20 126 20l23 -110s-32 -14 -135 -24c-164 -18 -227 -76 -249 -237l5 -1c23 59 90 99 171 99c133 0 219 -88 219 -230c0 -168 -97 -268 -238 -268zM297 76c77 0 116 68 116 175c0 83 -40 136 -107 136
c-74 0 -115 -57 -115 -158c0 -87 39 -153 106 -153z" />
    <glyph glyph-name="afii10067" unicode="&#x432;" horiz-adv-x="548" 
d="M76 0v397c0 66 -6 103 -6 103h230c121 0 178 -49 178 -123c0 -59 -33 -103 -87 -115v-3c60 -7 112 -40 112 -111c0 -96 -67 -148 -203 -148h-224zM203 87h91c46 0 79 25 79 64c0 29 -20 61 -86 61h-84v-125zM203 299h84c38 0 66 21 66 58c0 39 -31 56 -73 56h-77v-114z
" />
    <glyph glyph-name="afii10068" unicode="&#x433;" horiz-adv-x="430" 
d="M76 0v397c0 51 -6 103 -6 103h343l-4 -102s-24 5 -60 5l-140 2v-322c0 -36 5 -83 5 -83h-138z" />
    <glyph glyph-name="afii10069" unicode="&#x434;" horiz-adv-x="612" 
d="M25 -167l-10 259h48c56 70 72 169 85 408h362v-408h63v-171c0 -36 5 -83 5 -83l-115 -5l-7 167h-321v-79c0 -36 5 -83 5 -83zM185 92h192v315h-123c-8 -165 -26 -243 -69 -315z" />
    <glyph glyph-name="afii10070" unicode="&#x435;" horiz-adv-x="554" 
d="M318 -10c-166 0 -273 93 -273 252c0 169 107 268 251 268c166 0 229 -126 211 -273h-327c4 -90 67 -147 158 -147c83 0 149 27 149 27v-93s-60 -34 -169 -34zM187 321l185 4c-2 70 -29 97 -80 97c-57 0 -98 -42 -105 -101z" />
    <glyph glyph-name="e" unicode="e" horiz-adv-x="560" 
d="M321 -10c-166 0 -273 93 -273 252c0 169 107 268 251 268c166 0 229 -126 211 -273h-327c4 -90 67 -147 158 -147c83 0 149 27 149 27v-93s-60 -34 -169 -34zM190 321l185 4c-2 70 -29 97 -80 97c-57 0 -98 -42 -105 -101z" />
    <glyph glyph-name="afii10071" unicode="&#x451;" horiz-adv-x="554" 
d="M191 596c-44 0 -77 31 -77 81c0 53 37 82 84 82c48 0 76 -29 76 -78c0 -55 -33 -85 -83 -85zM399 596c-44 0 -77 31 -77 81c0 53 37 82 84 82c48 0 76 -29 76 -78c0 -55 -33 -85 -83 -85zM318 -10c-166 0 -273 93 -273 252c0 169 107 268 251 268
c166 0 229 -126 211 -273h-327c4 -90 67 -147 158 -147c83 0 149 27 149 27v-93s-60 -34 -169 -34zM187 321l185 4c-2 70 -29 97 -80 97c-57 0 -98 -42 -105 -101z" />
    <glyph glyph-name="afii10072" unicode="&#x436;" horiz-adv-x="803" 
d="M650 -5l-150 216h-32v-118c0 -46 5 -93 5 -93h-138v211h-31l-151 -211h-148s29 28 65 75l146 188l-91 108c-63 72 -89 129 -89 129l127 1s10 -33 69 -116l60 -89h43v101c0 51 -6 103 -6 103l139 5v-209h47l58 89c52 82 63 115 63 115h120s-23 -58 -80 -129l-85 -106
l142 -190c36 -47 65 -75 65 -75z" />
    <glyph glyph-name="afii10073" unicode="&#x437;" horiz-adv-x="464" 
d="M184 -10c-97 0 -148 33 -148 33v89s56 -27 140 -27c54 0 104 19 104 66c0 43 -29 60 -77 60h-72v93h62c56 0 75 23 75 55c0 31 -24 55 -70 55c-48 0 -101 -14 -142 -21l-16 96c49 7 101 21 165 21c104 0 201 -37 201 -135c0 -68 -41 -100 -95 -115v-3
c63 -10 107 -44 107 -109c0 -86 -72 -158 -234 -158z" />
    <glyph glyph-name="afii10074" unicode="&#x438;" horiz-adv-x="632" 
d="M76 0v397c0 51 -6 103 -6 103l137 5v-281c0 -39 -4 -84 -4 -84h4s16 37 37 70l179 290l133 5v-412c0 -46 5 -93 5 -93h-136v257c0 57 7 95 7 95h-5s-14 -40 -44 -86l-174 -266h-133z" />
    <glyph glyph-name="afii10075" unicode="&#x439;" horiz-adv-x="632" 
d="M321 598c-90 0 -163 49 -200 81l86 88c39 -35 60 -81 114 -81c57 0 84 42 126 77l69 -84c-41 -38 -104 -81 -195 -81zM76 0v397c0 51 -6 103 -6 103l137 5v-281c0 -39 -4 -84 -4 -84h4s16 37 37 70l179 290l133 5v-412c0 -46 5 -93 5 -93h-136v257c0 57 7 95 7 95h-5
s-14 -40 -44 -86l-174 -266h-133z" />
    <glyph glyph-name="afii10076" unicode="&#x43a;" horiz-adv-x="549" 
d="M384 -2l-130 212h-45v-117c0 -46 5 -93 5 -93h-138v397c0 51 -6 103 -6 103l139 5v-208h41l71 106c42 63 59 97 59 97h129s-14 -32 -83 -119l-80 -100l137 -205c25 -38 58 -76 58 -76z" />
    <glyph glyph-name="afii10077" unicode="&#x43b;" horiz-adv-x="574" 
d="M62 -17l-54 104c105 58 124 124 134 413h356v-417c0 -36 5 -83 5 -83h-138v407h-111c-10 -232 -41 -372 -192 -424z" />
    <glyph glyph-name="afii10078" unicode="&#x43c;" horiz-adv-x="742" 
d="M74 0l3 397c-1 51 -4 103 -4 103l116 5l134 -209c32 -49 40 -70 40 -70h5s14 24 39 62l140 212l115 5l6 -412c2 -46 7 -93 7 -93h-129l-6 238c-1 58 6 111 6 111l-4 1s-12 -34 -45 -83l-126 -187h-41l-119 180c-26 39 -42 78 -42 78l-5 -2s5 -40 5 -82l-1 -161
c-1 -46 6 -93 6 -93h-100z" />
    <glyph glyph-name="afii10079" unicode="&#x43d;" horiz-adv-x="607" 
d="M76 0v397c0 51 -6 103 -6 103l139 5v-204h189v96c0 51 -6 103 -6 103l139 5v-412c0 -46 5 -93 5 -93h-138v207h-189v-114c0 -46 5 -93 5 -93h-138z" />
    <glyph glyph-name="afii10080" unicode="&#x43e;" horiz-adv-x="578" 
d="M291 80c69 0 105 57 105 157c0 113 -25 184 -109 184c-70 0 -105 -61 -105 -163c0 -105 33 -178 109 -178zM276 -10c-144 0 -229 97 -229 243c0 172 97 277 255 277c144 0 229 -96 229 -243c0 -171 -97 -277 -255 -277z" />
    <glyph glyph-name="o" unicode="o" horiz-adv-x="584" 
d="M294 80c69 0 105 57 105 157c0 113 -25 184 -109 184c-70 0 -105 -61 -105 -163c0 -105 33 -178 109 -178zM279 -10c-144 0 -229 97 -229 243c0 172 97 277 255 277c144 0 229 -96 229 -243c0 -171 -97 -277 -255 -277z" />
    <glyph glyph-name="afii10081" unicode="&#x43f;" horiz-adv-x="599" 
d="M76 0v397c0 51 -6 103 -6 103h453v-417c0 -36 5 -83 5 -83h-138v407h-181v-324c0 -36 5 -83 5 -83h-138z" />
    <glyph glyph-name="afii10082" unicode="&#x440;" horiz-adv-x="608" 
d="M76 -250v647c0 51 -6 103 -6 103l132 5l3 -48c38 34 72 53 147 53c133 0 209 -110 209 -233c0 -180 -102 -287 -241 -287c-73 0 -111 29 -111 29v-186c0 -36 5 -83 5 -83h-138zM298 80c84 0 126 75 126 167c0 121 -51 163 -110 163c-45 0 -74 -13 -107 -33
c1 -8 2 -26 2 -76v-191s34 -30 89 -30z" />
    <glyph glyph-name="p" unicode="p" horiz-adv-x="614" 
d="M79 -250v647c0 51 -6 103 -6 103l132 5l3 -48c38 34 72 53 147 53c133 0 209 -110 209 -233c0 -180 -102 -287 -241 -287c-73 0 -111 29 -111 29v-186c0 -36 5 -83 5 -83h-138zM301 80c84 0 126 75 126 167c0 121 -51 163 -110 163c-45 0 -74 -13 -107 -33
c1 -8 2 -26 2 -76v-191s34 -30 89 -30z" />
    <glyph glyph-name="afii10083" unicode="&#x441;" horiz-adv-x="478" 
d="M294 -10c-156 0 -248 102 -248 244c0 163 95 276 246 276c55 0 91 -17 142 -20l-10 -102c-51 4 -93 23 -137 23c-59 0 -106 -48 -106 -153c0 -101 51 -168 145 -168c60 0 109 27 109 27v-94s-52 -33 -141 -33z" />
    <glyph glyph-name="c" unicode="c" horiz-adv-x="484" 
d="M297 -10c-156 0 -248 102 -248 244c0 163 95 276 246 276c55 0 91 -17 142 -20l-10 -102c-51 4 -93 23 -137 23c-59 0 -106 -48 -106 -153c0 -101 51 -168 145 -168c60 0 109 27 109 27v-94s-52 -33 -141 -33z" />
    <glyph glyph-name="afii10084" unicode="&#x442;" horiz-adv-x="461" 
d="M166 0v408l-63 -2c-40 -1 -85 -4 -85 -4l5 98h420l-4 -98s-30 5 -66 6l-74 2v-327c0 -36 5 -83 5 -83h-138z" />
    <glyph glyph-name="afii10085" unicode="&#x443;" horiz-adv-x="516" 
d="M231 -254l-129 6s29 80 87 185l16 29l-155 431c-22 61 -42 103 -42 103l147 5l96 -293c19 -59 26 -99 26 -99h4s9 47 26 101l46 143c17 53 30 88 36 143h108c-5 -61 -29 -138 -56 -202l-126 -307c-51 -123 -84 -245 -84 -245z" />
    <glyph glyph-name="y" unicode="y" horiz-adv-x="524" 
d="M235 -254l-129 6s29 80 87 185l16 29l-155 431c-22 61 -42 103 -42 103l147 5l96 -293c19 -59 26 -99 26 -99h4s9 47 26 101l46 143c17 53 30 88 36 143h108c-5 -61 -29 -138 -56 -202l-126 -307c-51 -123 -84 -245 -84 -245z" />
    <glyph glyph-name="afii10086" unicode="&#x444;" horiz-adv-x="832" 
d="M351 -250v267s-36 -27 -99 -27c-145 0 -204 110 -204 240c0 173 101 280 234 280c43 0 69 -18 69 -18v155c0 51 -6 103 -6 103l137 5v-272s40 27 99 27c145 0 204 -110 204 -240c0 -173 -101 -280 -226 -280c-49 0 -77 18 -77 18v-175c0 -36 5 -83 5 -83h-136zM288 79
c34 0 63 13 63 13v317s-15 15 -49 15c-72 0 -117 -63 -117 -184c0 -102 38 -161 103 -161zM540 76c63 0 108 63 108 182c0 104 -38 163 -104 163c-36 0 -62 -13 -62 -13v-317s15 -15 58 -15z" />
    <glyph glyph-name="afii10087" unicode="&#x445;" horiz-adv-x="548" 
d="M382 -5l-125 175l-23 -34c-59 -87 -85 -136 -85 -136h-128s53 78 108 146l76 95l-122 176c-32 47 -63 83 -63 83l156 5l113 -173l31 48c60 93 75 120 75 120h116s-46 -76 -113 -164l-58 -77l139 -183c27 -36 59 -76 59 -76z" />
    <glyph glyph-name="x" unicode="x" horiz-adv-x="554" 
d="M385 -5l-125 175l-23 -34c-59 -87 -85 -136 -85 -136h-128s53 78 108 146l76 95l-122 176c-32 47 -63 83 -63 83l156 5l113 -173l31 48c60 93 75 120 75 120h116s-46 -76 -113 -164l-58 -77l139 -183c27 -36 59 -76 59 -76z" />
    <glyph glyph-name="afii10088" unicode="&#x446;" horiz-adv-x="637" 
d="M491 -167l-7 167h-408v397c0 51 -6 103 -6 103l139 5v-413h191v305c0 51 -6 103 -6 103l139 5v-413h68v-171c0 -36 5 -83 5 -83z" />
    <glyph glyph-name="afii10089" unicode="&#x447;" horiz-adv-x="551" 
d="M342 0v192s-41 -31 -118 -31c-93 0 -182 51 -182 177v59c0 51 -6 103 -6 103l139 5v-148c0 -73 41 -100 95 -100c48 0 72 16 72 16v124c0 51 -6 103 -6 103l139 5v-412c0 -46 5 -93 5 -93h-138z" />
    <glyph glyph-name="afii10090" unicode="&#x448;" horiz-adv-x="869" 
d="M76 0v397c0 51 -6 103 -6 103l139 5v-412h159v304c0 51 -6 103 -6 103l139 5v-412h159v304c0 51 -6 103 -6 103l139 5v-422c0 -36 5 -83 5 -83h-722z" />
    <glyph glyph-name="afii10091" unicode="&#x449;" horiz-adv-x="897" 
d="M751 -167l-7 167h-668v397c0 51 -6 103 -6 103l139 5v-413h159v305c0 51 -6 103 -6 103l139 5v-413h159v305c0 51 -6 103 -6 103l139 5v-413h68v-171c0 -36 5 -83 5 -83z" />
    <glyph glyph-name="afii10092" unicode="&#x44a;" horiz-adv-x="597" 
d="M145 0v409h-43c-38 -1 -82 -5 -82 -5l4 96h256v-165h85c157 0 201 -79 201 -161c0 -80 -40 -174 -201 -174h-220zM280 88h57c48 0 88 32 88 80s-38 79 -88 79h-57v-159z" />
    <glyph glyph-name="afii10093" unicode="&#x44b;" horiz-adv-x="761" 
d="M76 0v397c0 51 -6 103 -6 103l139 5v-170h77c116 0 209 -47 209 -161s-94 -174 -209 -174h-210zM552 0v397c0 51 -6 103 -6 103l139 5v-412c0 -46 5 -93 5 -93h-138zM209 88h57c48 0 88 32 88 80s-38 79 -88 79h-57v-159z" />
    <glyph glyph-name="afii10094" unicode="&#x44c;" horiz-adv-x="525" 
d="M76 0v397c0 51 -6 103 -6 103l139 5v-170h77c116 0 209 -47 209 -161s-94 -174 -209 -174h-210zM209 88h57c48 0 88 32 88 80s-38 79 -88 79h-57v-159z" />
    <glyph glyph-name="afii10095" unicode="&#x44d;" horiz-adv-x="477" 
d="M170 -10c-76 0 -132 28 -132 28v95s49 -23 128 -23c88 0 120 51 128 117l-180 -9v103l180 -7c-4 62 -39 117 -109 117c-49 0 -85 -15 -133 -22l-20 100c49 7 91 21 155 21c133 0 245 -83 245 -247c0 -167 -104 -273 -262 -273z" />
    <glyph glyph-name="afii10096" unicode="&#x44e;" horiz-adv-x="829" 
d="M522 -6c-138 0 -226 82 -234 213h-79v-114c0 -46 5 -93 5 -93h-138v397c0 51 -6 103 -6 103l139 5v-204h85c24 131 119 204 254 204c144 0 234 -91 234 -232c0 -177 -102 -279 -260 -279zM543 80c78 0 104 86 104 163c0 107 -32 178 -116 178c-80 0 -108 -76 -108 -168
c0 -94 30 -173 120 -173z" />
    <glyph glyph-name="afii10097" unicode="&#x44f;" horiz-adv-x="541" 
d="M32 0l116 190c-54 18 -92 65 -92 138c0 111 86 172 209 172h200v-407c0 -46 5 -93 5 -93h-138v157h-75l-86 -157h-139zM276 246h58v161h-59c-61 0 -81 -45 -81 -80c0 -44 29 -81 82 -81z" />
    <glyph glyph-name="afii10098" unicode="&#x491;" horiz-adv-x="430" 
d="M76 0v397c0 51 -6 103 -6 103h240l2 40c2 49 2 94 2 94h105l-10 -237l-200 5v-319c0 -36 5 -83 5 -83h-138z" />
    <glyph glyph-name="afii10099" unicode="&#x452;" horiz-adv-x="603" 
d="M381 -219l-66 61c74 79 95 145 95 246v129c0 92 -27 133 -117 133c-53 0 -85 -11 -85 -11s1 -28 1 -58v-198c0 -36 5 -83 5 -83h-138v540h-75v93h75v14c0 51 -6 103 -6 103l139 5l-1 -122h174v-93h-175v-114c44 15 79 24 135 24c105 0 196 -54 196 -205v-157
c0 -114 -45 -207 -157 -307z" />
    <glyph glyph-name="afii10100" unicode="&#x453;" horiz-adv-x="430" 
d="M236 572l-70 73l160 181l97 -100zM76 0v397c0 51 -6 103 -6 103h343l-4 -102s-24 5 -60 5l-140 2v-322c0 -36 5 -83 5 -83h-138z" />
    <glyph glyph-name="afii10101" unicode="&#x454;" horiz-adv-x="468" 
d="M298 -10c-161 0 -253 102 -253 250c0 149 95 270 241 270c66 0 95 -18 144 -20l-17 -103c-53 2 -75 27 -132 27c-45 0 -95 -38 -99 -120l178 7v-103l-175 7c6 -65 52 -115 125 -115c71 0 119 27 119 27v-94s-50 -33 -131 -33z" />
    <glyph glyph-name="afii10102" unicode="&#x455;" horiz-adv-x="449" 
d="M214 -10c-61 0 -106 16 -162 21l10 102c52 -5 102 -24 159 -24c49 0 75 10 75 40c0 27 -30 44 -96 69c-102 38 -151 70 -151 164c0 97 81 148 173 148c70 0 111 -17 165 -20l-10 -101c-64 4 -101 22 -160 22c-33 0 -58 -11 -58 -36c0 -22 9 -42 90 -70
c101 -35 157 -79 157 -164c0 -105 -78 -151 -192 -151z" />
    <glyph glyph-name="s" unicode="s" horiz-adv-x="455" 
d="M217 -10c-61 0 -106 16 -162 21l10 102c52 -5 102 -24 159 -24c49 0 75 10 75 40c0 27 -30 44 -96 69c-102 38 -151 70 -151 164c0 97 81 148 173 148c70 0 111 -17 165 -20l-10 -101c-64 4 -101 22 -160 22c-33 0 -58 -11 -58 -36c0 -22 9 -42 90 -70
c101 -35 157 -79 157 -164c0 -105 -78 -151 -192 -151z" />
    <glyph glyph-name="afii10103" unicode="&#x456;" horiz-adv-x="285" 
d="M76 0v397c0 51 -6 103 -6 103l139 5v-412c0 -46 5 -93 5 -93h-138zM136 596c-42 0 -75 29 -75 73c0 45 35 70 82 70c44 0 74 -25 74 -68c0 -47 -33 -75 -81 -75z" />
    <glyph glyph-name="i" unicode="i" horiz-adv-x="291" 
d="M79 0v397c0 51 -6 103 -6 103l139 5v-412c0 -46 5 -93 5 -93h-138zM139 596c-42 0 -75 29 -75 73c0 45 35 70 82 70c44 0 74 -25 74 -68c0 -47 -33 -75 -81 -75z" />
    <glyph glyph-name="afii10104" unicode="&#x457;" horiz-adv-x="285" 
d="M76 0v397c0 51 -6 103 -6 103l139 5v-412c0 -46 5 -93 5 -93h-138zM41 576c-40 0 -70 28 -70 72c0 49 34 73 75 73c42 0 67 -24 67 -69c0 -49 -28 -76 -72 -76zM253 576c-40 0 -70 28 -70 72c0 49 34 73 75 73c44 0 67 -24 67 -69c0 -49 -28 -76 -72 -76z" />
    <glyph glyph-name="afii10105" unicode="&#x458;" horiz-adv-x="285" 
d="M47 -257l-63 50c28 36 50 65 76 121c17 33 16 74 16 112v371c0 51 -6 103 -6 103l139 5v-479c0 -33 -1 -78 -19 -111c-30 -57 -79 -107 -143 -172zM140 596c-42 0 -75 29 -75 73c0 45 35 70 82 70c44 0 74 -25 74 -68c0 -47 -33 -75 -81 -75z" />
    <glyph glyph-name="j" unicode="j" horiz-adv-x="291" 
d="M50 -257l-63 50c28 36 50 65 76 121c17 33 16 74 16 112v371c0 51 -6 103 -6 103l139 5v-479c0 -33 -1 -78 -19 -111c-30 -57 -79 -107 -143 -172zM143 596c-42 0 -75 29 -75 73c0 45 35 70 82 70c44 0 74 -25 74 -68c0 -47 -33 -75 -81 -75z" />
    <glyph glyph-name="afii10106" unicode="&#x459;" horiz-adv-x="823" 
d="M62 -17l-54 103c91 50 123 99 134 414h356v-167h87c116 0 209 -53 209 -166c0 -101 -80 -167 -202 -167h-227v407h-111c-10 -249 -44 -374 -192 -424zM498 86h58c58 0 94 31 94 77c0 55 -30 84 -85 84h-67v-161z" />
    <glyph glyph-name="afii10107" unicode="&#x45a;" horiz-adv-x="842" 
d="M76 0v397c0 51 -6 103 -6 103l139 5v-204h174v96c0 51 -6 103 -6 103l139 5v-172h87c116 0 209 -45 209 -166c0 -107 -80 -167 -202 -167h-227v207h-174v-114c0 -46 5 -93 5 -93h-138zM516 86h58c58 0 94 31 94 77c0 55 -30 84 -85 84h-67v-161z" />
    <glyph glyph-name="afii10108" unicode="&#x45b;" horiz-adv-x="612" 
d="M76 0v540h-75v93h75v14c0 51 -6 103 -6 103l139 5l-1 -122h174v-93h-175v-114c44 15 79 24 135 24c105 0 206 -54 206 -205v-162c0 -45 5 -83 5 -83h-143v217c0 88 -38 133 -126 133c-42 0 -80 -11 -80 -11s5 -22 5 -58v-198c0 -36 5 -83 5 -83h-138z" />
    <glyph glyph-name="afii10109" unicode="&#x45c;" horiz-adv-x="549" 
d="M300 571l-70 73l160 181l97 -100zM384 -2l-130 212h-45v-117c0 -46 5 -93 5 -93h-138v397c0 51 -6 103 -6 103l139 5v-208h41l71 106c42 63 59 97 59 97h129s-14 -32 -83 -119l-80 -100l137 -205c25 -38 58 -76 58 -76z" />
    <glyph glyph-name="afii10110" unicode="&#x45e;" horiz-adv-x="516" 
d="M272 598c-90 0 -163 49 -200 81l86 88c39 -35 60 -81 114 -81c57 0 84 42 126 77l69 -84c-41 -38 -104 -81 -195 -81zM231 -254l-129 6s29 80 87 185l16 29l-155 431c-22 61 -42 103 -42 103l147 5l96 -293c19 -59 26 -99 26 -99h4s9 47 26 101l46 143
c17 53 30 88 36 143h108c-5 -61 -29 -138 -56 -202l-126 -307c-51 -123 -84 -245 -84 -245z" />
    <glyph glyph-name="afii10145" unicode="&#x40f;" horiz-adv-x="762" 
d="M326 -216l-8 216h-222v598c0 51 -6 103 -6 103l144 5v-612h294v504c0 51 -6 103 -6 103l144 5v-613c0 -46 5 -93 5 -93h-230v-120c0 -43 5 -90 5 -90z" />
    <glyph glyph-name="afii10145.sc" horiz-adv-x="724" 
d="M318 -176v176h-226v498c0 51 -6 103 -6 103l139 5v-534h274v426c0 51 -6 103 -6 103l139 5v-513c0 -46 5 -93 5 -93h-210v-80c0 -43 5 -90 5 -90z" />
    <glyph glyph-name="afii10193" unicode="&#x45f;" horiz-adv-x="609" 
d="M246 -167l-7 167h-163v397c0 51 -6 103 -6 103l139 5v-412h191v304c0 51 -6 103 -6 103l139 5v-422c0 -36 5 -83 5 -83h-179v-79c0 -36 5 -83 5 -83z" />
    <glyph glyph-name="afii61352" unicode="&#x2116;" horiz-adv-x="1175" 
d="M750 53v104h342v-104h-342zM919 300c41 0 64 51 64 128c0 76 -20 143 -68 143c-40 0 -62 -51 -62 -128c0 -76 22 -143 66 -143zM909 209c-116 0 -188 96 -188 216c0 128 69 237 206 237c116 0 186 -96 186 -216c0 -128 -67 -237 -204 -237zM565 -10l-335 459
c-15 22 -33 61 -33 61h-3s7 -45 7 -71v-346c0 -46 5 -93 5 -93h-110v598c0 51 -6 103 -6 103l101 5l334 -459c22 -32 32 -55 32 -55l3 1s-5 28 -5 68v337c0 51 -6 103 -6 103l111 5v-706z" />
    <glyph glyph-name="afii61352.sc" horiz-adv-x="1126" 
d="M705 0v94h342v-94h-342zM874 239c42 0 64 51 64 128c0 76 -13 143 -62 143c-50 0 -68 -51 -68 -128c0 -76 20 -143 66 -143zM864 148c-116 0 -188 96 -188 216c0 128 69 237 206 237c116 0 186 -96 186 -216c0 -128 -67 -237 -204 -237zM92 0v511c0 30 -5 90 -5 90l110 5
l294 -370c16 -21 30 -54 30 -54l5 1s-5 37 -5 61v241c0 63 -5 116 -5 116l110 5v-486c0 -53 4 -120 4 -120h-109l-291 364c-22 30 -34 59 -34 59l-4 -1s5 -31 5 -71v-231c0 -77 5 -120 5 -120h-110z" />
    <glyph glyph-name="agrave" unicode="&#xe0;" horiz-adv-x="546" 
d="M191 -10c-105 0 -150 64 -150 132c0 74 42 141 171 162c49 8 88 9 116 9v31c0 62 -40 94 -104 94c-83 0 -144 -22 -144 -22v87s67 27 172 27c161 0 211 -81 209 -180c-1 -61 -4 -180 -4 -230c0 -12 2 -18 11 -18c17 0 38 20 38 20v-83s-32 -29 -78 -29
c-50 0 -71 31 -79 62c-36 -33 -96 -62 -158 -62zM232 84c31 0 69 18 92 36c0 42 1 65 2 107c0 0 -48 -2 -85 -13c-45 -13 -66 -41 -66 -78c0 -31 19 -52 57 -52zM290 571l-187 154l96 101l160 -181z" />
    <glyph glyph-name="amacron" unicode="&#x101;" horiz-adv-x="546" 
d="M191 -10c-105 0 -150 64 -150 132c0 74 42 141 171 162c49 8 88 9 116 9v31c0 62 -40 94 -104 94c-83 0 -144 -22 -144 -22v87s67 27 172 27c161 0 211 -81 209 -180c-1 -61 -4 -180 -4 -230c0 -12 2 -18 11 -18c17 0 38 20 38 20v-83s-32 -29 -78 -29
c-50 0 -71 31 -79 62c-36 -33 -96 -62 -158 -62zM232 84c31 0 69 18 92 36c0 42 1 65 2 107c0 0 -48 -2 -85 -13c-45 -13 -66 -41 -66 -78c0 -31 19 -52 57 -52zM136 608v104h274v-104h-274z" />
    <glyph glyph-name="ampersand" unicode="&#x26;" horiz-adv-x="722" 
d="M277 -10c-119 0 -223 67 -223 188c0 91 51 150 123 189c-42 49 -79 103 -82 164c-7 102 67 183 198 183c115 0 199 -55 199 -162c0 -76 -68 -152 -144 -203l45 -51c33 -39 64 -72 93 -100c44 57 81 127 112 192l80 -40c-37 -74 -76 -149 -123 -211c51 -39 91 -57 115 -57
h10v-82h-32c-66 0 -113 11 -173 57c-53 -41 -117 -67 -198 -67zM273 259l-48 53c-21 -29 -36 -70 -36 -112c0 -80 51 -118 109 -118c38 0 74 13 107 36c-37 36 -79 82 -132 141zM224 555c0 -55 39 -104 75 -149c47 51 63 97 63 152c0 42 -23 72 -62 72
c-46 0 -76 -24 -76 -75z" />
    <glyph glyph-name="ampersand.sc" horiz-adv-x="643" 
d="M219 -10c-87 0 -168 49 -168 143c0 70 32 118 121 162c-42 57 -69 107 -69 170c0 96 85 150 193 150c94 0 171 -49 171 -129s-69 -142 -145 -186c31 -35 60 -68 87 -97c33 47 62 102 83 157l80 -31c-26 -64 -59 -131 -101 -189c46 -43 86 -69 123 -69h19v-71h-27
c-72 0 -135 22 -190 58c-50 -42 -108 -68 -177 -68zM232 479c0 -40 17 -83 43 -122c43 34 66 83 66 122c0 34 -17 59 -51 59c-30 0 -58 -17 -58 -59zM239 211c-8 9 -14 18 -21 27c-25 -25 -36 -56 -36 -84c0 -40 23 -73 65 -73c25 0 52 12 79 32c-31 29 -60 63 -87 98z" />
    <glyph glyph-name="ampersand.sctab" 
d="M190 -10c-94 0 -188 45 -188 153c0 65 38 118 108 153c-40 53 -70 101 -67 173c6 90 89 146 194 146c99 0 163 -53 163 -129c0 -80 -54 -140 -141 -185l11 -13c31 -40 60 -77 87 -109c27 42 48 96 60 157l84 -17c-14 -76 -41 -149 -82 -206c29 -26 56 -42 83 -42v-71h-22
c-51 0 -96 14 -136 37c-43 -30 -94 -47 -154 -47zM173 479c0 -38 14 -76 49 -128c81 66 85 187 9 187c-30 0 -58 -17 -58 -59zM154 237l-3 4c-53 -72 -15 -160 66 -160c18 0 36 4 53 13c-42 40 -80 90 -116 143z" />
    <glyph glyph-name="aogonek" unicode="&#x105;" horiz-adv-x="545" 
d="M436 -193c-84 0 -129 36 -129 90c0 49 43 84 80 102c-22 11 -33 32 -38 53c-36 -33 -96 -62 -158 -62c-105 0 -150 64 -150 132c0 74 42 141 171 162c49 8 88 9 116 9v31c0 62 -40 94 -104 94c-83 0 -144 -22 -144 -22v87s67 27 172 27c161 0 211 -81 209 -180
c-1 -61 -4 -180 -4 -230c0 -12 2 -18 11 -18c17 0 38 20 38 20v-83s-32 -29 -78 -29c-17 0 -30 3 -41 9l16 7h83c-45 -20 -83 -57 -83 -90c0 -27 22 -38 52 -38c31 0 63 11 63 11v-65s-36 -17 -82 -17zM232 84c31 0 69 18 92 36c0 42 1 65 2 107c0 0 -48 -2 -85 -13
c-45 -13 -66 -41 -66 -78c0 -31 19 -52 57 -52z" />
    <glyph glyph-name="approxequal" unicode="&#x2248;" horiz-adv-x="589" 
d="M386 298c-89 0 -113 45 -192 45c-49 0 -70 -35 -70 -35l-57 67s34 91 144 91c100 0 112 -45 184 -45c57 0 72 35 72 35l55 -67s-34 -91 -136 -91zM386 106c-89 0 -113 45 -192 45c-49 0 -70 -35 -70 -35l-57 67s34 91 144 91c100 0 112 -45 184 -45c57 0 72 35 72 35
l55 -67s-34 -91 -136 -91z" />
    <glyph glyph-name="approxequal.tab" horiz-adv-x="510" 
d="M346 114c-101 0 -125 65 -204 65c-49 0 -70 -35 -70 -35l-57 67s34 91 144 91c100 0 124 -65 204 -65c57 0 72 35 72 35l55 -67s-34 -91 -144 -91zM346 304c-101 0 -125 65 -204 65c-49 0 -70 -35 -70 -35l-57 67s34 91 144 91c100 0 124 -65 204 -65c57 0 72 35 72 35
l55 -67s-34 -91 -144 -91z" />
    <glyph glyph-name="aring" unicode="&#xe5;" horiz-adv-x="546" 
d="M191 -10c-105 0 -150 64 -150 132c0 74 42 141 171 162c49 8 88 9 116 9v31c0 62 -40 94 -104 94c-83 0 -144 -22 -144 -22v87s67 27 172 27c161 0 211 -81 209 -180c-1 -61 -4 -180 -4 -230c0 -12 2 -18 11 -18c17 0 38 20 38 20v-83s-32 -29 -78 -29
c-50 0 -71 31 -79 62c-36 -33 -96 -62 -158 -62zM232 84c31 0 69 18 92 36c0 42 1 65 2 107c0 0 -48 -2 -85 -13c-45 -13 -66 -41 -66 -78c0 -31 19 -52 57 -52zM267 656c14 0 22 17 22 38s-8 36 -22 36s-25 -15 -25 -36s11 -38 25 -38zM267 583c-70 0 -125 42 -125 111
s55 111 125 111s124 -42 124 -111s-54 -111 -124 -111z" />
    <glyph glyph-name="aringacute" unicode="&#x1fb;" horiz-adv-x="546" 
d="M191 -10c-105 0 -150 64 -150 132c0 74 42 141 171 162c49 8 88 9 116 9v31c0 62 -40 94 -104 94c-83 0 -144 -22 -144 -22v87s67 27 172 27c161 0 211 -81 209 -180c-1 -61 -4 -180 -4 -230c0 -12 2 -18 11 -18c17 0 38 20 38 20v-83s-32 -29 -78 -29
c-50 0 -71 31 -79 62c-36 -33 -96 -62 -158 -62zM232 84c31 0 69 18 92 36c0 42 1 65 2 107c0 0 -48 -2 -85 -13c-45 -13 -66 -41 -66 -78c0 -31 19 -52 57 -52zM256 826l-68 70l155 175l93 -96zM257 652c15 0 24 19 24 41c0 23 -9 39 -24 39s-27 -16 -27 -39
c0 -22 12 -41 27 -41zM257 573c-76 0 -136 46 -136 120c0 75 60 121 136 121s135 -46 135 -121c0 -74 -59 -120 -135 -120z" />
    <glyph glyph-name="arrow.alt" horiz-adv-x="1329" 
d="M990 9c-32 58 -78 116 -143 176l-23 21h-445v-145h-10s-190 62 -318 180v9c129 119 318 183 318 183h10v-153h439l29 26c65 60 111 118 143 176l64 -34c-17 -37 -67 -114 -124 -165l-42 -38l42 -37c57 -51 107 -128 124 -165zM1190 26c-31 52 -74 105 -133 159l-50 46v29
l50 46c59 55 103 108 134 161l65 -34c-22 -40 -66 -105 -116 -150l-42 -38l42 -37c49 -44 93 -107 115 -147z" />
    <glyph glyph-name="arrow.alt1" horiz-adv-x="989" 
d="M244 9c-32 58 -78 116 -143 176l-50 46v29l50 46c65 60 111 118 143 176l64 -34c-17 -37 -67 -114 -124 -165l-4 -3h735v-74h-729c56 -51 105 -127 122 -163z" />
    <glyph glyph-name="arrowboth" unicode="&#x2194;" horiz-adv-x="965" 
d="M721 9l-64 34c17 36 66 112 122 163h-593c56 -51 105 -127 122 -163l-64 -34c-32 58 -78 116 -143 176l-50 46v29l50 46c65 60 111 118 143 176l64 -34c-17 -37 -67 -114 -124 -165l-4 -3h605l-4 3c-57 51 -107 128 -124 165l64 34c32 -58 78 -116 143 -176l50 -46v-29
l-50 -46c-65 -60 -111 -118 -143 -176z" />
    <glyph glyph-name="arrowright" unicode="&#x2192;" horiz-adv-x="785" 
d="M541 9l-64 34c17 36 66 112 122 163h-529v74h535l-4 3c-57 51 -107 128 -124 165l64 34c32 -58 78 -116 143 -176l50 -46v-29l-50 -46c-65 -60 -111 -118 -143 -176z" />
    <glyph glyph-name="arrowupdn" unicode="&#x2195;" horiz-adv-x="579" 
d="M272 -186l-46 50c-60 65 -115 111 -173 143l34 59c36 -17 111 -68 165 -127v613c-54 -59 -129 -111 -165 -127l-34 59c58 32 113 78 173 143l46 50h29l46 -50c60 -65 121 -111 179 -143l-34 -59c-36 16 -116 73 -167 128v-615c51 55 131 111 167 128l34 -59
c-58 -32 -119 -78 -179 -143l-46 -50h-29z" />
    <glyph glyph-name="asciicircum" unicode="^" horiz-adv-x="427" 
d="M20 533l191 227h5l191 -227h-124l-70 86l-70 -86h-123z" />
    <glyph glyph-name="asciicircum.sc" horiz-adv-x="539" 
d="M76 533l191 227h5l191 -227h-124l-70 86l-70 -86h-123z" />
    <glyph glyph-name="asciicircum.sctab" 
d="M56 533l191 227h5l191 -227h-124l-70 96l-70 -96h-123z" />
    <glyph glyph-name="asciitilde" unicode="~" horiz-adv-x="553" 
d="M368 194c-89 0 -113 45 -192 45c-49 0 -70 -35 -70 -35l-57 67s34 91 144 91c100 0 112 -45 184 -45c57 0 72 35 72 35l55 -67s-34 -91 -136 -91z" />
    <glyph glyph-name="asciitilde.sc" horiz-adv-x="588" 
d="M388 184c-101 0 -125 65 -204 65c-49 0 -70 -35 -70 -35l-57 67s34 91 144 91c100 0 124 -65 204 -65c57 0 72 35 72 35l55 -67s-34 -91 -144 -91z" />
    <glyph glyph-name="asciitilde.sctab" 
d="M344 184c-101 0 -125 65 -204 65c-49 0 -70 -35 -70 -35l-57 67s34 91 144 91c100 0 124 -65 204 -65c57 0 72 35 72 35l55 -67s-34 -91 -144 -91z" />
    <glyph glyph-name="asterisk" unicode="*" horiz-adv-x="547" 
d="M128 439c-43 29 -43 97 32 136l65 36l-3 10l-69 -6c-63 -2 -130 21 -107 94c20 64 94 61 139 16l60 -60l9 7l-32 66c-31 70 -24 130 55 130c72 0 87 -63 52 -133l-34 -62l10 -7l57 59c53 55 118 47 139 -16c21 -67 -34 -94 -107 -94l-68 4l-3 -10l64 -34
c55 -28 91 -94 32 -136c-58 -41 -106 1 -124 70l-16 65h-11l-16 -65c-19 -84 -77 -102 -124 -70z" />
    <glyph glyph-name="asterisk.sc" horiz-adv-x="432" 
d="M111 399c-30 20 -30 69 23 97l47 25l-3 7l-49 -4c-45 -1 -93 15 -76 67c14 46 67 44 99 12l43 -43l6 5l-23 47c-22 50 -17 92 40 92c51 0 62 -44 37 -94l-24 -44l7 -5l40 42c38 39 85 33 100 -12c15 -48 -25 -67 -77 -67l-48 3l-2 -7l45 -24c39 -20 65 -67 23 -97
c-41 -29 -76 0 -88 50l-12 46h-8l-11 -46c-14 -60 -55 -73 -89 -50z" />
    <glyph glyph-name="asterisk.sctab" 
d="M125 355c-37 25 -37 83 27 116l56 31l-3 8l-59 -5c-53 -2 -110 18 -91 80c17 55 80 52 119 14l51 -51l8 6l-28 56c-26 59 -20 111 47 111c62 0 74 -54 45 -114l-29 -53l8 -6l49 51c45 47 100 40 118 -14c18 -57 -29 -80 -91 -80l-58 3l-3 -8l55 -29
c47 -24 78 -80 27 -116c-49 -35 -90 1 -105 60l-14 55h-9l-14 -55c-16 -72 -66 -87 -106 -60z" />
    <glyph glyph-name="at" unicode="@" horiz-adv-x="950" 
d="M534 -191c-300 -42 -488 114 -488 370c0 235 161 431 443 431c259 0 399 -146 399 -347c0 -158 -67 -293 -192 -293c-84 0 -117 66 -120 72c-2 -3 -34 -72 -133 -72c-111 0 -189 100 -189 229c0 138 88 231 205 231c74 0 115 -37 115 -37l77 31h26v-312
c0 -32 9 -48 27 -48c26 0 58 43 58 143c0 153 -62 315 -268 315c-171 0 -314 -108 -314 -321c0 -271 193 -325 354 -310v-82zM480 75c37 0 65 25 65 25l-1 223s-14 18 -60 18c-49 0 -93 -47 -93 -139c0 -77 34 -127 89 -127z" />
    <glyph glyph-name="at.sc" horiz-adv-x="940" 
d="M531 -191c-300 -42 -488 114 -488 370c0 235 161 431 443 431c259 0 399 -146 399 -347c0 -158 -67 -293 -192 -293c-84 0 -117 66 -120 72c-2 -3 -34 -72 -133 -72c-111 0 -189 100 -189 229c0 138 88 231 205 231c74 0 115 -37 115 -37l77 31h26v-312
c0 -32 9 -48 27 -48c26 0 58 43 58 143c0 153 -62 315 -268 315c-171 0 -314 -108 -314 -321c0 -271 193 -325 354 -310v-82zM477 75c37 0 65 25 65 25l-1 223s-14 18 -60 18c-49 0 -93 -47 -93 -139c0 -77 34 -127 89 -127z" />
    <glyph glyph-name="at.sctab" 
d="M286 11c-155 -36 -280 40 -280 283c0 180 105 323 264 323c134 0 234 -92 234 -274c0 -127 -41 -209 -123 -209c-37 0 -56 23 -66 48c0 0 -23 -48 -78 -48c-73 0 -110 62 -110 160c0 104 49 177 124 177c40 0 63 -29 63 -29l56 17h14v-208c0 -16 0 -30 9 -30
c12 0 24 26 24 97c0 141 -56 221 -159 221c-92 0 -159 -103 -159 -229c0 -196 80 -234 186 -231zM262 211c21 0 32 27 32 27v142s-6 14 -28 14c-26 0 -40 -28 -40 -91c0 -65 12 -92 36 -92z" />
    <glyph glyph-name="atilde" unicode="&#xe3;" horiz-adv-x="546" 
d="M191 -10c-105 0 -150 64 -150 132c0 74 42 141 171 162c49 8 88 9 116 9v31c0 62 -40 94 -104 94c-83 0 -144 -22 -144 -22v87s67 27 172 27c161 0 211 -81 209 -180c-1 -61 -4 -180 -4 -230c0 -12 2 -18 11 -18c17 0 38 20 38 20v-83s-32 -29 -78 -29
c-50 0 -71 31 -79 62c-36 -33 -96 -62 -158 -62zM232 84c31 0 69 18 92 36c0 42 1 65 2 107c0 0 -48 -2 -85 -13c-45 -13 -66 -41 -66 -78c0 -31 19 -52 57 -52zM342 594c-65 0 -87 36 -123 36c-24 0 -39 -22 -44 -39l-82 20c10 58 53 119 124 119c68 0 88 -36 122 -36
c22 0 35 23 38 39l80 -20c-13 -79 -64 -119 -115 -119z" />
    <glyph glyph-name="b" unicode="b" horiz-adv-x="611" 
d="M282 -10c-73 0 -150 16 -206 40v617c0 51 -6 103 -6 103l139 5l-2 -296c33 29 82 51 137 51c149 0 217 -110 217 -233c0 -180 -97 -287 -279 -287zM297 80c98 0 127 79 127 176c0 94 -35 154 -110 154c-35 0 -74 -13 -107 -33c0 0 2 -38 2 -96v-176c25 -13 57 -25 88 -25
z" />
    <glyph glyph-name="backslash" unicode="\" horiz-adv-x="514" 
d="M444 -174l-430 874h122l431 -874h-123z" />
    <glyph glyph-name="backslash.sc" horiz-adv-x="536" 
d="M447 -131l-430 831h122l431 -831h-123z" />
    <glyph glyph-name="backslash.sctab" 
d="M429 -131l-430 831h122l431 -831h-123z" />
    <glyph glyph-name="bar" unicode="|" horiz-adv-x="282" 
d="M82 -259v1024h118v-1024h-118z" />
    <glyph glyph-name="bar.sc" horiz-adv-x="300" 
d="M91 -189v954h118v-954h-118z" />
    <glyph glyph-name="bar.sctab" 
d="M191 -189v954h118v-954h-118z" />
    <glyph glyph-name="braceleft" unicode="{" horiz-adv-x="349" 
d="M250 -199c-88 0 -124 51 -124 148v161c0 85 -7 124 -26 144c-21 -8 -45 -14 -71 -16l-14 77c73 10 111 46 111 107v215c0 97 36 148 124 148h54v-71c-49 0 -60 -15 -60 -97v-153c0 -87 -28 -142 -87 -174c66 -34 87 -107 87 -191v-154c0 -57 9 -83 60 -83v-61h-54z" />
    <glyph glyph-name="braceleft.sc" horiz-adv-x="365" 
d="M258 -179c-88 0 -124 51 -124 148v131c0 85 -7 124 -26 144c-21 -8 -45 -14 -71 -16l-14 77c73 10 111 46 111 107v185c0 97 36 148 124 148h54v-71c-49 0 -60 -15 -60 -97v-123c0 -87 -28 -142 -87 -174c66 -34 87 -107 87 -191v-124c0 -57 9 -83 60 -83v-61h-54z" />
    <glyph glyph-name="braceleft.sctab" 
d="M325 -179c-88 0 -124 51 -124 148v131c0 85 -7 124 -26 144c-21 -8 -45 -14 -71 -16l-14 77c73 10 111 46 111 107v185c0 97 36 148 124 148h54v-71c-49 0 -60 -15 -60 -97v-123c0 -87 -28 -142 -87 -174c66 -34 87 -107 87 -191v-124c0 -57 9 -83 60 -83v-61h-54z" />
    <glyph glyph-name="braceright" unicode="}" horiz-adv-x="349" 
d="M99 785c88 0 124 -51 124 -148v-161c0 -85 7 -124 26 -144c21 8 45 14 71 16l14 -77c-73 -10 -111 -46 -111 -107v-215c0 -97 -36 -148 -124 -148h-54v71c49 0 60 15 60 97v153c0 87 28 142 87 174c-66 34 -87 107 -87 191v154c0 57 -9 83 -60 83v61h54z" />
    <glyph glyph-name="braceright.sc" horiz-adv-x="364" 
d="M107 745c88 0 124 -51 124 -148v-131c0 -85 7 -124 26 -144c21 8 45 14 71 16l14 -77c-73 -10 -111 -46 -111 -107v-185c0 -97 -36 -148 -124 -148h-54v71c49 0 60 15 60 97v123c0 87 28 142 87 174c-66 34 -87 107 -87 191v124c0 57 -9 83 -60 83v61h54z" />
    <glyph glyph-name="braceright.sctab" 
d="M175 745c88 0 124 -51 124 -148v-131c0 -85 7 -124 26 -144c21 8 45 14 71 16l14 -77c-73 -10 -111 -46 -111 -107v-185c0 -97 -36 -148 -124 -148h-54v71c49 0 60 15 60 97v123c0 87 28 142 87 174c-66 34 -87 107 -87 191v124c0 57 -9 83 -60 83v61h54z" />
    <glyph glyph-name="bracketleft" unicode="[" horiz-adv-x="305" 
d="M82 -199v984h178v-61h-60v-862h60v-61h-178z" />
    <glyph glyph-name="bracketleft.sc" horiz-adv-x="341" 
d="M91 -169v914h198v-71h-80v-772h80v-71h-198z" />
    <glyph glyph-name="bracketleft.sctab" 
d="M170 -169v914h198v-71h-80v-772h80v-71h-198z" />
    <glyph glyph-name="bracketright" unicode="]" horiz-adv-x="305" 
d="M45 -199v61h60v862h-60v61h178v-984h-178z" />
    <glyph glyph-name="bracketright.sc" horiz-adv-x="341" 
d="M52 -169v71h80v772h-80v71h198v-914h-198z" />
    <glyph glyph-name="bracketright.sctab" 
d="M131 -169v71h80v772h-80v71h198v-914h-198z" />
    <glyph glyph-name="brokenbar" unicode="&#xa6;" horiz-adv-x="268" 
d="M75 -259v402h118v-402h-118zM75 373v392h118v-392h-118z" />
    <glyph glyph-name="bullet" unicode="&#x2022;" horiz-adv-x="348" 
d="M54 298c0 65 43 121 120 121s120 -56 120 -121s-43 -121 -120 -121s-120 56 -120 121z" />
    <glyph glyph-name="cacute" unicode="&#x107;" horiz-adv-x="484" 
d="M274 572l-70 73l160 181l97 -100zM297 -10c-156 0 -248 102 -248 244c0 163 95 276 246 276c55 0 91 -17 142 -20l-10 -102c-51 4 -93 23 -137 23c-59 0 -106 -48 -106 -153c0 -101 51 -168 145 -168c60 0 109 27 109 27v-94s-52 -33 -141 -33z" />
    <glyph glyph-name="caron.alt" horiz-adv-x="168" 
d="M64 388l-64 53c32 30 64 75 78 117c-37 7 -62 37 -62 77c0 52 39 82 83 82s80 -26 80 -91c0 -86 -53 -184 -115 -238z" />
    <glyph glyph-name="ccaron" unicode="&#x10d;" horiz-adv-x="484" 
d="M383 777l61 -69l-151 -124h-38l-148 118l59 73l108 -74zM297 -10c-156 0 -248 102 -248 244c0 163 95 276 246 276c55 0 91 -17 142 -20l-10 -102c-51 4 -93 23 -137 23c-59 0 -106 -48 -106 -153c0 -101 51 -168 145 -168c60 0 109 27 109 27v-94s-52 -33 -141 -33z" />
    <glyph glyph-name="ccedilla" unicode="&#xe7;" horiz-adv-x="485" 
d="M276 -212c-41 0 -77 5 -116 20l24 61c27 -7 60 -10 76 -10c25 0 33 8 33 22c0 16 -24 26 -58 9l-13 15l31 88c-129 17 -203 113 -203 241c0 163 95 276 246 276c55 0 91 -17 142 -20l-10 -102c-51 4 -93 23 -137 23c-59 0 -106 -48 -106 -153c0 -101 51 -168 145 -168
c60 0 109 27 109 27v-94s-45 -28 -122 -32v-35c53 -5 88 -30 88 -76c0 -55 -52 -92 -129 -92z" />
    <glyph glyph-name="ccircumflex" unicode="&#x109;" horiz-adv-x="484" 
d="M176 583l-61 69l151 124h38l148 -118l-59 -73l-108 74zM297 -10c-156 0 -248 102 -248 244c0 163 95 276 246 276c55 0 91 -17 142 -20l-10 -102c-51 4 -93 23 -137 23c-59 0 -106 -48 -106 -153c0 -101 51 -168 145 -168c60 0 109 27 109 27v-94s-52 -33 -141 -33z" />
    <glyph glyph-name="cdotaccent" unicode="&#x10b;" horiz-adv-x="484" 
d="M297 -10c-156 0 -248 102 -248 244c0 163 95 276 246 276c55 0 91 -17 142 -20l-10 -102c-51 4 -93 23 -137 23c-59 0 -106 -48 -106 -153c0 -101 51 -168 145 -168c60 0 109 27 109 27v-94s-52 -33 -141 -33zM279 590c-42 0 -79 34 -79 79c0 43 39 79 81 79
c44 0 78 -36 78 -79c0 -45 -38 -79 -80 -79z" />
    <glyph glyph-name="cent" unicode="&#xa2;" horiz-adv-x="496" 
d="M230 -114v110c-117 24 -185 115 -185 238c0 139 70 243 185 270v106h98v-102c35 -6 66 -16 105 -18l-10 -102c-51 4 -93 23 -137 23c-59 0 -106 -48 -106 -153c0 -92 51 -168 135 -168c67 0 119 27 119 27v-94s-40 -23 -106 -30v-107h-98z" />
    <glyph glyph-name="cent.sc" horiz-adv-x="489" 
d="M227 -114v110c-117 24 -185 115 -185 238c0 139 70 243 185 270v106h98v-102c35 -6 66 -16 105 -18l-10 -102c-51 4 -93 23 -137 23c-59 0 -106 -48 -106 -153c0 -92 51 -168 135 -168c67 0 119 27 119 27v-94s-40 -23 -106 -30v-107h-98z" />
    <glyph glyph-name="cent.sctab" 
d="M232 -114v110c-117 24 -185 115 -185 238c0 139 70 243 185 270v106h98v-102c35 -6 66 -16 105 -18l-10 -102c-51 4 -93 23 -137 23c-59 0 -106 -48 -106 -153c0 -92 51 -168 135 -168c67 0 119 27 119 27v-94s-40 -23 -106 -30v-107h-98z" />
    <glyph glyph-name="cent.tab" horiz-adv-x="510" 
d="M237 -114v110c-117 24 -185 115 -185 238c0 139 70 243 185 270v106h98v-102c35 -6 66 -16 105 -18l-10 -102c-51 4 -93 23 -137 23c-59 0 -106 -48 -106 -153c0 -92 51 -168 135 -168c67 0 119 27 119 27v-94s-40 -23 -106 -30v-107h-98z" />
    <glyph glyph-name="colon" unicode=":" horiz-adv-x="301" 
d="M147 -15c-41 0 -77 32 -77 78c0 53 40 81 85 81c46 0 76 -28 76 -75c0 -55 -35 -84 -84 -84zM147 342c-41 0 -77 32 -77 78c0 53 40 81 85 81c46 0 76 -28 76 -75c0 -55 -35 -84 -84 -84z" />
    <glyph glyph-name="period" unicode="." horiz-adv-x="274" 
d="M133 -15c-41 0 -77 32 -77 78c0 53 40 81 85 81c46 0 76 -28 76 -75c0 -55 -35 -84 -84 -84z" />
    <glyph glyph-name="colon.sc" horiz-adv-x="322" 
d="M157 -15c-41 0 -77 32 -77 78c0 53 40 81 85 81c46 0 76 -28 76 -75c0 -55 -35 -84 -84 -84zM157 335c-41 0 -77 32 -77 78c0 53 40 81 85 81c46 0 76 -28 76 -75c0 -55 -35 -84 -84 -84z" />
    <glyph glyph-name="colon.sctab" 
d="M246 -15c-41 0 -77 32 -77 78c0 53 40 81 85 81c46 0 76 -28 76 -75c0 -55 -35 -84 -84 -84zM246 335c-41 0 -77 32 -77 78c0 53 40 81 85 81c46 0 76 -28 76 -75c0 -55 -35 -84 -84 -84z" />
    <glyph glyph-name="colon.tab" horiz-adv-x="510" 
d="M251 -15c-41 0 -77 32 -77 78c0 53 40 81 85 81c46 0 76 -28 76 -75c0 -55 -35 -84 -84 -84zM251 342c-41 0 -77 32 -77 78c0 53 40 81 85 81c46 0 76 -28 76 -75c0 -55 -35 -84 -84 -84z" />
    <glyph glyph-name="comma.sc" horiz-adv-x="291" 
d="M111 -182l-64 53c32 30 64 75 78 117c-37 7 -62 37 -62 77c0 52 39 82 83 82s80 -26 80 -91c0 -86 -53 -184 -115 -238z" />
    <glyph glyph-name="comma.sctab" 
d="M215 -182l-64 53c32 30 64 75 78 117c-37 7 -62 37 -62 77c0 52 39 82 83 82s80 -26 80 -91c0 -86 -53 -184 -115 -238z" />
    <glyph glyph-name="comma.tab" horiz-adv-x="510" 
d="M221 -184l-64 53c32 30 64 75 78 117c-37 7 -62 37 -62 77c0 52 39 82 83 82s80 -26 80 -91c0 -86 -53 -184 -115 -238z" />
    <glyph glyph-name="copyright" unicode="&#xa9;" horiz-adv-x="815" 
d="M436 159c-126 0 -203 79 -203 189c0 130 72 213 200 213c43 0 73 -14 112 -16l-15 -89c-39 4 -60 18 -94 18c-42 0 -71 -46 -71 -108c0 -66 20 -118 89 -118c47 0 90 20 90 20v-84s-42 -25 -108 -25zM408 88c135 0 230 108 230 266c0 160 -96 267 -230 267
c-127 0 -230 -107 -230 -267s89 -266 230 -266zM408 -8c-203 0 -358 159 -358 362c0 202 155 363 358 363c202 0 357 -161 357 -363c0 -200 -158 -362 -357 -362z" />
    <glyph glyph-name="copyright.sc" horiz-adv-x="716" 
d="M375 135c-100 0 -165 67 -165 161c0 107 80 180 170 180c37 0 62 -12 96 -12l-14 -73c-33 4 -61 16 -90 16c-25 0 -53 -34 -53 -96c0 -56 21 -103 72 -103c47 0 84 16 84 16v-68s-36 -21 -100 -21zM359 71c117 0 198 94 198 230s-84 229 -198 229
c-110 0 -199 -93 -199 -229c0 -138 77 -230 199 -230zM359 -8c-174 0 -306 136 -306 309c0 172 132 308 306 308c172 0 304 -136 304 -308c0 -171 -135 -309 -304 -309z" />
    <glyph glyph-name="copyright.sctab" 
d="M263 125c-81 0 -134 51 -134 125c0 82 67 138 138 138c32 0 51 -9 80 -10l-12 -76c-28 3 -40 11 -58 11c-27 0 -40 -11 -40 -53c0 -37 16 -64 51 -64c34 0 58 13 58 13v-66s-32 -18 -83 -18zM248 94c92 0 149 63 149 158c0 106 -59 158 -149 158
c-80 0 -147 -58 -147 -158c0 -104 57 -158 147 -158zM248 14c-148 0 -249 90 -249 238c0 132 109 237 249 237c150 0 253 -90 253 -237c0 -130 -112 -238 -253 -238z" />
    <glyph glyph-name="d" unicode="d" horiz-adv-x="612" 
d="M273 -10c-136 0 -223 102 -223 241c0 184 111 279 239 279c63 0 92 -17 112 -33v170c0 57 -7 103 -7 103l139 5v-651c0 -51 6 -103 6 -103l-130 -5l-3 46c-22 -26 -65 -52 -133 -52zM308 85c46 0 78 21 93 39v256c-16 22 -46 41 -92 41c-79 0 -122 -63 -122 -167
c0 -95 32 -169 121 -169z" />
    <glyph glyph-name="dagger" unicode="&#x2020;" horiz-adv-x="558" 
d="M280 -250l-70 47l5 577l-175 -8v134l175 -8l-5 223h138l-5 -223l175 8v-134l-175 8l5 -577z" />
    <glyph glyph-name="daggerdbl" unicode="&#x2021;" horiz-adv-x="604" 
d="M230 -250l9 194l-176 -9v154l176 -9l-14 155l22 146l-184 -15v154l184 -15l-17 210h144l-17 -210l184 15v-154l-184 15l22 -146l-14 -155l176 9v-154l-176 9l9 -194h-144z" />
    <glyph glyph-name="dcaron" unicode="&#x10f;" horiz-adv-x="705" 
d="M273 -10c-136 0 -223 102 -223 241c0 184 111 279 239 279c63 0 92 -17 112 -33v170c0 57 -7 103 -7 103l139 5v-651c0 -51 6 -103 6 -103l-130 -5l-3 46c-22 -26 -65 -52 -133 -52zM308 85c46 0 78 21 93 39v256c-16 22 -46 41 -92 41c-79 0 -122 -63 -122 -167
c0 -95 32 -169 121 -169zM647 435l-64 53c32 30 64 75 78 117c-37 7 -62 37 -62 77c0 52 39 82 83 82s80 -26 80 -91c0 -86 -53 -184 -115 -238z" />
    <glyph glyph-name="dcroat" unicode="&#x111;" horiz-adv-x="612" 
d="M235 564v89h166c-1 54 -7 97 -7 97l139 5v-102h56v-89h-56v-460c0 -51 6 -103 6 -103l-130 -5l-3 46c-22 -26 -65 -52 -133 -52c-136 0 -223 102 -223 241c0 184 111 279 239 279c63 0 92 -17 112 -33v87h-166zM308 85c46 0 78 21 93 39v256c-16 22 -46 41 -92 41
c-79 0 -122 -63 -122 -167c0 -95 32 -169 121 -169z" />
    <glyph glyph-name="degree" unicode="&#xb0;" horiz-adv-x="432" 
d="M164 597c0 -38 11 -70 52 -70s52 32 52 70s-11 70 -52 70s-52 -32 -52 -70zM44 597c0 97 57 163 172 163s172 -66 172 -163s-57 -163 -172 -163s-172 66 -172 163z" />
    <glyph glyph-name="divide" unicode="&#xf7;" horiz-adv-x="527" 
d="M53 228v114h421v-114h-421zM270 195c41 0 77 -32 77 -78c0 -53 -40 -81 -85 -81c-46 0 -76 28 -76 75c0 55 35 84 84 84zM270 541c41 0 77 -32 77 -78c0 -53 -40 -81 -85 -81c-46 0 -76 28 -76 75c0 55 35 84 84 84z" />
    <glyph glyph-name="divide.old" horiz-adv-x="543" 
d="M61 228v114h421v-114h-421zM270 36c-41 0 -77 32 -77 78c0 53 40 81 85 81c46 0 76 -28 76 -75c0 -55 -35 -84 -84 -84zM270 382c-41 0 -77 32 -77 78c0 53 40 81 85 81c46 0 76 -28 76 -75c0 -55 -35 -84 -84 -84z" />
    <glyph glyph-name="divide.tab" horiz-adv-x="510" 
d="M44 278v114h421v-114h-421zM261 245c41 0 77 -32 77 -78c0 -53 -40 -81 -85 -81c-46 0 -76 28 -76 75c0 55 35 84 84 84zM261 591c41 0 77 -32 77 -78c0 -53 -40 -81 -85 -81c-46 0 -76 28 -76 75c0 55 35 84 84 84z" />
    <glyph glyph-name="dollar" unicode="$" horiz-adv-x="515" 
d="M206 -153l10 139c-92 4 -166 40 -166 40l28 90c46 -19 94 -34 163 -34c58 0 99 23 99 81c0 139 -293 73 -293 316c0 84 59 160 175 180l-10 146c27 10 83 9 108 0l-13 -144c81 -6 139 -37 139 -37l-29 -88c-46 19 -88 30 -147 30c-65 0 -92 -31 -92 -69
c0 -137 293 -89 293 -316c0 -102 -68 -171 -180 -188l13 -146c-26 -10 -72 -9 -98 0z" />
    <glyph glyph-name="dollar.old" horiz-adv-x="518" 
d="M214 -153l5 143c-98 5 -154 36 -154 36l21 88c43 -18 90 -28 149 -28c62 0 97 12 97 45c0 46 -43 72 -134 105c-87 31 -143 73 -143 170c0 92 72 145 174 154l-6 141c27 10 73 9 98 0l-8 -142c54 -6 87 -21 125 -31l-28 -98c-45 12 -80 33 -145 33c-50 0 -74 -18 -74 -49
c0 -45 42 -65 109 -88c123 -43 166 -90 166 -172s-63 -144 -163 -160l9 -147c-26 -10 -72 -9 -98 0z" />
    <glyph glyph-name="dollar.sc" horiz-adv-x="503" 
d="M213 -143l5 129c-88 2 -161 37 -161 37l32 89c43 -18 88 -32 153 -32c60 0 80 31 80 70c0 110 -278 71 -278 293c0 76 49 152 164 167l-5 135c25 9 89 8 112 0l-9 -133c71 -8 122 -35 122 -35l-34 -87c-43 18 -82 28 -138 28c-29 0 -73 -10 -73 -66
c0 -110 278 -79 278 -291c0 -81 -52 -149 -145 -165l9 -139c-25 -9 -88 -8 -112 0z" />
    <glyph glyph-name="dollar.sctab" 
d="M211 -143l5 129c-88 2 -161 37 -161 37l32 89c43 -18 88 -32 153 -32c60 0 80 31 80 70c0 110 -278 71 -278 293c0 76 49 152 164 167l-5 135c25 9 89 8 112 0l-9 -133c71 -8 122 -35 122 -35l-34 -87c-43 18 -82 28 -138 28c-29 0 -73 -10 -73 -66
c0 -110 278 -79 278 -291c0 -81 -52 -149 -145 -165l9 -139c-25 -9 -88 -8 -112 0z" />
    <glyph glyph-name="dollar.tab" horiz-adv-x="510" 
d="M203 -153l10 139c-92 4 -166 40 -166 40l28 90c46 -19 94 -34 163 -34c58 0 99 23 99 81c0 139 -293 73 -293 316c0 84 59 160 175 180l-10 146c27 10 83 9 108 0l-13 -144c81 -6 139 -37 139 -37l-29 -88c-46 19 -88 30 -147 30c-65 0 -92 -31 -92 -69
c0 -137 293 -89 293 -316c0 -102 -68 -171 -180 -188l13 -146c-26 -10 -72 -9 -98 0z" />
    <glyph glyph-name="dotlessi" unicode="&#x131;" horiz-adv-x="291" 
d="M79 0v397c0 51 -6 103 -6 103l139 5v-412c0 -46 5 -93 5 -93h-138z" />
    <glyph glyph-name="uni021A.sc" horiz-adv-x="549" 
d="M205 0v508l-106 -2c-33 -1 -77 -6 -77 -6l5 101h502l-5 -101s-47 5 -70 6l-116 2v-415c0 -46 5 -93 5 -93h-138zM252 -376l-66 39c22 27 37 61 45 94c-37 7 -62 37 -62 77c0 52 39 82 83 82s80 -26 80 -91c0 -69 -34 -145 -80 -201z" />
    <glyph glyph-name="eacute" unicode="&#xe9;" horiz-adv-x="560" 
d="M297 571l-70 73l160 181l97 -100zM321 -10c-166 0 -273 93 -273 252c0 169 107 268 251 268c166 0 229 -126 211 -273h-327c4 -90 67 -147 158 -147c83 0 149 27 149 27v-93s-60 -34 -169 -34zM190 321l185 4c-2 70 -29 97 -80 97c-57 0 -98 -42 -105 -101z" />
    <glyph glyph-name="ebreve" unicode="&#x115;" horiz-adv-x="560" 
d="M321 -10c-166 0 -273 93 -273 252c0 169 107 268 251 268c166 0 229 -126 211 -273h-327c4 -90 67 -147 158 -147c83 0 149 27 149 27v-93s-60 -34 -169 -34zM190 321l185 4c-2 70 -29 97 -80 97c-57 0 -98 -42 -105 -101zM302 596c-75 0 -137 45 -160 130l90 36
c1 -1 18 -54 70 -54c54 0 68 53 70 54l92 -37c-23 -85 -93 -129 -162 -129z" />
    <glyph glyph-name="ecaron" unicode="&#x11b;" horiz-adv-x="560" 
d="M407 777l61 -69l-151 -124h-38l-148 118l59 73l108 -74zM321 -10c-166 0 -273 93 -273 252c0 169 107 268 251 268c166 0 229 -126 211 -273h-327c4 -90 67 -147 158 -147c83 0 149 27 149 27v-93s-60 -34 -169 -34zM190 321l185 4c-2 70 -29 97 -80 97
c-57 0 -98 -42 -105 -101z" />
    <glyph glyph-name="ecircumflex" unicode="&#xea;" horiz-adv-x="560" 
d="M193 582l-61 69l151 124h38l148 -118l-59 -73l-108 74zM321 -10c-166 0 -273 93 -273 252c0 169 107 268 251 268c166 0 229 -126 211 -273h-327c4 -90 67 -147 158 -147c83 0 149 27 149 27v-93s-60 -34 -169 -34zM190 321l185 4c-2 70 -29 97 -80 97
c-57 0 -98 -42 -105 -101z" />
    <glyph glyph-name="edieresis" unicode="&#xeb;" horiz-adv-x="560" 
d="M176 596c-44 0 -77 31 -77 81c0 53 37 82 84 82c48 0 76 -29 76 -78c0 -55 -33 -85 -83 -85zM384 596c-44 0 -77 31 -77 81c0 53 37 82 84 82c48 0 76 -29 76 -78c0 -55 -33 -85 -83 -85zM321 -10c-166 0 -273 93 -273 252c0 169 107 268 251 268
c166 0 229 -126 211 -273h-327c4 -90 67 -147 158 -147c83 0 149 27 149 27v-93s-60 -34 -169 -34zM190 321l185 4c-2 70 -29 97 -80 97c-57 0 -98 -42 -105 -101z" />
    <glyph glyph-name="edotaccent" unicode="&#x117;" horiz-adv-x="560" 
d="M321 -10c-166 0 -273 93 -273 252c0 169 107 268 251 268c166 0 229 -126 211 -273h-327c4 -90 67 -147 158 -147c83 0 149 27 149 27v-93s-60 -34 -169 -34zM190 321l185 4c-2 70 -29 97 -80 97c-57 0 -98 -42 -105 -101zM291 591c-42 0 -79 34 -79 79c0 43 39 79 81 79
c44 0 78 -36 78 -79c0 -45 -38 -79 -80 -79z" />
    <glyph glyph-name="egrave" unicode="&#xe8;" horiz-adv-x="560" 
d="M321 -10c-166 0 -273 93 -273 252c0 169 107 268 251 268c166 0 229 -126 211 -273h-327c4 -90 67 -147 158 -147c83 0 149 27 149 27v-93s-60 -34 -169 -34zM190 321l185 4c-2 70 -29 97 -80 97c-57 0 -98 -42 -105 -101zM346 571l-187 154l96 101l160 -181z" />
    <glyph glyph-name="eight" unicode="8" horiz-adv-x="567" 
d="M280 -11c-127 0 -220 66 -220 185c0 96 59 155 129 190c-59 40 -110 87 -110 171c0 109 88 175 218 175c118 0 189 -61 191 -160c1 -74 -52 -131 -108 -167c66 -43 128 -98 128 -197c0 -118 -106 -197 -228 -197zM377 177c0 66 -59 107 -123 146
c-51 -32 -79 -83 -79 -131c0 -76 53 -107 101 -107c63 0 101 33 101 92zM211 544c0 -50 46 -84 100 -118c38 32 61 68 62 115c1 45 -30 74 -78 74c-53 0 -84 -31 -84 -71z" />
    <glyph glyph-name="eight.old" horiz-adv-x="567" 
d="M280 -11c-127 0 -220 66 -220 185c0 96 59 155 129 190c-59 40 -110 87 -110 171c0 109 88 175 218 175c118 0 189 -61 191 -160c1 -74 -52 -131 -108 -167c66 -43 128 -98 128 -197c0 -118 -106 -197 -228 -197zM377 177c0 66 -59 107 -123 146
c-51 -32 -79 -83 -79 -131c0 -76 53 -107 101 -107c63 0 101 33 101 92zM211 544c0 -50 46 -84 100 -118c38 32 61 68 62 115c1 45 -30 74 -78 74c-53 0 -84 -31 -84 -71z" />
    <glyph glyph-name="eight.sc" horiz-adv-x="566" 
d="M294 -11c-146 0 -236 65 -236 157c0 79 55 134 116 166c-54 34 -98 77 -98 142c0 94 69 170 213 170c109 0 199 -49 201 -141c1 -65 -43 -111 -99 -145c62 -39 117 -91 117 -175c0 -104 -106 -174 -214 -174zM366 155c0 50 -58 82 -121 117c-32 -30 -54 -75 -54 -108
c0 -43 33 -84 90 -84c51 0 85 37 85 75zM218 480c0 -41 45 -69 99 -99c28 30 39 60 40 94c1 39 -40 62 -72 62c-33 0 -67 -20 -67 -57z" />
    <glyph glyph-name="eight.sctab" 
d="M244 -11c-130 0 -210 65 -210 168c0 75 47 126 115 159c-54 33 -97 75 -97 150c0 82 67 158 203 158c109 0 193 -49 195 -141c1 -71 -47 -119 -104 -152c62 -37 119 -83 119 -168c0 -104 -97 -174 -221 -174zM326 155c0 50 -47 87 -108 122c-32 -28 -51 -72 -51 -108
c0 -48 23 -89 80 -89c51 0 79 37 79 75zM194 480c0 -42 31 -75 81 -107c23 25 41 58 42 98c1 43 -27 66 -60 66c-39 0 -63 -20 -63 -57z" />
    <glyph glyph-name="eight.set1" horiz-adv-x="590" 
d="M295 64c63 0 97 48 97 133c0 74 -31 132 -97 132c-65 0 -97 -58 -97 -131c0 -86 34 -134 97 -134zM295 401c53 0 85 52 85 126c0 64 -27 113 -85 113s-85 -50 -85 -119c0 -68 32 -120 85 -120zM295 -10c-146 0 -230 79 -230 197c0 138 114 181 114 177v4s-97 32 -97 159
c0 98 74 183 213 183s213 -83 213 -182c0 -120 -96 -162 -96 -158v-4s113 -36 113 -179c0 -115 -85 -197 -230 -197z" />
    <glyph glyph-name="eight.set2" horiz-adv-x="575" 
d="M284 -11c-127 0 -220 66 -220 185c0 96 59 155 129 190c-59 40 -110 87 -110 171c0 109 88 175 218 175c118 0 189 -61 191 -160c1 -74 -52 -131 -108 -167c66 -43 128 -98 128 -197c0 -118 -106 -197 -228 -197zM381 177c0 66 -59 107 -123 146
c-51 -32 -79 -83 -79 -131c0 -76 53 -107 101 -107c63 0 101 33 101 92zM215 544c0 -50 46 -84 100 -118c38 32 61 68 62 115c1 45 -30 74 -78 74c-53 0 -84 -31 -84 -71z" />
    <glyph glyph-name="eight.tab" horiz-adv-x="510" 
d="M251 -11c-127 0 -220 66 -220 185c0 96 59 155 129 190c-59 40 -110 87 -110 171c0 109 88 175 218 175c118 0 189 -61 191 -160c1 -74 -52 -131 -108 -167c66 -43 128 -98 128 -197c0 -118 -106 -197 -228 -197zM348 177c0 66 -59 107 -123 146
c-51 -32 -79 -83 -79 -131c0 -76 53 -107 101 -107c63 0 101 33 101 92zM182 544c0 -50 46 -84 100 -118c38 32 61 68 62 115c1 45 -30 74 -78 74c-53 0 -84 -31 -84 -71z" />
    <glyph glyph-name="ellipsis" unicode="&#x2026;" horiz-adv-x="783" 
d="M141 144c41 0 77 -32 77 -78c0 -53 -40 -81 -85 -81c-46 0 -76 28 -76 75c0 55 35 84 84 84zM398 144c41 0 77 -32 77 -78c0 -53 -40 -81 -85 -81c-46 0 -76 28 -76 75c0 55 35 84 84 84zM650 144c41 0 77 -32 77 -78c0 -53 -40 -81 -85 -81c-46 0 -76 28 -76 75
c0 55 35 84 84 84z" />
    <glyph glyph-name="emacron" unicode="&#x113;" horiz-adv-x="560" 
d="M321 -10c-166 0 -273 93 -273 252c0 169 107 268 251 268c166 0 229 -126 211 -273h-327c4 -90 67 -147 158 -147c83 0 149 27 149 27v-93s-60 -34 -169 -34zM190 321l185 4c-2 70 -29 97 -80 97c-57 0 -98 -42 -105 -101zM149 609v104h274v-104h-274z" />
    <glyph glyph-name="emdash" unicode="&#x2014;" horiz-adv-x="830" 
d="M69 242v114h691v-114h-691z" />
    <glyph glyph-name="emdash.sc" horiz-adv-x="721" 
d="M80 242v114h561v-114h-561z" />
    <glyph glyph-name="emdash.sctab" 
d="M0 242v114h500v-114h-500z" />
    <glyph glyph-name="endash" unicode="&#x2013;" horiz-adv-x="656" 
d="M72 239v114h511v-114h-511z" />
    <glyph glyph-name="endash.sc" horiz-adv-x="627" 
d="M83 239v114h461v-114h-461z" />
    <glyph glyph-name="endash.sctab" 
d="M30 239v114h439v-114h-439z" />
    <glyph glyph-name="eogonek" unicode="&#x119;" horiz-adv-x="562" 
d="M380 -197c-84 0 -129 36 -129 90c0 45 35 78 70 97c-166 1 -272 93 -272 252c0 169 107 268 251 268c166 0 229 -126 211 -273h-327c4 -90 67 -147 158 -147c83 0 149 27 149 27v-93s-23 -13 -62 -22h1c-45 -20 -83 -57 -83 -90c0 -27 22 -38 52 -38c31 0 63 11 63 11
v-65s-36 -17 -82 -17zM191 321l185 4c-2 70 -29 97 -80 97c-57 0 -98 -42 -105 -101z" />
    <glyph glyph-name="equal" unicode="=" horiz-adv-x="567" 
d="M78 122v104h411v-104h-411zM78 332v104h411v-104h-411z" />
    <glyph glyph-name="equal.old" horiz-adv-x="583" 
d="M86 122v104h411v-104h-411zM86 332v104h411v-104h-411z" />
    <glyph glyph-name="equal.sc" horiz-adv-x="571" 
d="M80 122v104h411v-104h-411zM80 332v104h411v-104h-411z" />
    <glyph glyph-name="equal.sctab" 
d="M44 122v104h411v-104h-411zM44 332v104h411v-104h-411z" />
    <glyph glyph-name="equal.tab" horiz-adv-x="510" 
d="M49 172v104h411v-104h-411zM49 382v104h411v-104h-411z" />
    <glyph glyph-name="estimated" unicode="&#x212e;" horiz-adv-x="818" 
d="M413 -53c-200 0 -361 145 -361 325c0 179 161 325 361 325c199 0 361 -146 361 -325v-9h-585c-3 0 -5 -1 -5 -4v-177c0 -8 3 -15 8 -20c56 -59 135 -96 222 -96c93 0 175 42 232 107h53c-66 -76 -170 -126 -286 -126zM189 281h448c3 0 5 2 5 5v178c0 8 -4 15 -10 21
c-56 57 -133 92 -218 92c-86 0 -165 -37 -221 -95c-6 -6 -9 -13 -9 -22v-174c0 -3 2 -5 5 -5z" />
    <glyph glyph-name="eth" unicode="&#xf0;" horiz-adv-x="582" 
d="M208 505l-76 48l56 86c-33 15 -69 26 -109 36l28 101c50 -11 98 -25 141 -43l63 98l75 -50l-58 -90c121 -77 195 -199 195 -384c0 -173 -82 -317 -244 -317c-148 0 -228 109 -228 229c0 141 81 244 223 244c36 0 66 -8 91 -18c-19 63 -53 112 -100 149zM384 303
c0 12 -1 23 -1 35c-21 15 -50 29 -87 29c-68 0 -108 -57 -108 -139c0 -69 23 -145 96 -145c75 0 100 107 100 220z" />
    <glyph glyph-name="exclam" unicode="!" horiz-adv-x="303" 
d="M97 220l-23 481l154 5l-22 -486h-109zM149 -15c-41 0 -77 32 -77 78c0 53 40 81 85 81c46 0 76 -28 76 -75c0 -55 -35 -84 -84 -84z" />
    <glyph glyph-name="exclam.sc" horiz-adv-x="315" 
d="M102 196l-17 406l144 5l-16 -411h-111zM154 -15c-41 0 -77 32 -77 78c0 53 40 81 85 81c46 0 76 -28 76 -75c0 -55 -35 -84 -84 -84z" />
    <glyph glyph-name="exclam.sctab" 
d="M194 196l-17 406l144 5l-16 -411h-111zM246 -15c-41 0 -77 32 -77 78c0 53 40 81 85 81c46 0 76 -28 76 -75c0 -55 -35 -84 -84 -84z" />
    <glyph glyph-name="exclamdown" unicode="&#xa1;" horiz-adv-x="301" 
d="M205 274l23 -481l-154 -5l22 486h109zM153 509c41 0 77 -32 77 -78c0 -53 -40 -81 -85 -81c-46 0 -76 28 -76 75c0 55 35 84 84 84z" />
    <glyph glyph-name="exclamdown.sc" horiz-adv-x="317" 
d="M214 405l17 -406l-144 -5l16 411h111zM162 616c41 0 77 -32 77 -78c0 -53 -40 -81 -85 -81c-46 0 -76 28 -76 75c0 55 35 84 84 84z" />
    <glyph glyph-name="exclamdown.sctab" 
d="M306 405l17 -406l-144 -5l16 411h111zM254 616c41 0 77 -32 77 -78c0 -53 -40 -81 -85 -81c-46 0 -76 28 -76 75c0 55 35 84 84 84z" />
    <glyph glyph-name="f" unicode="f" horiz-adv-x="404" 
d="M100 0v411l-56 1v88h57v77c0 105 66 183 191 183c65 0 99 -16 152 -20l-19 -102c-65 5 -86 23 -127 23c-44 0 -65 -32 -65 -90v-71h151l-5 -93l-146 2v-316c0 -46 5 -93 5 -93h-138z" />
    <glyph glyph-name="filledbox" unicode="&#x25a0;" horiz-adv-x="635" 
d="M563 85c-162 18 -330 24 -490 1l-22 22c23 160 17 328 -1 489l23 23c161 -18 329 -24 489 -1l22 -22c-23 -160 -17 -328 1 -490z" />
    <glyph glyph-name="five" unicode="5" horiz-adv-x="526" 
d="M222 -10c-75 0 -139 15 -181 29l20 85s65 -16 129 -16c84 0 144 37 144 123c0 88 -88 145 -249 160l18 329h343l-5 -109l-249 6l-8 -136c203 -27 290 -119 290 -256c0 -118 -95 -215 -252 -215z" />
    <glyph glyph-name="five.old" horiz-adv-x="511" 
d="M40 -200l8 101c171 -8 267 48 267 170c0 79 -61 145 -239 161l18 329h343l-5 -109s-43 5 -86 6l-163 2l-8 -141c198 -26 280 -129 280 -248c0 -176 -152 -289 -415 -271z" />
    <glyph glyph-name="five.sc" horiz-adv-x="505" 
d="M215 -10c-73 0 -132 13 -173 25l23 96c43 -10 90 -22 150 -22c68 0 92 50 92 87c0 53 -49 109 -222 123l17 304h324l-7 -121s-39 6 -75 6l-158 2l-6 -101c186 -17 271 -100 271 -206c0 -100 -87 -193 -236 -193z" />
    <glyph glyph-name="five.sctab" 
d="M212 -10c-73 0 -132 13 -173 25l23 96c43 -10 90 -22 150 -22c68 0 92 50 92 87c0 53 -49 109 -222 123l17 304h324l-7 -121s-39 6 -75 6l-158 2l-6 -101c186 -17 271 -100 271 -206c0 -100 -87 -193 -236 -193z" />
    <glyph glyph-name="five.set1" horiz-adv-x="537" 
d="M241 -10c-124 0 -195 36 -195 36l15 66s60 -19 130 -19c97 0 150 47 150 128c0 87 -73 162 -252 162l20 337h276l10 73h75l-10 -176l-278 17l-9 -161c209 -13 305 -129 305 -254c0 -108 -79 -209 -237 -209z" />
    <glyph glyph-name="five.set2" horiz-adv-x="545" 
d="M395 524l-6 79l-207 11l-9 -161c209 -13 305 -129 305 -254c0 -108 -79 -209 -237 -209c-124 0 -195 36 -195 36l15 66s60 -19 130 -19c97 0 150 47 150 128c0 87 -73 162 -252 162l20 337h361v-176h-75z" />
    <glyph glyph-name="five.tab" horiz-adv-x="510" 
d="M214 -10c-75 0 -139 15 -181 29l20 85s65 -16 129 -16c84 0 144 37 144 123c0 88 -88 145 -249 160l18 329h343l-5 -109l-249 6l-8 -136c203 -27 290 -119 290 -256c0 -118 -95 -215 -252 -215z" />
    <glyph glyph-name="fiveeighths" unicode="&#x215d;" horiz-adv-x="838" 
d="M646 -11c-91 0 -143 39 -143 96c0 43 24 78 65 104c-30 25 -54 54 -54 94c0 53 40 108 135 108c84 0 128 -43 128 -96c1 -35 -21 -64 -56 -87c37 -25 70 -58 70 -104c0 -69 -49 -115 -145 -115zM150 -18l-75 69l581 659l76 -66zM153 315c-39 0 -77 9 -101 17l12 74
c25 -7 53 -15 81 -15c36 0 52 20 52 43c0 35 -39 69 -119 70l10 196h224l-5 -85s-27 5 -53 5l-103 1l-3 -48c85 -6 165 -44 165 -132c0 -77 -61 -126 -160 -126zM680 92c0 21 -29 40 -62 61c-24 -46 -16 -96 29 -96c23 0 33 17 33 35zM617 291c0 -18 22 -33 51 -50
c21 36 19 74 -22 74c-18 0 -29 -11 -29 -24z" />
    <glyph glyph-name="florin" unicode="&#x192;" horiz-adv-x="404" 
d="M32 -249c-55 0 -89 16 -142 20l8 102c57 -5 93 -23 137 -23c52 0 65 32 65 110v451l-56 1v88h57v47c0 146 71 213 201 213c55 0 89 -16 142 -20l-12 -102c-57 5 -93 23 -137 23c-39 0 -62 -23 -62 -70v-91h151l-5 -93l-146 2v-445c0 -135 -49 -213 -201 -213z" />
    <glyph glyph-name="florin.tab" horiz-adv-x="510" 
d="M85 -249c-55 0 -89 16 -142 20l8 102c57 -5 93 -23 137 -23c52 0 65 32 65 110v451l-56 1v88h57v47c0 146 71 213 201 213c55 0 89 -16 142 -20l-12 -102c-57 5 -93 23 -137 23c-39 0 -62 -23 -62 -70v-91h151l-5 -93l-146 2v-445c0 -135 -49 -213 -201 -213z" />
    <glyph glyph-name="four" unicode="4" horiz-adv-x="592" 
d="M326 -10v159h-282l-28 66l341 499h99v-470l94 1l-8 -96h-86v-66c0 -46 5 -93 5 -93h-135zM138 239l190 4v191c0 56 3 104 3 104h-3s-13 -31 -47 -85z" />
    <glyph glyph-name="four.old" horiz-adv-x="586" 
d="M324 -202v202h-280l-25 62l328 510l109 -16v-461l94 1l-8 -96h-86v-109c0 -46 5 -93 5 -93h-137zM143 90l182 4v184c0 64 5 108 5 108l-4 1s-17 -39 -44 -81z" />
    <glyph glyph-name="four.sc" horiz-adv-x="545" 
d="M288 -10v139h-253l-7 69l292 421l97 -14v-392l88 1l-8 -85h-80v-60c0 -39 5 -79 5 -79h-134zM132 208l156 4v180c0 28 6 46 6 46l-5 2s-8 -19 -20 -36z" />
    <glyph glyph-name="four.sctab" 
d="M268 -10v139h-256l-7 69l292 421l97 -14v-392l88 1l-8 -85h-80v-60c0 -39 5 -79 5 -79h-131zM106 208l164 4v131c0 58 3 101 3 101l-5 2s-17 -35 -50 -82z" />
    <glyph glyph-name="four.set1" horiz-adv-x="572" 
d="M329 571h124v-312l82 1l-8 -84h-74v-192h-124v192h-275l-23 54l173 469h117l-177 -445l185 4v313z" />
    <glyph glyph-name="four.set2" horiz-adv-x="585" 
d="M330 571h124v-312l82 1l-8 -84h-74v-104h70v-72h-302v72h108v104h-275l-23 54l173 469h117l-177 -445l185 4v313z" />
    <glyph glyph-name="four.tab" horiz-adv-x="510" 
d="M279 -10v159h-254l-28 66l311 491h99v-466l74 1l-8 -92h-66v-66c0 -46 5 -93 5 -93h-133zM113 236l170 3v177c0 66 5 114 5 114h-3s-24 -56 -48 -95z" />
    <glyph glyph-name="fraction" unicode="&#x2044;" horiz-adv-x="510" 
d="M-4 0l396 701h122l-395 -701h-123z" />
    <glyph glyph-name="g" unicode="g" horiz-adv-x="562" 
d="M275 -262c-129 -2 -240 40 -240 153c0 58 31 99 80 123c-13 14 -21 37 -21 66c0 24 14 63 51 87c-54 25 -91 79 -91 151c0 112 79 192 221 192c37 0 75 -9 104 -20l159 12l-3 -72l-96 1v-4c24 -24 34 -61 34 -104c0 -87 -68 -182 -221 -182c-16 0 -38 2 -53 4
c0 0 -5 -8 -5 -18c0 -16 14 -32 49 -34l97 -6c121 -7 171 -69 171 -161c0 -94 -75 -186 -236 -188zM296 -180c73 0 116 38 116 84c0 44 -29 60 -92 63l-81 5c-28 2 -57 6 -78 14c-5 -10 -12 -30 -12 -57c0 -66 58 -109 147 -109zM263 225c50 0 75 45 75 100
c0 64 -29 100 -74 100c-49 0 -75 -46 -75 -97c0 -61 30 -103 74 -103z" />
    <glyph glyph-name="gbreve" unicode="&#x11f;" horiz-adv-x="562" 
d="M275 -262c-129 -2 -240 40 -240 153c0 58 31 99 80 123c-13 14 -21 37 -21 66c0 24 14 63 51 87c-54 25 -91 79 -91 151c0 112 79 192 221 192c37 0 75 -9 104 -20l159 12l-3 -72l-96 1v-4c24 -24 34 -61 34 -104c0 -87 -68 -182 -221 -182c-16 0 -38 2 -53 4
c0 0 -5 -8 -5 -18c0 -16 14 -32 49 -34l97 -6c121 -7 171 -69 171 -161c0 -94 -75 -186 -236 -188zM296 -180c73 0 116 38 116 84c0 44 -29 60 -92 63l-81 5c-28 2 -57 6 -78 14c-5 -10 -12 -30 -12 -57c0 -66 58 -109 147 -109zM263 225c50 0 75 45 75 100
c0 64 -29 100 -74 100c-49 0 -75 -46 -75 -97c0 -61 30 -103 74 -103zM272 596c-75 0 -137 45 -160 130l90 36c1 -1 18 -54 70 -54c54 0 68 53 70 54l92 -37c-23 -85 -93 -129 -162 -129z" />
    <glyph glyph-name="gcircumflex" unicode="&#x11d;" horiz-adv-x="562" 
d="M173 584l-61 69l151 124h38l148 -118l-59 -73l-108 74zM275 -262c-129 -2 -240 40 -240 153c0 58 31 99 80 123c-13 14 -21 37 -21 66c0 24 14 63 51 87c-54 25 -91 79 -91 151c0 112 79 192 221 192c37 0 75 -9 104 -20l159 12l-3 -72l-96 1v-4c24 -24 34 -61 34 -104
c0 -87 -68 -182 -221 -182c-16 0 -38 2 -53 4c0 0 -5 -8 -5 -18c0 -16 14 -32 49 -34l97 -6c121 -7 171 -69 171 -161c0 -94 -75 -186 -236 -188zM296 -180c73 0 116 38 116 84c0 44 -29 60 -92 63l-81 5c-28 2 -57 6 -78 14c-5 -10 -12 -30 -12 -57c0 -66 58 -109 147 -109
zM263 225c50 0 75 45 75 100c0 64 -29 100 -74 100c-49 0 -75 -46 -75 -97c0 -61 30 -103 74 -103z" />
    <glyph glyph-name="gcommaaccent" unicode="&#x123;" horiz-adv-x="562" 
d="M296 905l64 -53c-32 -30 -64 -75 -78 -117c37 -7 62 -37 62 -77c0 -52 -39 -82 -83 -82s-80 26 -80 91c0 86 53 184 115 238zM275 -262c-129 -2 -240 40 -240 153c0 58 31 99 80 123c-13 14 -21 37 -21 66c0 24 14 63 51 87c-54 25 -91 79 -91 151c0 112 79 192 221 192
c37 0 75 -9 104 -20l159 12l-3 -72l-96 1v-4c24 -24 34 -61 34 -104c0 -87 -68 -182 -221 -182c-16 0 -38 2 -53 4c0 0 -5 -8 -5 -18c0 -16 14 -32 49 -34l97 -6c121 -7 171 -69 171 -161c0 -94 -75 -186 -236 -188zM296 -180c73 0 116 38 116 84c0 44 -29 60 -92 63l-81 5
c-28 2 -57 6 -78 14c-5 -10 -12 -30 -12 -57c0 -66 58 -109 147 -109zM263 225c50 0 75 45 75 100c0 64 -29 100 -74 100c-49 0 -75 -46 -75 -97c0 -61 30 -103 74 -103z" />
    <glyph glyph-name="gdotaccent" unicode="&#x121;" horiz-adv-x="562" 
d="M275 -262c-129 -2 -240 40 -240 153c0 58 31 99 80 123c-13 14 -21 37 -21 66c0 24 14 63 51 87c-54 25 -91 79 -91 151c0 112 79 192 221 192c37 0 75 -9 104 -20l159 12l-3 -72l-96 1v-4c24 -24 34 -61 34 -104c0 -87 -68 -182 -221 -182c-16 0 -38 2 -53 4
c0 0 -5 -8 -5 -18c0 -16 14 -32 49 -34l97 -6c121 -7 171 -69 171 -161c0 -94 -75 -186 -236 -188zM296 -180c73 0 116 38 116 84c0 44 -29 60 -92 63l-81 5c-28 2 -57 6 -78 14c-5 -10 -12 -30 -12 -57c0 -66 58 -109 147 -109zM263 225c50 0 75 45 75 100
c0 64 -29 100 -74 100c-49 0 -75 -46 -75 -97c0 -61 30 -103 74 -103zM257 593c-42 0 -79 34 -79 79c0 43 39 79 81 79c44 0 78 -36 78 -79c0 -45 -38 -79 -80 -79z" />
    <glyph glyph-name="germandbls" unicode="&#xdf;" horiz-adv-x="652" 
d="M468 -10c-61 0 -106 16 -162 21l8 92c52 -5 74 -14 123 -14c29 0 48 18 48 45c0 106 -162 86 -162 232c0 103 83 146 83 217c0 64 -34 85 -84 85c-42 0 -83 -34 -83 -76v-499c0 -47 6 -93 6 -93h-139v410h-66v90h67v47c0 135 87 213 247 213c90 0 190 -57 190 -161
c0 -127 -86 -124 -86 -220c0 -83 162 -114 162 -267c0 -75 -67 -122 -152 -122z" />
    <glyph glyph-name="germandbls.sc" horiz-adv-x="1032" 
d="M247 -11c-120 0 -191 39 -191 39l28 90c46 -19 107 -34 163 -34c69 0 92 24 92 64c0 50 -42 76 -138 111c-92 33 -145 97 -145 174c0 112 84 177 212 177c90 0 132 -22 182 -36l-37 -98c-48 13 -93 39 -161 39c-40 0 -67 -27 -67 -61c0 -55 43 -75 112 -101
c116 -44 173 -88 173 -186c0 -106 -83 -178 -223 -178zM759 -11c-120 0 -191 39 -191 39l28 90c46 -19 107 -34 163 -34c69 0 92 24 92 64c0 50 -42 76 -138 111c-92 33 -145 97 -145 174c0 112 84 177 212 177c90 0 132 -22 182 -36l-37 -98c-48 13 -93 39 -161 39
c-40 0 -67 -27 -67 -61c0 -55 43 -75 112 -101c116 -44 173 -88 173 -186c0 -106 -83 -178 -223 -178z" />
    <glyph glyph-name="greater" unicode="&#x3e;" horiz-adv-x="467" 
d="M77 20v156l184 89l-184 87v157l348 -210v-69z" />
    <glyph glyph-name="greater.old" horiz-adv-x="515" 
d="M69 60l235 225l-235 224h171l228 -220v-9l-228 -220h-171z" />
    <glyph glyph-name="greater.sc" 
d="M63 60l235 225l-235 224h171l228 -220v-9l-228 -220h-171z" />
    <glyph glyph-name="greater.sctab" 
d="M63 60l235 225l-235 224h171l228 -220v-9l-228 -220h-171z" />
    <glyph glyph-name="greater.tab" horiz-adv-x="510" 
d="M102 70v156l184 89l-184 87v157l348 -210v-69z" />
    <glyph glyph-name="greaterequal" unicode="&#x2265;" horiz-adv-x="503" 
d="M89 42v224l147 52l-147 64v127l348 -165v-59l-315 -131h315v-112h-348z" />
    <glyph glyph-name="greaterequal.tab" horiz-adv-x="510" 
d="M92 92v224l147 52l-147 64v127l348 -165v-59l-315 -131h315v-112h-348z" />
    <glyph glyph-name="guillemotleft" unicode="&#xab;" horiz-adv-x="558" 
d="M218 9c-32 58 -78 116 -143 176l-50 46v29l50 46c65 60 111 118 143 176l92 -48c-29 -65 -81 -140 -122 -179l-12 -10l12 -11c43 -37 83 -100 118 -177zM418 26c-33 64 -62 93 -133 159l-50 46v29l50 46c71 65 101 98 134 161l91 -48c-24 -62 -64 -119 -112 -164l-12 -10
l12 -11c51 -44 77 -87 107 -161z" />
    <glyph glyph-name="guillemotleft.sc" horiz-adv-x="577" 
d="M224 9c-32 58 -78 116 -143 176l-50 46v29l50 46c65 60 111 118 143 176l92 -48c-29 -65 -81 -140 -122 -179l-12 -10l12 -11c43 -37 83 -100 118 -177zM424 26c-33 64 -62 93 -133 159l-50 46v29l50 46c71 65 101 98 134 161l91 -48c-24 -62 -64 -119 -112 -164l-12 -10
l12 -11c51 -44 77 -87 107 -161z" />
    <glyph glyph-name="guillemotleft.sctab" 
d="M185 9c-32 58 -78 116 -143 176l-50 46v29l50 46c65 60 111 118 143 176l92 -48c-29 -65 -81 -140 -122 -179l-12 -10l12 -11c43 -37 83 -100 118 -177zM385 26c-33 64 -62 93 -133 159l-50 46v29l50 46c71 65 101 98 134 161l91 -48c-24 -62 -64 -119 -112 -164l-12 -10
l12 -11c51 -44 77 -87 107 -161z" />
    <glyph glyph-name="guillemotright" unicode="&#xbb;" horiz-adv-x="558" 
d="M140 26l-87 47c30 74 56 117 107 161l13 11l-13 10c-48 45 -88 102 -112 164l91 48c33 -63 63 -96 134 -161l50 -46v-29l-50 -46c-71 -66 -100 -95 -133 -159zM340 9l-88 48c35 77 75 140 118 177l13 11l-13 10c-41 39 -93 114 -122 179l92 48c32 -58 78 -116 143 -176
l50 -46v-29l-50 -46c-65 -60 -111 -118 -143 -176z" />
    <glyph glyph-name="guillemotright.sc" horiz-adv-x="576" 
d="M152 26l-87 47c30 74 56 117 107 161l13 11l-13 10c-48 45 -88 102 -112 164l91 48c33 -63 63 -96 134 -161l50 -46v-29l-50 -46c-71 -66 -100 -95 -133 -159zM352 9l-88 48c35 77 75 140 118 177l13 11l-13 10c-41 39 -93 114 -122 179l92 48c32 -58 78 -116 143 -176
l50 -46v-29l-50 -46c-65 -60 -111 -118 -143 -176z" />
    <glyph glyph-name="guillemotright.sctab" 
d="M114 26l-87 47c30 74 56 117 107 161l13 11l-13 10c-48 45 -88 102 -112 164l91 48c33 -63 63 -96 134 -161l50 -46v-29l-50 -46c-71 -66 -100 -95 -133 -159zM314 9l-88 48c35 77 75 140 118 177l13 11l-13 10c-41 39 -93 114 -122 179l92 48c32 -58 78 -116 143 -176
l50 -46v-29l-50 -46c-65 -60 -111 -118 -143 -176z" />
    <glyph glyph-name="guilsinglleft" unicode="&#x2039;" horiz-adv-x="363" 
d="M213 0l-188 240v29l188 240l106 -66l-140 -185l142 -187z" />
    <glyph glyph-name="guilsinglright" unicode="&#x203a;" horiz-adv-x="363" 
d="M338 240l-188 -240l-108 71l142 187l-140 185l106 66l188 -240v-29z" />
    <glyph glyph-name="h" unicode="h" horiz-adv-x="606" 
d="M79 0v647c0 51 -6 103 -6 103l139 5l-2 -305c44 36 88 60 164 60c102 0 157 -69 157 -175v-252c0 -36 5 -83 5 -83h-138v297c0 78 -20 113 -81 113c-46 0 -71 -15 -107 -34c1 -10 2 -47 2 -95v-198c0 -36 5 -83 5 -83h-138z" />
    <glyph glyph-name="hbar" unicode="&#x127;" horiz-adv-x="606" 
d="M22 569v94h57c-1 45 -6 87 -6 87l139 5l-1 -92h145v-94h-145l-1 -119c44 36 88 60 164 60c102 0 157 -69 157 -175v-252c0 -36 5 -83 5 -83h-138v297c0 78 -20 113 -81 113c-46 0 -71 -15 -107 -34c1 -10 2 -47 2 -95v-198c0 -36 5 -83 5 -83h-138v569h-57z" />
    <glyph glyph-name="hcircumflex" unicode="&#x125;" horiz-adv-x="606" 
d="M39 782l-61 69l151 124h38l148 -118l-59 -73l-108 74zM79 0v647c0 51 -6 103 -6 103l139 5l-2 -305c44 36 88 60 164 60c102 0 157 -69 157 -175v-252c0 -36 5 -83 5 -83h-138v297c0 78 -20 113 -81 113c-46 0 -71 -15 -107 -34c1 -10 2 -47 2 -95v-198
c0 -36 5 -83 5 -83h-138z" />
    <glyph glyph-name="hyphen" unicode="-" horiz-adv-x="431" 
d="M70 232v109l291 10v-109z" />
    <glyph glyph-name="hyphen.sc" horiz-adv-x="451" 
d="M80 242v114h291v-114h-291z" />
    <glyph glyph-name="hyphen.sctab" 
d="M104 242v114h291v-114h-291z" />
    <glyph glyph-name="iacute" unicode="&#xed;" horiz-adv-x="291" 
d="M145 572l-70 73l160 181l97 -100zM79 0v397c0 51 -6 103 -6 103l139 5v-412c0 -46 5 -93 5 -93h-138z" />
    <glyph glyph-name="ibreve" unicode="&#x12d;" horiz-adv-x="291" 
d="M79 0v397c0 51 -6 103 -6 103l139 5v-412c0 -46 5 -93 5 -93h-138zM144 609c-75 0 -137 45 -160 130l90 36c1 -1 18 -54 70 -54c54 0 68 53 70 54l92 -37c-23 -85 -93 -129 -162 -129z" />
    <glyph glyph-name="icircumflex" unicode="&#xee;" horiz-adv-x="291" 
d="M39 581l-61 69l151 124h38l148 -118l-59 -73l-108 74zM79 0v397c0 51 -6 103 -6 103l139 5v-412c0 -46 5 -93 5 -93h-138z" />
    <glyph glyph-name="idieresis" unicode="&#xef;" horiz-adv-x="291" 
d="M36 594c-44 0 -77 31 -77 81c0 53 37 82 84 82c48 0 76 -29 76 -78c0 -55 -33 -85 -83 -85zM244 594c-44 0 -77 31 -77 81c0 53 37 82 84 82c48 0 76 -29 76 -78c0 -55 -33 -85 -83 -85zM79 0v397c0 51 -6 103 -6 103l139 5v-412c0 -46 5 -93 5 -93h-138z" />
    <glyph glyph-name="igrave" unicode="&#xec;" horiz-adv-x="291" 
d="M79 0v397c0 51 -6 103 -6 103l139 5v-412c0 -46 5 -93 5 -93h-138zM177 571l-187 154l96 101l160 -181z" />
    <glyph glyph-name="imacron" unicode="&#x12b;" horiz-adv-x="291" 
d="M79 0v397c0 51 -6 103 -6 103l139 5v-412c0 -46 5 -93 5 -93h-138zM5 609v104h274v-104h-274z" />
    <glyph glyph-name="infinity" unicode="&#x221e;" horiz-adv-x="758" 
d="M399 352c17 19 77 82 154 82c76 0 144 -58 144 -134c0 -102 -82 -155 -152 -155c-59 0 -116 19 -186 81c-17 -19 -77 -82 -154 -82c-76 0 -144 58 -144 134c0 102 82 155 152 155c59 0 116 -19 186 -81zM210 235c51 0 94 34 94 34c-36 37 -70 61 -101 61
c-27 0 -46 -19 -46 -46c0 -30 22 -49 53 -49zM548 343c-51 0 -94 -34 -94 -34c36 -37 70 -61 101 -61c27 0 46 20 46 51c0 27 -22 44 -53 44z" />
    <glyph glyph-name="iogonek" unicode="&#x12f;" horiz-adv-x="291" 
d="M79 0v397c0 51 -6 103 -6 103l139 5v-412c0 -46 5 -93 5 -93h-138zM139 596c-42 0 -75 29 -75 73c0 45 35 70 82 70c44 0 74 -25 74 -68c0 -47 -33 -75 -81 -75zM167 -199c-84 0 -129 36 -129 90c0 56 57 94 96 109h83c-45 -20 -83 -57 -83 -90c0 -27 22 -38 52 -38
c31 0 63 11 63 11v-65s-36 -17 -82 -17z" />
    <glyph glyph-name="itilde" unicode="&#x129;" horiz-adv-x="291" 
d="M79 0v397c0 51 -6 103 -6 103l139 5v-412c0 -46 5 -93 5 -93h-138zM210 599c-65 0 -87 36 -123 36c-24 0 -39 -22 -44 -39l-82 20c10 58 53 119 124 119c68 0 88 -36 122 -36c22 0 35 23 38 39l80 -20c-13 -79 -64 -119 -115 -119z" />
    <glyph glyph-name="jcircumflex" unicode="&#x135;" horiz-adv-x="291" 
d="M50 -257l-63 50c28 36 50 65 76 121c17 33 16 74 16 112v371c0 51 -6 103 -6 103l139 5v-479c0 -33 -1 -78 -19 -111c-30 -57 -79 -107 -143 -172zM42 580l-61 69l151 124h38l148 -118l-59 -73l-108 74z" />
    <glyph glyph-name="k" unicode="k" horiz-adv-x="551" 
d="M385 -5l-145 214h-28v-116c0 -46 5 -93 5 -93h-138v648c0 51 -6 103 -6 103l139 5v-458h32l61 87c58 83 74 115 74 115h131s-36 -63 -107 -146l-67 -75l145 -203c30 -42 60 -76 60 -76z" />
    <glyph glyph-name="kcommaaccent" unicode="&#x137;" horiz-adv-x="551" 
d="M281 -370l-66 39c22 27 37 61 45 94c-37 7 -62 37 -62 77c0 52 39 82 83 82s80 -26 80 -91c0 -69 -34 -145 -80 -201zM385 -5l-145 214h-28v-116c0 -46 5 -93 5 -93h-138v648c0 51 -6 103 -6 103l139 5v-458h32l61 87c58 83 74 115 74 115h131s-36 -63 -107 -146l-67 -75
l145 -203c30 -42 60 -76 60 -76z" />
    <glyph glyph-name="l" unicode="l" horiz-adv-x="291" 
d="M79 0v648c0 51 -6 103 -6 103l139 5v-663c0 -46 5 -93 5 -93h-138z" />
    <glyph glyph-name="lacute" unicode="&#x13a;" horiz-adv-x="291" 
d="M145 796l-70 73l160 181l97 -100zM79 0v648c0 51 -6 103 -6 103l139 5v-663c0 -46 5 -93 5 -93h-138z" />
    <glyph glyph-name="lcaron" unicode="&#x13e;" horiz-adv-x="374" 
d="M79 0v648c0 51 -6 103 -6 103l139 5v-663c0 -46 5 -93 5 -93h-138zM315 435l-64 53c32 30 64 75 78 117c-37 7 -62 37 -62 77c0 52 39 82 83 82s80 -26 80 -91c0 -86 -53 -184 -115 -238z" />
    <glyph glyph-name="lcommaaccent" unicode="&#x13c;" horiz-adv-x="291" 
d="M151 -376l-66 39c22 27 37 61 45 94c-37 7 -62 37 -62 77c0 52 39 82 83 82s80 -26 80 -91c0 -69 -34 -145 -80 -201zM79 0v648c0 51 -6 103 -6 103l139 5v-663c0 -46 5 -93 5 -93h-138z" />
    <glyph glyph-name="ldot" unicode="&#x140;" horiz-adv-x="482" 
d="M376 293c-41 0 -77 32 -77 78c0 53 40 81 85 81c46 0 76 -28 76 -75c0 -55 -35 -84 -84 -84zM79 0v648c0 51 -6 103 -6 103l139 5v-663c0 -46 5 -93 5 -93h-138z" />
    <glyph glyph-name="less" unicode="&#x3c;" horiz-adv-x="467" 
d="M390 20l-348 210v69l348 210v-157l-184 -87l184 -89v-156z" />
    <glyph glyph-name="less.old" horiz-adv-x="514" 
d="M275 60l-228 220v9l228 220h171l-235 -224l235 -225h-171z" />
    <glyph glyph-name="less.sc" 
d="M266 60l-228 220v9l228 220h171l-235 -224l235 -225h-171z" />
    <glyph glyph-name="less.sctab" 
d="M266 60l-228 220v9l228 220h171l-235 -224l235 -225h-171z" />
    <glyph glyph-name="less.tab" horiz-adv-x="510" 
d="M408 80l-348 210v69l348 210v-157l-184 -87l184 -89v-156z" />
    <glyph glyph-name="lessequal" unicode="&#x2264;" horiz-adv-x="503" 
d="M66 42v112h314l-314 131v59l348 165v-127l-147 -64l147 -52v-224h-348z" />
    <glyph glyph-name="lessequal.tab" horiz-adv-x="510" 
d="M69 92v112h314l-314 131v59l348 165v-127l-147 -64l147 -52v-224h-348z" />
    <glyph glyph-name="logicalnot" unicode="&#xac;" horiz-adv-x="592" 
d="M403 137v91h-325v114h432v-205h-107z" />
    <glyph glyph-name="lozenge" unicode="&#x25ca;" horiz-adv-x="622" 
d="M265 -15l-245 333v51l245 331h92l245 -333v-51l-245 -331h-92zM317 121l145 215l-158 225l-146 -209z" />
    <glyph glyph-name="lslash" unicode="&#x142;" horiz-adv-x="406" 
d="M54 177l-42 76l124 70v325c0 51 -6 103 -6 103l139 5v-358l84 48l42 -75l-126 -72v-206c0 -46 5 -93 5 -93h-138v223z" />
    <glyph glyph-name="m" unicode="m" horiz-adv-x="898" 
d="M79 0v397c0 51 -6 103 -6 103l132 5l3 -55c43 35 81 60 148 60c58 0 112 -26 133 -69c45 39 96 69 168 69c104 0 166 -69 166 -168v-259c0 -36 5 -83 5 -83h-138v297c0 72 -23 113 -80 113c-47 0 -69 -14 -100 -34c3 -17 5 -35 5 -54v-239c0 -36 5 -83 5 -83h-138v297
c0 76 -21 113 -73 113c-32 0 -64 -15 -99 -34c1 -10 2 -47 2 -95v-198c0 -36 5 -83 5 -83h-138z" />
    <glyph glyph-name="minus" unicode="&#x2212;" horiz-adv-x="527" 
d="M78 234v102h371v-102h-371z" />
    <glyph glyph-name="minus.old" horiz-adv-x="543" 
d="M86 234v102h371v-102h-371z" />
    <glyph glyph-name="minus.sc" horiz-adv-x="531" 
d="M80 234v102h371v-102h-371z" />
    <glyph glyph-name="minus.sctab" 
d="M64 234v102h371v-102h-371z" />
    <glyph glyph-name="minus.tab" horiz-adv-x="510" 
d="M69 284v102h371v-102h-371z" />
    <glyph glyph-name="mu" unicode="&#xb5;" horiz-adv-x="593" 
d="M79 -202v619c0 36 -5 83 -5 83h148v-277c0 -118 40 -139 83 -139c35 0 76 12 75 13c0 0 -10 18 -10 86v234c0 36 -5 83 -5 83h148v-418c0 -11 10 -83 10 -83l-121 -3l-8 55c-30 -37 -66 -61 -130 -61c-54 0 -99 36 -120 80l-4 -2c42 -65 73 -148 73 -231v-39h-134z" />
    <glyph glyph-name="multiply" unicode="&#xd7;" horiz-adv-x="547" 
d="M146 74l-86 84l129 130l-127 127l84 84l127 -128l127 128l87 -85l-129 -128l128 -128l-83 -83l-128 127z" />
    <glyph glyph-name="multiply.old" horiz-adv-x="563" 
d="M154 74l-86 84l129 130l-127 127l84 84l127 -128l127 128l87 -85l-129 -128l128 -128l-83 -83l-128 127z" />
    <glyph glyph-name="multiply.sc" horiz-adv-x="553" 
d="M149 74l-86 84l129 130l-127 127l84 84l127 -128l127 128l87 -85l-129 -128l128 -128l-83 -83l-128 127z" />
    <glyph glyph-name="multiply.sctab" 
d="M122 74l-86 84l129 130l-127 127l84 84l127 -128l127 128l87 -85l-129 -128l128 -128l-83 -83l-128 127z" />
    <glyph glyph-name="multiply.tab" horiz-adv-x="510" 
d="M127 94l-86 84l129 130l-127 127l84 84l127 -128l127 128l87 -85l-129 -128l128 -128l-83 -83l-128 127z" />
    <glyph glyph-name="n" unicode="n" horiz-adv-x="605" 
d="M79 0v397c0 51 -6 103 -6 103l132 5l3 -56c45 36 88 61 171 61c100 0 152 -69 152 -186v-241c0 -36 5 -83 5 -83h-138v309c0 64 -21 101 -78 101c-41 0 -74 -15 -110 -34c0 0 2 -27 2 -75v-218c0 -36 5 -83 5 -83h-138z" />
    <glyph glyph-name="nacute" unicode="&#x144;" horiz-adv-x="605" 
d="M321 572l-70 73l160 181l97 -100zM79 0v397c0 51 -6 103 -6 103l132 5l3 -56c45 36 88 61 171 61c100 0 152 -69 152 -186v-241c0 -36 5 -83 5 -83h-138v309c0 64 -21 101 -78 101c-41 0 -74 -15 -110 -34c0 0 2 -27 2 -75v-218c0 -36 5 -83 5 -83h-138z" />
    <glyph glyph-name="ncaron" unicode="&#x148;" horiz-adv-x="605" 
d="M411 777l61 -69l-151 -124h-38l-148 118l59 73l108 -74zM79 0v397c0 51 -6 103 -6 103l132 5l3 -56c45 36 88 61 171 61c100 0 152 -69 152 -186v-241c0 -36 5 -83 5 -83h-138v309c0 64 -21 101 -78 101c-41 0 -74 -15 -110 -34c0 0 2 -27 2 -75v-218c0 -36 5 -83 5 -83
h-138z" />
    <glyph glyph-name="ncommaaccent" unicode="&#x146;" horiz-adv-x="606" 
d="M304 -376l-66 39c22 27 37 61 45 94c-37 7 -62 37 -62 77c0 52 39 82 83 82s80 -26 80 -91c0 -69 -34 -145 -80 -201zM79 0v397c0 51 -6 103 -6 103l132 5l3 -56c45 36 88 61 171 61c100 0 152 -69 152 -186v-241c0 -36 5 -83 5 -83h-138v309c0 64 -21 101 -78 101
c-41 0 -74 -15 -110 -34c0 0 2 -27 2 -75v-218c0 -36 5 -83 5 -83h-138z" />
    <glyph glyph-name="nine" unicode="9" horiz-adv-x="578" 
d="M283 710c149 0 241 -105 241 -290c0 -239 -118 -399 -398 -445l-22 89c152 40 242 97 273 223c-29 -13 -71 -26 -131 -26c-115 0 -203 84 -203 215c0 126 86 234 240 234zM287 354c41 0 76 14 99 28v56c0 111 -38 178 -109 178c-64 0 -99 -58 -99 -133
c0 -90 51 -129 109 -129z" />
    <glyph glyph-name="nine.old" horiz-adv-x="570" 
d="M280 560c161 0 241 -127 241 -290c0 -255 -135 -429 -408 -475l-22 89c155 33 251 119 282 253c-28 -13 -71 -26 -130 -26c-115 0 -204 84 -204 215c0 126 87 234 241 234zM284 204c41 0 75 14 98 27v57c0 111 -45 178 -108 178c-64 0 -98 -58 -98 -124
c0 -103 50 -138 108 -138z" />
    <glyph glyph-name="nine.sc" horiz-adv-x="547" 
d="M259 613c142 0 235 -107 235 -235c0 -240 -131 -374 -380 -394l-15 91c141 19 209 81 236 174c-24 -11 -52 -19 -85 -19c-120 0 -206 69 -206 182c0 108 90 201 215 201zM281 319c24 0 49 8 68 17c0 11 1 22 1 33c0 108 -46 153 -90 153c-53 0 -74 -56 -74 -101
c0 -50 21 -102 95 -102z" />
    <glyph glyph-name="nine.sctab" 
d="M236 613c142 0 225 -107 225 -256c0 -219 -121 -353 -370 -373l-15 91c142 19 208 81 234 175c-28 -12 -61 -20 -102 -20c-122 0 -177 77 -177 182c0 108 80 201 205 201zM258 319c23 0 45 7 64 15c0 11 1 23 1 35c0 86 -26 153 -86 153c-53 0 -70 -56 -70 -101
c0 -67 30 -102 91 -102z" />
    <glyph glyph-name="nine.set1" horiz-adv-x="581" 
d="M284 710c159 0 245 -112 245 -290c0 -231 -128 -399 -408 -445l-16 64c167 45 265 138 301 289c0 0 -52 -59 -143 -59c-131 0 -215 76 -215 207c0 126 82 234 236 234zM288 347c64 0 106 43 106 140c0 92 -45 149 -104 149c-76 0 -110 -63 -110 -144
c0 -103 50 -145 108 -145z" />
    <glyph glyph-name="nine.set2" horiz-adv-x="581" 
d="M287 710c149 0 241 -105 241 -290c0 -239 -118 -399 -398 -445l-22 89c152 40 242 97 273 223c-29 -13 -71 -26 -131 -26c-115 0 -203 84 -203 215c0 126 86 234 240 234zM291 354c41 0 76 14 99 28v56c0 111 -38 178 -109 178c-64 0 -99 -58 -99 -133
c0 -90 51 -129 109 -129z" />
    <glyph glyph-name="nine.tab" horiz-adv-x="510" 
d="M252 710c157 0 217 -136 217 -280c0 -233 -105 -406 -374 -455l-22 89c132 32 218 98 251 217c-25 -11 -60 -20 -109 -20c-115 0 -181 82 -181 215c0 121 64 234 218 234zM256 354c34 0 61 9 80 20v55c0 105 -27 187 -84 187c-67 0 -86 -50 -86 -124
c0 -80 18 -138 90 -138z" />
    <glyph glyph-name="notequal" unicode="&#x2260;" horiz-adv-x="549" 
d="M70 332v104h240l95 144l96 -70l-49 -74h29v-104h-98l-70 -106h168v-104h-236l-97 -147l-96 69l51 78h-33v104h102l70 106h-172z" />
    <glyph glyph-name="notequal.tab" horiz-adv-x="510" 
d="M49 382v104h240l95 144l96 -70l-49 -74h29v-104h-98l-70 -106h168v-104h-236l-97 -147l-96 69l51 78h-33v104h102l70 106h-172z" />
    <glyph glyph-name="ntilde" unicode="&#xf1;" horiz-adv-x="605" 
d="M79 0v397c0 51 -6 103 -6 103l132 5l3 -56c45 36 88 61 171 61c100 0 152 -69 152 -186v-241c0 -36 5 -83 5 -83h-138v309c0 64 -21 101 -78 101c-41 0 -74 -15 -110 -34c0 0 2 -27 2 -75v-218c0 -36 5 -83 5 -83h-138zM388 593c-65 0 -87 36 -123 36
c-24 0 -39 -22 -44 -39l-82 20c10 58 53 119 124 119c68 0 88 -36 122 -36c22 0 35 23 38 39l80 -20c-13 -79 -64 -119 -115 -119z" />
    </font>
</defs>
</svg>
