<svg version="1.1" id="svg-counter-icn-2" xmlns="http://www.w3.org/2000/svg" xmlns:xlink="http://www.w3.org/1999/xlink" x="0px" y="0px"
	 viewBox="-244 444 89 88" style="enable-background:new -244 444 89 88;" xml:space="preserve">
<g>
	<g>
		<g>
			<path d="M-244,469v25c0,5.5,4.5,10,10,10h23c5.5,0,10-4.5,10-10v-25H-244z M-213.5,493h-18c-0.8,0-1.5-0.7-1.5-1.5
				s0.7-1.5,1.5-1.5h18c0.8,0,1.5,0.7,1.5,1.5S-212.7,493-213.5,493z M-212,483h-21c-1.1,0-2-0.9-2-2s0.9-2,2-2h21c1.1,0,2,0.9,2,2
				S-210.9,483-212,483z"/>
		</g>
	</g>
</g>
<g>
	<g>
		<g>
			<polygon points="-238,444 -238,466 -231,466 -231,451 -214,451 -214,466 -207,466 -207,444 			"/>
		</g>
	</g>
</g>
<g>
	<g>
		<g>
			<path d="M-158,499h-14c-1.7,0-3,1.3-3,3v14h20v-14C-155,500.3-156.3,499-158,499z M-172,526h14v-7h-14V526z"/>
		</g>
	</g>
</g>
<g>
	<g>
		<g>
			<path d="M-178,454c-15,0-15,15-15,15v45c0,0,0,12-13,12s-13-12-13-12v-7h-6v7c0,0,0,18,19,18s19-18,19-18v-45
				c0,0,0-9,9-9c10,0,10,9,10,9v28h6v-28C-162,469-162,454-178,454z"/>
		</g>
	</g>
</g>
</svg>
