<svg version="1.1" id="svg-counter-icn-3" xmlns="http://www.w3.org/2000/svg" xmlns:xlink="http://www.w3.org/1999/xlink" x="0px" y="0px"
	 viewBox="-222.8 443 47.5 90" style="enable-background:new -222.8 443 47.5 90;" xml:space="preserve">
<path d="M-179,528h-0.7l-15.6-46.7c0.8-0.9,1.3-2,1.3-3.3c0-2.8-2.2-5-5-5s-5,2.2-5,5c0,1.3,0.5,2.4,1.3,3.3l-15.6,46.7
	h-0.7c-1.4,0-2.5,1.1-2.5,2.5s1.1,2.5,2.5,2.5h2.5l0,0l0,0h35l0,0l0,0h2.5c1.4,0,2.5-1.1,2.5-2.5S-177.6,528-179,528z M-197,491.9
	l-5,3l3-9L-197,491.9z M-187.8,519.4l-15-4.1l12.3-4.1L-187.8,519.4z M-193.1,503.5l-7.9-3.4l5.6-3.4L-193.1,503.5z M-205,503.9
	l9,3.8l-11.5,3.8L-205,503.9z M-209.9,518.5l15.6,4.3l-18.5,4.3L-209.9,518.5z M-185.7,525.9l0.7,2.1h-9.6L-185.7,525.9z"/>
<path d="M-222,452.5c-1,1-1,2.6,0,3.5c1,1,2.6,1,3.5,0c10.7-10.7,28.2-10.7,38.9,0c0.5,0.5,1.1,0.7,1.8,0.7
	c0.7,0,1.3-0.2,1.8-0.7c1-1,1-2.6,0-3.5C-188.7,439.8-209.3,439.8-222,452.5z"/>
<path d="M-184.9,463.9c0.6,0,1.3-0.2,1.8-0.7c1-1,1-2.6,0-3.5c-4.2-4.4-9.9-6.7-15.9-6.7s-11.7,2.3-15.9,6.6
	c-1,1-1,2.6,0,3.5c1,1,2.6,1,3.5,0c6.8-6.8,17.9-6.8,24.8,0C-186.1,463.6-185.5,463.9-184.9,463.9z"/>
<path d="M-207.8,466.7c-1,1-1,2.6,0,3.5c1,1,2.6,1,3.5,0c2.9-2.9,7.7-2.9,10.6,0c0.5,0.5,1.1,0.7,1.8,0.7
	c0.7,0,1.3-0.2,1.8-0.7c1-1,1-2.6,0-3.5C-195,461.8-203,461.8-207.8,466.7z"/>
</svg>
