<svg version="1.1" id="svg-counter-icn-1" xmlns="http://www.w3.org/2000/svg" xmlns:xlink="http://www.w3.org/1999/xlink" x="0px" y="0px"
	 viewBox="-236.6 443 75.1 90" style="enable-background:new -236.6 443 75.1 90;" xml:space="preserve">
<g>
	<path d="M-216.7,462c4.8,0,8.7-5.6,8.7-10.3c0-4.8-3.9-8.7-8.7-8.7c-4.8,0-8.7,3.9-8.7,8.7S-221.4,462-216.7,462z"/>
	<path d="M-199.7,468.1c-0.1-0.2-0.1-0.5-0.2-0.7c-0.1-0.2-0.2-0.3-0.3-0.5c-0.2-0.2-0.3-0.4-0.5-0.6
		c-0.2-0.1-0.3-0.2-0.5-0.3c-0.2-0.1-0.3-0.2-0.5-0.3c-0.3-0.1-7.2-2.6-13.6-2.9l-0.9,1.7h0l2.3,18l-2.7,4.8l-2.7-4.8l2.3-18h0
		l-0.9-1.7c-6.3,0.3-13.2,2.8-13.6,2.9c-0.2,0.1-0.4,0.2-0.5,0.3c-0.2,0.1-0.3,0.2-0.5,0.3c-0.2,0.2-0.4,0.4-0.5,0.6
		c-0.1,0.1-0.2,0.3-0.3,0.4c-0.1,0.2-0.2,0.5-0.2,0.7c0,0.2-0.1,0.3-0.1,0.4l-2.7,24.7c-0.2,1.9,1.1,3.6,3,3.8c0.1,0,0.3,0,0.4,0
		c1.7,0,3.2-1.3,3.4-3.1l2.5-22.5c0.3-0.1,0.6-0.2,1-0.3v23.4l-2.7,33.9c-0.2,2.3,1.5,4.3,3.8,4.4c0.1,0,0.2,0,0.3,0
		c2.1,0,3.9-1.6,4.1-3.8l2.5-30.7c0.5,0.2,1.1,0.4,1.7,0.4s1.2-0.1,1.7-0.4l2.5,30.7c0.2,2.2,2,3.8,4.1,3.8c0.1,0,0.2,0,0.3,0
		c2.3-0.2,4-2.2,3.8-4.4l-2.7-33.9v-23.4c0.3,0.1,0.7,0.2,1,0.3l2.5,22.5c0.2,1.8,1.7,3.1,3.4,3.1c0.1,0,0.3,0,0.4,0
		c1.9-0.2,3.2-1.9,3-3.8l-2.7-24.7C-199.5,468.3-199.6,468.2-199.7,468.1z"/>
	<polygon points="-188.9,500.3 -168.9,480.4 -167.6,481.7 -165.5,475.5 -171.7,477.6 -170.4,478.9 -190.3,498.9 	"/>
	<rect x="-193.7" y="510.3" width="8.1" height="22.7"/>
	<rect x="-181.6" y="500.1" width="8.1" height="32.9"/>
	<rect x="-169.5" y="487.6" width="8.1" height="45.4"/>
</g>
</svg>
