<svg version="1.1" id="svg-counter-icn-4" xmlns="http://www.w3.org/2000/svg" xmlns:xlink="http://www.w3.org/1999/xlink" x="0px" y="0px"
	 viewBox="-266.9 461 63.8 64" style="enable-background:new -266.9 461 63.8 64;" xml:space="preserve">
<g>
	<g>
		<path d="M-249,469c-2.1,2.9-3.7,6.5-4.9,10.4h10.3c0.4-3.8,1-7.4,1.8-10.4H-249z"/>
		<path d="M-243.8,481.5h-10.7c-0.8,3.3-1.3,6.8-1.3,10.4h11.5C-244.3,488.4-244.1,484.9-243.8,481.5z"/>
		<path d="M-241.7,481.5c-0.3,3.2-0.5,6.7-0.5,10.4h7.3v-10.4H-241.7z"/>
		<path d="M-241.8,517c-0.8-3.1-1.4-6.6-1.8-10.4h-10.3c1.2,4,2.9,7.5,4.9,10.4H-241.8z"/>
		<path d="M-242.2,494c0,3.8,0.2,7.3,0.5,10.4h6.8V494H-242.2z"/>
		<path d="M-241.5,506.6c0.5,4.1,1.1,7.6,1.8,10.4h4.7v-10.4H-241.5z"/>
		<path d="M-239.6,469c-0.7,2.8-1.4,6.3-1.8,10.4h6.6V469H-239.6z"/>
		<path d="M-254.5,504.5h10.7c-0.3-3.4-0.5-6.9-0.5-10.4h-11.5C-255.7,497.7-255.3,501.2-254.5,504.5z"/>
		<path d="M-256.1,506.6h-7.8c1.9,4,4.6,7.5,7.8,10.4h4.6C-253.4,514-255,510.5-256.1,506.6z"/>
		<path d="M-241.2,466.9c0.7-2.3,1.5-4.2,2.4-5.7c-0.3,0-0.5,0.1-0.8,0.1c-2.8,1-5.5,2.9-7.7,5.6L-241.2,466.9
			L-241.2,466.9z"/>
		<path d="M-251.5,469h-4.6c-3.3,2.9-5.9,6.4-7.8,10.4h7.8C-255,475.5-253.4,472-251.5,469z"/>
		<path d="M-239,519.1c0.9,3,2,5,3,5.9c0.4,0,0.7,0,1.1,0v-5.9H-239z"/>
		<path d="M-247.4,519.1c2.3,2.6,4.9,4.5,7.7,5.6c0.3,0,0.5,0.1,0.8,0.1c-0.9-1.4-1.7-3.4-2.4-5.7L-247.4,519.1
			L-247.4,519.1z"/>
		<path d="M-250,519.1h-3.4c2.1,1.5,4.4,2.7,6.8,3.7C-247.8,521.7-248.9,520.5-250,519.1z"/>
		<path d="M-246.6,463.2c-2.4,1-4.7,2.2-6.8,3.7h3.4C-248.9,465.5-247.8,464.3-246.6,463.2z"/>
		<path d="M-256.6,481.5h-8.2c-1.3,3.3-2,6.8-2.1,10.4h9C-257.8,488.3-257.4,484.8-256.6,481.5z"/>
		<path d="M-257.9,494h-9c0.1,3.7,0.9,7.2,2.1,10.4h8.2C-257.4,501.2-257.8,497.7-257.9,494z"/>
		<path d="M-236,461c-1,0.9-2.1,2.9-3,5.9h4.1V461C-235.3,461-235.7,461-236,461z"/>
	</g>
	<g>
		<path d="M-209,497.9l5.9-0.7v-8.4l-5.9-0.7c-0.6-3.2-1.9-6.2-3.6-8.8l3.7-4.7l-3-3l-3-2.9l-2.1,1.6l-2.6,2.1
			c-2.6-1.7-5.6-3-8.8-3.6l-0.7-5.9h-4.2v13.5c4.5,0,8.6,1.8,11.6,4.8c0,0,0.1,0.1,0.1,0.1c0,0,0.1,0.1,0.1,0.1
			c2.9,3,4.8,7.1,4.8,11.6c0,9.2-7.4,16.6-16.6,16.6v13.5h4.2l0.7-5.9c0.4-0.1,0.8-0.2,1.2-0.3c2.7-0.7,5.3-1.8,7.6-3.4l4.7,3.7l2-2
			l3.9-3.9l-0.8-1l-2.9-3.7c0.2-0.3,0.3-0.5,0.5-0.8C-210.7,503.4-209.6,500.8-209,497.9z"/>
		<path d="M-219.8,493c0-7.4-6-13.4-13.4-13.4v7.1c3.5,0,6.3,2.8,6.3,6.3c0,3.5-2.8,6.3-6.3,6.3v7.1
			C-225.8,506.4-219.8,500.4-219.8,493z"/>
	</g>
</g>
</svg>
