<svg version="1.1" id="icon-email-svg" xmlns="http://www.w3.org/2000/svg" xmlns:xlink="http://www.w3.org/1999/xlink" x="0px" y="0px"
	 viewBox="-412.9 251.1 50.4 36" style="enable-background:new -412.9 251.1 50.4 36;" xml:space="preserve">
<g>
	<path class="st0" d="M-386.8,277.3c-0.3,0.3-0.8,0.5-1.3,0.5c-0.5,0-0.9-0.2-1.3-0.5l-23.4-23.4c-0.1,0.3-0.2,0.6-0.2,0.9v28.8
		c0,2,1.6,3.6,3.6,3.6h43.2c2,0,3.6-1.6,3.6-3.6v-28.8c0-0.5-0.1-1-0.3-1.4L-386.8,277.3z"/>
	<path class="st0" d="M-388,273.4l22.3-22.3c-0.1,0-0.2-0.1-0.4-0.1h-43.2c-0.3,0-0.6,0.1-0.9,0.2L-388,273.4z"/>
</g>
</svg>
