<svg version="1.1" id="icon-content-phone" xmlns="http://www.w3.org/2000/svg" xmlns:xlink="http://www.w3.org/1999/xlink" x="0px" y="0px"
	 viewBox="0 0 29.3 48.1" enable-background="new 0 0 29.3 48.1" xml:space="preserve">
<g>
	<defs>
		<rect id="SVGID_1_" y="0" width="29.3" height="48.1"/>
	</defs>
	<clipPath id="SVGID_2_">
		<use xlink:href="#SVGID_1_"  overflow="visible"/>
	</clipPath>
	<path clip-path="url(#SVGID_2_)" fill="#ACB7C3" d="M26.4,0H2.9C1.3,0,0,1.3,0,2.9v42.3c0,1.6,1.3,2.9,2.9,2.9h23.5
		c1.6,0,2.9-1.3,2.9-2.9V2.9C29.3,1.3,28,0,26.4,0 M13.4,4.3H16c0.6,0,1,0.5,1,1c0,0.6-0.5,1-1,1h-2.6c-0.6,0-1-0.5-1-1
		C12.4,4.7,12.9,4.3,13.4,4.3 M4.6,10.4h20.2v18.1H4.6V10.4z M7.7,44.2H5.1c-0.6,0-1-0.5-1-1s0.5-1,1-1h2.6c0.6,0,1,0.5,1,1
		S8.2,44.2,7.7,44.2 M7.7,39.5H5.1c-0.6,0-1-0.5-1-1s0.5-1,1-1h2.6c0.6,0,1,0.5,1,1S8.2,39.5,7.7,39.5 M7.7,34.8H5.1
		c-0.6,0-1-0.5-1-1s0.5-1,1-1h2.6c0.6,0,1,0.5,1,1S8.2,34.8,7.7,34.8 M16,44.2h-2.6c-0.6,0-1-0.5-1-1s0.5-1,1-1H16c0.6,0,1,0.5,1,1
		S16.5,44.2,16,44.2 M16,39.5h-2.6c-0.6,0-1-0.5-1-1s0.5-1,1-1H16c0.6,0,1,0.5,1,1S16.5,39.5,16,39.5 M16,34.8h-2.6
		c-0.6,0-1-0.5-1-1s0.5-1,1-1H16c0.6,0,1,0.5,1,1S16.5,34.8,16,34.8 M24.3,44.2h-2.6c-0.6,0-1-0.5-1-1s0.5-1,1-1h2.6
		c0.6,0,1,0.5,1,1S24.9,44.2,24.3,44.2 M24.3,39.5h-2.6c-0.6,0-1-0.5-1-1s0.5-1,1-1h2.6c0.6,0,1,0.5,1,1S24.9,39.5,24.3,39.5
		 M24.3,34.8h-2.6c-0.6,0-1-0.5-1-1s0.5-1,1-1h2.6c0.6,0,1,0.5,1,1S24.9,34.8,24.3,34.8"/>
</g>
</svg>
