<svg version="1.1" id="icon-content-email" xmlns="http://www.w3.org/2000/svg" xmlns:xlink="http://www.w3.org/1999/xlink" x="0px" y="0px"
	 viewBox="0 0 50.4 36.2" enable-background="new 0 0 50.4 36.2" xml:space="preserve">
<g>
	<defs>
		<rect id="SVGID_1_" y="0" width="50.4" height="36.2"/>
	</defs>
	<clipPath id="SVGID_2_">
		<use xlink:href="#SVGID_1_"  overflow="visible"/>
	</clipPath>
	<path clip-path="url(#SVGID_2_)" fill="#ACB7C3" d="M26.2,26.3c-0.3,0.3-0.8,0.5-1.3,0.5s-0.9-0.2-1.3-0.5L0.2,2.9
		C0.1,3.2,0,3.5,0,3.8v28.8c0,2,1.6,3.6,3.6,3.6h43.2c2,0,3.6-1.6,3.6-3.6V3.8c0-0.5-0.1-1-0.3-1.4L26.2,26.3z"/>
	<path clip-path="url(#SVGID_2_)" fill="#ACB7C3" d="M25,22.4L47.3,0.1c-0.1,0-0.2-0.1-0.4-0.1H3.7C3.4,0,3.1,0.1,2.8,0.2L25,22.4z"
		/>
</g>
</svg>
