<svg version="1.1" id="icon-user-svg" xmlns="http://www.w3.org/2000/svg" xmlns:xlink="http://www.w3.org/1999/xlink" x="0px" y="0px"
	 viewBox="-553 258.1 40 37.9" style="enable-background:new -553 258.1 40 37.9;" xml:space="preserve">
<path class="st0" d="M-527.7,282.2c0,0-0.2-2,0-3.1c2.8-2.5,3.1-5.3,2.9-12.7c-0.2-6.6-5-8.4-8.2-8.4s-8.1,1.7-8.2,8.4
	c-0.2,7.4,0.1,10.2,2.9,12.7c0.2,1.1,0,3.1,0,3.1s-14.7,3.2-14.7,9.4c0,2.7,0,3.9,0,4.4h20h20c0-0.5,0-1.6,0-4.4
	C-513,285.4-527.7,282.2-527.7,282.2z"/>
</svg>
