<svg version="1.1" id="icon-phone-svg" xmlns="http://www.w3.org/2000/svg" xmlns:xlink="http://www.w3.org/1999/xlink" x="0px" y="0px"
	 viewBox="-445.6 251 29.2 48" style="enable-background:new -445.6 251 29.2 48;" xml:space="preserve">
<g>
	<path class="st0" d="M-419.3,251h-23.5c-1.6,0-2.9,1.3-2.9,2.9v42.3c0,1.6,1.3,2.9,2.9,2.9h23.5c1.6,0,2.9-1.3,2.9-2.9v-42.3
		C-416.4,252.3-417.7,251-419.3,251z M-432.3,255.3h2.6c0.6,0,1,0.5,1,1c0,0.6-0.5,1-1,1h-2.6c-0.6,0-1-0.5-1-1
		C-433.3,255.7-432.8,255.3-432.3,255.3z M-441.1,261.4h20.2v18.1h-20.2V261.4z M-438,295.2h-2.6c-0.6,0-1-0.5-1-1s0.5-1,1-1h2.6
		c0.6,0,1,0.5,1,1S-437.5,295.2-438,295.2z M-438,290.5h-2.6c-0.6,0-1-0.5-1-1s0.5-1,1-1h2.6c0.6,0,1,0.5,1,1
		S-437.5,290.5-438,290.5z M-438,285.8h-2.6c-0.6,0-1-0.5-1-1s0.5-1,1-1h2.6c0.6,0,1,0.5,1,1S-437.5,285.8-438,285.8z M-429.7,295.2
		h-2.6c-0.6,0-1-0.5-1-1s0.5-1,1-1h2.6c0.6,0,1,0.5,1,1S-429.2,295.2-429.7,295.2z M-429.7,290.5h-2.6c-0.6,0-1-0.5-1-1s0.5-1,1-1
		h2.6c0.6,0,1,0.5,1,1S-429.2,290.5-429.7,290.5z M-429.7,285.8h-2.6c-0.6,0-1-0.5-1-1s0.5-1,1-1h2.6c0.6,0,1,0.5,1,1
		S-429.2,285.8-429.7,285.8z M-421.4,295.2h-2.6c-0.6,0-1-0.5-1-1s0.5-1,1-1h2.6c0.6,0,1,0.5,1,1S-420.8,295.2-421.4,295.2z
		 M-421.4,290.5h-2.6c-0.6,0-1-0.5-1-1s0.5-1,1-1h2.6c0.6,0,1,0.5,1,1S-420.8,290.5-421.4,290.5z M-421.4,285.8h-2.6
		c-0.6,0-1-0.5-1-1s0.5-1,1-1h2.6c0.6,0,1,0.5,1,1S-420.8,285.8-421.4,285.8z"/>
</g>
</svg>
