<svg version="1.1" id="svg-logo" xmlns="http://www.w3.org/2000/svg" xmlns:xlink="http://www.w3.org/1999/xlink" x="0px" y="0px"
	 viewBox="0 0 95.6 19.7" style="enable-background:new 0 0 95.6 19.7;" xml:space="preserve">

<path class="st0" d="M13.2,16.9c-0.1-0.5-0.1-1,0-1.5c-2.4,1.1-5.2,0.4-6.8-1.6c-1-1.2-2.6-1.6-4-1.1C0.9,13.2,0,14.6,0,16.1
	c0,1.5,1,2.9,2.4,3.4c1.4,0.5,3,0.1,4-1.1C8,16.4,10.8,15.8,13.2,16.9z"/>
<path class="st0" d="M18.7,12.6c-2.6-0.4-4.5-2.5-4.8-5.1c-0.4,0.3-0.8,0.6-1.3,0.7c2.1,1.5,2.9,4.3,2,6.7c-0.5,1.4-0.1,3,1.1,4
	c1.2,1,2.8,1.1,4.1,0.4c1.3-0.8,2-2.3,1.7-3.8C21.3,14,20.2,12.8,18.7,12.6z"/>
<path class="st0" d="M7.4,4.8c0.9,2.4,0.1,5.2-2,6.7c0.5,0.2,0.9,0.4,1.3,0.7c0.3-2.6,2.2-4.7,4.8-5.1c1.5-0.3,2.7-1.4,2.9-2.9
	c0.3-1.5-0.4-3-1.8-3.8s-3-0.6-4.1,0.4C7.3,1.8,6.9,3.4,7.4,4.8z"/>
<g>
	<path class="st0" d="M95.2,4.2c0.3-0.3,0.4-0.7,0.3-1.2c-0.1-0.4-0.4-0.7-0.8-0.8c-0.4-0.1-0.9,0-1.2,0.3l-6,6l-6-6
		c-0.3-0.3-0.7-0.4-1.2-0.3c-0.4,0.1-0.7,0.4-0.8,0.8s0,0.9,0.3,1.2l6,6l-6,6c-0.3,0.3-0.4,0.7-0.3,1.2c0.1,0.4,0.4,0.7,0.8,0.8
		c0.4,0.1,0.9,0,1.2-0.3l6-6l6,6c0.3,0.3,0.7,0.4,1.2,0.3c0.4-0.1,0.7-0.4,0.8-0.8c0.1-0.4,0-0.9-0.3-1.2l-6-6L95.2,4.2z"/>
	<path class="st0" d="M37.2,10.2V9H25.8c0.5-2.1,2.1-3.8,4.2-4.3c2.1-0.5,4.3,0.3,5.7,1.9l0.9-0.9L37.4,5c-2.2-2.5-5.7-3.5-8.9-2.3
		c-3.2,1.2-5.2,4.2-5.2,7.5c0,3.4,2.1,6.4,5.2,7.5c3.2,1.2,6.7,0.3,8.9-2.3l-0.8-0.8l-0.9-0.9c-1.4,1.7-3.6,2.5-5.7,2
		c-2.1-0.5-3.8-2.2-4.2-4.3h11.4V10.2z"/>
	<path class="st0" d="M62.1,2.2H49.5v2.4H54c0.2,0,0.3,0.1,0.5,0.2c0.1,0.1,0.2,0.3,0.2,0.5v13h1.2H57v-13c0-0.2,0.1-0.3,0.2-0.5
		c0.1-0.1,0.3-0.2,0.5-0.2h4.4V2.2z"/>
	<path class="st0" d="M77.7,9H66.3c0.5-2.1,2.1-3.8,4.2-4.3c2.1-0.5,4.3,0.3,5.7,1.9l0.9-0.9L77.9,5c-2.2-2.5-5.7-3.5-8.9-2.3
		c-3.2,1.2-5.2,4.2-5.2,7.5c0,3.4,2.1,6.4,5.2,7.5c3.2,1.2,6.7,0.3,8.9-2.3l-0.8-0.8l-0.9-0.9c-1.4,1.7-3.6,2.5-5.7,2
		c-2.1-0.5-3.8-2.2-4.2-4.3h11.4v-1.2V9z"/>
	<path class="st0" d="M42.7,2.2h-1.2h-1.2v8c0,2.1,0.9,4.2,2.4,5.7c1.5,1.5,3.6,2.4,5.7,2.4H49v-1.2v-1.2h-0.6c-1.5,0-2.9-0.6-4-1.7
		c-1.1-1.1-1.7-2.5-1.7-4V2.2z"/>
</g>
</svg>
